<svg xmlns="http://www.w3.org/2000/svg" viewBox="0 0 348.38 953.12">
    <defs>
        <style>.cls-1{fill:#c2c1c1;}</style>
    </defs>
    <title>Element 39Körper_Umriss</title>
    <g id="Ebene_2" data-name="Ebene 2">
        <g id="Mann">
            <path class="cls-1" d="M348.25,538.76c-.64-3.39-.83-10.26-.33-12.26.78-3.13.09-8.84.06-9.08a2.34,2.34,0,0,0-.13-.54c-1.15-3.2-11.25-31.24-15.07-39.84-4-9-12.61-63.11-11.62-77.64,1-14.72-6-43.12-10.77-52.47a27.46,27.46,0,0,1-3.11-14.51c4.51-16.32-1-45.52-2-50.63,5.21-20.51,3.35-36.81,3.1-38.74-.56-16.13-3.49-29.9-8.71-40.94a61.73,61.73,0,0,0-12.11-17.34l-1-1.07c-4.75-5.17-24.69-9.28-29.42-10.19-3.41-1.83-34-18.4-42.55-29.17-7.8-9.8-7.12-23.32-6.86-26.28,2.26-3.91,3.82-12.62,4.74-19.18a5.42,5.42,0,0,0,1.71.28l.5,0c3.3-.29,5.06-3.16,5.6-5.63.52-1.15,3.07-6.72,4.61-10,2-4.14,3-13.87,3.06-14l0-.14V69.3c0-1.19-.61-11.66-7.36-12.47a9.9,9.9,0,0,0-1.31-.08,9.54,9.54,0,0,0-1.32.09c.77-6.64.86-18.53-4.67-33C204.25.27,174.79,0,174.5,0h-.62c-.3,0-29.75.27-38.75,23.83-5.53,14.48-5.44,26.38-4.68,33a9.44,9.44,0,0,0-1.32-.09,9.65,9.65,0,0,0-1.3.08c-7,.84-7.35,12.1-7.36,12.57v.14l0,.14c.11,1,1.18,9.93,3.06,13.87,1.52,3.2,4.08,8.78,4.61,10,.54,2.47,2.3,5.34,5.59,5.63a4.36,4.36,0,0,0,.51,0,5.47,5.47,0,0,0,1.71-.28c.91,6.56,2.48,15.27,4.74,19.18.26,3,1,16.47-6.87,26.28-8.57,10.76-39.13,27.34-42.54,29.17-4.74.91-24.67,5-29.42,10.19l-1,1.07a61.53,61.53,0,0,0-12.11,17.34c-5.23,11-8.15,24.79-8.7,40.87-.22,1.6-2.19,18,3.09,38.81-1,5.11-6.56,34.33-2.06,50.58A27.22,27.22,0,0,1,38,346.93c-4.76,9.35-11.77,37.75-10.76,52.47,1,14.53-7.64,68.68-11.63,77.64C11.76,485.68,1.67,513.7.53,516.86a2.74,2.74,0,0,0-.13.55c-.12,1-.68,6.15,0,9.09.5,2,.32,8.88-.32,12.26-.7,3.64,1.64,8.71,2.55,10.51L4,554.69l0,.11,0,.11c.39,1.1,2.49,6.68,4.67,8.67.85.77,3.17,5.26,4.72,8.82a2.49,2.49,0,0,0,.59.82,5,5,0,0,0,3.3,1.26c.21,0,.42,0,.62,0a5.36,5.36,0,0,0,1.88-.63,13.27,13.27,0,0,0,3.87,4,2.47,2.47,0,0,0,1.37.41,2.51,2.51,0,0,0,.81-.14,9.91,9.91,0,0,0,5.45-4.79,7.41,7.41,0,0,0,.54-2,6.72,6.72,0,0,0,1.69.38h.17a2.53,2.53,0,0,0,1-.2c1.6-.66,4.36-2.67,4.36-6v-.92a14.27,14.27,0,0,0-.73-5.73,11.93,11.93,0,0,0-.83-6.61,15.6,15.6,0,0,0,1.37-6.79c1.26-1.85,3.55-5.84,3.23-10,1-3,5.64-16.82,6.58-21.64l.22-1.14c1-5,2.13-10.62-.63-21.93.48-2.43,3.85-16.6,22.81-49.71l.05-.09,0-.09c2.12-4.75,20.56-47,16-64.48-4.19-16,.37-27.87.42-28l0-.07,0-.07c.12-.39,2.11-6.78,3.84-13,2.26,10.2,5.73,23.94,9.14,30.34-.6,3.25-2,12.84.77,19.4-2.59,4.13-9.69,16.41-8.52,25.23-.6,2.35-1.91,6.45-3.48,8.66-2.82,3.94-3.54,22.69-3.66,26.61-.1,1.09-1.53,15.31-3.25,22.79-1.93,8.43-2.51,46.63-1.58,54.59-.29,3-3.5,35.81-4.13,40.47l-.67,5.06v.25c0,.48-.21,48.58,11.42,84,.26,1,4.16,17.8.11,42.41-4.25,25.81-6.91,62.94-3.82,77.92,3,14.44,21.38,79.92,21.56,80.55l0,.09,0,.09c3.1,7.92,11,30.77,10.5,41.3a182.88,182.88,0,0,1-1.94,20.22c-.71,2.46-3.31,8.87-7.24,10.62-6.69,3-10.82,11.93-11.27,12.94a2.22,2.22,0,0,0-.21.87c-.07,1.34-.23,8.07,3.3,10.79.81.62,2.16,1.67,23,2.24,11.53.32,23.61.33,25.92.33h1.25l.19,0c1-.2,9.77-2.07,12.92-6.79a26.18,26.18,0,0,0,3.73-9.7,2.48,2.48,0,0,0,0-.86c-.81-4-2.87-15.37-2.61-20,.31-5.7,2.58-15.82,2.6-15.92a2.48,2.48,0,0,0-.12-1.5c-.09-.21-8.41-20.71-6.82-38.83a107.11,107.11,0,0,0,.43-12.26c-.1-7.25-.18-14.08,6.54-51.92l0-.11V795c0-.35,1.9-35.2-8.75-78.81l0-.13-.05-.13a18.08,18.08,0,0,1-.42-10.36c2.19-7.37,10.38-41.8,10.59-63.08,1-6.7,8.48-59.88,7-70.81-1.14-8.34-.38-21.67,0-26.74l.73-.07c.38,5.67,1.07,18.63,0,26.81-1.52,11.19,6.52,67.57,7,70.75.22,21.35,8.41,55.78,10.6,63.14a17.93,17.93,0,0,1-.45,10.45h0v0l0,.09,0,.1c-10.72,43.87-8.75,78.48-8.73,78.82v.1l0,.11c6.72,37.78,6.63,44.61,6.54,51.85a107.33,107.33,0,0,0,.43,12.27c1.59,18.08-6.74,38.62-6.82,38.83a2.43,2.43,0,0,0-.12,1.51c.23,1.05,2.3,10.45,2.6,15.91.26,4.7-1.86,16.32-2.62,20a2.74,2.74,0,0,0,0,.85,25.89,25.89,0,0,0,3.73,9.71c3.35,5,13,6.79,13.07,6.81l.17,0H200c2.21,0,13.81,0,25.1-.29,22.52-.56,23.92-1.64,24.76-2.29,3.53-2.73,3.37-9.46,3.3-10.78a2.4,2.4,0,0,0-.2-.86c-.46-1-4.61-10-11.28-13-3.75-1.66-6.35-7.6-7.24-10.59a180.16,180.16,0,0,1-1.95-20.25c-.61-12.37,10.06-40.16,10.51-41.33l0-.09,0-.11,0-.09c1.91-6.78,18.67-66.63,21.52-80.41,3.1-15,.43-52.1-3.81-77.92-4-24.55-.22-41.07.1-42.38,11.7-35.68,11.43-83.66,11.43-84.13v-.24l-.67-5c-.59-4.45-3.53-34.4-4.13-40.47.94-8,.36-46.15-1.58-54.59-1.67-7.29-3.08-21.09-3.25-22.76-.17-5.38-.93-22.84-3.65-26.64-1.82-2.55-3.12-7.23-3.49-8.66,1.17-8.82-5.93-21.1-8.51-25.23,2.76-6.56,1.36-16.15.76-19.4,3.42-6.4,6.88-20.13,9.15-30.33,1.78,6.39,3.82,12.93,3.85,13l0,.07,0,.08c0,.11,4.59,11.93.4,27.93-4.7,17.91,15.14,62.63,16,64.53l0,.09.05.09c18.94,33.07,22.31,47.23,22.78,49.66-2.75,11.31-1.62,16.95-.63,21.93l.23,1.15c.94,4.85,5.57,18.65,6.58,21.63-.33,4.16,2,8.15,3.23,10a15.63,15.63,0,0,0,1.36,6.79,12.11,12.11,0,0,0-.83,6.61,14.45,14.45,0,0,0-.73,5.73v.93c0,3.28,2.75,5.3,4.38,6a2.48,2.48,0,0,0,1,.19h.18a6.72,6.72,0,0,0,1.69-.38,6.72,6.72,0,0,0,.54,2,9.84,9.84,0,0,0,5.43,4.78,2.43,2.43,0,0,0,.83.15,2.47,2.47,0,0,0,1.37-.41,13.27,13.27,0,0,0,3.87-4,5.24,5.24,0,0,0,1.87.63c.21,0,.42,0,.63,0a5,5,0,0,0,3.29-1.25,2.68,2.68,0,0,0,.59-.83c1.56-3.56,3.88-8,4.73-8.82,2.39-2.17,4.67-8.68,4.69-8.75l0-.1,0-.1,1.26-5.36C346.61,547.47,348.94,542.4,348.25,538.76Zm-7.13,8.46a2.32,2.32,0,0,0-.22.61l-1.29,5.49c-.83,2.26-2.41,5.75-3.29,6.56-1.75,1.58-4.18,6.59-5.47,9.45a4.42,4.42,0,0,1-.9-1.09,2.48,2.48,0,0,0-2.13-1.18l-.28,0a2.51,2.51,0,0,0-2.11,1.78,10.76,10.76,0,0,1-2.4,3.91,3.87,3.87,0,0,1-1.39-1.49,2.76,2.76,0,0,1,.16-2.24c2.37-5.6,3.4-13.77,3.51-14.68a2.49,2.49,0,0,0-2.05-2.76,2.12,2.12,0,0,0-.44,0,2.5,2.5,0,0,0-2.44,2c-1,4.59-2.46,10-3.44,11.42a4.35,4.35,0,0,1-1.89,1.59,1.5,1.5,0,0,1-.72-1v-.95c0-1.84,0-3.16.54-4.19a2.43,2.43,0,0,0,.21-1.85,7,7,0,0,1,.71-4.84,2.52,2.52,0,0,0,.12-2.45c-.76-1.54-1.71-4.41-1.34-5.68a2.48,2.48,0,0,0-.44-2.26c-.92-1.18-3.23-4.85-2.81-7.76a2.68,2.68,0,0,0-.11-1.16c-.06-.16-5.64-16.61-6.58-21.5l-.23-1.17c-.91-4.54-1.94-9.68.7-20.25a2.66,2.66,0,0,0,.06-.89c-.07-.56-1.8-14.08-23.41-51.83-5.59-12.54-19.17-47.67-15.66-61.09,4.42-16.84,0-29.5-.55-30.92-1.95-6.25-6.2-20.68-6.2-23.21a2.42,2.42,0,0,0-.21-1,114.6,114.6,0,0,1-1.14-12,131.68,131.68,0,0,1,.08-14.2c.07-1.76.24-3.51.4-5.21l.18-1.88c.08-.66.17-1.31.25-2,.2-1.67.42-3.39.73-5v-.07a123.9,123.9,0,0,1,3.15-13.85l.5-1.81-1.78-.61-.25-.09-1.76-.6-.73,1.71a16.28,16.28,0,0,1-2.4,3.85,24.72,24.72,0,0,1-3.3,3.34,28.48,28.48,0,0,1-3.92,2.7l0,0-.05,0c-.37.23-.81.44-1.27.67L247,278c-.45.21-.91.4-1.4.6l-.87.37,1.56,3.68.82-.33c.53-.21,1.07-.43,1.61-.67l.05,0,0,0,.76-.36a16.59,16.59,0,0,0,1.61-.84,31.75,31.75,0,0,0,4.51-3l0,0h0l.45-.38c-.32,1.46-.62,3-.88,4.49-.36,1.77-.6,3.55-.84,5.27-.09.65-.18,1.31-.28,2v.09c-.06.63-.13,1.26-.2,1.89-.19,1.77-.39,3.59-.48,5.42a134.44,134.44,0,0,0-.27,14.66,118.52,118.52,0,0,0,1.09,12.95c-2.33,12-7.26,33.61-11.24,40.25a2.48,2.48,0,0,0-.3,1.82c0,.11,2.56,12.37-.74,18.24a2.5,2.5,0,0,0,.11,2.62c2.76,4.14,9.66,16.41,8.45,23.34a2.49,2.49,0,0,0,0,1c.17.73,1.7,7.13,4.4,10.91,1.23,1.72,2.41,13.79,2.73,24V446c.16,1.62,1.6,15.8,3.36,23.47s2.38,46.38,1.46,53.11a2.93,2.93,0,0,0,0,.53v.1c.36,3.69,3.54,36.11,4.18,40.87l.64,4.81c0,2.72-.13,48.7-11.22,82.44v.05l0,.06c-.05.18-4.61,17.86-.22,44.55,4.18,25.37,6.84,61.67,3.86,76.08-2.69,13-18.23,68.65-21.32,79.68l-.1.35c-.84,2.15-11.47,29.82-10.8,43.27a183.54,183.54,0,0,0,2.05,21l0,.08,0,.08c.3,1.1,3.17,10.89,10.06,14,3.73,1.66,7,6.88,8.53,10,0,2.42-.42,5.16-1.26,6-2.82.91-23.07,1.63-46.62,1.65-2.14-.46-7.91-2.16-9.56-4.62a21.44,21.44,0,0,1-2.87-7.25c.54-2.69,2.94-15.13,2.62-20.84a126.1,126.1,0,0,0-2.55-16c1.55-4,8.41-23,6.88-40.42a102.2,102.2,0,0,1-.41-11.77c.1-7.47.19-14.52-6.59-52.6-.11-2.21-1.51-35.68,8.55-77a22.62,22.62,0,0,0,.52-13.5c-2.15-7.23-10.21-41.1-10.4-62v-.13l0-.14c-2.35-16.37-8.19-60.78-7-69.55,1.27-9.29.36-24.19,0-29,5.16-2.7,9.69-8.77,13.49-18.09a108.79,108.79,0,0,0,5.52-18.65l.37-2-2-.37-1-.18-2-.36-.36,2C191.81,515.25,184.69,540,173,540c-13.69,0-18.14-33.79-18.18-34.13l-.24-2-2,.23-1,.12-2,.24.24,2a103.94,103.94,0,0,0,4.33,18.68c3.62,10.54,8.67,17.11,14.67,19.15-.39,5.32-1.2,19.09,0,28.1,1,7.52-3.11,42.08-7,69.39l0,.25,0,.12v.13c-.18,20.79-8.25,54.65-10.4,61.89a22.51,22.51,0,0,0,.5,13.42c10,41.11,8.7,74.45,8.58,77-6.78,38.14-6.69,45.19-6.59,52.66a107,107,0,0,1-.41,11.77c-1.53,17.38,5.32,36.38,6.88,40.42a127.69,127.69,0,0,0-2.56,16c-.31,5.7,2.09,18.15,2.62,20.84a21.09,21.09,0,0,1-2.87,7.25c-1.32,2-5.69,3.74-9.48,4.61-23.58,0-43.85-.72-46.69-1.64-.76-.77-1.29-3.3-1.26-6,1.5-3.09,4.79-8.31,8.53-10,7.06-3.14,10-13.56,10.07-14l0-.08,0-.09a183.31,183.31,0,0,0,2-21c.68-13.6-9.95-41.08-10.79-43.23-.79-2.84-18.55-66.17-21.43-80.07-3-14.41-.32-50.71,3.85-76.08,4.4-26.71-.18-44.4-.22-44.58l0-.06,0-.05C81.25,617.8,81,572,81,568.93l.65-4.87c.61-4.61,3.58-34.79,4.16-40.79l0-.13a2.72,2.72,0,0,0,0-.57c-.92-6.74-.33-45.33,1.46-53.12,1.86-8.15,3.35-23.37,3.36-23.52v-.12c.32-10.18,1.49-22.24,2.72-24,2.72-3.81,4.24-10.18,4.41-10.9a2.48,2.48,0,0,0,0-1c-1.22-7,5.69-19.21,8.45-23.35a2.48,2.48,0,0,0,.1-2.62c-2.74-4.88-1.46-14.83-.73-18.25a2.55,2.55,0,0,0-.3-1.81c-4.74-7.89-10.29-35.41-11.18-39.95a117.71,117.71,0,0,0,1.13-13.25A138,138,0,0,0,95,296c-.09-1.79-.29-3.61-.48-5.38-.07-.63-.14-1.26-.2-1.89v-.09l-.27-2c-.24-1.72-.49-3.5-.84-5.26-.26-1.52-.56-3-.88-4.49l.45.38h0l0,0a32.28,32.28,0,0,0,4.5,3,15.56,15.56,0,0,0,1.62.83l.76.37,0,0,0,0c.54.24,1.08.46,1.61.67l.82.33,1.55-3.68-.86-.37c-.49-.2-1-.39-1.4-.6l-.82-.41c-.46-.23-.9-.44-1.27-.67l0,0-.06,0a29.07,29.07,0,0,1-3.91-2.7,24.88,24.88,0,0,1-3.31-3.35,16.7,16.7,0,0,1-2.4-3.84L89,265.24l-1.76.6-.25.09-1.78.61.5,1.81a123.91,123.91,0,0,1,3.14,13.85v.07c.31,1.64.52,3.36.73,5,.08.65.16,1.3.25,2l.18,1.87c.16,1.7.33,3.46.39,5.17a130,130,0,0,1,.09,14.24c-.2,4.23-.56,8.08-1.1,11.75a2.45,2.45,0,0,0-.35,1.27c0,2.16-3.21,13.52-6.19,23.16h0c-.48,1.26-5,14-.57,31,3.32,12.65-8.75,45.42-15.63,61.05C45,476.53,43.29,490.05,43.23,490.61a2.18,2.18,0,0,0,.06.88c2.64,10.58,1.61,15.72.7,20.26l-.23,1.16c-.95,4.91-6.52,21.35-6.58,21.51a2.56,2.56,0,0,0-.11,1.16c.42,2.9-1.89,6.58-2.81,7.76a2.46,2.46,0,0,0-.44,2.26c.37,1.27-.59,4.14-1.35,5.68a2.52,2.52,0,0,0,.13,2.45,7,7,0,0,1,.69,4.87,2.5,2.5,0,0,0,.23,1.83c.56,1,.55,2.34.53,4.17v.95a1.51,1.51,0,0,1-.72,1A4.3,4.3,0,0,1,31.44,565c-1.07-1.56-2.66-7.62-3.45-11.42a2.49,2.49,0,0,0-2.44-2,2.73,2.73,0,0,0-.41,0,2.5,2.5,0,0,0-2.08,2.76c.05.36,1.07,8.91,3.52,14.69a2.73,2.73,0,0,1,.15,2.23,3.75,3.75,0,0,1-1.39,1.5,10.67,10.67,0,0,1-2.4-3.93,2.49,2.49,0,0,0-2.06-1.76l-.33,0a2.49,2.49,0,0,0-2.13,1.18,4.42,4.42,0,0,1-.89,1.09c-1.3-2.87-3.72-7.87-5.47-9.45-.73-.67-2.1-3.4-3.28-6.52l-1.3-5.54a2.82,2.82,0,0,0-.23-.61c-1.11-2.1-2.53-5.83-2.21-7.51.66-3.46,1.07-11.2.26-14.41a26.69,26.69,0,0,1,0-7c1.08-3,11.13-30.89,14.83-39.22,4.12-9.27,13.06-65.09,12.05-80-1-14,5.7-41,10.23-49.87,4.86-9.55,3.62-17.43,3.56-17.76l0-.11,0-.1c-4.61-16.38,2.14-48.65,2.21-49a2.53,2.53,0,0,0,0-1.16c-5.35-20.61-3.2-36.88-3.11-37.56l0-.1v-.12c1.22-35.95,14-49.37,19.45-55.09l.05-.05,1-1.09c2.91-3.18,18.13-7,27-8.73a2.5,2.5,0,0,0,.71-.25c1.41-.74,34.73-18.45,44.44-30.65,10-12.56,7.89-30.36,7.87-30.54a2.48,2.48,0,0,0-.43-1.11c-2.14-3.11-4.14-15.56-4.9-22.67A2.51,2.51,0,0,0,138,90.9h-.23a2.53,2.53,0,0,0-2.4,1.81c-.11.37-.61,1.46-1.14,1.46h-.07c-.65-.05-1.08-1.37-1.17-1.84a2.45,2.45,0,0,0-.18-.6l-.06-.12c-.93-2-3.25-7.12-4.72-10.19-1.06-2.23-2-7.68-2.58-12.07.15-3,1.27-7.33,3-7.54a5.85,5.85,0,0,1,.71,0,2.39,2.39,0,0,1,2.52,1.4l0,.1A2.48,2.48,0,0,0,134,64.89a2.79,2.79,0,0,0,.76-.11,2.51,2.51,0,0,0,1.64-3.1h0v0h0v0c-.06-.18-4.61-15.09,3.38-36C147.54,5.36,173.62,5,173.88,5h.62c.26,0,26.33.34,34.08,20.62,7.85,20.55,3.58,35.31,3.38,36l-.1.29v.17a2.51,2.51,0,0,0,1.74,2.72,2.33,2.33,0,0,0,.74.11,2.5,2.5,0,0,0,2.37-1.71l0-.06a2.44,2.44,0,0,1,2.52-1.37,6,6,0,0,1,.71,0c1.57.19,2.73,3.93,3,7.49-.32,2.65-1.33,9.49-2.59,12.12-1.46,3.07-3.79,8.15-4.72,10.19l0,.09a2.52,2.52,0,0,0-.2.66c-.08.44-.52,1.76-1.17,1.81h-.07c-.53,0-1-1.08-1.14-1.46a2.5,2.5,0,0,0-2.39-1.81h-.23a2.52,2.52,0,0,0-2.27,2.24c-.8,7.41-2.76,19.57-4.9,22.67a2.42,2.42,0,0,0-.42,1.08c0,.2-2.14,18,7.86,30.56,9.71,12.19,43,29.9,44.45,30.65a2.55,2.55,0,0,0,.7.25c8.91,1.69,24.13,5.56,27,8.73.31.34.67.72,1.07,1.13,5.45,5.73,18.23,19.14,19.45,55.16v.11l0,.11c0,.16,2.31,16.59-3.12,37.51a2.53,2.53,0,0,0,0,1.13c1.91,9,6,35.36,2.19,49l0,.12,0,.12c-.13.83-1.14,8.43,3.58,17.69,4.53,8.89,11.18,35.87,10.23,49.86-1,14.93,7.92,70.75,12,80,3.76,8.45,13.84,36.44,14.84,39.22.19,1.83.43,5.37,0,7-.8,3.21-.39,11,.27,14.4C343.66,541.38,342.24,545.11,341.12,547.22Z"/>
        </g>
    </g>
</svg>