<svg xmlns="http://www.w3.org/2000/svg" viewBox="0 0 155.34 225.45">
    <defs>
        <style>.cls-1{fill:#c2c1c1;}</style>
    </defs>
    <title>Lungensystem (2)</title>
    <g id="Ebene_2" data-name="Ebene 2">
        <g id="Mann">
            <g id="Organe">
                <g id="Lungensystem">
                    <path id="Lunge" class="cls-1" d="M155.11,214.94,145.43,172c-5.21-18.89-12.36-32.53-20.94-40L103,109.46a9.18,9.18,0,0,0-15.76,5.13l-2.66,20.29-.76-.93V101.56a6.42,6.42,0,1,0-12.83,0v32.1l-.36.41-2.56-19.48a9.18,9.18,0,0,0-15.76-5.13L30.84,132c-8.58,7.43-15.72,21.07-20.94,40L.22,214.94a8.6,8.6,0,0,0,13.48,8.81l1-.74a23.12,23.12,0,0,1,13.7-4.49H48.86a19.07,19.07,0,0,0,18.9-16.59L71,177a153.33,153.33,0,0,0,1.2-25.33l4.89-5.53,5.94,7.14A154.26,154.26,0,0,0,84.3,177l3.28,25a19.06,19.06,0,0,0,18.9,16.59h20.44a23.12,23.12,0,0,1,13.7,4.49l1,.74A8.59,8.59,0,0,0,155.11,214.94Z"/>
                    <path id="Luftröhre" class="cls-1" d="M98.11,35.81c0-6.28-6.92-11.61-10-18.48C84.41,9.2,84.07,0,78.06,0c-6.65,0-7.67,8.65-11.31,18C64.33,24.2,58,30.33,58,35.81c0,10.7,5.46,12.73,13.11,13.11v75.34a6.55,6.55,0,0,0,13.07,0V49C92.27,48.67,98.11,46.88,98.11,35.81Z"/>
                </g>
            </g>
        </g>
    </g>
</svg>