<svg xmlns="http://www.w3.org/2000/svg" viewBox="0 0 335.23 931.34">
    <defs>
        <style>.cls-1{fill:#c2c1c1;}.cls-2{opacity:0.5;}.cls-3{fill:#c1c1c1;}</style>
    </defs>
    <title>Gefäßsystem (2)</title>
    <g id="Ebene_2" data-name="Ebene 2">
        <g id="Mann">
            <g id="Organe">
                <path id="Gefäßsystem" class="cls-1" d="M154.39,0a7.43,7.43,0,0,1-1.19,2.29C142,12.67,135.08,25.16,132.71,39.88a61.3,61.3,0,0,0,0,17.48c.2,1.6.38,3.2.65,4.78.18,1,.52,2,.79,3.06l.66,0a17.35,17.35,0,0,0,.3-2.25,82.5,82.5,0,0,1,5-28.56,68.13,68.13,0,0,1,9.3-17.23,13.53,13.53,0,0,0,1-1.84l1,.76a9.82,9.82,0,0,1-.71,1.54c-5.8,8.63-9,18.15-10.89,28.18-3.1,16.78-1.26,33.27,3.21,49.59,2.57,9.38,5.46,18.67,7.91,28.07a172.52,172.52,0,0,1,5.54,52.15,7,7,0,0,0,2.11,5.91,30.87,30.87,0,0,1,2.39,2.91c1.08-1.4,2-2.58,2.88-3.73a45.78,45.78,0,0,1,10.78-9.49,4.36,4.36,0,0,0,1.7-2.54c1.79-8.95,3.48-17.92,5.14-26.89a15.25,15.25,0,0,0,.21-3.82c-1-16.84,2.59-32.95,8.44-48.7,2.33-6.3,4.68-12.58,7-18.88a7.68,7.68,0,0,0,.53-2.43c.37-17.82-2.39-35.09-10.29-51.39-1.5-3.08-3.44-6-5.17-8.92L181.15,6l.5-.5a5.77,5.77,0,0,1,1.45,1.2c3.4,5.68,7.14,11.2,10,17.12a80.51,80.51,0,0,1,7.33,26.72,6.16,6.16,0,0,0,.26,1.11c0,.1.2.15.66.45a112.7,112.7,0,0,0,.77-31l.57-.09c.19.27.51.51.56.79,2.62,15.42,3.2,30.79-1.2,46.05a19,19,0,0,0-.74,4.54c-.37,12.79-2.83,25.26-6.2,37.6-2.57,9.37-4.92,18.81-7.42,28.2-.93,3.5-.34,6.93.53,10.28,1.26,4.84,2.83,9.61,4.3,14.41.51,1.65,1.57,2.16,3.5,2a74.33,74.33,0,0,1,22.64,1.81c10.49,2.26,20.31,5.94,28.91,12.23,10.78,7.89,17.71,18.3,22,30.46,5.93,16.81,7.41,34.27,8,51.82.43,12.19.76,24.4.63,36.59-.14,12.55.77,24.94,4.93,36.88,2.36,6.81,5.51,13.38,8.27,20.06a290.56,290.56,0,0,1,12.93,37.88A234.39,234.39,0,0,1,312,450.13a182.23,182.23,0,0,0,.83,20.78A150.13,150.13,0,0,0,317,490.12a139.41,139.41,0,0,0,12.37,31.49c1.91,3.52,4.09,6.9,5.91,10.76a6.3,6.3,0,0,1-1.59-1.06c-8.17-10.59-14.64-22-18-34.84-.27-1-.75-2-1.12-3l-.81.11q1.43,16.5,2.86,33l-.69.16a17.59,17.59,0,0,1-1-3.07c-1.23-8.39-2.63-16.76-3.51-25.18-.85-8.24-1-16.54-1.74-24.79-.52-5.73-3.34-10.79-6.06-15.81-.1-.2-.38-.3-.89-.68a11.22,11.22,0,0,0-.18,1.85c1.82,17.25,3.42,34.53,5.66,51.73.61,4.72,3.13,9.22,4.77,13.82.23.67.43,1.34.65,2l-.52.26a5.91,5.91,0,0,1-.92-1c-3.69-6.85-7.33-13.71-9.39-21.24a98.78,98.78,0,0,1-3.79-25.12,72.84,72.84,0,0,0-10.37-36.58c-6.27-10.79-9.33-22.48-11.17-34.57-.88-5.71-2.62-11.3-3.42-17A213.49,213.49,0,0,1,271.67,368c-.2-7.22.75-14.47,1-21.72a13.9,13.9,0,0,0-1.17-4.8,118.51,118.51,0,0,1-6.25-29.76c-1.19-14.66-2-29.35-3.13-44a240.66,240.66,0,0,0-5.58-37.54c-2.42-10-5.68-19.72-12.26-28.06-7.54-9.55-17.67-14.58-30.22-15.06a19.12,19.12,0,0,0-2.82.21c-4.06.47-4.5,1-4.73,4.84-.39,6.77-4.09,11.88-9.34,16-2.74,2.16-5.84,3.88-8.78,5.8a15.1,15.1,0,0,0-1.84,1.17c-1.19,1-1,2.14,0,3.26a45.28,45.28,0,0,1,4,5.45c.57.9,1,1.4,2.18,1.15,3.87-.86,7.77-1.59,11.62-2.52,4.72-1.16,6.54-5.83,3.82-9.64-1.67-2.33-3.58-4.56-3.3-7.65.06-.6.16-1.19.24-1.79l.54-.15c.29.42.62.81.88,1.24,1.3,2.17,2.43,4.44,3.91,6.48a10.33,10.33,0,0,1,2.24,7.77,7.24,7.24,0,0,0,0,1.14c0,.11.14.21.34.47a5.37,5.37,0,0,0,3.64-3.7,30.18,30.18,0,0,0,.81-4.54c.33-2.35.52-4.73.95-7.06.21-1.19.54-2.54,2.4-2.67.06.33.21.6.13.8-1.61,4.07-1.48,8.31-1.42,12.55.06,4.87-1.46,6.75-6.42,8.22-1.9.56-4,.92-4.9,3.37,2.32,1,4.56,2.13,6.92,2.95,2,.68,3.51,1.75,4.11,3.64,1.25,3.89,2.57,7.71,5.2,11,.1.12,0,.35.07.66-2.6.58-2.76-2.24-5-3.12-.85,4.28-1.67,8.35-2.54,12.77-.47-.5-1.07-.84-1.1-1.24-.23-2.39-.39-4.79-.43-7.19a7,7,0,0,1,.62-2.22c1.39-4.37.46-6.91-3.6-9.31-2.6-1.55-5.36-2.57-8.59-2-2.51.43-5.09.48-7.62.85-.89.13-2.4.7-2.42,1.12-.06,1.25,0,3.07.87,3.7,3.21,2.44,4.73,5.83,6.61,9.08a32.88,32.88,0,0,0,3.84,4.87c6.91,7.92,10.85,16.79,9.41,27.3-.52,3.84-3.35,6.38-7.4,6.74a79.88,79.88,0,0,1-23.9-1.29c-2.67-.57-2.91-.61-3.32,2-1.07,6.85-2.21,13.71-2.89,20.61-2.28,22.92-2.38,45.92-2.08,68.92.07,5.52.35,11,.46,16.56,0,1.34.62,1.91,1.93,2.23,15.07,3.73,27.33,11.67,37.78,22.54,5.63,5.86,8.21,13,10.6,20.32,5.52,16.81,6.76,34.14,6.17,51.63-.5,15.15-3.23,30-6.67,44.76-3.53,15.16-7.38,30.26-11.3,45.34-1.48,5.68-1.79,11.42-2.06,17.18-.77,16.81-1.65,33.62-2,50.44A191.53,191.53,0,0,0,213.06,687c1.8,9.69,5.42,18.75,9.83,27.62A159.07,159.07,0,0,1,237,758.89a151.31,151.31,0,0,1,1.78,37.83A278.52,278.52,0,0,1,231.4,842c-4.15,16.74-8.82,33.36-13.28,50a3.32,3.32,0,0,1-1.28,1.81c1-9.28,3.56-18.26,5.53-27.34s4-18.13,5.93-27.19l-.68-.28a7.31,7.31,0,0,0-1.07,1.17q-6.17,10.94-12.25,21.9a6.22,6.22,0,0,0-.65,2.2c-1.54,11.53-3,23.07-4.59,34.6-.32,2.39-.18,4.56,1.48,6.54,2.52,3,4.89,6.12,7.4,9.12a31.48,31.48,0,0,1,6.69,11.76,13.49,13.49,0,0,1,.34,1.5,1,1,0,0,1-.36.85,9.58,9.58,0,0,1-.63-1.18,31.21,31.21,0,0,0-7.82-12.21c-2.32-2.21-4.41-4.63-6.63-6.94a5.37,5.37,0,0,0-1.11-.7c-.24.41-.65.8-.72,1.24-.46,2.79-.84,5.59-1.28,8.38a17.17,17.17,0,0,1-.5,1.87l-.55,0a3.39,3.39,0,0,1-.26-1.09c.41-4,1-7.92,1.25-11.88a11.56,11.56,0,0,0-.65-4.66,34.5,34.5,0,0,1-1.43-16.73,77.24,77.24,0,0,1,6-20.12,17.77,17.77,0,0,0,1.37-5.58c1.15-14.93,2.37-29.85,3.19-44.78a269.15,269.15,0,0,0-1.23-39.84,343.66,343.66,0,0,0-5.78-36.75,2.29,2.29,0,0,0-.92-1.4c-.27.67-.58,1.33-.78,2-1.15,3.82-2.19,7.68-3.43,11.47a38,38,0,0,0-1.29,16.6c1.76,14.8,3.71,29.58,5.63,44.36a247.26,247.26,0,0,1,2.42,38.62c-.17,6.21-1.11,12.4-1.71,18.59a5.35,5.35,0,0,1-.24.87H207v-1.69c0-10.15.53-20.32-.1-30.42-.74-11.65-2.48-23.24-3.83-34.86-1.47-12.7-3.11-25.38-4.41-38.1a41.45,41.45,0,0,1,2.16-17.47,155.22,155.22,0,0,0,4.33-17c.36-1.72-.17-3.69-.63-5.47-5.92-22.68-8.18-45.74-8.73-69.08-.42-17.74,2.84-34.87,7.11-52a70.37,70.37,0,0,0,1.49-12.4c1.17-18.14,2.41-36.28,3.26-54.43.73-15.34.81-30.7-1.48-46-2.72-18.16-7.89-35.56-18.43-51.14-2.95-4.35-6.16-8.51-10.56-11.81a126.19,126.19,0,0,1-9.86-8.8c-1.14-1.06-1.83-1.06-2.88.17-3.22,3.79-6.23,7.82-10,11.11-8.79,7.77-14.24,17.5-18.7,27.8a119.78,119.78,0,0,0-8.46,31.26c-1.78,12.83-1.91,25.69-1.53,38.63.4,13.14,4.07,25.6,7,38.23s6.27,25.38,8.95,38.15c3.06,14.5,3.11,29.24,2.7,44-.34,12.42-1.54,24.77-4.8,36.82a130.13,130.13,0,0,1-5.86,17c-1.36,3.22-.8,6.2-.35,9.25,1.49,10,3.27,20.07,6.84,29.67,1.77,4.74,3.69,9.4,3.58,14.52-.12,5.58-.13,11.17-.59,16.73-.87,10.62-2.15,21.22-3,31.84-1,11.65-2,23.31-2.34,35-.24,8.45.64,16.93,1,25.39a2.45,2.45,0,0,1-.4,1.61,21.82,21.82,0,0,1-.64-2.19c-3.25-17.22-2.85-34.52-1.24-51.84,1.51-16.37,3.19-32.73,4.56-49.11a38.54,38.54,0,0,0-2.82-18.7c-3.26-7.65-4.91-15.74-6.28-23.86-.41-2.44-.84-4.87-1.25-7.31l-.56-.12a7.66,7.66,0,0,0-1,1.62c-3.48,11.15-6.42,22.42-7.78,34a168.07,168.07,0,0,0-.5,34.81c1.55,17.19,5,34.08,8.68,50.92,3.22,14.64,6.75,29.22,10.06,43.84.2.9-.41,2-.53,3a5.44,5.44,0,0,0,.12,2c2,7.38,2.81,14.8.43,22.24a11.66,11.66,0,0,1-2.08,3.9q-4.4,5.28-9.07,10.33a30.4,30.4,0,0,0-6.79,11.48,7.25,7.25,0,0,1-.58,1.1l-.59-.18c.48-1.67.84-3.37,1.45-5,1.78-4.75,4.94-8.71,8.47-12.33,8-8.19,9.33-17.71,6.72-28.15-3.2-12.79-9.47-24.25-16.71-35.29-.86-1.31-1.71-2.62-2.62-3.89a13.46,13.46,0,0,0-1.37-1.46l-.68.3q7,26.56,14,53.13l-.86.32a7.15,7.15,0,0,1-1-1.52c-4.18-12.94-8.53-25.84-12.45-38.85a378.6,378.6,0,0,1-10.36-44.15c-2.63-15.16-3.64-30.36-1.76-45.68a168.39,168.39,0,0,1,15.6-53.78,81.31,81.31,0,0,0,8-31.07c.71-12.17,1.11-24.4.78-36.58s-1.59-24.47-2.71-36.68c-1.9-20.66-4.25-41.29-6-62-.84-10.22-3-20.17-5-30.2-3-15-4.95-30.08-4.26-45.38.79-17.5,5.17-34,15.35-48.85a78.07,78.07,0,0,1,24.27-23c2.9-1.75,5.75-3.57,8.74-5.16a2.69,2.69,0,0,0,1.68-2.72c0-2.83.06-5.65.07-8.48.14-21.9.41-43.8.36-65.71,0-15.86-.47-31.72-.83-47.58a11,11,0,0,0-1.32-4.17,16.5,16.5,0,0,1-.46-13.66c.81-2-.29-3.39-2.46-3.05-5.31.84-10.63,1.65-15.9,2.68-4.89,1-5.74,2.81-3.51,7.14,1.18,2.29,2.14,4.59,1.77,7.19a19,19,0,0,1-.72,2.6l-.59-.05-2.85-8.47-.77.09c-1.13,2.9,0,6.74-3.76,9.21a13.57,13.57,0,0,1,0-1.67,86.27,86.27,0,0,0,1.49-9.63,16.79,16.79,0,0,1,6.13-12.69c1.1-.93.89-1.36-.12-2.2a68.65,68.65,0,0,1-6.21-5.71,6.28,6.28,0,0,1-1.46-3.3c-.61-4.13-.92-8.31-3.1-12.07-.07-.13,0-.36.2-1.17,1,.87,1.94,1.37,2.27,2.13.79,1.83,1.27,3.77,1.88,5.67.29.89.58,1.78,1.05,3.2,2.24-4.05,2.56-8,3.53-11.91a7.55,7.55,0,0,1,1.31,6.82c-.41,1.68-1.07,3.31-1.49,5-.75,3,.75,5.36,3.91,5.69,5.62.59,11.26.93,16.9,1.34,1.58.12,1.93-1,1.88-2.15-.13-2.95-.35-5.9-.5-8.85-.19-3.78-.49-7.56-.5-11.35,0-5.73-2.69-10.83-4-16.24a44.1,44.1,0,0,0-8.12-17.06c-1.25-1.57-2.77-3-4.17-4.43-3.17-3.31-7-4.35-11.66-3.61-13.84,2.2-24.44,8.92-31.9,20.23-7.35,11.16-11.14,23.59-14,36.3-4,17.34-6.14,34.94-8.17,52.56-1.27,11.11-2.14,22.28-4,33.28-1.49,8.57-4.32,16.93-6.5,25.4a11.92,11.92,0,0,0-.5,4.13,145.09,145.09,0,0,1-.25,34.6c-2.06,15.94-6,31.46-13,46.14a37.53,37.53,0,0,1-3.2,5.79c-7.25,10.1-10.16,21.34-10.35,33.46A128.15,128.15,0,0,1,32.8,498c-2,8.13-5.91,15.54-9.87,22.92-.12.23-.47.35-1.21.87a9.9,9.9,0,0,1,.39-2c8-17.06,11.15-35,11.18-53.62,0-2.88.4-5.76.6-8.64,0-.53,0-1.07,0-1.61l-.62-.24c-.5.74-1.06,1.45-1.49,2.23-6,11-8.28,22.81-9.24,35-.79,9.92-2.08,19.8-3.3,29.68-.2,1.66,0,3.81-2.5,4.53-.33.1-.46,1-.59,1.55-.85,3.5-1.65,7-2.54,10.51a18.89,18.89,0,0,1-1.1,2.7l-.7-.18,6.06-36.2-.6-.24a12,12,0,0,0-1.18,1.91C12.74,516,7.37,523.68,1.79,531.26a5.85,5.85,0,0,1-1.47,1L0,531.87c1.94-3.27,4-6.48,5.82-9.8a136.52,136.52,0,0,0,14.26-38.55c1.09-5.3.75-10.87,1-16.33.44-11.87.57-23.75,1.28-35.61a237.7,237.7,0,0,1,5.83-38.47c4.16-18.31,10.52-35.95,17.21-53.51,3.85-10.11,5.37-20.67,5.7-31.38.2-6.28,0-12.57.06-18.86.28-17.34.34-34.69,2.26-52,1.44-12.94,3.79-25.7,9.42-37.68,6.48-13.77,16.79-23.93,31.63-29.54,10.27-3.88,20.9-5.87,32-4.43a48.27,48.27,0,0,1,5.32,1.1c3.32.79,6.63,1.6,9.92,2.47,1.35.36,1.7-.36,1.9-1.33.64-3.21,1.45-6.41,1.86-9.65a141.18,141.18,0,0,0,.35-36.33c-.81-6.08-2.74-12-4.37-18-3.18-11.68-6.75-23.27-9.68-35a77.44,77.44,0,0,1-1.59-32.14c2.38-14,9.71-25.28,20.7-34.59A18,18,0,0,0,152.78,0ZM211,706.17a16.67,16.67,0,0,0-.44,1.71c-.5,4.46-1,8.93-1.45,13.4a10.34,10.34,0,0,0,.21,3.42,285.69,285.69,0,0,1,6.71,39.11c1.64,15.08,2.7,30.21,1.82,45.37-.84,14.28-2,28.55-3,42.82a11.51,11.51,0,0,0,.13,1.85,3.16,3.16,0,0,0,1.52-1.26q4.91-7.74,9.79-15.48c1.47-2.33,3.44-4.32,3.81-7.3.89-7.13,2.22-14.21,3.17-21.34a146.3,146.3,0,0,0-9.94-76.37c-3.43-8.29-7.44-16.35-11.2-24.51A9.79,9.79,0,0,0,211,706.17Zm3.86-152.33.72.06c.29-.95.67-1.89.87-2.87.85-4,1.7-7.92,2.44-11.9,3.47-18.74,5.54-37.59,5.16-56.68-.28-13.68-1.86-27.14-5.86-40.3-2.77-9.11-6.5-17.67-14.79-23.71-9.36-6.82-19.12-12.71-31.35-13.28-.94,0-2.56.3-2.71.79a3.49,3.49,0,0,0,.68,2.92c1.55,1.75,3.43,3.24,5.15,4.87,4.63,4.37,9.55,8.5,13.8,13.19,6.61,7.29,11.23,15.79,15,24.69a133,133,0,0,1,10.33,39.86c1,10.65,1.37,21.39,1.45,32.09.06,9.3-.69,18.6-1.06,27.9C214.73,552.26,214.84,553.05,214.88,553.84ZM107.64,175.23l-.2-.55a13,13,0,0,0-1.66.26c-1.81.51-3.62,1-5.39,1.63-9.11,3.15-16.92,8.05-22.93,15.43s-9.55,15.86-12,24.81a145.3,145.3,0,0,0-4.93,33.11c-.57,15.85-.83,31.7-1.25,47.55-.16,5.84-.18,11.69-.64,17.5a109.8,109.8,0,0,1-6.16,27c-.87,2.51,1,4.75,1.44,7.38.62-.43.83-.5.93-.65a6.78,6.78,0,0,0,.53-1,108.07,108.07,0,0,0,7.3-25.58c1.58-10.54,2.76-21.14,4-31.73,2.1-18.38,4.26-36.74,8-54.9a158.26,158.26,0,0,1,9.15-30.69c4.29-10,10-19,18.87-26C104.28,177.52,106,176.41,107.64,175.23Zm10.41,561.32-.44-.12a13.83,13.83,0,0,0-1,2.16c-2,7-4.3,13.93-5.91,21A130.62,130.62,0,0,0,109,808.25c1.36,9.08,3.18,18.1,5,27.12a13.65,13.65,0,0,0,2.42,5.35c7.15,9.52,13.82,19.3,18.64,30.13a15.9,15.9,0,0,0,1.14,1.83,2.42,2.42,0,0,0,.14-1.82c-2.79-10.12-5.73-20.2-8.35-30.35a447.38,447.38,0,0,1-10.36-52,175.48,175.48,0,0,1,.35-49.93C118,737.91,118,737.23,118.05,736.55ZM52.18,371.64l-.89-.2a213.74,213.74,0,0,0-15,41.59,337.35,337.35,0,0,0-8.39,43.25A29,29,0,0,0,31,451.75c4.52-7.65,9.91-14.83,13.09-23.18,2.6-6.81,5.74-13.43,6.91-20.68,1.59-9.82,1.66-19.69,1.52-29.59C52.45,376.08,52.29,373.86,52.18,371.64Zm107,34.59c-.62.31-1.15.52-1.63.81-2.72,1.65-5.4,3.36-8.14,5-8.48,5-15.51,11.29-20.12,19.77-8.85,16.27-11.26,33.83-11,51.89a8.41,8.41,0,0,0,.39,1.67h.58c.2-.64.44-1.27.58-1.92.89-4.27,1.57-8.6,2.67-12.82a111.5,111.5,0,0,1,14.75-34c5.35-8.1,12.45-14.78,19.19-21.74C158.93,412.41,160.58,410,159.23,406.23Zm149.35,52.14c.09-1.07.19-1.55.17-2a332.36,332.36,0,0,0-6.63-53.48A161.58,161.58,0,0,0,286.89,361a5.72,5.72,0,0,0-.84-.95l-.69.1a11.25,11.25,0,0,0,0,3c1.54,5.25,3.32,10.44,4.78,15.7a303.37,303.37,0,0,1,10.77,61c.3,4.46.78,8.76,3.77,12.49a34.81,34.81,0,0,1,2.49,4.39A14.45,14.45,0,0,0,308.58,458.37Zm-25.33-86.23c-1.87,12.62-2.79,25.28,0,37.89,2.47,11.06,8,20.87,14.44,30.67C299.71,433.86,287.79,376.66,283.25,372.14ZM198.74,172.32c1.84,2.81,3.43,5.08,4.84,7.46.73,1.23,1.47,1.44,2.92,1.14A35.63,35.63,0,0,1,215,179.8c16.76.76,29.11,8.52,37.49,22.22,6.07,9.9,9.26,20.77,11.26,31.95,1.55,8.65,2.54,17.4,3.79,26.1a2.59,2.59,0,0,0,.39.73,3.13,3.13,0,0,0,.41-1.93c-.42-6.09-.63-12.19-1.33-18.24-1.36-11.84-3.61-23.5-8.71-34.49-4.06-8.74-9.77-16.24-18-21.85-11.29-7.72-24.19-10.92-37.82-12C201.44,172.25,200.32,172.32,198.74,172.32Zm-173.6,272,.62.05c.34-1.35.74-2.69,1-4.06,1.73-8.43,3.16-16.93,5.2-25.29a359.42,359.42,0,0,1,15.43-47.78c1.73-4.33,4.11-8.6,1.84-13.44-.2-.43-.48-.83-.72-1.25-.41.35-1,.64-1.2,1.08-.75,1.43-1.35,2.93-2.06,4.38a171.66,171.66,0,0,0-13.53,38,333.38,333.38,0,0,0-6.59,46.51C25.1,443.11,25.14,443.71,25.14,444.31ZM182.23,206.59c.61-.89.89-1.23,1.08-1.6,3.72-7.32,8.13-14.15,14.7-19.53a2.35,2.35,0,0,0,.41-2.27,42.55,42.55,0,0,0-3.92-6.25c-3.11-4-3.2-3.93-8.16-2.28-1,.32-1.84.79-2.8,1.08a2.54,2.54,0,0,0-2,2.73c.08,8.72.13,17.43.22,26.14A10.44,10.44,0,0,0,182.23,206.59Zm-7.18-24.4-.6-.25a5.16,5.16,0,0,0-1.25.84c-2.32,3.06-4.62,6.14-6.85,9.26a1.8,1.8,0,0,0-.1,1.6,76.31,76.31,0,0,1,6.91,18.84c.2.94.88,1.46,1.7.76.42-.36.44-1.27.42-1.92-.17-7.06-.45-14.11-.58-21.16C174.65,187.5,174.92,184.84,175.05,182.19Zm31.43,530.6.82.05a13.79,13.79,0,0,0,.45-2.08c.22-2.94.5-5.88.54-8.83a33.09,33.09,0,0,0-.47-6.44c-1.21-6.69-2.61-13.34-3.89-20-.43-2.27-.7-4.56-1-6.85l-.71.09C202.61,683.49,203.57,698.23,206.48,712.79ZM133.07,597.51l-.52.09q2.12,28.57,4.24,57.16l.59,0C138.06,635.5,137.57,616.37,133.07,597.51Zm17.81-445.37-.51,0c-.11.61-.23,1.22-.33,1.84-.82,4.93-1.58,9.88-2.47,14.81-.52,2.88-.07,3.66,3.53,4.66C151.33,166.25,151.62,159.19,150.88,152.14Zm37.47-37.37a99.35,99.35,0,0,0,6.19-24.16A75.45,75.45,0,0,0,188.35,114.77ZM169.58,294.38l.54.07a16.28,16.28,0,0,0,.65-1.85c.65-2.87,1.12-5.79,1.93-8.62.5-1.77.1-2.73-1.66-3.44s-2.07-.58-2,1.11c.08,3.46.17,6.91.28,10.37C169.32,292.81,169.48,293.59,169.58,294.38Zm40.29,581.89c-2.87,2.65-4.34,15.72-2.19,18.88C208.45,888.53,209.16,882.4,209.87,876.27ZM278,357.17l-1.05.18c-.06,4.55-.41,9.1.11,14.16.5-.62.73-.79.78-1a68.34,68.34,0,0,0,1.71-8.87C279.61,360.2,278.5,358.66,278,357.17Zm21.22,99.68c1.32-4.14-1.6-10.75-5.66-13.09C295.52,448.41,297.35,452.63,299.17,456.85ZM162.47,204l-.83.09a9.51,9.51,0,0,0,0,2.56q1.2,4.16,2.7,8.22c.18.5,1,.79,1.49,1.18.12-.56.47-1.18.32-1.67-.93-3.13-2-6.24-3-9.34A4.46,4.46,0,0,0,162.47,204Zm20.1-37c4.42-.26,4.75-.71,3.51-4-.32-.85-.55-1.72-.87-2.56s-.6-1.42-.91-2.13l-.65.09ZM58.44,372.33a59,59,0,0,0,0-14.37C56.24,360.29,56.33,368.56,58.44,372.33Zm133-168.12c2.92-.36,7.91-6.76,7.76-10.18A50.58,50.58,0,0,0,191.46,204.21Z"/>
                <g id="Gestrointestinal">
                    <g id="Darm" class="cls-2">
                        <g id="Dickdarm">
                            <path class="cls-3" d="M143.2,333.18a69.64,69.64,0,0,1,10.11-.14c-2.92,4.63-2.88,8.91-.83,13.92a12.63,12.63,0,0,1-5.86-.39,6.67,6.67,0,0,1-2.36-1.51c-.5-.5-1.38-2.4-2.22-2a.73.73,0,0,0-.43,1,7.57,7.57,0,0,0,5.06,4.29,16.28,16.28,0,0,0-.18,5.12l-.25-.13,0,.32c-2-1.39-6-3.47-12.81-4C134.84,342.94,137.45,337.28,143.2,333.18Z"/>
                        </g>
                    </g>
                </g>
            </g>
        </g>
    </g>
</svg>