<svg xmlns="http://www.w3.org/2000/svg" viewBox="0 0 97.28 549.87">
    <defs>
        <style>.cls-1,.cls-2{fill:#c2c1c1;}.cls-2{opacity:0.5;}</style>
    </defs>
    <title>Endokrin (3)</title>
    <g id="Ebene_2" data-name="Ebene 2">
        <g id="Mann">
            <g id="Organe">
                <g id="Endokrin">
                    <g id="Nebenniere">
                        <path id="Nebenniere-2" data-name="Nebenniere" class="cls-1" d="M1.11,347.37c2.42-.59,11.22-2.27,18.35,2.27a1.19,1.19,0,0,0,1.75-1.41c-1-3-3.2-7.17-7.55-8.29C8.15,338.5,2.74,342.78.59,344.77a1.83,1.83,0,0,0-.41,2.14h0A.82.82,0,0,0,1.11,347.37Z"/>
                        <path id="Nebenniere-3" data-name="Nebenniere" class="cls-1" d="M96.17,347.37c-2.42-.59-11.22-2.27-18.35,2.27a1.19,1.19,0,0,1-1.75-1.41c1-3,3.2-7.17,7.55-8.29,5.51-1.44,10.92,2.84,13.07,4.83a1.83,1.83,0,0,1,.41,2.14h0A.82.82,0,0,1,96.17,347.37Z"/>
                    </g>
                    <g id="Fortpflanzung">
                        <path id="HodenSack" class="cls-2" d="M48.7,515.2h-.23c-3.66,0-15.51,1.41-16.67,14.85,1.09,26.74,11.21,19.3,15.61,17.43v0a2.65,2.65,0,0,1,.82-.2,2.52,2.52,0,0,1,.82.2v0c4.4,1.87,14.19,9.37,15.28-17.38C63.17,516.67,52.36,515.2,48.7,515.2Z"/>
                        <path class="cls-1" d="M59.29,526.74c0-3.69-5.49-10.84-3.22-18.77a6.51,6.51,0,0,0,2.66-5.25c0-3.6-2.92,0-6.53,0H43.93c-3.61,0-6.53-3.6-6.53,0a6.5,6.5,0,0,0,2.48,5.12c2.41,8-3,15.19-3,18.9-1.47.32-3.86,2.61-3.68,3.74.09.52.47.53,1.07.34a12.87,12.87,0,0,0-.68,7c.8,5.09,3.92,8.83,7,8.35s4.87-5,4.07-10.09a12.76,12.76,0,0,0-2.84-6.48.44.44,0,0,0,.22-.53c-.13-.83-1.69-1.8-3.12-2.21,0-3.45,4.69-10.15,3.35-17.83a6.59,6.59,0,0,0,1.74.24H52.2a6.57,6.57,0,0,0,1.61-.2c-1.28,7.66,3.46,14.35,3.48,17.79-1.43.41-3,1.38-3.13,2.21a.45.45,0,0,0,.23.53,12.76,12.76,0,0,0-2.84,6.48c-.8,5.09,1,9.61,4.06,10.09s6.17-3.26,7-8.35a12.87,12.87,0,0,0-.68-7c.6.19,1,.18,1.07-.34C63.15,529.35,60.76,527.06,59.29,526.74Z"/>
                    </g>
                    <path id="Bauchspeicheldrüse" class="cls-1" d="M46.91,356.69a4.23,4.23,0,0,0-3.14,4.76,4.46,4.46,0,0,1,.06.64c0,.89-.35,2.31-1.66,2.45,0,0-1.67,1.64-3.53,1a22.56,22.56,0,0,1-10-3.36s-1.57-1.64-1-3.26c0,0-1.24-1.81-1-2.9a2.38,2.38,0,0,1,1-3.2s-.74-1.39-.05-2.16c0,0,1.94-4.34,9.88-5.85S48.2,343.6,48.2,343.6s2.1-1,6.75.28c0,0,11.24.47,13.28,1.46a59,59,0,0,1,8,1.31s7.34.7,9.87,2.11c0,0,2.82.77,3.12,2.12s.55,3.95-.81,3.71-4.52-.19-6.83-1.17c0,0-3.78,2.07-7,.89,0,0-9.29,1.38-11.75.89,0,0-6.44,1.34-8.13,1,0,0-5.73,1.11-7.52.47A.74.74,0,0,0,46.91,356.69Z"/>
                    <path id="Schilddrüse" class="cls-1" d="M55.58,129.5s-.86-2.46-1.7-3.08a2.74,2.74,0,0,0-.66-1.1.73.73,0,0,0-1,0c-.51.47-1.34,1.29-1.34,1.73l0,0a1.33,1.33,0,0,1,0-.66,3.26,3.26,0,0,0,0-1.11c.61-1.2.2-1.77.2-1.77-.73-1.06-1.32,0-1.32,0-.45.59,0,2,0,2a6.54,6.54,0,0,0-.17,2.43c-.65.77-.63,2.83-.63,2.83s-.42.27-.6.44l-.25-.08a1.13,1.13,0,0,0-.54-1c0-.42-.64-1.34-.64-1.34a3.48,3.48,0,0,0-.57-1.63c0-.44-.83-1.26-1.34-1.73a.73.73,0,0,0-1,0,2.74,2.74,0,0,0-.66,1.1c-.84.62-1.7,3.08-1.7,3.08a10.91,10.91,0,0,0-.14,2.68,10,10,0,0,1,.4,1.87c-.4.75.8,2.09.8,2.09a2.58,2.58,0,0,0,1.16,1.76,2,2,0,0,0,1.91,1.19c.55,0,1.12-.68,1.12-.68.64-.41.43-1.81.43-1.81.36,0,.52-.66.52-.66a.83.83,0,0,0,.55-.22h.43a.83.83,0,0,0,.55.22s.16.69.52.66c0,0-.21,1.4.43,1.81,0,0,.57.73,1.12.68a2,2,0,0,0,1.91-1.19,2.58,2.58,0,0,0,1.16-1.76s1.2-1.34.8-2.09a10,10,0,0,1,.4-1.87A10.91,10.91,0,0,0,55.58,129.5Z"/>
                    <path id="Thymus" class="cls-1" d="M54.14,161c-.25-.81.25-.84-.12-1.75-.2-.47-.89-.8-1.16-1.34s-.07-1.26-.36-1.73-1.06-.68-1.41-1-.9-1.17-1.39-1c-.32.11-.34.72-.59,1s-.83.25-1,.57.17.83.06,1.16-.7.53-.78.86.34.85.28,1.15c0-.06,0-.28-.06-.33s-.52.05-.54,0,.43-.29.41-.34-.52,0-.54,0,.37-.44.29-.48-.52.39-.68.37-.4-.52-.56-.5-.23.57-.37.64-.64-.17-.74,0,.28.5.16.75a15.93,15.93,0,0,0-1.7,2.72c-.32,1-.13,2.12-.39,3.18s-1,1.95-1.2,3,.08,2.24-.09,3.2c-.21,1.25-.88,2.25-1,3.05,0,.26.45.56.46.83s-.48.58-.44.84.6.4.69.65-.27.7-.14.94.69.17.86.38.26,1,.64,1.26.92-.11,1.39-.08.88.47,1.35.31.55-.77,1-1,1,0,1.36-.36c0,0-.25-.46-.21-.49s.42.3.46.26-.28-.43-.24-.47.44.27.48.23.08-.41.11-.45c.14.25-.1.81.08,1s.75.09,1,.29.13.77.38.92.73-.16,1-.05.38.69.67.75.8-.35,1.16-.31.72.56,1.08.54.65-.57,1-.68.91.17,1.2-.05.16-.81.37-1.14a5.91,5.91,0,0,0,1.06-3.33c0-1.08-.66-2.24-.84-3.49s.11-2.44-.14-3.58-1-2.32-1.3-3.34C54.57,162.42,54.68,162.72,54.14,161Z"/>
                    <path id="Gehirn" class="cls-1" d="M84.52,25.5C78,1,56.63-.2,50.1,0a2,2,0,0,0-2,2c-.06,1.88-.16,5.09-.27,9.06-.15-4.05-.29-7.29-.38-9.12A1.87,1.87,0,0,0,45.7.17C39.5-.1,18.19.8,11.61,25.5c-7.73,29,23.18,19.64,23.18,19.64C32,55.7,48,56.28,48,56.28s0-.23,0-.34l0,.34s13.35-.48,13.58-8.55a2,2,0,0,1,2.46-1.91C71.56,47.31,90.8,49.09,84.52,25.5Z"/>
                </g>
            </g>
        </g>
    </g>
</svg>