<svg xmlns="http://www.w3.org/2000/svg" viewBox="0 0 90.52 79.89">
    <defs>
        <style>.cls-1{fill:#c2c1c1;}</style>
    </defs>
    <title>HNO (3)</title>
    <g id="Ebene_2" data-name="Ebene 2">
        <g id="Mann">
            <g id="Organe">
                <path id="HNO" class="cls-1" d="M90.51,3.13C90.31.77,88.61-.71,86.82.35L83.61,2.27,80.39,4.18a4,4,0,0,0-1.51,1.76c-9,.18-23.21,4.48-27.89.25A4.08,4.08,0,0,1,49.46,3.1a2,2,0,0,0-2-2h0A2,2,0,0,0,46,1.78a2,2,0,0,0-1.45-.64h0a2,2,0,0,0-2,2A4.1,4.1,0,0,1,41,6.19c-4.76,4.31-20.41.95-29.37.74a4,4,0,0,0-1.51-1.75L6.91,3.27,3.69,1.35C1.91.29.21,1.77,0,4.13A4.38,4.38,0,0,0,.46,6.38a13.86,13.86,0,0,1,1.33,7.94,4.32,4.32,0,0,0,.3,2.27c1,2.17,3.05,3,4.39,1.43L8.9,15.16l2.42-2.85a3.54,3.54,0,0,0,.7-1.38c2.36.05,5.18.05,8.17-.09,9.78-.44,18.68,1.91,22.56-.91.47,16.46,1.54,58.16.56,67.76a2,2,0,0,0,1.78,2.19h.21a1.82,1.82,0,0,0,.7-.13,1.87,1.87,0,0,0,.71.13h.2a2,2,0,0,0,1.79-2.19c-1-9.6.09-51.3.56-67.76C53.13,12.75,61,9.4,70.81,9.84c2.79.13,5.43.14,7.69.1a3.57,3.57,0,0,0,.7,1.37l2.42,2.85L84,17c1.34,1.59,3.43.74,4.39-1.43a4.42,4.42,0,0,0,.3-2.27,13.86,13.86,0,0,1,1.33-7.94A4.38,4.38,0,0,0,90.51,3.13Z"/>
            </g>
        </g>
    </g>
</svg>