<svg xmlns="http://www.w3.org/2000/svg" viewBox="0 0 139.76 419.32">
    <defs>
        <style>.cls-1,.cls-2{fill:#c1c1c1;}.cls-1{opacity:0.5;}</style>
    </defs>
    <title>Gestrointestinal</title>
    <g id="Ebene_2" data-name="Ebene 2">
        <g id="Mann">
            <g id="Organe">
                <g id="Gestrointestinal">
                    <path id="Leber" class="cls-1" d="M44.38,189.41a19.63,19.63,0,0,0,11.25-1.34,24.85,24.85,0,0,1,10.71-1.8A89.23,89.23,0,0,1,97.61,193a38.75,38.75,0,0,1,7,4c1.92,1.35,2.25,3,1.14,5a3.69,3.69,0,0,1-2.45,1.82c-3.09.09-5.2,1.89-7.21,3.77-3.75,3.49-7.38,7.06-11.76,9.81-10.19,6.4-20.29,12.93-30.48,19.32-5.49,3.44-11.68,4.93-18,6.06-3.93.71-7.85,1.54-11.71,2.56-3.26.86-5.3,3.32-7.17,6a47,47,0,0,1-5.17,6.26c-1.66,1.69-3.8,1.45-5.34-.34a18.37,18.37,0,0,1-3.84-9.21c-.49-2.89-.26-5.89-.38-8.83A52.8,52.8,0,0,0,2,233.93c-.6-4.18-1.7-8.33-1.92-12.53-.49-9.69,2.52-18.08,10.46-24.18a22.51,22.51,0,0,1,5.43-3.06A56.15,56.15,0,0,1,35.39,190C38.39,189.91,41.38,189.61,44.38,189.41Z"/>
                    <g id="Darm">
                        <g id="Dünndarm">
                            <path class="cls-2" d="M38.81,307.41a9.68,9.68,0,0,0-1.53,1.74l1.53-1.74Z"/>
                            <path class="cls-2" d="M115.35,318.2l1.16,4.8a14.39,14.39,0,0,0-1.16-4.8Z"/>
                            <path class="cls-2" d="M36.84,309.9l.43-.74A7.55,7.55,0,0,0,36.84,309.9Z"/>
                            <path class="cls-2" d="M26.61,334.42v.43c0-.09,0-.19,0-.26Z"/>
                            <path class="cls-2" d="M122.47,305.88v0l0,0Z"/>
                            <path class="cls-2" d="M34.12,314.49h0c-.38.63-.12.86.3.92l.09-.06A5.47,5.47,0,0,1,34.12,314.49Z"/>
                            <path class="cls-2" d="M76.47,295.21l-.79.22.23.17Z"/>
                            <path class="cls-2" d="M66.07,311.61l.77-.51a3.91,3.91,0,0,1-.61-.32C66.18,311.06,66.13,311.34,66.07,311.61Z"/>
                            <path class="cls-2" d="M107.63,335l.09,0V335Z"/>
                            <path class="cls-2" d="M98.85,349.51v0h0Z"/>
                            <path class="cls-2" d="M59.88,324.59h.06l0-.07A.22.22,0,0,1,59.88,324.59Z"/>
                            <path class="cls-2" d="M66.14,350a5.66,5.66,0,0,1,.6,0,1.22,1.22,0,0,1-.24-.45s-.06-.19-.17-.5A6.15,6.15,0,0,1,66.14,350Z"/>
                            <path class="cls-2" d="M51.69,361.57c-.13-.22-.25-.46-.37-.7,0,.07,0,.13,0,.2-.05.22-.1.43-.16.63Z"/>
                            <path class="cls-2" d="M58.86,320.79l-.33.16c.11.1.22.22.32.33C58.85,321.12,58.85,321,58.86,320.79Z"/>
                            <path class="cls-2" d="M49.41,354.51c-.06-.34-.11-.67-.15-1l-.56.51A6.65,6.65,0,0,1,49.41,354.51Z"/>
                            <path class="cls-2" d="M79.42,354.28c.24.27.49.55.73.85a7.31,7.31,0,0,1,.13-1.17C80,354.08,79.72,354.18,79.42,354.28Z"/>
                            <path class="cls-2" d="M66.39,364.85c1,.19,2,.43,2.88.65-.19-.6-.36-1.23-.51-1.88A23.11,23.11,0,0,1,66.39,364.85Z"/>
                            <path class="cls-2" d="M121.68,286.72c-5.71-3-24.28,3.43-26.38,4.18a1.23,1.23,0,0,0-.8.91l0,.17a22,22,0,0,0-18,3.23l-.56.39-.23-.17c-8-6.31-29.6-8.44-30.94-8.56-2.26-.33-9.54-1.1-11.06,2.2-.1.23-.23.49-.38.78-1.48,3-5.43,11,2.88,15.92l.45.26c-1.86,1.84-3.78,5-2.51,8.46a5.47,5.47,0,0,0,.38.87l-.09.06c-3.06,2.07-4.93,4.52-5.55,7.28a9.58,9.58,0,0,0,.38,5.43h0a8.73,8.73,0,0,0,.39.93c-2.24,1.76-2.86,2.92-3.08,3.74a2.55,2.55,0,0,0,.06,1.62l.05.17c0,.07,0,.17,0,.26-.39,2.57-1.29,11.32,3.5,17.46a10.34,10.34,0,0,0-3.31,1.54,1.23,1.23,0,0,0-.34.38,18.9,18.9,0,0,0-1.93,4.86h0a8.33,8.33,0,0,0,.18,5.11,5.67,5.67,0,0,0,4.11,3.25l.24.06c-.29,2.29-.47,7.35,2.75,10.78,2.06,2.19,5.08,3.3,9,3.3a23.86,23.86,0,0,0,3.06-.21c.09.55.2,1.11.32,1.68a3.86,3.86,0,0,0,1.15,2.31c2.53,2.71,8.5,4.21,17.77,4.47l2.32,0c6.36,0,9.83-.85,11-2.68a18.64,18.64,0,0,0,7.67,2,9.37,9.37,0,0,0,3.78-.74c2.65-1.16,4.43-3.59,5.31-7.25a10.21,10.21,0,0,0,1.61.14c4,0,6.59-2.57,8.28-4.23.42-.41.78-.76,1.09-1,.72-.52,2.1-2.38,1.8-9l.83-.26c9-.59,12-5.61,13-9.74,1-4.29,0-9.21-1.29-11.3l.14-.21c3-5.35.57-17.94.18-19.83,1-5.85-2.27-11.13-4.09-13.55a17.29,17.29,0,0,0,7.68-6.31l0,0a18.65,18.65,0,0,0,3.08-8.71C126,292.34,124.42,288.15,121.68,286.72Zm-15.19,77.65a1.37,1.37,0,0,0-.34.07c-.11,0-11,3.78-18-.31-3-1.77-4.85-4.8-5.54-9,0-.47.24-2.67,1.6-3.71a2.83,2.83,0,0,1,1.52-.56A5.47,5.47,0,0,0,88,351a1.23,1.23,0,0,0,.09-2.42,8.31,8.31,0,0,0-2-.25h0a2.91,2.91,0,0,1-1.3-1.22A7.07,7.07,0,0,0,84,344.8a1.26,1.26,0,0,0-1.51-.53,1.24,1.24,0,0,0-.8,1.37,8.52,8.52,0,0,0,.7,2.28,3.1,3.1,0,0,1-.23,1.41c-.57,1.33-2.25,2.36-4.86,3a12.06,12.06,0,0,0-3.58-1.93c.15-2.43,2-6.14,3.23-7.1.35-.28.73-.65,1.18-1.07,3.74-3.53,7.84-6.54,13.17-1.28a25.35,25.35,0,0,1,2.52,2.84,5.34,5.34,0,0,0,2.34,4.41,4.75,4.75,0,0,1,0,2.61,4,4,0,0,1-3.27,2.52,1.24,1.24,0,0,0-1,1.32,1.26,1.26,0,0,0,1.22,1.13,2.62,2.62,0,0,1,2.4,2.15l0,.16a1.26,1.26,0,0,0,1.52.88,1.25,1.25,0,0,0,.91-1.49l0-.13a6.12,6.12,0,0,1,.49-4.16,4.7,4.7,0,0,1,3.12-2,34.12,34.12,0,0,1,4.63-.81q.49,0,1-.06a5.92,5.92,0,0,1,1.46.1,1.08,1.08,0,0,0,1.24-.12l.66-.45a18.17,18.17,0,0,0,6.11-2.26,15.4,15.4,0,0,1,.21,10.57C115.36,362,111.86,364.05,106.49,364.37Zm-5.16,11c-2.57,2.52-6.08,6-13.27.82a1.24,1.24,0,0,0-.45-.21c-.93-.22-2.71-1-2.78-1.83a1.22,1.22,0,0,0-.55-.92,1.24,1.24,0,0,0-1.06-.16,8.88,8.88,0,0,1-6.6-1c-2.91-1.78-4.84-5.36-5.76-10.65a1.22,1.22,0,0,0-.76-.94,1.27,1.27,0,0,0-1.22.15c-.07.05-7,5-11.9,2.77-3.09-1.42-4.91-5.46-5.42-12a59,59,0,0,0,7-7.68,1.31,1.31,0,0,0,.55,0,3.41,3.41,0,0,1,2.43.34,5.86,5.86,0,0,1,2.42,3.78c0,.65-.08,3.86-3.15,4.16a8.05,8.05,0,0,1-2.61-.25,1.24,1.24,0,1,0-.6,2.4,11.09,11.09,0,0,0,2.68.35h.06c.41.54.76,1,1,1.44.11.18.21.33.28.46a1.36,1.36,0,0,0-.24.38,1.23,1.23,0,0,0,.69,1.61,2,2,0,0,0,.78.16,1.57,1.57,0,0,0,1.23-.55c.74-.88.17-2.1-.35-2.95a3.54,3.54,0,0,1,1.49-2.32,2.59,2.59,0,0,1,2,0,1.27,1.27,0,0,0,1.06,0,6.31,6.31,0,0,1,3.2-.32,5.83,5.83,0,0,0,.23.58c.59,1.18,1.92,2.4,4.93,2A20.11,20.11,0,0,1,80.43,360c.33.84,2.59,5.86,9.78,8.1a23.6,23.6,0,0,0,13.31-.14c.12,4.74-.75,6-.87,6.17C102.23,374.46,101.8,374.89,101.33,375.34ZM86.89,386.17c-3.74,1.64-8.91-.93-10.3-1.7a5.57,5.57,0,0,0-1.41-1.79,1.2,1.2,0,0,0-.6-.26c-.07,0-6.69-1.08-8.22-6a6.42,6.42,0,0,0-5.61-4.26c-1.85-2.62-2.12-4.11-1.74-4.63,1-1.34,6.57-.66,11.38.83a13.14,13.14,0,0,0,4.91,5.74,11.33,11.33,0,0,0,7.44,1.51c1,1.67,3.23,2.43,4.05,2.65a19,19,0,0,0,4,2.21C90.12,383.43,88.81,385.33,86.89,386.17Zm-23.68,1.19c-14.81-.41-16.36-4-16.49-4.45,0-.11,0-.12,0-.26-1.53-7.3-1.14-12.76,1.11-15.87a8.33,8.33,0,0,0,1.67-1.64,7.22,7.22,0,0,1,4-1.28,8.67,8.67,0,0,0,2,1.47,5.14,5.14,0,0,1,.48,2.81,1.37,1.37,0,0,0,0,.35c.16,2.27-.17,3.84-.92,4.3s-2.26-.13-2.71-.39a1.26,1.26,0,0,0-1.71.44,1.23,1.23,0,0,0,.44,1.7,8.57,8.57,0,0,0,1.19.54,3.37,3.37,0,0,0-.68,2,1.26,1.26,0,0,0,2.51,0c0-.86,1.62-2,4-2.38s5.21.11,6,2.5c1.77,5.63,8.16,7.26,9.84,7.6a2.26,2.26,0,0,1,.54.8l0,0a.36.36,0,0,1,0,.18C74.34,385.89,73.55,387.64,63.21,387.36Zm-19.67-8.43c-4.58.56-7.9-.22-9.87-2.32-2.39-2.53-2.35-6.48-2.14-8.49.79.19,1.33.3,1.71.36a1.68,1.68,0,0,0,2.07-1l.12-.05c1.11-.45,3.37.45,4.29,1a1.74,1.74,0,0,0,.38.14,11.1,11.1,0,0,0,1.6.11,12.23,12.23,0,0,0,2.52-.26A23.76,23.76,0,0,0,43.54,378.93ZM30.76,365.38h0l-1.31-.33A3.25,3.25,0,0,1,27,363.24c-1-2.24.64-6,1.48-7.54,4.27-2.86,12.42-.83,12.51-.8a1.39,1.39,0,0,0,.41,0c1.34-.1,5.17,0,6.79,1.87a4,4,0,0,1,.62,3.73,8.22,8.22,0,0,1-1.2,2.86,10.8,10.8,0,0,0-1.18,1.09c-.15.17-.29.35-.43.52a7.92,7.92,0,0,1-5.29,1.09c-.88-.46-4-1.91-6.26-1a2.62,2.62,0,0,0-1.2.86c-.58-.11-1.55-.35-2.52-.59ZM29,333.62s-.05-.06,0-.18c.71-2.64,11.46-8.25,18.86-11.4h0c1,.08,2,.12,2.91.12a30.27,30.27,0,0,0,4.72-.35,1.08,1.08,0,0,0,.3.21c.45.23,1.72,1.09,1.65,2a5,5,0,0,1-.63,1.51,44,44,0,0,1-3.37,5c-2.32.67-11.74,3.67-14.07,8.29-2.59,5.11-1.14,7.13-.82,7.49l1.87-1.65a.28.28,0,0,1,.07.09s-.69-1.24,1.12-4.83c1.71-3.38,9.89-6.29,12.9-7.12a1.21,1.21,0,0,0,.65-.43,50.49,50.49,0,0,0,3.56-5.1,13,13,0,0,1,3.47-.14c2,2.05,3.55,3.9,4.85,5.47a8.3,8.3,0,0,0,5.17,5.33c.41,5-.07,10.51-1.51,11.28-.38.21-1.07,0-1.92-.66-.53-1.58-2.79-7.15-8.47-9.29a4.48,4.48,0,0,0-.4-2s0-.07,0-.11a9.18,9.18,0,0,1,1.71-1.37,1.24,1.24,0,0,0,.3-1.73,1.27,1.27,0,0,0-1.75-.3c-2.51,1.75-3.27,2.69-2.53,4.46a2.57,2.57,0,0,1-.09,2.25c-1.13,3.14-8.33,9.88-11,12.21a1.31,1.31,0,0,0-.27.35,16.39,16.39,0,0,0-4.79-.5,28.61,28.61,0,0,0-8.48-.66c-5.91-6.09-3.79-17.07-3.77-17.18A1.24,1.24,0,0,0,29,333.62Zm2.33-10.41c.5-2.16,2.06-4.12,4.65-5.84v0a15.22,15.22,0,0,0,7.45,3.91c-1.7.79-3.85,1.82-6,3-2.39,1.27-4.25,2.36-5.7,3.32A7.25,7.25,0,0,1,31.31,323.21ZM58.53,321l.33-.16c0,.17,0,.33,0,.49C58.75,321.17,58.64,321.05,58.53,321Zm1.35,3.64a.22.22,0,0,0,0-.08l0,.07ZM66.74,350a5.66,5.66,0,0,0-.6,0,6.15,6.15,0,0,0,.19-.91c.11.31.17.49.17.5A1.22,1.22,0,0,0,66.74,350ZM51.32,360.87c.12.24.24.48.37.7l-.57.13c.06-.2.11-.41.16-.63C51.3,361,51.3,360.94,51.32,360.87Zm-1.91-6.36a6.65,6.65,0,0,0-.71-.51l.56-.51C49.3,353.84,49.35,354.17,49.41,354.51Zm30-.23c.3-.1.59-.2.86-.32a7.31,7.31,0,0,0-.13,1.17C79.91,354.83,79.66,354.55,79.42,354.28ZM74.79,338.7A7.32,7.32,0,0,0,78,338a11.37,11.37,0,0,1,2.06-.62,25.05,25.05,0,0,0-3.69,3c-.41.39-.76.72-1,.94a3.57,3.57,0,0,0-.46.43C74.89,340.67,74.85,339.61,74.79,338.7Zm14.34-2.3a2,2,0,0,0,.47-.38A11,11,0,0,0,94,337.94a11.35,11.35,0,0,0,1.44.21,7.31,7.31,0,0,0-.95,2.52v0c-.45-.5-.93-1-1.45-1.52A13.52,13.52,0,0,0,89.13,336.4Zm9.72,13.11h0ZM116.52,324c-3.15-1.14-10.48-3.48-16.68-3-3.32.25-4.52-2.41-6-6.48-.27-.75-.53-1.49-.84-2.2a52.42,52.42,0,0,0,12,1.6,27.24,27.24,0,0,0,7-.84l.18-.05a21.8,21.8,0,0,1,3.08,5.14,14.39,14.39,0,0,1,1.16,4.8C116.53,323.34,116.53,323.69,116.52,324Zm-5.08-13.32c-11.69,3.1-29.61-4.41-33.18-6l0-.33c.53-1.91,0-4.49-.7-6.27l-.07-.6c1.94-1.41,9.06-5.88,17.83-2.7a41.28,41.28,0,0,1,4,1.69,21.91,21.91,0,0,0,3.62,2.09,11.09,11.09,0,0,1,3.26,3.22,4.92,4.92,0,0,0,.39.86,1.25,1.25,0,0,0,2.32-.88,4.51,4.51,0,0,0-.4-1,.75.75,0,0,1,0-.52c.34-.61,1.88-1,2.94-1.07h.15a1.24,1.24,0,1,0-.13-2.48h-.18c-.55,0-2.43.12-5.4.12a5,5,0,0,1-1.74-.44,27.17,27.17,0,0,0-3.57-2.06c-.69-.49-1.42-1-2.17-1.64l-.28-.23c7.68-2.52,19.06-5.33,22.33-3.62,1.8.94,2.87,4.32,2.55,8a15.4,15.4,0,0,1-10.74,13.53C112,310.56,111.74,310.64,111.44,310.72Zm-33.91-2.33c1.76.67,8,2.93,11.73,3,.86,0,1.6,2.11,2.25,3.95,1.28,3.6,3,8.54,8.52,8.13,6.29-.47,14.23,2.34,16.47,3.19.83,4.18,2.15,13.86,0,17.69a1.43,1.43,0,0,1-.15.22c-2,0-4.67,1.53-6.72,2.86a27.58,27.58,0,0,1-2.77.34l-.62,0a16.44,16.44,0,0,1-7.77-1.16l-.19-.1a16.16,16.16,0,0,0-1.9-3.53,6.32,6.32,0,0,1,.5-1.53,1.64,1.64,0,0,0,.1-.38,4.87,4.87,0,0,1,1.86-3.09,22.26,22.26,0,0,0,4.63-1.16,20.63,20.63,0,0,1,5.71,1.17,1.25,1.25,0,0,0,1.44-.46,1.2,1.2,0,0,0-.06-1.48c-.09-.13-.93-1.34.53-3.29a1.22,1.22,0,0,0-.12-1.61,1.25,1.25,0,0,0-1.62-.13A31.75,31.75,0,0,1,103,334.4h0a9.66,9.66,0,0,0-5.07,1.26,11.52,11.52,0,0,1-3.42-.15,8.64,8.64,0,0,1-5-3c-.86-1.51-1.7-2.82-2.51-4a32.18,32.18,0,0,1-3.36-8,8.12,8.12,0,0,0,0-4.21,1.25,1.25,0,0,0-2.22-.39c-.25.33-.9,1.53-.39,4.35a1.83,1.83,0,0,1-.26.36,2.85,2.85,0,0,1-2,.73,4.54,4.54,0,0,0-2.42-.14,1.24,1.24,0,0,0,.12,2.41,13.34,13.34,0,0,0,1.88.21c1.35.47,3.63,1.87,6.54,5.94.42.76.88,1.54,1.38,2.37a15.38,15.38,0,0,0,1.19,1.69,3.16,3.16,0,0,1,.21.46,15.85,15.85,0,0,1-2.72.17,20.46,20.46,0,0,0-7.86,1.2,4,4,0,0,1-2.66.38,1.25,1.25,0,0,0-.86-.48l-.22,0a22.7,22.7,0,0,1-3.83-4.05l-.19-.24a10.6,10.6,0,0,1-.33-1.32,6.11,6.11,0,0,0-2.74-4.18,8,8,0,0,0-2.8-1.06l-.49-.49a4.1,4.1,0,0,1-1.48-3.89,5.88,5.88,0,0,1,1-2.13,12.42,12.42,0,0,0,1.47-1.72C67.53,313,74.17,309.74,77.53,308.39ZM107.63,335l.09,0v.07ZM37.27,309.16h0a9.68,9.68,0,0,1,1.53-1.74l.07-.06c6.4,3.71,9.91,5.31,12.55,3l1.06-.94a1.9,1.9,0,0,1,.63,1,1.25,1.25,0,0,0,2.48-.31,8.35,8.35,0,0,1,1.73-5.1,1.23,1.23,0,0,0-.12-1.68,1.27,1.27,0,0,0-1.71,0s-2.07,1.91-4.06,3.69c-.58.53-1.16,1-1.68,1.5-1.55,1.36-4.89-.5-12.3-4.85-5.84-3.44-4.05-8.36-1.9-12.71.15-.31.29-.59.4-.83.49-1.08,4.86-1.3,8.44-.78h.07c.23,0,23.48,2.25,30.21,8.51a5.23,5.23,0,0,1,.39.88l.6,5.38a1,1,0,0,1-.09.13c-4.64,4.89-6.85,4.9-7.58,4.67-1.34-.42-1.7-2.56-1.7-2.57h0c-1.07-9.29-8.64-9.61-8.72-9.61h-.09l-10.64.43a1.37,1.37,0,0,0-.4.09,1,1,0,0,1-.6-.27c-.22-.16-.45-.31-.68-.46-1-.64-1-.74-.87-1.3a1.24,1.24,0,0,0-.92-1.49,1.25,1.25,0,0,0-1.51.91c-.57,2.31,1,3.33,1.92,3.94l.54.37a3.2,3.2,0,0,0,2.82.68l10.4-.42c.52,0,5.48.47,6.26,7.45A11.87,11.87,0,0,1,61.94,315a14.21,14.21,0,0,0-1.43,1.68A10.25,10.25,0,0,1,56.66,319c-2.8.9-14.18,1.6-18.86-3.32a7.08,7.08,0,0,1-.58-.69,4.52,4.52,0,0,1-.38-5.1A7.55,7.55,0,0,1,37.27,309.16Z"/>
                        </g>
                        <g id="Dickdarm">
                            <path class="cls-2" d="M24.45,363.36a9.2,9.2,0,0,1,.09-4.27,19.61,19.61,0,0,1,1.92-4.86,1.37,1.37,0,0,1,.35-.37,10.1,10.1,0,0,1,3.3-1.55c-4.78-6.14-3.88-14.89-3.49-17.46,0-.09,0-.19,0-.26l-.06-.17a2.62,2.62,0,0,1-.05-1.62c.22-.82.83-2,3.07-3.74-.12-.25-.25-.57-.38-.93a9.66,9.66,0,0,1-.39-5.43c.63-2.76,2.5-5.2,5.56-7.28l.08-.06a7,7,0,0,1-.37-.86c-1.27-3.44.65-6.63,2.51-8.47l-.45-.26c-8.31-4.89-4.36-12.9-2.88-15.92.15-.29.27-.55.38-.78.79-1.73,3-2.22,4.72-2.41a24.85,24.85,0,0,1,6.33.21c1.35.12,23,2.25,31,8.56l.22.17c.16-.11.35-.25.57-.39a22,22,0,0,1,18-3.23,1,1,0,0,1,0-.17,1.21,1.21,0,0,1,.8-.91c3.48-1.24,7-2.3,10.61-3.19a66.89,66.89,0,0,1,7.66-1.51c2.56-.32,5.74-.71,8.11.52,2.74,1.44,4.29,5.62,3.87,10.43a18.65,18.65,0,0,1-3.08,8.71l0,0a17.36,17.36,0,0,1-7.69,6.3c1.82,2.42,5.06,7.7,4.1,13.55.39,1.89,2.84,14.48-.18,19.84,0,.07-.1.13-.14.2,1.32,2.09,2.3,7,1.29,11.3-1,4.13-4,9.15-13,9.75l-1,.28c.25,5.49-.56,7.69-1.26,8.57a.75.75,0,0,0,.25,1.45l.18,0c20.88-5,34.74-22.38,34.74-31.65a14.11,14.11,0,0,0-5-10.61c.27-3.31,0-6.36-2.21-8.92a8.51,8.51,0,0,0-1.73-1.34c-.09-.08,0-.22,0-.29-.59-5.62-2-10.59-5.62-14.95h0a22,22,0,0,0,5.91-4.68c1.76-2.29,1-5.7.61-7a16.29,16.29,0,0,0,3.39-4.49,12.86,12.86,0,0,0,1-6.61c4.08-3.79,1.61-10.84,1.46-11.23-6.17-12.34-18.49-8.19-19.15-8a25.21,25.21,0,0,0-9.1-3c-.52-.15-3.62-1-5.69-.07a3.44,3.44,0,0,0-2,3.09,12.1,12.1,0,0,0-5.39,0,6.34,6.34,0,0,0-3.88,2.84,12,12,0,0,0-4.93-1.12,7.17,7.17,0,0,0-5,2.33,6.73,6.73,0,0,0-5-1.83,8.15,8.15,0,0,0-4.25.92A7.51,7.51,0,0,0,71,267.85a.78.78,0,0,0-.53-.16l-3.11.2a3.5,3.5,0,0,0-.74-1.66c-1-1.25-2.83-1.94-5.44-2.05A20.09,20.09,0,0,0,51,266.13l-.17.08a15.88,15.88,0,0,1-.1-5.28c.12,0,.53,0,.64.06a20.16,20.16,0,0,0,4.85-.35c.88-.2.43-.28.66-.48s.11-.63,0-.73c-2-2.25-2-5.64-1.54-8.43a14.29,14.29,0,0,1,1.17-3.78,6.26,6.26,0,0,1,.73-1.22c.16-.2,1.08-1,1-1.27,0,0-.34.16-.4.06s.25-.4.1-.61-.46-.06-.65-.11c-2.69-.61-9.71-.24-11.37-.1s-.57.08-.67.13c-4.7,2.47-7.37,7.15-9.12,11.43a29.37,29.37,0,0,0-1.79,6.37H34.2c-11.12-.33-15.94,1.53-19.83,7.68l-.06.13c-.18.46-4.26,11.28,4,23a8.83,8.83,0,0,0-2.18,8.55c-1,1.55-5.12,8.33-2.74,14.48-1.43,1.29-5.54,5.7-3.1,12l-.13.11-.09.08L10,328a7.92,7.92,0,0,0-1.25,1.3s0,0,0,0a13.88,13.88,0,0,0-1.28,1.92c-1.27,2.33-2.46,6.25-1,11.8a9.46,9.46,0,0,0-1.09,1.59s0,.09,0,.13c-.86,1.47-1.73,3.49-1.36,5.2.9,4.1,4.07,7.1,9.7,9.17.4,1.24,2.08,4.57,8.43,4.57A13.29,13.29,0,0,0,24.45,363.36ZM45.79,245.52a68.23,68.23,0,0,1,10.11-.13C53,250,53,254.3,55.07,259.3a12.49,12.49,0,0,1-5.86-.39,6.54,6.54,0,0,1-2.36-1.51c-.5-.5-1.38-2.4-2.22-2a.71.71,0,0,0-.43,1,7.61,7.61,0,0,0,5.06,4.3,16.23,16.23,0,0,0-.19,5.11l-.24-.12,0,.31c-2-1.38-6-3.46-12.81-4C37.42,255.29,40,249.62,45.79,245.52ZM23.47,362.14c-7.58.57-8.44-3.54-8.47-3.71a.75.75,0,0,0-.49-.58c-5.33-1.88-8.31-4.57-9.1-8.21C5,347.75,7,344.7,7.84,343.69h0a52.12,52.12,0,0,1,6.05-5.55.76.76,0,0,0,.13-1.05A.77.77,0,0,0,13,337a61.12,61.12,0,0,0-5.3,4.71c-1.25-5.92.72-9.63,2.3-11.52a1.43,1.43,0,0,1,.2-.23,5.13,5.13,0,0,1,.44-.47,11.27,11.27,0,0,1,.94-.82l.05,0s0,0,0,0a29,29,0,0,1,3.16-2.1.77.77,0,0,0,.29-1,.75.75,0,0,0-1-.28c-.09.05-1.27.72-2.54,1.62a8.69,8.69,0,0,1,1.36-8.31s.1-.06.13-.11c1.22-1.54,5.31-4,6.78-4.81a.75.75,0,1,0-.73-1.31c-.14.08-2.35,1.31-4.37,2.74-1.31-3.72,0-7.8,1.29-10.41a.76.76,0,0,0,.12-.19c.88-1.87,4.59-4.24,5.94-5a.76.76,0,0,0,.29-1,.75.75,0,0,0-1-.29,31.82,31.82,0,0,0-3.82,2.59c-1.14-4.19,2.12-7.16,2.26-7.28a.76.76,0,0,0,.11-1C12,281.55,15.37,271.2,15.69,270.3c3.57-5.61,7.9-7.23,18.46-6.91,8.18.24,12.6,2.89,14.26,4.16a1.61,1.61,0,0,1-.15.26.86.86,0,0,0,.07.1,13.14,13.14,0,0,0-2.17,2.42c-1.92,2.76-3.72,7.69-1.61,15.56l-.16,0v0a29.73,29.73,0,0,0-5.51-.29c-2.25-.94-4.31-3.46-5.13-4.48-1.24-1.55-.25-4.76-.21-4.9.27-1.1.13-1.13-.32-1.27s-.59-.51-1.06.5a9.06,9.06,0,0,0-.12,5.53c-1,.55-2.37,1-3.35.43C26.46,280,26,277.19,25.64,275c-.1-.63-.38-.83-.82-.7s-.75-.12-.68,1a16,16,0,0,0,1.59,5.25c-1.7.61-4.34-.86-4.79-2s-.55-.66-1-.66-.74.34-.49,1a4.29,4.29,0,0,0,1.57,2.1,7.11,7.11,0,0,0,3.91,1.19,12.1,12.1,0,0,0,1.84-.19,5,5,0,0,0,1.23.88,4,4,0,0,0,1.84.41,7,7,0,0,0,2.86-.84,12.64,12.64,0,0,0,3.35,3.72,5.07,5.07,0,0,0-3.25,2.63l-.34.71c-1.44,2.91-5.67,11.5,2.64,16.89-1.36,1.67-3.26,4.87-1.89,8.58l.06.18a12.88,12.88,0,0,0-5.36,7.46,10.65,10.65,0,0,0,.42,6c0,.09.07.19.11.28-2.09,1.77-2.62,3-2.83,3.78a3.71,3.71,0,0,0,.05,2.14v0c-.38,2.49-1.23,10.75,2.89,17.09a9.94,9.94,0,0,0-2.3,1.26,2.24,2.24,0,0,0-.62.68,20.21,20.21,0,0,0-2,5.13,13.64,13.64,0,0,0-.28,1.9A3.28,3.28,0,0,0,23.47,362.14Zm97.86-76.57-.2,0h0l-.09,0-.08,0h-.07l-.06,0,0,0h0l-.12-.06s0,0-.07,0h0l-.08,0a18.36,18.36,0,0,0-6.14-.11,60.93,60.93,0,0,0-7.81,1.43c-3.88.94-7.72,2.09-11.48,3.41a2.25,2.25,0,0,0-1.1.84A23.19,23.19,0,0,0,76,294.43c-7.42-5.49-24.3-7.74-29.65-8.34l0,0H46.1a.59.59,0,0,0,0-.19c-4-14.26,5.17-18.2,5.56-18.36l.1,0a18.34,18.34,0,0,1,9.34-1.78c2.1.09,3.59.59,4.31,1.46a2,2,0,0,1,.47,1.23,7.15,7.15,0,0,0-4.65,5.56.74.74,0,0,0,.62.86H62a.75.75,0,0,0,.74-.63A5.9,5.9,0,0,1,67,269.56a.62.62,0,0,0,.32-.17l2.9-.19A4.69,4.69,0,0,1,72,272c0,.06,0,.13.05.21a7,7,0,0,0,.1,6.63.76.76,0,0,0,.66.39.77.77,0,0,0,.36-.09.75.75,0,0,0,.3-1,5.9,5.9,0,0,1,.54-6.29,7.12,7.12,0,0,1,3.37-.64c3.31,0,4.29,1.77,4.33,1.84a.61.61,0,0,0,.17.19,7.08,7.08,0,0,0,1.57,6.69.77.77,0,0,0,.56.25.74.74,0,0,0,.5-.2.75.75,0,0,0,0-1.06,5.87,5.87,0,0,1-.91-6.25,1.08,1.08,0,0,0,.07-.31,5.56,5.56,0,0,1,3.66-1.65,10.51,10.51,0,0,1,4.45,1.05,7.24,7.24,0,0,0,3.38,6.67.82.82,0,0,0,.39.11.73.73,0,0,0,.64-.37.74.74,0,0,0-.25-1,5.82,5.82,0,0,1-2.65-5.57,4.77,4.77,0,0,1,3.23-2.63,11.19,11.19,0,0,1,5.23.14,7.21,7.21,0,0,0,5.39,5.16l.15,0a.75.75,0,0,0,.16-1.48,5.91,5.91,0,0,1-4.38-4.56s0-.05,0-.08a2.21,2.21,0,0,1,1.09-2.36c1.42-.63,3.9-.1,4.73.15a.58.58,0,0,0,.14,0c.1,0,9.55,1,13,7C123.91,276.26,123.67,280.5,121.33,285.57Zm2,21a19.94,19.94,0,0,0,3.27-9.22c.4-4.62-1-8.76-3.44-10.75a16.41,16.41,0,0,0,4.53-3.18c.94-1.07.26-.78.07-1.23s-.63-.37-1.18.2a19.8,19.8,0,0,1-3.27,2.46l0,0c2-4.95,2-9.19.07-12.62A12.53,12.53,0,0,0,120,268.5c3-.77,11.47-1.92,16.17,7.47,0,.07,2.36,6.71-1.36,9.75a.77.77,0,0,0-.26.7,12,12,0,0,1-.77,6.13,14.78,14.78,0,0,1-3.38,4.34.75.75,0,0,0-.23.84s1.41,3.9-.23,6-5,4-5.75,4.45a1.28,1.28,0,0,1-.11-.2l0,0a8.17,8.17,0,0,0-1.25-.73C122.94,307.05,123.13,306.8,123.31,306.53Zm5.86,55.25a52.21,52.21,0,0,1-23,13.5l.34-.35A30.14,30.14,0,0,0,107,368c9.51-.67,12.77-6.22,13.81-10.65a18.49,18.49,0,0,0-1.1-11.52c2.87-5.59.74-17.3.17-20.07.82-5.39-1.62-10.24-3.59-13.13a18.14,18.14,0,0,0,6-4.77,4.62,4.62,0,0,1-.53.64,4.87,4.87,0,0,1,1.61,1.1l.57.57c1.73,1.71,5.85,9.66,5.21,13.69a16.83,16.83,0,0,0-3.24-.35c-.81.15-.87.4-.8.86s0,.69,1.1.66c.08,0,4.35.41,4.83,1.59,0,.07.3.19.41.33a6.76,6.76,0,0,1,1.2,1.91,12,12,0,0,1,.64,4.78,17.41,17.41,0,0,0-2.54-1.56.75.75,0,0,0-1,.37.73.73,0,0,0,.36,1c.08,0,8.15,3.92,8.15,12C138.26,349.79,134.69,356.19,129.17,361.78Z"/>
                        </g>
                        <path id="After" class="cls-2" d="M58.48,389.57a25.42,25.42,0,0,0,9.92,16.08,95.61,95.61,0,0,1,1.33,10.84l2,2.83,1.75-2.75,1.09-11.17s7.23-8,8.23-16.27a19.81,19.81,0,0,1-6.32-1.93S74.69,391,58.48,389.57Z"/>
                    </g>
                    <path id="Magen" class="cls-2" d="M77.33,201.63c0,2,3.53,6.07,7.1,9.39,2.76,2.58,3.43,2.81,5.51,2.14,9.36-3,24.06-4,31.21,6.24a19.25,19.25,0,0,1,2.95,15.21c-1.76,7.79-6.4,24.16-18.37,33.38-26,20.06-30-.75-39.47-6.35a21.61,21.61,0,0,0-8-2c-.64,0-1,.1-1.46-.43l-.6-.94c-1.56-2.47-1.15-7.84.39-11a5.36,5.36,0,0,1,.91-1.45c.46-.51.85-.88.85-.88,10.78,7.25,19.07,7,27.83,1.45C91.49,243,91.87,228.46,90,225c-2.27-4.32-2.52-4-6-6.91-3.28-2.72-11.2-10.73-10.87-16.91Z"/>
                    <g id="Speiseröhre">
                        <path class="cls-2" d="M73.15,201.11c-6.06-20.46-5-136.37-5.09-167.19A4.17,4.17,0,0,1,72,29.57a4.06,4.06,0,0,1,4.08,4.16c-1.65,74.84-3.27,152.42,1.31,167.88"/>
                        <path class="cls-2" d="M68.44,29.57h7.24a1.51,1.51,0,0,1,.76,2.74l-3.62,2.5a1.32,1.32,0,0,1-1.52,0l-3.62-2.5A1.51,1.51,0,0,1,68.44,29.57Z"/>
                        <path class="cls-2" d="M88.18,15.21c0,12.57-7.18,15.48-16,15.48s-16-2.91-16-15.48S63.3,0,72.15,0,88.18,2.65,88.18,15.21Z"/>
                    </g>
                </g>
            </g>
        </g>
    </g>
</svg>