<svg xmlns="http://www.w3.org/2000/svg" viewBox="0 0 152.48 487.38">
    <defs>
        <style>.cls-1{fill:#eeeded;}.cls-2{fill:#c2c1c1;}</style>
    </defs>
    <title>Hämatologie (2)</title>
    <g id="Ebene_2" data-name="Ebene 2">
        <g id="Mann">
            <g id="Hämatologie">
                <path class="cls-1" d="M100.64,170.77a10.31,10.31,0,0,1,5.22,3.74,1,1,0,0,1-.33,1.46c-2.4,1.43-9.48,5.29-16.17,5.32-8.22,0,.58-8.37.58-8.37a26.43,26.43,0,0,0,7.85-2A3.8,3.8,0,0,1,100.64,170.77Z"/>
                <path class="cls-1" d="M98.73,191.51a35.18,35.18,0,0,0,2.29,5.11,1.33,1.33,0,0,1-.74,1.9c-1.88.63-6.21,1.26-16,.31l.11-7.66a52.13,52.13,0,0,0,12.86-.52A1.32,1.32,0,0,1,98.73,191.51Z"/>
                <path class="cls-1" d="M103.19,208.88a23,23,0,0,1,1.29,5.63,1.58,1.58,0,0,1-1.35,1.69c-2.88.42-10.08.86-20.17-2.64L82.55,205s9.73,3.94,19,2.82A1.57,1.57,0,0,1,103.19,208.88Z"/>
                <path class="cls-1" d="M112.58,227.24A14.72,14.72,0,0,1,114,231a2.58,2.58,0,0,1-2.24,3.12c-4.82.53-16.09.39-27.65-9.61l.1-8.59a34.89,34.89,0,0,0,26,10A2.58,2.58,0,0,1,112.58,227.24Z"/>
                <path class="cls-1" d="M119.36,245.19a30,30,0,0,1,1.94,4,3.07,3.07,0,0,1-2.51,4.16c-5.24.6-16.56-.23-32.42-13.15l.73-8.28s14.3,9.93,30,11.75A3,3,0,0,1,119.36,245.19Z"/>
                <path class="cls-1" d="M124.89,262a21.7,21.7,0,0,1,2.91,7.41,2.24,2.24,0,0,1-2.09,2.53c-3.62.2-11.41.17-17.87-3a2.24,2.24,0,0,0-2.77,3.35,30,30,0,0,0,8,6.79,2.11,2.11,0,0,0,.33.18c1.24.52,8.44,3.21,19.54.3a2.17,2.17,0,0,1,1.62.19c1.28.71,3.28,2.73,2.5,8.33a2.2,2.2,0,0,1-1.15,1.66c-2.31,1.22-9,3.56-23.12.57a1.36,1.36,0,0,0-1.56,1.78c1.28,3.63,5.07,10.33,15.64,10.25,0,0,6.35.18,10-1.79a2.24,2.24,0,0,1,3,.86,6.37,6.37,0,0,1,.65,3.17,2.25,2.25,0,0,1-.6,1.5c-2.69,2.91-14.8,14.46-29.11,3.63a2.19,2.19,0,0,1-.66-.79c-1.31-2.6-7.83-15.76-9.52-23.75a15.82,15.82,0,0,0-2.34-5.53c-3.59-5.33-11.46-16.67-18-23.53L83,248.89s6.62,8.69,10.65,11.89,1.76-1.34,1.76-1.34a162.6,162.6,0,0,1-12.51-13.66c-4.45-5.79,1-7.44,1-7.44s12.93,17.77,39.48,22.58A2.27,2.27,0,0,1,124.89,262Z"/>
                <path class="cls-1" d="M55,170.77a10.23,10.23,0,0,0-5.22,3.74,1,1,0,0,0,.32,1.46c2.4,1.43,9.48,5.29,16.17,5.32,8.23,0-.58-8.37-.58-8.37a26.43,26.43,0,0,1-7.85-2A3.78,3.78,0,0,0,55,170.77Z"/>
                <path class="cls-1" d="M56.88,191.51a34.93,34.93,0,0,1-2.28,5.11,1.32,1.32,0,0,0,.73,1.9c1.88.63,6.21,1.26,16,.31l-.1-7.66a52.13,52.13,0,0,1-12.86-.52A1.33,1.33,0,0,0,56.88,191.51Z"/>
                <path class="cls-1" d="M52.42,208.88a23,23,0,0,0-1.29,5.63,1.58,1.58,0,0,0,1.35,1.69c2.88.42,10.08.86,20.17-2.64l.42-8.53s-9.74,3.94-19,2.82A1.58,1.58,0,0,0,52.42,208.88Z"/>
                <path class="cls-1" d="M43,227.24a14.36,14.36,0,0,0-1.4,3.73,2.57,2.57,0,0,0,2.23,3.12c4.82.53,16.09.39,27.66-9.61l-.11-8.59a34.89,34.89,0,0,1-26,10A2.59,2.59,0,0,0,43,227.24Z"/>
                <path class="cls-1" d="M36.25,245.19a30,30,0,0,0-1.94,4,3.07,3.07,0,0,0,2.51,4.16c5.24.6,16.56-.23,32.42-13.15l-.72-8.28s-14.31,9.93-30,11.75A3.07,3.07,0,0,0,36.25,245.19Z"/>
                <path class="cls-1" d="M30.73,262a21.49,21.49,0,0,0-2.92,7.41,2.24,2.24,0,0,0,2.1,2.53c3.62.2,11.4.17,17.86-3a2.24,2.24,0,0,1,2.78,3.35,30.38,30.38,0,0,1-7.95,6.79,2.21,2.21,0,0,1-.34.18c-1.24.52-8.43,3.21-19.54.3a2.18,2.18,0,0,0-1.62.19c-1.28.71-3.27,2.73-2.5,8.33a2.25,2.25,0,0,0,1.15,1.66c2.32,1.22,9,3.56,23.12.57a1.36,1.36,0,0,1,1.57,1.78c-1.28,3.63-5.07,10.33-15.64,10.25,0,0-6.36.18-10-1.79a2.24,2.24,0,0,0-3,.86,6.27,6.27,0,0,0-.64,3.17,2.2,2.2,0,0,0,.59,1.5c2.69,2.91,14.8,14.46,29.12,3.63a2.26,2.26,0,0,0,.65-.79c1.32-2.6,7.83-15.76,9.53-23.75a15.8,15.8,0,0,1,2.33-5.53c3.59-5.33,11.46-16.67,18-23.53l-2.69-7.24S66,257.58,62,260.78s-1.76-1.34-1.76-1.34a163.84,163.84,0,0,0,12.52-13.66c4.45-5.79-1-7.44-1-7.44S58.8,256.11,32.24,260.92A2.25,2.25,0,0,0,30.73,262Z"/>
                <path class="cls-2" d="M87.06,191.49a.35.35,0,0,0,.12-.22c.13-1.61,1.59-4,3.6-6.64a14.78,14.78,0,0,0,2.41-4.3.36.36,0,0,0,0-.23,16.08,16.08,0,0,1-1.46-3.93,17.26,17.26,0,0,1,.16-3.61.33.33,0,0,0-.21-.34A36.86,36.86,0,0,1,84,167.61a.38.38,0,0,0-.48,0c-1.83,1.72-5.25,2.07-5.63,2.1h-.06c-.38,0-3.8-.38-5.63-2.1a.38.38,0,0,0-.48,0A36.86,36.86,0,0,1,64,172.22a.33.33,0,0,0-.21.34,17.26,17.26,0,0,1,.16,3.61,16.51,16.51,0,0,1-1.46,3.93.36.36,0,0,0,0,.23,14.51,14.51,0,0,0,2.41,4.3c2,2.69,3.47,5,3.6,6.64a.35.35,0,0,0,.12.22c.45.37,2.14,1.83,2.22,2.86.08,1.19-1.61,3.25-2.19,4.58-.05.13.67,2.51.67,2.92s.45,1.1-1,3.7a.2.2,0,0,0,0,.11,13,13,0,0,0,.12,4,6.64,6.64,0,0,1-.93,4.86.37.37,0,0,0,0,.21,6.2,6.2,0,0,1-.72,4.34.3.3,0,0,0,0,.38c.71.73,3.08,3.78-.2,9.27a.42.42,0,0,0,0,.15,7.54,7.54,0,0,1-1.17,3.89.3.3,0,0,0,0,.39c.58.73,2.34,3.51.59,9a.3.3,0,0,0,.08.32,11.21,11.21,0,0,1,3.11,7.7,4.78,4.78,0,0,0,.14,1,.36.36,0,0,0,.41.26c.4-.08.79.19,3.25,2.27l.05.06a4.61,4.61,0,0,1,.78,3.18.38.38,0,0,1-.08.17,5.13,5.13,0,0,0-.76,1.07.32.32,0,0,0,.1.36c.55.46,2.26,2,2.38,3.95a2.06,2.06,0,0,0,.75,1.58.3.3,0,0,1,.12.25h0a.34.34,0,0,0,.39.33,2.65,2.65,0,0,0,.44-.07h1.42a2.72,2.72,0,0,0,.43.07.35.35,0,0,0,.4-.33h0a.3.3,0,0,1,.12-.25,2.06,2.06,0,0,0,.75-1.58c.12-1.92,1.83-3.49,2.38-3.95a.32.32,0,0,0,.1-.36,5.13,5.13,0,0,0-.76-1.07.38.38,0,0,1-.08-.17,4.61,4.61,0,0,1,.78-3.18l0-.06c2.46-2.08,2.85-2.35,3.25-2.27a.36.36,0,0,0,.41-.26,4.78,4.78,0,0,0,.14-1,11.21,11.21,0,0,1,3.11-7.7.3.3,0,0,0,.08-.32c-1.75-5.47,0-8.25.59-9a.3.3,0,0,0,0-.39,7.54,7.54,0,0,1-1.17-3.89.42.42,0,0,0,0-.15c-3.28-5.49-.91-8.54-.2-9.27a.3.3,0,0,0,0-.38,6.2,6.2,0,0,1-.72-4.34.37.37,0,0,0,0-.21,6.64,6.64,0,0,1-.93-4.86,13,13,0,0,0,.12-4,.35.35,0,0,0,0-.11c-1.43-2.6-1-3.29-1-3.7s.72-2.79.67-2.92c-.58-1.33-2.27-3.39-2.19-4.58C84.92,193.32,86.61,191.86,87.06,191.49Z"/>
                <path class="cls-2" d="M109.18,472.05a.76.76,0,0,0-.2.06c-5.28,1.9-10.53,3.89-16.19,4.57-1.24.15-1.29.75-.6,1.55a15.76,15.76,0,0,0,10.41,5.82,5.53,5.53,0,0,0,3.64-1.23c2.72-1.93,4.38-4.67,6-7.39.56-.92,1.85-2,.92-3.08S110.56,471.73,109.18,472.05Z"/>
                <path class="cls-2" d="M110.78,468c3.79-.5,7.21.24,10,3,1.82,1.78,6.12,1.51,7.85-.45a35.81,35.81,0,0,1,7.71-6.47,7.34,7.34,0,0,0,1.86-1.74A63.51,63.51,0,0,0,146,450.14c1.56-3.26,2.83-7,1.09-10.44-1.64-3.26-.83-6,1-8.5,3.42-4.59,4-9.8,4.4-13.61a39.87,39.87,0,0,0-1.65-12.72c-2.58-9-6.72-17.23-15.31-22.39-6.75-4.05-14.1-4.14-18.69,3.87-2.52,4.4-4.23,9.15-6.7,13.58-2.74,4.93-5.05,10.1-9.19,14.19-.61.61-.39,1.13,0,1.72a24.09,24.09,0,0,1,3.15,8.5,2.63,2.63,0,0,0,2.39,2.4,12.83,12.83,0,0,1,6.69,3.39,21.61,21.61,0,0,1,6.58,17.4c-.61,10-8.14,16.84-18.59,16.87-3.22,0-6.44-.16-9.65.62-1.24.31-2.69.77-4,.27s-.72-2-1.36-2.88c0-.06-.07-.12-.11-.17-1.08-1.34-.78-2.64.14-3.91a9.44,9.44,0,0,0,1.63-5.46c.1-3.2.41-6.36,2-9.34,1.8-3.35,4.8-5.49,7.72-7.76,2.55-2,4.57-4.53,4.63-7.62.12-6.11-1.79-11.66-6.66-16a3.27,3.27,0,0,0-3.72-.67c-1.71.74-3.53,1.32-5.16,2.21a18.79,18.79,0,0,1-8.32,2c-4.2.2-7.8-1.6-11.57-3-5.41-2-5.68-2.61-10,2-3.67,3.92-5.19,8.72-3.42,13.95A18.32,18.32,0,0,0,61,438.12c5.8,3.8,8.87,8.51,6.25,15.42a3.43,3.43,0,0,0,1.21,3.85,11,11,0,0,1,2.72,3.09,3.13,3.13,0,0,1-.33,3.46c-.8,1-1.84.52-2.78.27a38.18,38.18,0,0,1-4.22-1.31,20.39,20.39,0,0,0-7.37-1.72,14.68,14.68,0,0,1-6.48-2c-10.93-5.61-10.59-22.54-3.53-28.23,2.41-1.95,4.49-4.25,4.23-7.68a4,4,0,0,1,.56-2.42c2.38-3.57,1-6.41-1.31-9.52a18,18,0,0,1-4-12.48,16.17,16.17,0,0,0-.68-4.74c-1-4.49-4-7.77-7.49-10.72-3.69-3.15-8-4.42-12.66-2.79a28,28,0,0,0-11,7.66C8.06,394.77,3.08,401.94,1,410.67a28,28,0,0,0,.22,15.57,16.27,16.27,0,0,0,6.85,9.21A72.89,72.89,0,0,0,15,439c2.71,1.34,3.51,2.87,3.25,5.79a15.44,15.44,0,0,1-1.68,5.33c-1.8,3.79-3.1,7.65-2.1,11.93a3.86,3.86,0,0,0,1.77,2.63,26.9,26.9,0,0,1,9,9A2.75,2.75,0,0,0,27.47,475a20.9,20.9,0,0,0,11.76-1.91c2.82-1.27,5.05-3.42,7.88-4.64,1.46-.62,2.92-1.43,4.59-1.19a25,25,0,0,1,11.43,4.52A19.34,19.34,0,0,0,75,475.59a74.62,74.62,0,0,0,29-5.8A25.89,25.89,0,0,1,110.78,468Z"/>
                <path class="cls-2" d="M47.93,486.32a4.31,4.31,0,0,0,3.76.94,19.28,19.28,0,0,0,12.39-9.14c.63-1.05.46-1.53-.84-1.88-2.26-.61-4.48-1.37-6.67-2.17a17.82,17.82,0,0,0-6.89-1.2,19.65,19.65,0,0,0-7.85,1.48c-.77.29-1.59.69-1.11,1.69C42.54,479.84,44.35,483.66,47.93,486.32Z"/>
                <path class="cls-2" d="M48.59,61.1c1.63,1,2.2,2.4,1.31,4.23-.76,1.59,0,2.66,1.52,3.41a7.16,7.16,0,0,0,2.91.78c5.18.19,8.82-2.36,11.78-6,1.12-1.4,2-3,3-4.42.38-.51.87-1.2,1.71-.93s.88,1.11.89,1.85c0,2.34-1.25,4.19-2.6,6a36.19,36.19,0,0,0-5.46,9.17c-1,2.69-1.53,5.36-.28,8.17a5.21,5.21,0,0,0,5.51,3.37c2.93-.44,5.86-.19,8.78-.31,3.64.06,7.29.24,10.83-.76C94.38,83.92,97,81,92.92,75.29c-2.84-4-5.31-8.18-8.22-12.11a4.29,4.29,0,0,1-.78-4.34c.58-1.37,1.48-1.6,2.62-.63a11.84,11.84,0,0,1,2.4,2.6,24.76,24.76,0,0,0,5.69,6.13,11.65,11.65,0,0,0,9.31,2.43c2.88-.49,3.74-1.84,3.08-4.53-.56-2.3-.11-3.39,2.11-4.47a8.78,8.78,0,0,0,4.46-4.58c.46-1.13.82-2.3,1.19-3.46a20.59,20.59,0,0,0-2.28-18.11,29.72,29.72,0,0,1-5-12.83c-.23-2-.54-4-.89-6C105.5,9.28,102.1,5,95.89,2.72,90.49.72,84.87.2,79.21,0A50.6,50.6,0,0,0,66.76,1.65c-9.41,2.07-15.52,8.54-16.47,17.64A18.88,18.88,0,0,1,46,29.67c-4.85,5.82-5.51,12.55-4.42,19.59C42.29,54.05,44.07,58.32,48.59,61.1Z"/>
            </g>
        </g>
    </g>
</svg>