<svg xmlns="http://www.w3.org/2000/svg" viewBox="0 0 112.35 50.71">
    <defs>
        <style>.cls-1{fill:#c2c1c1;}</style>
    </defs>
    <title>Nieren (3)</title>
    <g id="Ebene_2" data-name="Ebene 2">
        <g id="Mann">
            <g id="Organe">
                <g id="Harnorgane">
                    <g id="Nieren">
                        <path class="cls-1" d="M34.67,25a1.27,1.27,0,0,1-1.5-.76,4.6,4.6,0,0,0-4.33-2.45,5.75,5.75,0,0,0-1.73.27l-1.8-1.81c2-2.47,4.28-5.35,4.26-8.47C29.5,1.81,23,0,16,0,7.18,0,0,11.35,0,25.36S7.18,50.71,16,50.71c6.24,0,10.92-2.25,12.62-9.78v8.2a1.35,1.35,0,0,0,.22.75,1.39,1.39,0,0,0,1.16.63,1.4,1.4,0,0,0,1.39-1.38V28.3a4.28,4.28,0,0,0,1-.75,2.29,2.29,0,0,1,1.23-.68c2.91-.5,13.56-3.62,14.67-3.6v-2Z"/>
                        <path class="cls-1" d="M96.32,0C89.4,0,82.84,1.81,82.78,11.78c0,3.12,2.24,6,4.26,8.47l-1.81,1.81a5.65,5.65,0,0,0-1.73-.27,4.57,4.57,0,0,0-4.36,2.52,1.18,1.18,0,0,1-1.4.74l-14.9-3.92v2c1,0,11.38,2.9,15.27,3.64a4.71,4.71,0,0,1,2.11,1,4,4,0,0,0,.71.48V49.13a1.39,1.39,0,0,0,2.77,0v-8.2c1.69,7.53,6.37,9.78,12.62,9.78,8.85,0,16-11.35,16-25.35S105.17,0,96.32,0Z"/>
                    </g>
                </g>
            </g>
        </g>
    </g>
</svg>