<svg xmlns="http://www.w3.org/2000/svg" viewBox="0 0 336.11 938.2">
    <defs>
        <style>.cls-1{fill:#c2c1c1;}</style>
    </defs>
    <title>Skelett+Muskeln (2)</title>
    <g id="Ebene_2" data-name="Ebene 2">
        <g id="Mann">
            <g id="Organe">
                <g id="Skelett_Muskeln" data-name="Skelett+Muskeln">
                    <g id="Skelett">
                        <path class="cls-1" d="M108,237.77c-.53.32-.4.77,0,1.14a33.27,33.27,0,0,0,6.59,5.64c.64.39,1.22.53,1.47-.49.57-2.37,1.28-4.72,1.83-7.09.32-1.38-.89-2.6-2.59-2.53A37.7,37.7,0,0,0,108,237.77Z"/>
                        <path class="cls-1" d="M113.3,200.88c-.14-.39-.18-.92-.81-1-.35.26-.19.58-.13.88,1.2,6,5.82,9.63,10.35,13,4.32,3.21,9.82,4.42,15.2,5.41,6.11,1.13,12.33.88,18.51,1.12,1.55.06,2.55,0,2.61-1.92s-.77-2.4-2.63-2.39a116.18,116.18,0,0,1-12.92-.32c-7.92-.83-15.51-2.53-22.42-6.51C117.57,207.17,114.68,204.68,113.3,200.88Z"/>
                        <path class="cls-1" d="M116.8,216.35a22.85,22.85,0,0,0-4.11,1.55c-.84.49-.94,1-.28,1.69a30,30,0,0,0,5.61,4.65c.27.17.53.46.89.28s.27-.53.15-.84c-.24-2-.45-4.07-.74-6.09C118.21,216.83,118,216,116.8,216.35Z"/>
                        <path class="cls-1" d="M105.46,244.22a40.57,40.57,0,0,0,16.66,12.36,35.61,35.61,0,0,0,19.37,2.33,43.76,43.76,0,0,0,14-4.74c2.66-1.48,2.78-1.3,2.2-4.4l-3.47,2.68A21.87,21.87,0,0,1,137.1,257a51.14,51.14,0,0,1-14.4-4.22c-5.78-2.66-11.28-5.69-15.8-10.17a42.83,42.83,0,0,1-6.16-7.51A27.33,27.33,0,0,0,105.46,244.22Z"/>
                        <path class="cls-1" d="M109.32,204.47a6,6,0,0,0-.46.5c-1.39,1.78-1.37,7.31,0,9.1a1,1,0,0,0,1.37.42c1.27-.6,2.55-1.16,3.81-1.78.93-.46,1.28-1,.42-1.93-1.64-1.78-3.42-3.49-4.3-5.78A.73.73,0,0,0,109.32,204.47Z"/>
                        <path class="cls-1" d="M104.93,215.69c1.44,4.5,3.59,8.67,7.32,11.8A42.73,42.73,0,0,0,126,235a99.39,99.39,0,0,0,18.27,3.91,45.44,45.44,0,0,0,10.8.4c1.95-.19,2.64-.74,2.81-2.62s-.24-1.91-1.85-1.33a30.73,30.73,0,0,1-17.12.91,81.65,81.65,0,0,1-20.21-7.67,33.43,33.43,0,0,1-9.72-7.41c-1.71-1.95-2.6-4.28-3.87-6.46A.78.78,0,0,0,104.93,215.69Z"/>
                        <path class="cls-1" d="M147.14,92a23.37,23.37,0,0,0,2.68,5.59c.37.51.84,1.37,1.51.91a5,5,0,0,1,3.29-.75c-1.44-.85-3-1.22-3-2.64.09-3-1.83-5.16-2.85-7.69a5,5,0,0,0-2.44-2.21c-.34-.19-.71-.52-1.1-.28s-.28.8-.14,1.22C145.77,88.05,146.43,90,147.14,92Z"/>
                        <path class="cls-1" d="M185.05,97.75c-.41.15-1,.13-1.3,1,1.67-.25,3.17-1.39,4.49-.52,1.64,1.08,2.08.31,2.53-1,.24-.67.55-1.31.79-2a60.43,60.43,0,0,0,2.57-9c-2.37.93-5.73,5.07-5.72,6.79C188.45,96.51,188.44,96.51,185.05,97.75Z"/>
                        <path class="cls-1" d="M181.17,169a16.56,16.56,0,0,1,4.61-.43,61.93,61.93,0,0,1,10.78,1.24c.43.1,1,.41,1.28-.09s-.27-.79-.56-1.12a12.79,12.79,0,0,0-15.36-3c-1,.47-1.87,1-2,2.21C179.79,168.75,179.94,169.34,181.17,169Z"/>
                        <path class="cls-1" d="M141.71,84.74c-.23-.56-.67-1.1-1.37-.86s-.17.85-.12,1.29c.31,2.49,1,4.92,1,7.45.11,4.37,1.36,8.26,4.81,11.46,1.49,1.38,3,2.71,4.49,4.13a28.57,28.57,0,0,0,11.6,6.68,4.23,4.23,0,0,0,1.75.34c3.22-.51,6.46-.17,9.69-.28a8.7,8.7,0,0,0,2.77-.46,50.85,50.85,0,0,0,8.37-3.79c4.39-2.63,8-5.75,9.26-10.89a101.39,101.39,0,0,1,5.83-15.65c-1.62.14-2.76.46-3.19,2-1.15,4.16-2.48,8.27-3.57,12.44-1,3.68-3.31,6.16-6.62,8.09-5.87,3.43-12.33,4.14-18.91,3.51-7.48-.71-14.23-3.33-19.54-8.68a10.39,10.39,0,0,1-3.05-5.34c-.36-1.83-.49-3.71-1-5.49C143.36,88.68,142.49,86.72,141.71,84.74Z"/>
                        <path class="cls-1" d="M115.22,256.87a32.42,32.42,0,0,0-5.54-4.08c-1.25-.68-2.53.59-3.46,1.39s.27,1.33.7,1.91a30.83,30.83,0,0,0,4.49,4.65c.84.76,1.67,2.05,3,1.61s.78-2,1-3C115.21,258.47,115.92,257.47,115.22,256.87Z"/>
                        <path class="cls-1" d="M159.19,262.85c-19.78,14.85-38,13.28-55-4.46,4.3,9.11,15.66,15,28.87,15.26C143.43,273.82,152.48,270.55,159.19,262.85Z"/>
                        <path class="cls-1" d="M133.6,269.7a30.87,30.87,0,0,0,6.21-.79c6.27-1.19,11.44-4.38,16.23-8.24.3-.24.67-.53.53-1s-.64-.4-1-.41a8.36,8.36,0,0,0-4.12.69A28.29,28.29,0,0,1,135,263c-4.66-.62-8.76.81-13,1.77-.65.14-1.43.32-1.54,1.07-.13.92.8,1.1,1.43,1.37A32.64,32.64,0,0,0,133.6,269.7Z"/>
                        <path class="cls-1" d="M123.79,275.77c-1.61-.6-3.26-1.13-4.92-1.64a.83.83,0,0,0-1,.54,19.06,19.06,0,0,1-4,5.48.87.87,0,0,0-.14.68c0,.09.32.14.44.19a1.92,1.92,0,0,0,.27-.08q4.59-2.16,9.18-4.34C124.1,276.4,124.35,276,123.79,275.77Z"/>
                        <path class="cls-1" d="M121.45,285.07a25.21,25.21,0,0,0,8.06,1.6c6.63-.4,12.17-3.86,17.47-7.83.45-.34.55-.82,0-1.1-1.33-.66-2.47-1.77-4.26-1.29a173.73,173.73,0,0,0-21.3,7.2c-.36.15-.84.24-.82.72S121.09,284.94,121.45,285.07Z"/>
                        <path class="cls-1" d="M103.52,232.5c.55,1.48,1.26,2.2,2.88,1a17.4,17.4,0,0,1,3-1.65c1.25-.6,1.64-1.09.36-2.2a56.64,56.64,0,0,1-3.88-4.16c-.65-.69-.91-2.25-1.9-1.94s-1.08,1.78-1.14,2.87c0,.45,0,.9,0,1.35A11.3,11.3,0,0,0,103.52,232.5Z"/>
                        <path class="cls-1" d="M125.9,219.71c-.1,1.46-.21,2.93-.32,4.39-.07.91.42,1.2,1.24.92,3.71-1.27,7.58-2,11.39-3.3-3.71-1-7.32-2.08-10.94-3.18C126.29,218.24,126,218.89,125.9,219.71Z"/>
                        <path class="cls-1" d="M131.79,202.78c-4.28-1.34-4.28-1.35-4.89,3,0,.12-.05.25-.07.37-.19,1.07.31,1.49,1.36,1.18,2.94-.86,5.86-1.76,9-2.72a4.26,4.26,0,0,0-.42-.35C135.12,203.77,133.45,203.3,131.79,202.78Z"/>
                        <path class="cls-1" d="M130,230.38c7.67,2.58,15.49,4,23.59,2.28,5.66-1.23,4.9-.56,5-6.17,0-1.49-.5-1.83-2-1.66a213.69,213.69,0,0,0-27.24,5C129.71,230.15,129.82,230.33,130,230.38Z"/>
                        <path class="cls-1" d="M136.21,211.37a73.12,73.12,0,0,0,18.42,2c4.61,0,4.57,0,5-4.3.13-1.27-.32-1.86-1.61-1.84-3.08,0-6.15-.51-9.25.19-3.86.87-7.78,1.49-11.66,2.27-.93.19-2,.12-2.79.87C134.86,211.28,135.6,211.22,136.21,211.37Z"/>
                        <path class="cls-1" d="M121.75,249.11c4.93,2.25,9.94,4.28,15.54,4.32.6,0,1.21,0,1.81,0,7.06-.67,12.84-3.93,18.14-8.17.51-.41,1-.91.7-1.64s-1-.54-1.6-.56a105.9,105.9,0,0,0-17.88,1.26,134,134,0,0,0-16.14,3.37c-.44.12-1,.1-1.2.59S121.38,248.94,121.75,249.11Z"/>
                        <path class="cls-1" d="M132.48,240.48c-3.31-.86-6.44-2.14-9.7-3a1,1,0,0,0-1.28.67c-.47,1.47-.92,2.95-1.26,4.45-.16.68.23,1.11,1.07.89Z"/>
                        <path class="cls-1" d="M158.17,198.28c1.45.18,2.15-.43,2.08-1.86-.05-1.09-.06-2.18,0-3.27,0-1.52-.61-2.24-2.28-2.21a73.93,73.93,0,0,0-10.09.44,72.35,72.35,0,0,0-11.07,2.16,7,7,0,0,0,1,.65A116.18,116.18,0,0,0,158.17,198.28Z"/>
                        <path class="cls-1" d="M164.56,353.73c-1.05.3-2,.73-1.73,2s1.39,1.17,2.4,1.21c3.63.16,7.28-.43,10.88.42.84.21.94-.24.66-.86a4.81,4.81,0,0,0-3-2.69c-1.29-.47-1.29-1.17-.25-2,.21-.16.45-.28.65-.45.5-.4,1.29-.73,1.07-1.48s-1.2-.67-1.91-.68c-1.48,0-3,0-4.44,0-1.76,0-3.51,0-5.26,0-.4,0-.9,0-.95.51a1.15,1.15,0,0,0,.44.81,8,8,0,0,0,1.36.8c.65.34,1.88,0,1.86,1.07C166.32,353.27,165.33,353.51,164.56,353.73Z"/>
                        <path class="cls-1" d="M153,172.46a54.1,54.1,0,0,1-11.22,1.16c-1,0-2,0-2.09,1.26a2,2,0,0,0,1.92,2.11,38.37,38.37,0,0,1,5.23.48c2.7-.58,5.49-.92,7.32-3.23.35-.44.81-1,.49-1.59S153.56,172.37,153,172.46Z"/>
                        <path class="cls-1" d="M164.85,329c-.25.11-.51.17-.76.28-.92.41-1.65,1.09-1.46,2.06s1.25.84,2,.83c3-.06,6-.52,9.09.19,1-.71,2.56.8,3-.4.28-.8-1-1.94-2.13-2.54-2.19-1.17-2.19-1.22-.16-2.77.41-.31,1-.54.81-1.17s-.7-.56-1.18-.58c-3.35-.14-6.7-.29-10-.39-.56,0-1.33-.12-1.45.67s.49,1,1,1.32a10,10,0,0,0,1.13.4c.59.23,1.5.16,1.57,1S165.43,328.75,164.85,329Z"/>
                        <path class="cls-1" d="M132.17,172.88a5.38,5.38,0,0,0,1.14,4.89,21.27,21.27,0,0,0,8.78,6.27c3.35,1.45,6.95,1.71,10.55,2.08,1.63.17,3.33-.48,5.07.72-.34-1.76-1.15-2.74-2.68-2.75a41,41,0,0,1-6.17-.91,35.06,35.06,0,0,1-10.08-3.34c-4.49-2.23-5.29-5.57-2.38-9.56a37.74,37.74,0,0,1,6.22-6c2.86-2.48,6.17-2.93,9.77-2.57,2,.19,3.67,1.18,6.09,1.94A13.88,13.88,0,0,0,144,160.76c-2.62,1.14-4.58,3.11-6.88,4.66A12.4,12.4,0,0,0,132.17,172.88Z"/>
                        <path class="cls-1" d="M133.16,190l10.22-2.81c-2-.72-3.56-1.25-5.1-1.87-4.12-1.65-6.13-.85-6.59,3.44C131.55,189.93,132,190.27,133.16,190Z"/>
                        <path class="cls-1" d="M163.34,346.52c4.14,1,8.3.65,12.47.34C171.66,345.84,167.5,346.15,163.34,346.52Z"/>
                        <path class="cls-1" d="M176.76,344.36c.28-.77-.77-1.53-1.42-2.17a3.77,3.77,0,0,0-.64-.47c-2.23-1.41-2.22-1.4-.22-2.89.41-.31,1-.55.8-1.19s-.77-.71-1.31-.72c-1.74,0-3.49,0-5.23,0v-.08c-1.41,0-2.83,0-4.24,0-.63,0-1.57-.28-1.78.46s.7,1.12,1.31,1.49a4.43,4.43,0,0,0,.74.31c.54.23,1.27.35,1.28,1.05s-.74,1-1.38,1.19c-1.12.3-2.13.77-1.88,2.06.27,1.45,1.63,1.21,2.61,1.07a38.5,38.5,0,0,1,9,0C175.21,344.57,176.41,345.32,176.76,344.36Z"/>
                        <path class="cls-1" d="M175.81,296.88c-1.8-1.16-10.95-1.31-12.64-.25C167.51,297.38,171.66,297,175.81,296.88Z"/>
                        <path class="cls-1" d="M162.77,299.16c-.25.69.36,1.19.92,1.55a6.39,6.39,0,0,0,1.3.51c.54.2,1.34.15,1.36.92s-.75,1-1.37,1.21c-.31.12-.63.21-.94.34-.8.33-1.42.84-1.22,1.76a1.58,1.58,0,0,0,2,1.17,37.31,37.31,0,0,1,10.35.15c.63-.09,1.3.38,1.62-.15s-.31-1-.66-1.48a4,4,0,0,0-1.65-1.37c-2.24-.92-2.25-1.09-.41-2.51.56-.43,1.45-.8,1.13-1.63s-1.26-.58-2-.61c-3-.13-5.93.24-8.87-.3C163.8,298.62,163,298.48,162.77,299.16Z"/>
                        <path class="cls-1" d="M175.81,309.22c-2.13-1.22-11.1-1.25-13.12-.05A97.54,97.54,0,0,0,175.81,309.22Z"/>
                        <path class="cls-1" d="M165.82,139c-.71.18-1.47.24-2.15.48s-1.14.6-1.07,1.26.83.76,1.42.77c4.48.11,9-.18,13.71.28a5.36,5.36,0,0,0-2.43-2.29c-2.08-1-2.09-1-.32-2.39.32-.25.72-.46.59-.9s-.49-.42-.83-.43l-11.11,0c-.33,0-.78,0-.77.42,0,.25.31.55.55.73.69.48,1.56.31,2.34.49.46.11,1,.23,1,.78S166.26,138.93,165.82,139Z"/>
                        <path class="cls-1" d="M163.51,161.94c-.83.37-1.69.75-1.49,1.78s1.25,1,2.11,1c2,0,4,0,6.06,0v0c1.68,0,3.36,0,5,0,.81,0,1.94.84,2.33-.17.3-.76-.91-1.3-1.46-1.92a3.44,3.44,0,0,0-1.18-.69c-.59-.26-1.41-.34-1.42-1.15s.67-1.06,1.25-1.38,1.44-.49,1.29-1.28-1.14-.72-1.84-.74c-3.49-.11-7,.18-10.47-.35-.67-.1-1.72-.26-1.88.63s.91,1.14,1.6,1.47c.86.4,2.42,0,2.5,1.18S164.43,161.53,163.51,161.94Z"/>
                        <path class="cls-1" d="M195.28,160.94a11.27,11.27,0,0,0-9-.59,13.63,13.63,0,0,0-5.61,3.42,29.23,29.23,0,0,1,3.29-1.36c3.76-1.08,7.54-1.64,11,.77a42.4,42.4,0,0,1,7.84,6.91c2.43,2.78,2.43,6,0,8.13a13.67,13.67,0,0,1-3.54,2.2,47.38,47.38,0,0,1-14.61,3.6,3.26,3.26,0,0,0-2.63,1.55c-.29.46-.25.94.54.77,2.6-.53,5.26-.22,7.92-.58a28.14,28.14,0,0,0,12.5-5c4.76-3.31,5.49-7.45,2.17-12.05C202.67,165.2,199.14,162.87,195.28,160.94Z"/>
                        <path class="cls-1" d="M207.3,190c1.11-.75-.31-2.16-.17-3.35s-.66-1.68-1.9-2c-3.49-.85-5.83,1.74-8.81,2.56,2.5.68,5,1.37,7.49,2C205.07,189.62,206.67,190.47,207.3,190Z"/>
                        <path class="cls-1" d="M176.51,155.27c-2.89-1.19-11.83-1.2-14.18-.06A114,114,0,0,0,176.51,155.27Z"/>
                        <path class="cls-1" d="M177.91,197c-.09,1.37.33,1.63,1.7,1.51a141.92,141.92,0,0,0,15.89-2.64c2.28-.47,4.5-1.2,6.87-1.85a1.41,1.41,0,0,0-1.21-.86A78.76,78.76,0,0,0,184.61,191C178.36,191,178.33,191,177.91,197Z"/>
                        <path class="cls-1" d="M159,168.41c.35-.85-.38-1.57-1-2.14-1.94-1.67-4.42-1.67-6.32-1.92a12.39,12.39,0,0,0-9.56,4c-.39.39-1.18.77-.86,1.37s1.09.14,1.63,0a52.76,52.76,0,0,1,14-1C157.65,168.75,158.64,169.43,159,168.41Z"/>
                        <path class="cls-1" d="M164.61,121.23c-.45.23-1.19.23-1.13.88s.82.53,1.31.55c3.3.14,6.61-.22,9.89.32.47.07,1.22.22,1.3-.5s-.57-.82-1-1.06c-2.52-1.23-2.52-1.23-.35-2.76,0,0,0-.12,0-.31-1.57-.64-3.27-.17-4.89-.35-.42,0-1.12.32-1.14-.57s-.52-1.27-1.13-.85c-1.17.83-2.6,1-3.83,1.64.17.61.64.58,1,.75.84.39,2.45,0,2.39,1.23C167,121.1,165.42,120.81,164.61,121.23Z"/>
                        <path class="cls-1" d="M162.07,168.08h15.56C175.22,166.87,163.86,166.57,162.07,168.08Z"/>
                        <path class="cls-1" d="M165,129.56c-.56.41-1.63.5-1.5,1.35s1.2.6,1.86.61c3.16.06,6.33.06,9.49.07.44,0,1,.32,1.27-.22.27-.69-.43-1-.9-1.32-.73-.56-2.12-.33-2.37-1.24-.34-1.22,1.64-.87,1.87-1.89-1.48-.49-8.36-.62-11.06-.19.23.6.69.59,1,.75.79.36,2.23,0,2.28,1.12C167,129.51,165.6,129.1,165,129.56Z"/>
                        <path class="cls-1" d="M183.69,172.94c-.21.36.16.69.43,1,2.78,2.9,10.06,4.45,13.94,3a2,2,0,0,0,1.36-2.13,1.07,1.07,0,0,0-1.16-1.09A54.08,54.08,0,0,1,186,172.38C185,172.56,184.15,172.16,183.69,172.94Z"/>
                        <path class="cls-1" d="M178.47,152.52c.41-1.07-1.27-1.41-2-2.1a4.38,4.38,0,0,0-1-.56c-.49-.25-1.41,0-1.43-.78s.74-1,1.34-1.3,1.16-.42,1-1c-.16-.77-1-.54-1.53-.55-3.29-.08-6.6.15-9.41-.38-.81,0-1.15,0-1.48,0-.51,0-1.22-.11-1.32.56s.6.61,1,.77c.68.27,1.39.47,2.09.69.46.15.94.32.91.88s-.47.61-.85.74c-.82.27-1.67.48-2.48.8a1.13,1.13,0,0,0-.83,1.2c.08.61.61.81,1.18.85s1.21.06,1.81.06c3.5,0,7-.22,10.48,0C176.83,152.42,178.1,153.46,178.47,152.52Z"/>
                        <path class="cls-1" d="M174.83,316.24c-2.31-1.23-2.3-1.24-.36-2.9.45-.39,1.07-.77.82-1.42s-1-.53-1.59-.54c-3.16,0-6.32,0-9.48,0-.56,0-1.39-.22-1.52.54s.74.78,1.19,1.12c.77.58,2.34.34,2.41,1.43.08,1.28-1.54,1.17-2.39,1.7-.64.41-1.28.79-1.09,1.64a1.61,1.61,0,0,0,1.61,1.23,11.27,11.27,0,0,0,2,0c3.45-.32,6.89.06,10.48.05A4.47,4.47,0,0,0,174.83,316.24Z"/>
                        <path class="cls-1" d="M164.17,407.73c-.54.38-1.26.66-1.19,1.41s.84.73,1.39.88c3.32.94,6.66.19,10,0,.55,0,1.27-.22,1.34-.95s-.51-.84-.95-1.13c-2.22-1.48-2.22-1.48-.26-3,.36-.28.9-.49.81-1s-.76-.64-1.26-.75c-1.86-.4-3.76-.11-5.76-.23-1.09,0-2.3,0-3.5,0-.73,0-1.84-.41-2.05.59-.16.75.85,1,1.46,1.39.77.46,2.14.5,2.17,1.48C166.4,407.61,164.89,407.24,164.17,407.73Z"/>
                        <path class="cls-1" d="M239.17,279.51c-.24-.05-.61.2-.83.4-1,.94-2,1.9-3,2.86-2.63,2.54-2.62,2.54.62,4.31l.35.2c.86.54,1.36.21,1.68-.62a33.18,33.18,0,0,0,1.55-6.11C239.47,280.14,239.69,279.63,239.17,279.51Z"/>
                        <path class="cls-1" d="M229.7,289.4a1.52,1.52,0,0,0-1.71,0,34.41,34.41,0,0,1-14.61,5.34c3.08,1.9,6.16,3.62,9,5.66a3.07,3.07,0,0,0,3.52.27,21.7,21.7,0,0,0,7.22-5.48c2.18-2.55,2.17-2.57-.8-4.34C231.47,290.33,230.57,289.89,229.7,289.4Z"/>
                        <path class="cls-1" d="M238.51,270.43c-1.7,3.13-2.88,6.54-5.51,9.15-5.33,5.29-12,7.88-19.46,9-5.4.82-10.81,1-15.73-1.79a48.27,48.27,0,0,1-12.42-10.07c-2.79-3.1-5.49-6.27-8.4-9.6a1.91,1.91,0,0,0,.5,2.23,79.09,79.09,0,0,0,8.42,9.33c6.09,5.62,12.61,10.35,21.29,12.16,9.58,2,17.13-1.57,23.88-7,5-4.06,7.17-10.14,9.48-15.91a1.87,1.87,0,0,0,0-.71A16.45,16.45,0,0,0,238.51,270.43Z"/>
                        <path class="cls-1" d="M262.9,178.66c-2.18-.42-4.26-1.27-6.19-1.36a37.75,37.75,0,0,0-11.34-.28c-.44,0-1.07,0-1.17.55s.51.69.91.89a37.14,37.14,0,0,0,7.13,2.75c3.76,1,7.46.92,10.87-1.12.34-.2.8-.36.72-.81S263.29,178.73,262.9,178.66Z"/>
                        <path class="cls-1" d="M219.31,175.09c1.77,0,3.48.5,5.21.55,3,.11,6,.5,9.14-.35a46.83,46.83,0,0,1,17.3-1.67c2.94.3,5.8,1,8.69,1.58,6.05,1.2,11.05,3.72,14.12,9.11a2.92,2.92,0,0,0,1.28,1.47c.58.25,1.22.9,1.8.2s0-1.24-.48-1.69c-1.9-1.76-3.95-3.39-5.71-5.26-4-4.29-9.35-5.55-14.84-6.33a49.7,49.7,0,0,0-17.62.72,52.92,52.92,0,0,1-9.15,1.18c-4.76.21-9.32-.94-14.33-2A5.48,5.48,0,0,0,219.31,175.09Z"/>
                        <path class="cls-1" d="M294.57,355.5c.8,3.65,2,7.22,2.7,10.87q3.8,19.39,7.34,38.84c1.92,10.62,4.35,21.17,5.53,31.9.44,3.93.14,7.94.3,11.91.06,1.48-1.22,3.09-.39,4.28,2.68,3.81,1.79,7.43,0,11.14-.29.58-.77,1.24-.1,2,.75-.46,1.45-1.24,2.19-1.27,2.47-.11,2.32-1.42,1.78-3a36.32,36.32,0,0,1-1.58-10.81c-.12-5.46-.47-10.91-.38-16.37a4.6,4.6,0,0,0-.25-1.51,47.64,47.64,0,0,1-1.63-9.05c-.75-5.72-2.09-11.35-2.85-17.06-.53-4-1.5-8-2.09-12-1.66-11.45-3.13-22.93-6.46-34.09-2-6.77-4.32-13.48-6-20.35-1.05,1.8.05,3.41.3,5.08C293.41,349.18,293.89,352.36,294.57,355.5Z"/>
                        <path class="cls-1" d="M210.17,175.43c.79.6,1.66,1.11,2.4,1.76,2.24,2,5,3.66,5.12,7,.19,3.69-2,6.12-4.79,8.21a28.07,28.07,0,0,1-10.9,4.79c-5.84,1.32-11.75,2.21-17.67,3.08-1.66.24-3.33.39-5,.66s-1.27,1.56-1.22,2.6.88,1.09,1.77,1c8.89-1.29,17.89-2,26.54-4.65,3.53-1.09,6.77-2.78,10.13-4.14a7.1,7.1,0,0,0,4.35-7.35c0-5.4-5-12.17-10.08-13.87-.32-.1-.66-.31-.9,0A.64.64,0,0,0,210.17,175.43Z"/>
                        <path class="cls-1" d="M290.19,355.07q2.07,15.87,4.21,31.72c1,7.51,2.33,15,2.89,22.55a120.86,120.86,0,0,0,8.61,36.12c.15.37.19.94,1.61.74C304,414.28,296,383.09,290.17,351.53A27.86,27.86,0,0,0,290.19,355.07Z"/>
                        <path class="cls-1" d="M228.46,314.89c3.15-1.41,3.26-2.1.56-4a11.61,11.61,0,0,1-1.14-.8,4.75,4.75,0,0,0-4.81-1,20.68,20.68,0,0,1-6.59.51,39.26,39.26,0,0,1-8.53-1.93c1.7,2.37,6.68,5.76,10.13,7.08S225,316.46,228.46,314.89Z"/>
                        <path class="cls-1" d="M234.93,308.29a14.12,14.12,0,0,0,2.8-7.08,22.56,22.56,0,0,1-5.7,4.51c-.87.56-.8,1.26,0,1.66S233.74,309.77,234.93,308.29Z"/>
                        <path class="cls-1" d="M240.37,288.8c-.47.17-.52.6-.64.94a21.73,21.73,0,0,1-8.09,10.79c-4.8,3.47-10.22,5.46-16.24,4.26a37.63,37.63,0,0,1-16.69-8.24,49.77,49.77,0,0,1-8.25-9.46,12.06,12.06,0,0,0-4.34-3.8,54.06,54.06,0,0,0,6.28,9.45c5.2,6,10.86,11.48,19.12,13.47,2.63.63,5.31,1.89,8,1.17,3.52-.93,7.07-1.64,10.46-3.26,6.29-3,9.26-7.93,10.56-14.15C240.66,289.58,241,289.1,240.37,288.8Z"/>
                        <path class="cls-1" d="M220.12,332.76a7.69,7.69,0,0,0,9.46,1.11,13.93,13.93,0,0,0,5.86-9.22c-.87.36-.93,1-1.12,1.5a13.84,13.84,0,0,1-3.64,5,6.46,6.46,0,0,1-7.27,1.15,17.39,17.39,0,0,1-6.08-4.67c-1.41-1.6-2.91-3.13-4.37-4.69A40.18,40.18,0,0,0,220.12,332.76Z"/>
                        <path class="cls-1" d="M223.25,328.36c4.86,1.59,10.78-3.11,10.13-8-4.66,5.43-10.09,6.59-17.58,2.6A16.4,16.4,0,0,0,223.25,328.36Z"/>
                        <path class="cls-1" d="M238.68,307.71c-1.18,1.43-1.65,3.19-2.65,4.72a23.15,23.15,0,0,1-3.84,4.19A13.07,13.07,0,0,1,217.81,319a30.65,30.65,0,0,1-11.36-8.76q-2-2.46-4-4.94c4.2,7.38,9.83,13.25,18.58,15.69a11.54,11.54,0,0,0,5.78.1,13.67,13.67,0,0,0,8.71-6.34C236.94,312.53,238.37,310.34,238.68,307.71Z"/>
                        <path class="cls-1" d="M99.49,279.22c.37,1.92.6,3.55,1,5.14.9,3.69,1.43,3.86,4.54,1.61l.33-.22c.44-.33.57-.76.2-1.16C103.83,282.69,102.32,280.56,99.49,279.22Z"/>
                        <path class="cls-1" d="M176.68,398.15c.29-1.14-1.07-2.07-2.12-2.76-2.16-1.4-2.17-1.38-.09-2.92.42-.31,1-.6.76-1.22s-.82-.6-1.36-.61c-1.68,0-3.37,0-5.05,0v0a22.26,22.26,0,0,0-2.83,0c-1.11.15-2.94-.69-3.19.6s1.63,1.38,2.76,1.7,1.1,1,.29,1.62a4.19,4.19,0,0,1-1.44.65c-1.1.32-1.88.9-1.62,2.07s1.35,1.05,2.3.93a35.34,35.34,0,0,1,8.66,0C174.76,398.33,176.5,398.86,176.68,398.15Z"/>
                        <path class="cls-1" d="M161.5,267.92a12.89,12.89,0,0,0-1.08,1.14,86.62,86.62,0,0,1-11.66,12.49c-4,3.53-8.34,6.84-14.1,7.36A38.32,38.32,0,0,1,116.12,286c-6-2.56-11.08-6.29-13.74-12.38-.87-2-2-3.85-3.25-6.13a4.09,4.09,0,0,0-.1.93,47.48,47.48,0,0,0,7.48,14c1.6,2.06,4,2.9,6,4.35,3,2.19,6.36,4.15,10.16,4.45a33.84,33.84,0,0,0,24.11-6.91A82.73,82.73,0,0,0,160,271.68c.88-1.06,2-2.2,2.06-3.76C161.75,267.92,161.57,267.86,161.5,267.92Z"/>
                        <path class="cls-1" d="M105.2,294a25.67,25.67,0,0,0,4.89,4.82c3.68,2.69,4.8,2.75,8.65.33,2.32-1.46,4.68-2.87,7.48-4.59a43.68,43.68,0,0,1-8.15-1.71,33.42,33.42,0,0,1-6.89-3.59,1.59,1.59,0,0,0-1.71.1c-1.27.72-2.54,1.45-3.83,2.14S104.37,293,105.2,294Z"/>
                        <path class="cls-1" d="M174.17,366.61c-.64-.22-1.39-.38-1.52-1.11-.17-.91.83-.83,1.32-1.18s1.55-.61,1.32-1.48-1.14-.84-1.86-.85c-3.22-.05-6.45-.05-9.68-.05-.47,0-1,0-1.19.52s.28,1,.74,1.23.73.33,1.08.51c.61.31,1.66.22,1.63,1.15s-1,.95-1.64,1.19a3.71,3.71,0,0,0-.75.27,1.74,1.74,0,0,0-1,1.76c.15.89,1,.68,1.65.68a89.15,89.15,0,0,1,13,.63C176.28,368.26,175.6,367.12,174.17,366.61Z"/>
                        <path class="cls-1" d="M163.09,255.53c.2,2.3.41,4.63,1.85,6.63a14.79,14.79,0,0,1,2.58,9.14,33.44,33.44,0,0,0,1.29,10.47c.24.78.5,1.81,1.52,1.78.84,0,.87-1.05,1-1.69,1.17-4.3.26-8.66.27-13,0-2.55,0-4.85,2-6.77a6.25,6.25,0,0,0,1.53-3.11c2-8.05,1.48-16.24,1-24.36-.5-9.15-1.95-18.25-1.8-27.45a71.65,71.65,0,0,0-.55-10.76c-.67-4.89.48-9.16,4.25-12.66.94-.87,2-1.92,1.8-3.12-.47-3-.88-6.12-3.22-8.54a2,2,0,0,0-3.28,0c-.84.83-1.58,1.75-2.38,2.61a1.55,1.55,0,0,1-2.57,0c-.53-.58-1-1.2-1.53-1.79a2.59,2.59,0,0,0-3.1-.69,5.08,5.08,0,0,0-3.59,5.05,8.55,8.55,0,0,0,1.92,5.37,12,12,0,0,1,2.47,11.21c-.73,2.91-2,5.68-2.06,8.8,0,2.42,0,4.87-.13,7.28-.34,6,0,12.07-.19,18.1A255.23,255.23,0,0,0,163.09,255.53Z"/>
                        <path class="cls-1" d="M175.86,371.93c-4.15-1.1-8.33-.68-12.5-.35C167.52,372.57,171.69,372.24,175.86,371.93Z"/>
                        <path class="cls-1" d="M175.84,384.26c-4.12-1.07-8.3-.64-12.49-.36C167.48,385,171.66,384.59,175.84,384.26Z"/>
                        <path class="cls-1" d="M153.37,283a16.24,16.24,0,0,0-4.32,3.85c-4.51,6.84-10.32,12.34-18.15,15.66-3.64,1.54-7.34,3.19-11.46,2.63-9.54-1.29-16.16-6.24-19.72-14.84-.27-.64-.34-1.46-1.13-1.9-.11.23-.23.36-.21.46.93,5.89,3.39,10.95,8.9,14.16,5.35,3.12,10.94,5.48,17.45,3.54a1.07,1.07,0,0,1,.4,0c2.92.1,5.49-1,8-2.22a38.23,38.23,0,0,0,7.81-5.45A56.54,56.54,0,0,0,153.37,283Z"/>
                        <path class="cls-1" d="M176.41,383.67a7.61,7.61,0,0,0-2.5-1.9c-1.68-.73-1.66-1.1-.09-2.12a7.57,7.57,0,0,0,.66-.44c.45-.37,1.05-.75.8-1.41s-.87-.51-1.4-.53c-3.29-.14-6.59.26-9.8-.34-.61,0-1.25,0-1.45.56s.37,1,.91,1.3,1.12.43,1.68.65,1.13.28,1.15.92-.62.93-1.17,1.16c-.31.13-.64.22-.95.33-.88.32-1.62.82-1.46,1.82s1.15.9,1.93.92c3.69.1,7.4-.23,11.09.23a1.25,1.25,0,0,0,.92-.16C177,384.29,176.67,384,176.41,383.67Z"/>
                        <path class="cls-1" d="M105,308.71a4.73,4.73,0,0,0,2.69-1.88.57.57,0,0,0-.19-.84,34.8,34.8,0,0,1-5.86-4.75l-.48.34c.79,1.86,1.55,3.73,2.37,5.58C103.84,307.83,104.06,308.87,105,308.71Z"/>
                        <path class="cls-1" d="M116.11,315.94c6.38-.61,11-4.19,15.73-8.33a3.76,3.76,0,0,0-.89,0A23.85,23.85,0,0,1,115,308.88a2.92,2.92,0,0,0-2.49.42c-1.15.78-2.3,1.57-3.46,2.34-1,.67-1.19,1.35-.09,2.1A10.65,10.65,0,0,0,116.11,315.94Z"/>
                        <path class="cls-1" d="M115.58,328.51a14.56,14.56,0,0,0,7.32-5.23c-6.69,3.66-12.41,2.61-17.37-3a15,15,0,0,0,3.44,6.55A6.2,6.2,0,0,0,115.58,328.51Z"/>
                        <path class="cls-1" d="M136.57,306c-.36.11-.52.11-.59.19-.39.44-.79.88-1.14,1.35a37.51,37.51,0,0,1-11.21,10.34c-7.8,4.62-15.23,1.38-19.6-4.33a54.33,54.33,0,0,1-3.44-5.78,5,5,0,0,0,.73,2.72,25.27,25.27,0,0,0,4.24,6.53,12.46,12.46,0,0,0,11.69,4.09,23.47,23.47,0,0,0,10.23-4.8A34.56,34.56,0,0,0,136.57,306Z"/>
                        <path class="cls-1" d="M107.83,332.27c3.24,3.41,7.86,3.62,11.28.35a35.8,35.8,0,0,0,3.44-3.75c1.52-2,2.88-4,4.47-6.29a2.1,2.1,0,0,0-1.54,1.1,35.3,35.3,0,0,1-6.57,6.75c-3.82,3.07-8,4.08-11.91-.92a28.68,28.68,0,0,1-3.11-5.15A13.68,13.68,0,0,0,107.83,332.27Z"/>
                        <path class="cls-1" d="M219.42,904.51a8.29,8.29,0,0,0-1.5-4c-.86,5.74,3.08,9.53,5.11,14a.64.64,0,0,0,.87.4,1.19,1.19,0,0,0,.52-1.46,8.73,8.73,0,0,0-2.24-3.53A9.8,9.8,0,0,1,219.42,904.51Z"/>
                        <path class="cls-1" d="M200.45,703.41c-1.3.42-1.56,1.18-1.15,2.22a5.2,5.2,0,0,0,4.29,3.63c2.63.4,3.46,1.59,2.89,4.06a62.47,62.47,0,0,0-1.73,9.63c-.43,5.69-.82,11.37-1.21,17.06a2.17,2.17,0,0,0,.5,1.82c1.13,1.07,1.13,2.4,1.12,3.76-.07,9.77-.14,19.52-.7,29.28-.65,11.21-.79,22.45-1.63,33.66-.66,8.77-.67,17.58-.91,26.37a103.26,103.26,0,0,1-.64,10.38c-.39,3.11-.74,6.25-1,9.38-.15,2,.34,4-1.66,5.49-.26.18-.29.7-.36,1.07-.39,2.22-.81,4.44-1.11,6.66-.24,1.8-.38,3.72,1.17,5.06a2.86,2.86,0,0,1,1.15,3.38c-.16.49-.5,1.26.44,1.38.77.1,1.56-.22,1.59-1.11a8.39,8.39,0,0,1,.4-2.65c.33-.86,0-2.3,1.31-2.34,1.49-.05.88,1.43,1.18,2.25.06.18.08.38.15.56.21.62.42,1.27,1.23,1.38a1.76,1.76,0,0,0,1.67-.89,9.53,9.53,0,0,0,2.14-5.7c.11-4.91-1.69-9.45-2.87-14.1-.55-2.17-1.76-4.26-1.89-6.43-.33-5.45-.38-10.93-.23-16.39.2-7,0-14,.44-21,.34-5.83-.24-11.72.19-17.54.79-10.9.8-21.81,1.42-32.71.39-6.86.9-13.71,1.42-20.55a24.89,24.89,0,0,1,.75-5.73c.31-1,1.39-1.63,1.4-2.73,0-6,1-12,1.35-18,.16-3,.57-5.87,2.38-8.43.82-1.15.8-2.57,1.12-3.92a4.57,4.57,0,0,0-1.31-2.72c-1.24-1.62-2.74-1.74-4.41-.49-1.47,1.11-2,.94-3-.89-.54-1-1.15-2.27-2.52-1.33-1,.68-2.87,1.22-1.7,3.26S202.76,702.68,200.45,703.41Z"/>
                        <path class="cls-1" d="M222.46,696.81a2.37,2.37,0,0,0-1.17-1.72,2.07,2.07,0,0,0-2.77.15c-.85.85,0,1.48.59,2.09a4.7,4.7,0,0,1,1,1.2c.43.82.39,1.64-.79,1.66-1.5,0-1.29,1.12-1.43,1.91-.2,1.09-.68,2.38.67,3.14a6.59,6.59,0,0,1,3.15,5.14c.76,4.93,1.6,9.81,1.36,14.9-.42,8.85-.18,17.73-.09,26.59.1,8.29-.3,16.57.32,24.86.57,7.51-.67,15-.81,22.5a22.49,22.49,0,0,1-.51,4.4,98.62,98.62,0,0,0-1.46,10.8c-.34,3.32-.62,6.65-1.08,10-.63,4.45-1.67,8.86-2.05,13.32A102.13,102.13,0,0,1,215,852.47c-.54,2.31-.8,4.76-2.21,6.77a3.38,3.38,0,0,0-.55,3.74c.27.56,0,1.54.74,1.66.91.16.71-.9,1-1.39a14.83,14.83,0,0,0,1.46-2.53,42.1,42.1,0,0,0,3.12-11.48c.57-4.62,1.38-9.23,2.21-13.83.42-2.3.19-4.63.77-6.87,1.19-4.61,1.47-9.35,2.08-14,.42-3.28.71-6.63,1.13-9.91.93-7.27,1.49-14.56,1.73-21.86.27-8,.06-15.92.06-23.89,0-.7,0-1.41-.06-2.11-.52-9.16-1-18.32-1.56-27.48-.41-6.65-.19-13.35-2.09-19.86a15.67,15.67,0,0,1-.05-8.72C222.68,699.11,222.58,698,222.46,696.81Z"/>
                        <path class="cls-1" d="M226.41,473.77a3.22,3.22,0,0,0-4,1.45,8,8,0,0,0-.89,7.9c.76,2,3.32,2.7,5.88,1.78a3.3,3.3,0,0,0,1.49-4.27,5.09,5.09,0,0,1-.33-2.82,6.6,6.6,0,0,1,0-.77A2.88,2.88,0,0,0,226.41,473.77Z"/>
                        <path class="cls-1" d="M200.25,473.9l-.19.05c-5.28,1.91-10.54,3.9-16.2,4.58-1.24.15-1.28.75-.6,1.55a15.78,15.78,0,0,0,10.42,5.82,5.53,5.53,0,0,0,3.64-1.23c2.71-1.93,4.37-4.67,6-7.39.55-.92,1.85-2,.92-3.08S201.63,473.58,200.25,473.9Z"/>
                        <path class="cls-1" d="M209.89,478.14c.29-.72.06-1.05-.58-1.36-1.42-.68-2.08,0-2.61,1.16a26.57,26.57,0,0,1-6,8.57c-4.33,4-8,4.22-13.06,1.14a26.41,26.41,0,0,1-6.92-6.65c-1-1.31-2.16-1.86-3.73-1a23.68,23.68,0,0,0,8.08,8.55c3,1.91,6.14,3.52,9.75,3a18.13,18.13,0,0,0,8.83-4C206.78,485.08,208.48,481.71,209.89,478.14Z"/>
                        <path class="cls-1" d="M215.38,894.28a1.69,1.69,0,0,0,1.74-.73,2,2,0,0,0,.14-2.51,3.92,3.92,0,0,0-3.91-2,11.66,11.66,0,0,0-4.82,1.05,2.21,2.21,0,0,0-1.47,2.5,2.4,2.4,0,0,0,2.16,1.78c1.23.21,1.62-.65,2-1.49a7.12,7.12,0,0,1,.48-.85,1.92,1.92,0,0,1,2-1c1.05.2.87,1,.8,1.67S214.55,894.06,215.38,894.28Z"/>
                        <path class="cls-1" d="M202.79,894.86c.48-.15.67-.42.58-.85-.54-2.54.6-4.46,2.79-6.28-2.52-.55-4.55.42-6.64.08s-3.38.83-3.25,2.92C196.45,893.64,199.85,895.78,202.79,894.86Z"/>
                        <path class="cls-1" d="M218.57,680.67c-1.62-.24-3.26-.34-5.08-.5a6,6,0,0,0-1.12,0c-.73.1-1.58.21-2.42.37-4.6.9-6,3.09-4.76,7.33.32,1.08.77,2.12,2.15,2.27s2.13-.75,2.76-1.83c.73-1.27.74-2.74,1.41-4a2,2,0,0,1,2.21-1.33,2.09,2.09,0,0,1,1.75,1.66,3.75,3.75,0,0,1-1.15,3.57,13,13,0,0,0-3.17,4.38c-.43,1-.27,1.81,1.12,1.85,2.87.07,5-1.94,7.53-2.72.9-.27,1.16-1.94,1.4-3.08a15,15,0,0,1,.74-2.59C223,683.48,221.5,681.11,218.57,680.67Z"/>
                        <path class="cls-1" d="M203.58,881.62c-1.15-1-2.34-.5-3.21.36s-1.66,1.82-1,2.91,2,.67,3.15.46a8.43,8.43,0,0,0,1.28-.56,5.23,5.23,0,0,1,4.31-.06,9.14,9.14,0,0,0,4.88.81,4.87,4.87,0,0,0,1,0c1-.19,2.44.63,2.84-.65s-.47-2.33-1.46-3.2a5.41,5.41,0,0,0-1.95-1,8.87,8.87,0,0,0-7.17,1C205.32,882.2,204.52,882.48,203.58,881.62Z"/>
                        <path class="cls-1" d="M216.44,828.71c2-14.52,3-29.13,3.6-43.76.46-10.45.68-20.92.84-31.39.17-11.56-.17-23.12-.82-34.66-.19-3.26-.43-6.57-2.29-9.49-.27-.42-.48-1-1.16-.87-.45.1-.44.59-.49,1-1,7.13-2.26,14.22-2.92,21.39-.75,8.18-1.51,16.37-2.11,24.56-.83,11.34-1.28,22.69-1.92,34-.43,7.51-.47,15-.66,22.53-.27,10.9-1.11,21.83-.09,32.74a56.79,56.79,0,0,0,1.49,10.47,13.34,13.34,0,0,0,.83-1.5A127,127,0,0,0,216.44,828.71Z"/>
                        <path class="cls-1" d="M112.31,831.78c1,6.12,1.78,12.28,3,18.38,1,5.11,1.87,10.22,5.52,14.73.72-1.72,1.48-3.19.43-4.78-1.59-2.4-2-5.16-2.65-7.83a100.8,100.8,0,0,1-2-12.94c-.65-6.91-2.33-13.69-2.87-20.61-.11-1.34-.31-2.66-.51-4-.41-2.58-1.06-5.12-1.27-7.76-.35-4.55-.25-9.16-.9-13.63-.87-5.91-.58-11.8-.66-17.69-.12-8.6.33-17.21.41-25.82.05-4.81-.1-9.62-.26-14.44-.24-7.34-.45-14.73.76-22,.52-3.17,1-6.36,4.16-8.42,1.35-.88.52-4.29-1-4.72-1.23-.34-1.26-1-.73-1.89a8.18,8.18,0,0,1,1.06-1.16c.5-.52,1.15-1.09.62-1.83a2.21,2.21,0,0,0-2.2-.69,2.08,2.08,0,0,0-1.74,1.68,10.64,10.64,0,0,0-.2,6.46,6.44,6.44,0,0,1,.1,3.79,91.7,91.7,0,0,0-2.54,21.18c0,3.4-.18,6.81-.45,10.2-.89,11.2-1.48,22.42-1.54,33.65,0,2.25.48,4.46.4,6.73a89.87,89.87,0,0,0,.08,9.43c.56,8,1.31,16,2.36,24C110.54,818.41,111.22,825.12,112.31,831.78Z"/>
                        <path class="cls-1" d="M201.86,469.8c3.79-.5,7.21.24,10,3,1.81,1.78,6.11,1.51,7.84-.45a35.87,35.87,0,0,1,7.72-6.47,7.49,7.49,0,0,0,1.85-1.74A63.39,63.39,0,0,0,237,452c1.56-3.26,2.83-7,1.08-10.44-1.64-3.26-.82-6,1-8.5,3.42-4.59,4-9.8,4.39-13.62a39.94,39.94,0,0,0-1.64-12.72c-2.58-9-6.72-17.22-15.32-22.38-6.74-4.05-14.09-4.15-18.68,3.86-2.53,4.41-4.24,9.16-6.7,13.59-2.74,4.92-5,10.09-9.19,14.19-.62.61-.39,1.13,0,1.72a24.11,24.11,0,0,1,3.16,8.5,2.62,2.62,0,0,0,2.39,2.4,12.76,12.76,0,0,1,6.69,3.39,21.61,21.61,0,0,1,6.58,17.4c-.62,10-8.15,16.84-18.59,16.87-3.23,0-6.45-.16-9.65.62-1.24.31-2.69.77-4,.26s-.72-2-1.36-2.87c0-.06-.07-.12-.11-.17-1.08-1.34-.78-2.64.14-3.91a9.44,9.44,0,0,0,1.63-5.46c.1-3.2.4-6.36,2-9.34,1.81-3.35,4.81-5.49,7.72-7.76,2.56-2,4.58-4.53,4.64-7.62.12-6.11-1.79-11.66-6.67-16a3.25,3.25,0,0,0-3.71-.67c-1.72.74-3.53,1.31-5.16,2.2a18.65,18.65,0,0,1-8.32,2c-4.2.21-7.8-1.59-11.58-3-5.4-2-5.68-2.6-10,2-3.67,3.92-5.2,8.72-3.42,14a18.31,18.31,0,0,0,7.68,9.42c5.8,3.79,8.87,8.51,6.24,15.42a3.42,3.42,0,0,0,1.22,3.84,11.08,11.08,0,0,1,2.71,3.09,3.13,3.13,0,0,1-.32,3.47c-.8,1-1.85.52-2.78.27a37.57,37.57,0,0,1-4.22-1.32A20.47,20.47,0,0,0,147.6,463a14.89,14.89,0,0,1-6.49-2c-10.92-5.61-10.58-22.55-3.52-28.24,2.41-1.94,4.48-4.24,4.23-7.67a4.06,4.06,0,0,1,.55-2.42c2.39-3.58,1-6.42-1.3-9.52a17.94,17.94,0,0,1-4-12.48,16.17,16.17,0,0,0-.68-4.74c-1-4.49-4-7.77-7.49-10.73-3.69-3.14-8-4.41-12.66-2.78a27.92,27.92,0,0,0-11,7.66c-6.1,6.51-11.08,13.68-13.17,22.41a28,28,0,0,0,.22,15.57,16.22,16.22,0,0,0,6.85,9.21,75.2,75.2,0,0,0,6.91,3.57c2.71,1.34,3.51,2.87,3.25,5.8a15.38,15.38,0,0,1-1.68,5.32c-1.81,3.8-3.1,7.66-2.1,11.94a3.91,3.91,0,0,0,1.76,2.63,27,27,0,0,1,9,9,2.77,2.77,0,0,0,2.26,1.35A20.88,20.88,0,0,0,130.3,475c2.82-1.27,5.06-3.42,7.89-4.64,1.46-.62,2.92-1.44,4.58-1.19a24.91,24.91,0,0,1,11.43,4.52,19.3,19.3,0,0,0,11.85,3.76,74.25,74.25,0,0,0,29-5.8A26.26,26.26,0,0,1,201.86,469.8Z"/>
                        <path class="cls-1" d="M180.92,451.83c-.19,3.31-.38,6.53-2.41,9.4-1,1.38.36,2.41.91,3.5.46.91,1.35.54,2.16.48a37,37,0,0,0,10.13-2.5c9.1-3.4,15.42-11.64,15.44-20.1,0-6.38-3.91-11.2-10.24-12.64-1-.23-1.74-.16-2,.92-1.15,4.63-4.54,7.59-8.35,10.27A13.34,13.34,0,0,0,180.92,451.83Z"/>
                        <path class="cls-1" d="M157.42,450.6c0-3.81-.75-5.11-4.45-7.89-4.1-3.08-8-6.3-10-11.15-.49-1.22-1.16-1.25-2-.17a13.71,13.71,0,0,0-2.94,9.8c.62,6.81,3,12.9,8.72,17.43A32.22,32.22,0,0,0,159,464.33c.56.14,1.24.4,1.67-.21s0-1.11-.22-1.64a6,6,0,0,0-1.91-2.22c-2.15-1.57-2.36-3.59-1.71-5.87A11.36,11.36,0,0,0,157.42,450.6Z"/>
                        <path class="cls-1" d="M135.31,887.76c-2.64.23-5.19-.3-8-.12,2.55,1.48,3.2,3.65,3,6.19a.87.87,0,0,0,.69,1c2.74.85,6.46-1.59,6.46-4.31C137.48,889.14,136.81,887.63,135.31,887.76Z"/>
                        <path class="cls-1" d="M161,479.81a1.64,1.64,0,0,0-2.34.3c-.27.37-.53.75-.81,1.11-3.19,4.16-6.56,8.15-11.31,10.85a7.86,7.86,0,0,1-7.68.5,14.85,14.85,0,0,1-4.93-3.93,34,34,0,0,1-5.4-9.21c-.34-.84-.82-1.3-1.84-.86s-1.37.71-1.06,1.87a23.3,23.3,0,0,0,2.67,6.84c3,4.62,7.15,7.79,13.12,8.31a16.45,16.45,0,0,0,6.75-1.76c5.35-3.09,9.74-7.07,12.47-12.53C160.86,480.85,162.09,480.45,161,479.81Z"/>
                        <path class="cls-1" d="M139,488.17a4.34,4.34,0,0,0,3.76.94A19.31,19.31,0,0,0,155.16,480c.63-1.05.46-1.53-.84-1.88-2.26-.61-4.48-1.37-6.68-2.18a18,18,0,0,0-6.88-1.19,19.48,19.48,0,0,0-7.85,1.48c-.77.29-1.59.69-1.11,1.69C133.62,481.69,135.43,485.5,139,488.17Z"/>
                        <path class="cls-1" d="M207.19,909.34a8.17,8.17,0,0,1-1.48-6.12c.06-.75.08-1.51.19-2.26.24-1.76-.5-2.8-2-3-2.06-.59-2.54,0-2,1.92.73,2.87,2,5.62,1.91,8.65-.1,2.2-.23,4.4-.15,6.6s.8,2.39,2.7,1.39a1.59,1.59,0,0,1,1-.21c2.42.69,2.19-1,2-2.23A10.58,10.58,0,0,0,207.19,909.34Z"/>
                        <path class="cls-1" d="M315.25,487.24c.29-.35,0-.73-.18-1.06a6.83,6.83,0,0,1-1.11-4,1.05,1.05,0,0,0-.92-1.27.87.87,0,0,0-1,.74c-.15,1-1,2.11.25,3,.71.48,1.24.93.87,1.87-.23.6.28.78.78.85S314.9,487.67,315.25,487.24Z"/>
                        <path class="cls-1" d="M311.82,529.21c-.06-.75,0-1.48-.93-1.28-.61.13-1.59.29-1.28,1.15,1.09,3,.63,6,.29,9.1,0,.36-.07.8.51.87a2.15,2.15,0,0,0,2.26-2.51C312,534.07,311,531.65,311.82,529.21Z"/>
                        <path class="cls-1" d="M317.57,526.79c.82.09.7-.61.57-1.11a18.69,18.69,0,0,1-.64-8.94,1.45,1.45,0,0,0-.91-1.58c-.36-.2-.77-.34-1.09,0a1.48,1.48,0,0,0-.17,1.64c.72,1.42.39,2.85.37,4.32,0,2.16-.89,4.28-.32,6.57C316.21,527.47,316.63,526.68,317.57,526.79Z"/>
                        <path class="cls-1" d="M310.22,522.61a13.35,13.35,0,0,1-.88-5.3c0-.58,0-1.16,0-1.73,0-.74-.15-1.56-1.19-1.39s-.76.94-.56,1.55c.83,2.43.07,4.83-.1,7.24,0,.57-.36,1.41.2,1.6.8.28,1.52-.63,2.48-.62C310.64,524,310.36,523.08,310.22,522.61Z"/>
                        <path class="cls-1" d="M321.76,532.35c.14-.61.19-1.53-1.07-1.36q-1.56.19-1.14,1.59a17,17,0,0,1,.33,7.26,30.67,30.67,0,0,0,0,4.08c2.88-1.44,2.92-1.44,2.67-2.62C321.89,538.34,321,535.42,321.76,532.35Z"/>
                        <path class="cls-1" d="M329.59,534.19c-.71-2.33-1.55-4.64-1.45-7.13,0-.54.16-1.23-.53-1.52a1.17,1.17,0,0,0-.9.25c-.59.42-.43,1-.23,1.57a17.48,17.48,0,0,1,.86,5.87c0,.83,0,1.66,0,2.49s.21.92,1.21.7C330.25,536,329.9,535.21,329.59,534.19Z"/>
                        <path class="cls-1" d="M308.8,506.54c-.1-.8-.15-1.58-.31-2.32a21.58,21.58,0,0,1,.29-10.29,12.73,12.73,0,0,0,.3-2.47c0-.75-.25-1.26-1.19-1.11-.77.12-1.5.24-1.36,1.26.73,5.18-.61,10.21-1.18,15.29-.33,3-.52,2.42,2.26,2.2C309.51,509,308.36,507.38,308.8,506.54Z"/>
                        <path class="cls-1" d="M327.16,520.36a24,24,0,0,1-1.07-4.49c-.06-1-.14-2-.3-3-.1-.64-.39-1.38-1.23-1.26-1,.16-.59,1-.47,1.55.6,2.64,1.16,5.28.43,7.93.13.64-.29,1.47.61,1.69S327.4,521.3,327.16,520.36Z"/>
                        <path class="cls-1" d="M321.93,478.36a2.24,2.24,0,0,0-1.78-2.09,13.46,13.46,0,0,0-2.21-.13,7.14,7.14,0,0,0-3.72.7c-.74.34-.84.66-.36,1.31,1.16,1.58,4.63,2.69,6.53,2C321.24,479.84,322,479.35,321.93,478.36Z"/>
                        <path class="cls-1" d="M324.86,503.32a24.25,24.25,0,0,1-1.62-10,16.48,16.48,0,0,0-.28-3.05c-.11-.72,0-1.78-1.21-1.61s-.79,1.14-.66,1.86a70,70,0,0,1,1,11.46c0,1.6-.05,3.21,0,4.8,0,.74.17,1,1.24.61C325.81,506.52,325.54,505,324.86,503.32Z"/>
                        <path class="cls-1" d="M317.42,507.88a43.63,43.63,0,0,1-1.07-16.83c.09-.64.22-1.56-1-1.46-1,.09-1.63.4-1.5,1.58.26,2.42.79,4.83.41,7.29-.46,3-.16,6-.67,8.45,0,2.85.06,3.32.51,3.49C315.3,510.86,317.7,509.08,317.42,507.88Z"/>
                        <path class="cls-1" d="M221.51,933.19c-2.51-3.44-4.68-7-5.38-11.23-.11-.65-.11-1.64-1-1.56a3.39,3.39,0,0,0-2.58,1.22c-.42.65.19,1.34.74,1.79a7.6,7.6,0,0,1,2.59,4.86c.45,2.43,1.66,4.71,1.78,7.23a6,6,0,0,0,.75,1.94c.15.32.37.64.79.59a.67.67,0,0,0,.59-.74c0-1.12.72-1.56,1.77-1.67a.87.87,0,0,0,.83-.62A2.82,2.82,0,0,0,221.51,933.19Z"/>
                        <path class="cls-1" d="M306.56,487.39a1.73,1.73,0,0,0,1.43-.59c.45-.64.18-1.22-.28-1.75s-1.26-1.26-.79-2.2c.21-.42.67-.36,1.07-.2s1.09.34,1.33-.34-.21-1-.62-1.32-1.06-.62-1.6-.09c-1.07,1.06-2.34,2-2.06,3.78a15.82,15.82,0,0,0,.25,1.7A1.17,1.17,0,0,0,306.56,487.39Z"/>
                        <path class="cls-1" d="M243.91,481.19a6.14,6.14,0,0,0-5.5-1c-2.1.6-3.85,1.81-5.9,2.38-.6.16-1.22.12-1.36.86a1.46,1.46,0,0,0,.74,1.65,19,19,0,0,0,3.63,1.67c2.53.92,3.33,2.65,2.47,5.08a20.45,20.45,0,0,1-2.36,5.11,18,18,0,0,0-3,11c0,3.66.8,7.29.44,10.43a125.48,125.48,0,0,1-1.8,21.25c-1.83,12.2-4.08,24.34-6.67,36.42-.85,4-1.22,8-2.23,11.92-1.48,5.74-2.61,11.54-3.86,17.31-2,9-4.41,17.89-6.79,26.78s-5.22,17.94-7.16,27.07a4.79,4.79,0,0,0,.36,3.57c1,1.72.58,3.23-.55,4.66a17.09,17.09,0,0,0-2.43,3.77,4.83,4.83,0,0,0,2.92,6.8,12.93,12.93,0,0,0,4.6.5A2.38,2.38,0,0,0,212,676c.06-1.41,0-2.82,0-4.24,0-.73.11-1.48,1-1.65a2,2,0,0,1,1.9.88c.8,1,.78,2.17,1.05,3.28.35,1.47.61,3,2.52,3.35a5.08,5.08,0,0,0,5.4-2.17,6.52,6.52,0,0,0-4.43-10.06,7.34,7.34,0,0,1-2.89-1.28c-1.18-.88-1.52-1.72-.48-3.07a12.72,12.72,0,0,0,2.61-9.49,44.17,44.17,0,0,1-.33-10.34c.61-5.82,1.45-11.61,2.4-17.38,1.07-6.53,2.52-13,3.72-19.52,1.34-7.21,2.42-14.47,3.93-21.64,2-9.63,4.21-19.23,6.61-28.78,2.56-10.17,5.22-20.32,7.9-30.46,1.59-6,3.27-11.92,4.7-17.93s2.28-11.88.79-17.95A10.79,10.79,0,0,0,243.91,481.19Z"/>
                        <path class="cls-1" d="M221,913.14c-2.23-3.62-4.88-7.06-4.51-11.58a1.16,1.16,0,0,0-1.33-1.31c-.87.09-.8.79-.81,1.43,0,4.94,2.62,9.12,4.41,13.55.33.8,1.17.7,1.89.61.55-.06.89-.38,1-1.13A8.36,8.36,0,0,0,221,913.14Z"/>
                        <path class="cls-1" d="M214.55,910.55a10.12,10.12,0,0,1-2.4-8.13,10.5,10.5,0,0,0-.06-1.24A2.07,2.07,0,0,0,210,899c-1.62-.53-2,.14-1.66,1.52.5,1.87,1.51,3.77,1.42,5.6-.16,3.34,1.56,6.16,2.2,9.25.08.41.09,1,.84,1,3-.14,3.68-1.22,2.55-4.09A5.47,5.47,0,0,0,214.55,910.55Z"/>
                        <path class="cls-1" d="M227.1,930.28a26,26,0,0,1-6.34-10.35c-.15-.52-.31-1.45-1.23-1.08s-1.75.73-1.44,2a3.75,3.75,0,0,0,1.26,1.91,7.67,7.67,0,0,1,2.34,3.67c.72,2.4,1.64,4.75,2.52,7.11.2.53.94,1.53,1.07,1.15a3.62,3.62,0,0,1,2.48-2.55A1.87,1.87,0,0,0,227.1,930.28Z"/>
                        <path class="cls-1" d="M258,187.87c.78-2.12,2.31-3.77,3.58-5.6a5.78,5.78,0,0,0-1.51,1c-2.53,2.28-5.3,2.22-8.21.82-.84-.4-1.68-.81-2.5-1.26a49.41,49.41,0,0,0-9.82-4c-5.55-1.65-10.79.52-16.15,1-2.18.2-2.48,1.36-1.42,3.26a9,9,0,0,1,1.19,3.66,5.72,5.72,0,0,0,1.91,3.67c2.46,2.54,4.46,5.36,5,8.88a4.75,4.75,0,0,0,1.79,3.06c4.85,4.36,7.61,9.47,5.65,16a2.07,2.07,0,0,0,.7,2.23c5.19,5.44,5.93,11.68,3.08,18.27-1,2.36-.59,4.32.08,6.46.61,0,.55-.41.59-.69.77-5.54,1.68-11.06,2.48-16.59,1.49-10.29,4.33-20.17,11.64-28.31,1.27-1.4,2.29-2.61.72-4.43-.35-.4-.27-1.24-.19-1.86A26.24,26.24,0,0,1,258,187.87Z"/>
                        <path class="cls-1" d="M304.86,465c.68-.21.59-.94.62-1.51a9,9,0,0,0-.9-4.31c-.34-.74-.84-1.58-.18-2.36a2,2,0,0,1,2.41-.28c.37.14.8.31,1.12,0s.15-.88-.12-1.23c-.72-.93-1.58-1.76-2.24-2.72-4.57-6.62-6.11-14.33-8.55-21.71-2-6-1.74-12.3-2.82-18.42-.88-5-1.37-10.07-2.32-15.05-2.6-13.53-3.71-27.24-5.88-40.81-.64-4-1.16-8-3.6-11.55a1.55,1.55,0,0,1,.49-2.36c.6-.41,1.23-.79,1.84-1.2,4.1-2.72,6.75-8.26,2.12-13.1-.82-.86-1.68-2-3-1.61s-.52,1.67-.45,2.58A1.48,1.48,0,0,1,282,331c-1,.07-1.09-.76-1.2-1.48-.43-2.82-.81-3.15-3.68-3.15-3.28,0-4.26.95-4,4.07a11.22,11.22,0,0,0,3.87,7.44,3.76,3.76,0,0,1,1.14,4.19,25.28,25.28,0,0,1-1,3.11,2.57,2.57,0,0,0,.2,2.57c2.45,3.7,3.69,7.84,4.75,12,1.85,7.27,3.53,14.56,4.71,22,1.1,6.95,2.09,13.93,3.62,20.84,1.23,5.51,1.65,11.18,2.71,16.74,2.37,12.45,4.53,24.94,7.56,37.27a24.36,24.36,0,0,0,2.77,7.21C303.74,464.39,304,465.21,304.86,465Z"/>
                        <path class="cls-1" d="M305.63,477.45a1.26,1.26,0,0,0,1.62.35,1.49,1.49,0,0,0,.71-1.68c-.28-1.19-1.42-.55-1.62-.61-2.51-.4-3.77.53-4.67,2a1,1,0,0,0,.19,1.25,1.17,1.17,0,0,0,1.28.31.58.58,0,0,0,.39-.77c-.14-.61-.54-1.3.39-1.62C304.69,476.45,305.16,477,305.63,477.45Z"/>
                        <path class="cls-1" d="M267.82,194.39c2.09-1.7,4.69-2.15,7.2-2.84,1.11-.31,1.83-.79,1.71-2-.14-1.67-1.29-2.41-2.87-2.74-5.93-1.22-12.67,3.1-14,8.91a2.79,2.79,0,0,0,1.52,3.41c1.3.72,2.15-.3,2.94-1.05C265.52,196.9,266.47,195.48,267.82,194.39Z"/>
                        <path class="cls-1" d="M275.78,321.4c.89-1.12,1.71-1.14,2.59-.07a18.46,18.46,0,0,0,2.76,3.3c1.36,1,3.07.76,4.48-.63s.58-2.27-.48-3.25c-.82-.76-1.63-1.54-2.37-2.37-.55-.6-.89-1.34-.24-2.09a1.68,1.68,0,0,1,2-.34,9.41,9.41,0,0,0,3.3.85c.8,0,1.71.11,2.16-.71a2.13,2.13,0,0,0-.34-2.18,7.67,7.67,0,0,0-6.39-3.88c-4.62-.36-5.24-3.45-3.87-6.74a21.48,21.48,0,0,0,1.79-9.41c-.28-5.9-.51-11.8-.86-17.69-.26-4.22-.68-8.44-1-12.66-.42-5-.82-10.1-1.26-15.15-.78-9,1-17.78,2.87-26.54,1-4.65,2.12-9.28,1.95-14.09a4.58,4.58,0,0,0-2.47-4.32,2.28,2.28,0,0,1-1.38-3,3.19,3.19,0,0,0-1.3-3.6c-.46-.36-1-.83-1.62-.5s-.28,1-.09,1.55a9.58,9.58,0,0,1,.73,4.54c-.17,1.55-.83,3.17-2.47,3.35s-1.63-1.56-2-2.69c-.79-2.6-3-3.2-5-1.26a9.19,9.19,0,0,0-2.71,9.24,102.25,102.25,0,0,0,3.48,10.06c3.35,8.74,5.71,17.65,5.49,27.06-.13,5.76.12,11.53,0,17.3-.08,5.27-.57,10.51-1,15.75-.59,7.29-1.25,14.57-1.58,21.88-.17,3.79-.11,7.74-2.51,11.13a6.36,6.36,0,0,0-1.06,4.33c-.36,3.2,1.33,4.32,3,5C272.65,324.43,273.79,323.93,275.78,321.4Z"/>
                        <path class="cls-1" d="M198.56,901a3.21,3.21,0,0,0,.19-1.43c0-.51-.22-1.13-.71-1.17-1.57-.14-3-2-4.36-1.12s-.17,2.67.17,4a21.25,21.25,0,0,0,.7,2.18,1.46,1.46,0,0,1,0,1.39c-1,1.58-.92,3.44-1.34,4.76l-.89,4.24c-.29,1.34.33,3.29,1.25,3.12,1.86-.36,3.65.56,5.38-.07.19-.07.3-.45.37-.71a4.3,4.3,0,0,0,0-3C197.63,909.21,196.19,905.19,198.56,901Z"/>
                        <path class="cls-1" d="M233.25,216.11c-2.15,5.5-6.65,8.85-11.66,11.82a85.37,85.37,0,0,1-15.81,6.8c-7.47,2.6-15.08,3.16-22.76.62-.75-.25-1.7-1.27-2.31-.42a3.13,3.13,0,0,0,.1,3.14c.52,1,1.66.91,2.63,1.13,5.44,1.25,10.72-.35,16-1A57.52,57.52,0,0,0,224,229.69c5.39-3.46,8.41-8.3,10.25-14.43a4.39,4.39,0,0,0-.72.36A1.88,1.88,0,0,0,233.25,216.11Z"/>
                        <path class="cls-1" d="M226.94,218.62c-.45-1.59-2.87-1.55-4.41-2.27a.7.7,0,0,0-.19-.06c-.71-.21-1.23,0-1.34.72-.37,2.5-.7,5-1.09,7.86a13.81,13.81,0,0,0,4.22-2.82C225.17,220.94,227.35,220.07,226.94,218.62Z"/>
                        <path class="cls-1" d="M235.35,223.45c-.66-.17-.87.47-1.17.86-.8,1-1.6,2.05-2.37,3.09-.95,1.29-3.31,2.17-3,3.55s2.83,1.64,4.2,2.65c.16.11.36.18.52.29.83.55,1.31.25,1.75-.52a10.53,10.53,0,0,0,1.08-5.42c-.09-1.08-.14-2.16-.3-3.24C236,224.23,235.94,223.6,235.35,223.45Z"/>
                        <path class="cls-1" d="M229,205.09a21.06,21.06,0,0,1-4.56,6c-.48.48-.54.93.11,1.22,1.74.78,3.58,2.65,5.19,2,1.77-.66,1.43-3.19,1.69-5a8.14,8.14,0,0,0-1-4.27C230.06,204.39,229.46,204.12,229,205.09Z"/>
                        <path class="cls-1" d="M224.78,244.52a31.84,31.84,0,0,0,6.38-5.29c.46-.49.7-1.09,0-1.48a32.65,32.65,0,0,0-7.34-3.38,2.26,2.26,0,0,0-2.47,2.87c.64,2.16,1.3,4.32,1.91,6.49C223.52,244.54,223.79,245.14,224.78,244.52Z"/>
                        <path class="cls-1" d="M138,64.41c1.72,1.06,2.32,2.53,1.39,4.46-.82,1.68,0,2.81,1.6,3.59a7.38,7.38,0,0,0,3.07.82c5.47.2,9.32-2.48,12.45-6.37,1.18-1.47,2.09-3.15,3.21-4.66.4-.54.92-1.27,1.8-1s.94,1.17.95,1.95c0,2.46-1.32,4.42-2.75,6.28a38.06,38.06,0,0,0-5.77,9.67c-1.07,2.83-1.61,5.65-.3,8.61a5.52,5.52,0,0,0,5.82,3.55c3.1-.47,6.19-.2,9.28-.33,3.85.07,7.71.26,11.45-.8,6.17-1.74,8.95-4.8,4.63-10.83-3-4.19-5.61-8.62-8.68-12.77A4.52,4.52,0,0,1,175.3,62c.61-1.44,1.57-1.68,2.77-.66a12.7,12.7,0,0,1,2.54,2.74,26.23,26.23,0,0,0,6,6.47,12.33,12.33,0,0,0,9.83,2.56c3.05-.52,4-1.94,3.26-4.78-.59-2.42-.11-3.57,2.23-4.71a9.21,9.21,0,0,0,4.71-4.83c.49-1.19.87-2.42,1.26-3.65a21.69,21.69,0,0,0-2.41-19.09,31.2,31.2,0,0,1-5.33-13.53c-.24-2.1-.57-4.2-.93-6.29-1.14-6.46-4.72-11-11.29-13.38C182.25.76,176.31.21,170.33,0a53.48,53.48,0,0,0-13.16,1.73c-9.94,2.18-16.39,9-17.4,18.59a19.92,19.92,0,0,1-4.57,11c-5.12,6.14-5.82,13.23-4.67,20.65C131.32,57,133.2,61.48,138,64.41Z"/>
                        <path class="cls-1" d="M76.07,177.63c-.32.08-.71.16-.78.52s.36.62.7.79a14.93,14.93,0,0,0,5.48,1.75c5.09.45,9.4-1.7,13.92-3.72a1.49,1.49,0,0,0-1.38-.8C87.92,175.16,82,176.14,76.07,177.63Z"/>
                        <path class="cls-1" d="M63.8,183.34a4.41,4.41,0,0,0,2.37-2A16.11,16.11,0,0,1,70.31,177c4.59-3.17,10.08-3.64,15.24-4.31a37.53,37.53,0,0,1,16.54,1.72c2.13.7,4.23,1.86,6.41,2,4.36.29,8.78,0,13.17,0,1.42,0,2.22-.89,3-1.91-.28-.1-.4-.19-.51-.17a44.71,44.71,0,0,1-22.5-1,46.56,46.56,0,0,0-20.37-1.65c-3.61.55-7.26,1.19-10.23,3.59-2.3,1.87-4.68,3.65-7,5.43a3.86,3.86,0,0,0-1.29,1.44c-.17.36-.36.74-.06,1.08S63.4,183.47,63.8,183.34Z"/>
                        <path class="cls-1" d="M118.14,187.71a9.44,9.44,0,0,0,2.23,6.06c2.12,2.56,5.35,3.15,8.13,4.39,9.23,4.13,19.34,4.84,29.25,6.22.94.13,2.12.43,2.06-1.2-.05-1.23.24-2.42-1.77-2.58a143.07,143.07,0,0,1-19.31-3c-4.68-1-9.3-2.35-13-5.53-5.55-4.81-5.85-9.15-.78-13.56a40.55,40.55,0,0,1,3.5-2.59c.52-.36,1.16-.74.73-1.35s-1,0-1.38.25a35,35,0,0,0-3.12,2.13C121.18,179.76,118.23,183,118.14,187.71Z"/>
                        <path class="cls-1" d="M218.81,243.27c.94-1.11-.34-3-.82-4.52a5.2,5.2,0,0,0-.21-.55,1.19,1.19,0,0,0-1.62-.72l-9.77,3c3.13.8,5.64,1.48,8.19,2.06C216,242.85,218,244.24,218.81,243.27Z"/>
                        <path class="cls-1" d="M204.19,214.42c-7.77,1.76-15.74,1.9-23.7,1.52-1.06-.05-1.54.18-1.36,1.25a11.18,11.18,0,0,1,.12,1.73c0,1.07.42,1.31,1.59,1.34,3.87.11,7.71-.06,11.58-.28,10.05-.57,19.75-1.85,27.38-9a43.06,43.06,0,0,0,4.16-3.92,12.27,12.27,0,0,0,2.78-7c-1,1-1.21,2.29-2,3.34C219.54,210,212.05,212.63,204.19,214.42Z"/>
                        <path class="cls-1" d="M212.55,206.74c-.3-1.44-.63-2.88-1-4.31a.94.94,0,0,0-1.38-.7,57.63,57.63,0,0,1-7.77,2.49l0,.54c3.05.93,6.11,1.86,9.17,2.77C212.32,207.73,212.69,207.42,212.55,206.74Z"/>
                        <path class="cls-1" d="M213.61,223.74c-.11-1.4-.31-2.8-.37-4.2-.06-1.19-.52-1.43-1.67-1-1.69.62-3.41,1.16-5.15,1.65s-3.7.94-5.55,1.4c3.9,1.2,7.71,2.3,11.53,3.39C213.48,225.28,213.67,224.54,213.61,223.74Z"/>
                        <path class="cls-1" d="M179.7,228.56c0,1.93,1,3,3,3.48a39,39,0,0,0,16.38.86,49.57,49.57,0,0,0,10.53-2.71c-.32-.69-.78-.63-1.15-.72a228.5,228.5,0,0,0-25-4.56C178.39,224.25,179.6,224.29,179.7,228.56Z"/>
                        <path class="cls-1" d="M182.11,207.27c-3.91.58-4,.67-3.68,4.45a1.53,1.53,0,0,0,1.73,1.65c8.38.18,16.71-.1,24.9-3-2.72-.59-5.44-1.22-8.17-1.75C192,207.65,187.16,206.54,182.11,207.27Z"/>
                        <path class="cls-1" d="M182.46,243.06c-.52,0-1.14,0-1.34.59s.25.83.56,1.17a26.33,26.33,0,0,0,5.88,4.38c5,2.94,10.34,4.67,16.3,4.18,4.65-.38,8.84-2.15,13-4,.52-.22,1.32-.35,1.22-1.09-.09-.59-.82-.58-1.32-.71a132.09,132.09,0,0,0-30.46-4.54C185,243.06,183.74,243,182.46,243.06Z"/>
                        <path class="cls-1" d="M33,435.32a38.26,38.26,0,0,0-.28,11.21,48.05,48.05,0,0,0,2.5-5.85,138.13,138.13,0,0,0,7.07-33.74c1.14-12.33,3.28-24.58,4.86-36.89.81-6.23,1.92-12.44,1.58-18.77-.17.74-.35,1.48-.49,2.23-1.33,7-2.62,14.05-4,21.06C40.31,394.79,36.14,415,33,435.32Z"/>
                        <path class="cls-1" d="M179.92,263.17a34.36,34.36,0,0,0,26.93,10.39c8.51-.26,16.23-2.68,22.75-7.95a20.07,20.07,0,0,0,5.12-6.94c-7,8.19-15.78,13.35-26.88,14s-20.38-3.28-28.1-10.88A1,1,0,0,0,179.92,263.17Z"/>
                        <path class="cls-1" d="M196.42,276.43a4.43,4.43,0,0,0-3.95.63c-1,.67-1.13,1.17-.1,1.87,1.54,1,3,2.18,4.59,3.16,4,2.48,8.23,4.42,12.76,4.55a21.23,21.23,0,0,0,6.33-1c1-.28,2.58-.25,2.65-1.29.07-.85-1.52-1-2.42-1.38A184.62,184.62,0,0,0,196.42,276.43Z"/>
                        <path class="cls-1" d="M237.72,235.75a22.1,22.1,0,0,1-5.35,6.95c-7.74,7.14-17.09,11.48-27.49,13.87-8.58,2-16-.07-22.15-6.08-.39-.38-.77-1.14-1.44-.79s-.39,1.17-.33,1.78a3.5,3.5,0,0,0,2,2.49,25.05,25.05,0,0,0,2.73,1.25c10.28,4.72,20.74,5.62,31.43,1.33a41,41,0,0,0,17.75-13.79,25.53,25.53,0,0,0,4-8.19C238,234.74,237.92,235.32,237.72,235.75Z"/>
                        <path class="cls-1" d="M114.12,714.85A134.13,134.13,0,0,0,113,731.94c-.33,15.16-.25,30.33.39,45.49.16,3.79.14,7.58.4,11.36.8,11.46,1.47,22.93,2.78,34.36,1.16,10.16,2.82,20.24,6.24,30,.21.62.19,1.41,1,1.81.12-.19.29-.33.31-.5.57-4.65,1.37-9.28,1.35-14-.06-10.66.14-21.33-.4-32-.29-5.84-.24-11.69-.5-17.53-.46-10.13-1-20.26-1.57-30.39-.24-4.48-.53-9-.93-13.44-.57-6.4-1.25-12.78-1.9-19.17-.63-6.14-1.66-12.23-2.72-18.32-.06-.36,0-.87-.44-1s-.83.37-1,.75A17.24,17.24,0,0,0,114.12,714.85Z"/>
                        <path class="cls-1" d="M205.67,269.7a34.4,34.4,0,0,0,12.06-2.59c.6-.25,1.36-.51,1.23-1.33s-.84-.77-1.4-.92c-1.68-.47-3.35-1-5.06-1.3s-3.47-1.21-5.32-.88A32.67,32.67,0,0,1,187.75,260a8.2,8.2,0,0,0-3.71-.72c-.46,0-1.07-.18-1.32.23-.35.6.35.91.7,1.22A34.9,34.9,0,0,0,205.67,269.7Z"/>
                        <path class="cls-1" d="M225.44,280.82c.33-.39,0-.72-.33-1a14.72,14.72,0,0,1-3.52-4.64c-.3-.5-.53-1.07-1.35-1.05-1.46.49-3,.91-4.49,1.56-1.08.47-.26.85.28,1.11l8.32,3.91C224.69,280.91,225.12,281.2,225.44,280.82Z"/>
                        <path class="cls-1" d="M226.26,262.08a27.51,27.51,0,0,0,5.87-5.73c1.44-1.92,1.4-2.16-.76-3.25-1.91-1-7.62,3.08-7.59,5.37.14.95.25,1.9.41,2.85C224.41,262.68,225.11,262.92,226.26,262.08Z"/>
                        <path class="cls-1" d="M67.11,185.6a9.47,9.47,0,0,0-3.29.85,2.29,2.29,0,0,0-1.48,2.49c.08,1.18,1,1.36,1.93,1.57,3.88.88,7.43,2.26,9.64,5.72a5,5,0,0,0,1,1c.92.78,1.94,1.61,3.21.93a2.79,2.79,0,0,0,1.31-3.5C78.12,189.52,73.33,185.87,67.11,185.6Z"/>
                        <path class="cls-1" d="M31.33,480.1c-.71-.11-1.39,0-1.58.79s.27.93.92.92,1.31-.35,1.52.46a1.66,1.66,0,0,1-.9,1.79c-.66.45-1.12.95-.73,1.76a1.46,1.46,0,0,0,1.52.7,1.51,1.51,0,0,0,1.53-1.27c.14-.56.26-1.12.32-1.41C34,482.12,32.65,480.3,31.33,480.1Z"/>
                        <path class="cls-1" d="M98.25,552.76c1.87,7.94,4.06,15.82,5.62,23.83,2.32,11.94,4.68,23.87,6.9,35.83,1.46,7.83,2.88,15.68,4,23.57a64.39,64.39,0,0,1,.33,15c-.32,3.69.08,7.08,2.47,10,1.16,1.43.75,2.35-.57,3.17a10.19,10.19,0,0,1-2.55,1.12c-4.72,1.3-6,3.07-5.62,7.71a5,5,0,0,0,5,4.68c2.54.12,3.14-.47,3.86-3.88a7.15,7.15,0,0,1,1.05-2.89,1.88,1.88,0,0,1,1.81-1c.89.14,1.06.93,1.13,1.63a23.17,23.17,0,0,1,0,2.5h.11a22.23,22.23,0,0,0,0,2.31,2.17,2.17,0,0,0,2.05,2.07,10,10,0,0,0,5.88-1,4.35,4.35,0,0,0,2.15-5.8,13.49,13.49,0,0,0-2-3.35c-.93-1.25-2.07-2.59-1.51-4.22,1.43-4.19.14-8.2-.9-12.14-2.88-10.91-6.15-21.71-9-32.62Q115.38,607,113,594.64c-.55-2.85-1.85-5.48-2.11-8.39a58.68,58.68,0,0,0-1.43-8.75c-1.55-6.25-2.58-12.59-3.78-18.89-1.76-9.29-3.38-18.61-4.37-28a109.05,109.05,0,0,1-.22-20.2,22.51,22.51,0,0,0-1-9.3c-1.08-3.14-3.11-5.83-4.24-8.93-1-2.68-.19-4.56,2.64-5.36A15.34,15.34,0,0,0,102,485c1-.58.89-2.09-.16-2.27-1.53-.27-2.64-1.3-4-1.69s-3-1.48-4.63-1.14a9.27,9.27,0,0,0-7.32,6,21.43,21.43,0,0,0-1.27,7.19c-.11,6.89,1.35,13.56,3.32,20.12C90,520.4,91.79,527.73,93.68,535,95.22,540.92,96.85,546.81,98.25,552.76Z"/>
                        <path class="cls-1" d="M62.89,326.3a6.24,6.24,0,0,1-.91-.42c-2.28-1.14-3.39-.6-3.71,1.81-.18,1.4-.3,2.81-.51,4.21-.1.65-.42,1.36-1.2,1.36s-.65-.82-.73-1.35-.13-1.27-.2-1.91h.09a4.89,4.89,0,0,0,0-1.15c-.2-.85-.08-1.93-1.21-2.26s-1.59.52-2.2,1.09a8.07,8.07,0,0,0-.23,11.5,19.83,19.83,0,0,0,4.26,3.52c1,.6,1.43,1.39.48,2.39-1.23,1.3-1.52,3-2,4.58-2.15,7.25-2.81,14.75-3.69,22.18-.77,6.58-1.8,13.11-2.84,19.65-1.18,7.49-2.51,15-3.42,22.49-.5,4.14-.56,8.31-1.59,12.4a177.38,177.38,0,0,1-5.38,17.73c-1.4,3.81-2.83,7.65-6,10.54-.36.32-.67.69-.47,1.18s.84.47,1.38.44c2.17-.09,2.62.48,2,2.53a23.87,23.87,0,0,0-1,3.71c-.09.81-.32,2.17.57,2.43,1.13.32,1.61-1,2-1.81a48.19,48.19,0,0,0,2.47-7.72c2.24-8.27,3.58-16.71,5.27-25.08,1.37-6.73,2.51-13.51,3.57-20.3,1.46-9.24,3.42-18.42,4.91-27.66a218.13,218.13,0,0,1,4.57-22.47c.87-3.23,1.4-6.67,3.35-9.44a7.37,7.37,0,0,0,.69-8.12,3.34,3.34,0,0,1,1-4.36,12.27,12.27,0,0,0,3.8-6.46C66.8,328.36,66.17,327.3,62.89,326.3Z"/>
                        <path class="cls-1" d="M71.43,219.29c1.28-3.76,3.45-7.29,3.43-11.52.13-2.87-1.23-5.25-3.39-7.24-1.44-1.34-2.94-1.09-4,.51a4.35,4.35,0,0,0-.71,2,1.9,1.9,0,0,1-1.38,1.74c-.78.21-1.18-.47-1.66-.9a4,4,0,0,1-1.37-3.29,10.85,10.85,0,0,1,1.15-3.86c.18-.5.44-1-.16-1.38a1.32,1.32,0,0,0-1.5.23,3.71,3.71,0,0,0-1.51,3.59c.16,1.62-.23,2.89-1.95,3.62a3,3,0,0,0-1.77,2.42,15.49,15.49,0,0,0-.16,5.17c1,7.47,3,14.75,4.13,22.19a72.88,72.88,0,0,1,.38,17.27c-.53,6.07-1,12.14-1.43,18.22-.35,5.06-.66,10.12-.9,15.18-.32,6.7-1.23,13.41,1.4,20,1.13,2.8.2,5.84-3.81,5.76a6.82,6.82,0,0,0-2.16.48A7.72,7.72,0,0,0,49.38,313c-1,1.78-.22,2.91,1.85,2.85a8.79,8.79,0,0,0,3.31-.8,1.73,1.73,0,0,1,2.06.22,1.53,1.53,0,0,1,0,2.13,20.18,20.18,0,0,1-2.14,2.3c-1.09,1.07-2.16,2.13-.61,3.58a3.3,3.3,0,0,0,4.84,0,22.4,22.4,0,0,0,1.71-2.15c1.66-2.24,2-2.26,3.65.1.92,1.31,2,2.05,3.71,1.63,2-.49,3.81-1.26,4.17-3.42a7.63,7.63,0,0,0-.75-5.44,17.79,17.79,0,0,1-2.88-9.48,92.65,92.65,0,0,0-.36-9.58c-1-10.09-2-20.19-2.24-30.31s-.84-20.51,1.35-30.72A126.27,126.27,0,0,1,71.43,219.29Z"/>
                        <path class="cls-1" d="M95.87,234.84c.4,3.21,1.28,6.34,1.66,9.57A7.07,7.07,0,0,0,98,238c-2.88-6.7-2-12.95,3-18.48a2.61,2.61,0,0,0,.52-2.66,14,14,0,0,1,.43-8,18.8,18.8,0,0,1,5.74-7.79,3.69,3.69,0,0,0,1.57-2.37,14.61,14.61,0,0,1,4.51-8.84,7.28,7.28,0,0,0,2.59-5,6.68,6.68,0,0,1,1-3.12c.91-1.59.61-2.52-1.3-2.9-3.68-.73-7.41-1.22-11.12-1.77a6.24,6.24,0,0,0-1.6.15,38.11,38.11,0,0,0-14.82,5.3c-3.07,1.82-6.16,2.19-9.14-.24a3.36,3.36,0,0,0-.66-.32.74.74,0,0,0,.2.95,17.12,17.12,0,0,1,3.47,7.72c.36,1.57.61,3.24-.35,4.69-.74,1.13-.37,1.83.47,2.69a37.46,37.46,0,0,1,7.48,11.12C93.55,217.38,94.78,226.09,95.87,234.84Z"/>
                        <path class="cls-1" d="M108.4,485.15A3.25,3.25,0,0,0,112,483a7.66,7.66,0,0,0-1.15-8.16,3,3,0,0,0-3.72-1c-1.37.57-2.51,1.49-2.1,3.28a6.51,6.51,0,0,1-.31,3.59C103.8,483.54,105.06,485.11,108.4,485.15Z"/>
                        <path class="cls-1" d="M130.34,885.06a5.49,5.49,0,0,0,2.94.46c.66-.06,1.28-.29,1.29-1a3.84,3.84,0,0,0-1.52-2.83,2,2,0,0,0-2.58-.29c-1.36,1-2.63.67-3.93,0a9.71,9.71,0,0,0-3.94-1.09c-3.29.06-5.52,1.61-5.72,3.92,0,.51-.18,1.21.54,1.23,2.46,0,5,.7,7.35-.33A6.18,6.18,0,0,1,130.34,885.06Z"/>
                        <path class="cls-1" d="M120.71,683.08c1.27.26,1.55,1.29,1.84,2.3a10.42,10.42,0,0,0,1.6,3.92,2.11,2.11,0,0,0,3.29.23c2.82-3,2-6.79-1.84-8.34a13.06,13.06,0,0,0-6-1c-1,.09-2.77.16-4.55.46-2.87.48-4.23,2.53-3.51,5.22.32,1.18.82,2.31,1.2,3.47.59,1.78,1.27,3.39,3.73,3.31a3.2,3.2,0,0,1,1.9,1,3.25,3.25,0,0,0,4.08.33c1.1-1-.14-2.25-.85-3.21-.94-1.25-2.11-2.34-3-3.6a2.75,2.75,0,0,1,0-3.27A2,2,0,0,1,120.71,683.08Z"/>
                        <path class="cls-1" d="M119.6,891.17a2,2,0,0,1,2.07.35,3,3,0,0,1,1,1.83c.18.74.58,1.4,1.51,1.2a2.8,2.8,0,0,0,2.3-1.66,2.27,2.27,0,0,0-.88-2.59c-1.63-1.34-6-1.67-7.9-.63a2.58,2.58,0,0,0-1.1,3.77,1.69,1.69,0,0,0,1.87.83c.87-.25.76-.94.65-1.59S118.9,891.48,119.6,891.17Z"/>
                        <path class="cls-1" d="M130.48,709.15a5,5,0,0,0,4-3.67,1.44,1.44,0,0,0-1.11-2.06c-2.35-.76-2.86-2-1.72-4.12a1.39,1.39,0,0,0-.19-1.89c-1.85-2-3.22-2.34-4.29.29-.59,1.44-1.63,1.8-3,.56s-2.77-1-4,.32a6,6,0,0,0-.41,7.19,13.56,13.56,0,0,1,2,5.77c1.35,8.05.55,16.3,3.08,24.28,1.65,5.2,1.24,10.83,1.64,16.26.63,8.64.87,17.31,1.27,26s.54,17.08.73,25.61c.26,11.18.88,22.36.47,33.55-.18,5.13.56,10.24-1.36,15.4a86,86,0,0,0-3.27,12.23c-.58,2.85-.73,5.63.69,8.27.62,1.17,1.15,2.82,2.85,2.59s1.46-1.77,1.56-3c0-.46.12-1,.67-1.08a1,1,0,0,1,1.17.84c.36,1.23,1,2.41.89,3.74-.07.88.39,1.44,1.25,1.41,1,0,.85-.89.67-1.47a3,3,0,0,1,1.1-3.28,4.36,4.36,0,0,0,1.57-3.46,16.42,16.42,0,0,1-.35-2.08c-.2-4.75-2.72-9-3.2-13.73-.92-9-1.44-18-1.77-27.06-.19-4.94-.12-9.9-.51-14.83q-1.25-15.66-1.55-31.35-.09-4.43-.44-8.85c-.65-8.06-.29-16.15-.69-24.23-.07-1.44,0-3.2.78-4.28a4.64,4.64,0,0,0,.87-4.09,22.89,22.89,0,0,1-.46-4.21c0-7.05-.19-14.06-2.29-20.92C126.37,711,127.36,709.94,130.48,709.15Z"/>
                        <path class="cls-1" d="M24.45,475c-1.7-.73-3.56-.5-5.33-.5-.85,0-1.55,1-1.59,2a1.81,1.81,0,0,0,1.55,1.78,6.83,6.83,0,0,0,1.6.18c1.73,0,2.9.08,3.88-.62.58-.4,1.36-.78,1.3-1.58S25,475.28,24.45,475Z"/>
                        <path class="cls-1" d="M11.74,509.48a.86.86,0,0,0-1.12.82c0,3-1.25,5.72-2.21,8.51-.65,1.91,1.35.18,1.81,1,.35.63,1,.15,1-.47.22-3-.33-6.05,1.22-8.54C12.46,510,12.3,509.58,11.74,509.48Z"/>
                        <path class="cls-1" d="M15,503.79c.56-1.81.32-3.69.49-5.54a56.89,56.89,0,0,1,2-10.18c.19-.7.36-1.49-.67-1.71s-1.3.46-1.41,1.23A26.52,26.52,0,0,0,15,491a22.33,22.33,0,0,1-2,8.57c-.51,1.18-.91,2.4-1.17,3.1-.23,2.11,1.23,2.32,2.16,2.58S14.85,504.39,15,503.79Z"/>
                        <path class="cls-1" d="M11.33,488.27a1.74,1.74,0,0,0,.39-1.68,1.1,1.1,0,0,0-1-.75c-.69,0-.86.58-1,1.07C9,489.54,7.31,491.69,5.92,494c-.65,1.06-1.42,2.07-2.07,3.13-.44.71-.42,1.16.56,1.59,2.09.91,2.28.95,2.84-1.4A22,22,0,0,1,11.33,488.27Z"/>
                        <path class="cls-1" d="M17.23,529.54c-.79,0-1,.56-1,1.18a25.06,25.06,0,0,1-1.83,8.78c-.21.57-.48,1.47.47,1.56s1.16.93,2,1.37c.44-2.09,0-4.07.28-6a29.15,29.15,0,0,1,1-5.84C18.28,530.06,17.91,529.55,17.23,529.54Z"/>
                        <path class="cls-1" d="M8.57,523c-.88-.26-1.6.2-1.56,1,.14,2.94-1.16,5.47-2.21,8.09-.26.67,1.16,2.3,1.91,2.2.56-.17.53-.67.53-1.09A19.2,19.2,0,0,1,9,524.44C9.28,523.89,9.35,523.23,8.57,523Z"/>
                        <path class="cls-1" d="M28.53,462.58c-.74-1.81-1.65-3.77-.76-5.59a14.35,14.35,0,0,0,1.06-8.3,57.11,57.11,0,0,1,.25-10.77c.57-6.86,1.94-13.61,3.15-20.36.86-4.78,2-9.55,2.81-14.34,1.13-6.77,2.53-13.5,3.76-20.25,1.55-8.6,3.07-17.21,5.39-25.65,1.07-3.86,1.39-7.81,2.26-11.69.24-1.06.63-2.09.84-3.15.1-.47.11-1.21-.52-1.31-.78-.11-.65.69-.74,1.12-1.38,6.37-3.61,12.5-5.33,18.78a155.24,155.24,0,0,0-4.2,17.57c-1.2,7.93-2.14,15.9-3.52,23.81-1.08,6.2-2.4,12.36-3.22,18.61-.28,2.12-.76,4.3-1.06,6.43-.48,3.43-1.76,6.74-1.58,10.25a63.64,63.64,0,0,1,0,11.13c-.58,4.64-.36,9.38-2,13.88-.48,1.32-.42,2.35,1.48,2.21,1-.07,1.65.76,2.81,1.14A7,7,0,0,0,28.53,462.58Z"/>
                        <path class="cls-1" d="M30.05,489.32c-1.14-.22-.89.75-.87,1.3.06,1.6.21,3.2.37,4.79.36,3.67-.93,7.11-1.55,10.64-.37,2.05.11,2.5,2.52,2.53,1.74,0,.81-1.39,1-2.17a5,5,0,0,0,0-1.34c-.14-2.56-.28-5.13-.41-7.69a27,27,0,0,1,.49-6.52C31.89,489.6,30.83,489.47,30.05,489.32Z"/>
                        <path class="cls-1" d="M3.18,502.61a.83.83,0,0,0-.73.83c0,2.28-1.25,4.2-2.17,6.21-.19.4-.51.9,0,1.23a2,2,0,0,0,1.65.45c.52-.17.49-.75.48-1.18a10.13,10.13,0,0,1,1.37-5.21A2.27,2.27,0,0,0,4,503.25C3.88,502.87,3.64,502.56,3.18,502.61Z"/>
                        <path class="cls-1" d="M19.25,507.76c.38,1.08,1.6.25,2.3.78,1.16.89,1.43.27,1.53-.82.58-6-.18-12.07,1.37-18.19.05-.65-.53-1.24-1.42-1.27-1,0-.79.73-.76,1.22A40,40,0,0,1,19.7,505,4.11,4.11,0,0,0,19.25,507.76Z"/>
                        <path class="cls-1" d="M20.09,523.65a14.43,14.43,0,0,1,.42-7.41c.57-1.64.48-2.68-1.9-3a26.51,26.51,0,0,1-1.25,10.19c-.18.55-.68,1.45.17,1.68s1.55.88,2.19.61C20.57,525.38,20.22,524.37,20.09,523.65Z"/>
                        <path class="cls-1" d="M25.48,522.25c-1.06,2.24-1,4.72-1.75,7-.54,1.66-1.34,3.2-1.9,4.83-.5,1.46.46,2.62,1.84,2.32s2.74-3,2.22-4.58L24,534.12l-.68-.22c3.21-3.95,2.44-8.61,3.35-13.14C25.64,521.09,25.71,521.75,25.48,522.25Z"/>
                        <path class="cls-1" d="M213.11,931.27c-2.51-3.44-4.67-7-5.37-11.23-.11-.65-.12-1.64-1.05-1.56a3.4,3.4,0,0,0-2.58,1.23c-.42.64.19,1.34.74,1.79a7.55,7.55,0,0,1,2.59,4.85c.45,2.43,1.66,4.71,1.79,7.24a6.08,6.08,0,0,0,.75,1.93c.14.32.36.64.79.6a.68.68,0,0,0,.58-.75c0-1.12.72-1.55,1.78-1.67a.85.85,0,0,0,.82-.62A2.82,2.82,0,0,0,213.11,931.27Z"/>
                        <path class="cls-1" d="M204.18,931.63c-2.34-3.56-4.32-7.25-4.81-11.49-.07-.65,0-1.64-1-1.61a3.4,3.4,0,0,0-2.63,1.1c-.46.62.12,1.34.65,1.82a7.56,7.56,0,0,1,2.34,5c.33,2.45,1.42,4.79,1.42,7.32a6.08,6.08,0,0,0,.65,2c.13.33.34.65.76.63s.59-.36.62-.71c.09-1.12.8-1.52,1.86-1.58a.86.86,0,0,0,.85-.58A2.81,2.81,0,0,0,204.18,931.63Z"/>
                        <path class="cls-1" d="M181,396.19c2.24-.41,4.27-1.32,6.42-1.86a.34.34,0,0,0,.27-.36c0-.86-1.91-2.23-2.8-2a21.43,21.43,0,0,1-3,.72c-1.07.14-2.5,0-1.83,1.8,0,.09-.05.23-.1.34C179.51,395.87,180.24,396,181,396.19Z"/>
                        <path class="cls-1" d="M158.53,392.81a23.58,23.58,0,0,1-3.9-.76c-.91-.31-2.75,1-2.83,1.9a.48.48,0,0,0,.44.52c2.08.47,4,1.43,6.3,1.67.85,0,1.32-.56.91-1.36a1.19,1.19,0,0,1-.18-1C159.56,393,159.12,392.91,158.53,392.81Z"/>
                        <path class="cls-1" d="M181,407.19c2.24-.41,4.27-1.32,6.42-1.86a.34.34,0,0,0,.27-.36c0-.86-1.91-2.23-2.8-2a21.43,21.43,0,0,1-3,.72c-1.07.14-2.5,0-1.83,1.8,0,.09-.05.23-.1.34C179.51,406.87,180.24,407,181,407.19Z"/>
                        <path class="cls-1" d="M158.53,403.81a23.58,23.58,0,0,1-3.9-.76c-.91-.31-2.75,1-2.83,1.9a.48.48,0,0,0,.44.52c2.08.47,4,1.43,6.3,1.67.85,0,1.32-.56.91-1.36a1.19,1.19,0,0,1-.18-1C159.56,404,159.12,403.91,158.53,403.81Z"/>
                        <path class="cls-1" d="M181,382.19c2.24-.41,4.27-1.32,6.42-1.86a.34.34,0,0,0,.27-.36c0-.86-1.91-2.23-2.8-2a21.43,21.43,0,0,1-3,.72c-1.07.14-2.5,0-1.83,1.8,0,.09-.05.23-.1.34C179.51,381.87,180.24,382,181,382.19Z"/>
                        <path class="cls-1" d="M158.53,378.81a23.58,23.58,0,0,1-3.9-.76c-.91-.31-2.75,1-2.83,1.9a.48.48,0,0,0,.44.52c2.08.47,4,1.43,6.3,1.67.85,0,1.32-.56.91-1.36a1.19,1.19,0,0,1-.18-1C159.56,379,159.12,378.91,158.53,378.81Z"/>
                        <path class="cls-1" d="M181,367.19c2.24-.41,4.27-1.32,6.42-1.86a.34.34,0,0,0,.27-.36c0-.86-1.91-2.23-2.8-2a21.43,21.43,0,0,1-3,.72c-1.07.14-2.5,0-1.83,1.8,0,.09-.05.23-.1.34C179.51,366.87,180.24,367,181,367.19Z"/>
                        <path class="cls-1" d="M158.53,363.81a23.58,23.58,0,0,1-3.9-.76c-.91-.31-2.75,1-2.83,1.9a.48.48,0,0,0,.44.52c2.08.47,4,1.43,6.3,1.67.85,0,1.32-.56.91-1.36a1.19,1.19,0,0,1-.18-1C159.56,364,159.12,363.91,158.53,363.81Z"/>
                        <path class="cls-1" d="M181,355.19c2.24-.41,4.27-1.32,6.42-1.86a.34.34,0,0,0,.27-.36c0-.86-1.91-2.23-2.8-2a21.43,21.43,0,0,1-3,.72c-1.07.14-2.5,0-1.83,1.8,0,.09-.05.23-.1.34C179.51,354.87,180.24,355,181,355.19Z"/>
                        <path class="cls-1" d="M158.53,351.81a23.58,23.58,0,0,1-3.9-.76c-.91-.31-2.75,1-2.83,1.9a.48.48,0,0,0,.44.52c2.08.47,4,1.43,6.3,1.67.85,0,1.32-.56.91-1.36a1.19,1.19,0,0,1-.18-1C159.56,352,159.12,351.91,158.53,351.81Z"/>
                        <path class="cls-1" d="M181,342.19c2.24-.41,4.27-1.32,6.42-1.86a.34.34,0,0,0,.27-.36c0-.86-1.91-2.23-2.8-2a21.43,21.43,0,0,1-3,.72c-1.07.14-2.5,0-1.83,1.8,0,.09-.05.23-.1.34C179.51,341.87,180.24,342,181,342.19Z"/>
                        <path class="cls-1" d="M158.53,338.81a23.58,23.58,0,0,1-3.9-.76c-.91-.31-2.75,1-2.83,1.9a.48.48,0,0,0,.44.52c2.08.47,4,1.43,6.3,1.67.85,0,1.32-.56.91-1.36a1.19,1.19,0,0,1-.18-1C159.56,339,159.12,338.91,158.53,338.81Z"/>
                        <path class="cls-1" d="M181,330.19c2.24-.41,4.27-1.32,6.42-1.86a.34.34,0,0,0,.27-.36c0-.86-1.91-2.23-2.8-2a21.43,21.43,0,0,1-3,.72c-1.07.14-2.5,0-1.83,1.8,0,.09-.05.23-.1.34C179.51,329.87,180.24,330,181,330.19Z"/>
                        <path class="cls-1" d="M158.53,326.81a23.58,23.58,0,0,1-3.9-.76c-.91-.31-2.75,1-2.83,1.9a.48.48,0,0,0,.44.52c2.08.47,4,1.43,6.3,1.67.85,0,1.32-.56.91-1.36a1.19,1.19,0,0,1-.18-1C159.56,327,159.12,326.91,158.53,326.81Z"/>
                        <path class="cls-1" d="M181,317.19c2.24-.41,4.27-1.32,6.42-1.86a.34.34,0,0,0,.27-.36c0-.86-1.91-2.23-2.8-2a21.43,21.43,0,0,1-3,.72c-1.07.14-2.5,0-1.83,1.8,0,.09-.05.23-.1.34C179.51,316.87,180.24,317,181,317.19Z"/>
                        <path class="cls-1" d="M158.53,313.81a23.58,23.58,0,0,1-3.9-.76c-.91-.31-2.75,1-2.83,1.9a.48.48,0,0,0,.44.52c2.08.47,4,1.43,6.3,1.67.85,0,1.32-.56.91-1.36a1.19,1.19,0,0,1-.18-1C159.56,314,159.12,313.91,158.53,313.81Z"/>
                        <path class="cls-1" d="M181,304.19c2.24-.41,4.27-1.32,6.42-1.86a.34.34,0,0,0,.27-.36c0-.86-1.91-2.23-2.8-2a21.43,21.43,0,0,1-3,.72c-1.07.14-2.5,0-1.83,1.8,0,.09-.05.23-.1.34C179.51,303.87,180.24,304,181,304.19Z"/>
                        <path class="cls-1" d="M158.53,300.81a23.58,23.58,0,0,1-3.9-.76c-.91-.31-2.75,1-2.83,1.9a.48.48,0,0,0,.44.52c2.08.47,4,1.43,6.3,1.67.85,0,1.32-.56.91-1.36a1.19,1.19,0,0,1-.18-1C159.56,301,159.12,300.91,158.53,300.81Z"/>
                        <path class="cls-1" d="M181,292.19c2.24-.41,4.27-1.32,6.42-1.86a.34.34,0,0,0,.27-.36c0-.86-1.91-2.23-2.8-2a21.43,21.43,0,0,1-3,.72c-1.07.14-2.5,0-1.83,1.8,0,.09-.05.23-.1.34C179.51,291.87,180.24,292,181,292.19Z"/>
                        <path class="cls-1" d="M158.53,288.81a23.58,23.58,0,0,1-3.9-.76c-.91-.31-2.75,1-2.83,1.9a.48.48,0,0,0,.44.52c2.08.47,4,1.43,6.3,1.67.85,0,1.32-.56.91-1.36a1.19,1.19,0,0,1-.18-1C159.56,289,159.12,288.91,158.53,288.81Z"/>
                        <path class="cls-1" d="M181,160.19c2.24-.41,4.27-1.32,6.42-1.86a.34.34,0,0,0,.27-.36c0-.86-1.91-2.23-2.8-2a21.43,21.43,0,0,1-3,.72c-1.07.14-2.5,0-1.83,1.8,0,.09-.05.23-.1.34C179.51,159.87,180.24,160,181,160.19Z"/>
                        <path class="cls-1" d="M158.53,156.81a23.58,23.58,0,0,1-3.9-.76c-.91-.31-2.75,1-2.83,1.9a.48.48,0,0,0,.44.52c2.08.47,4,1.43,6.3,1.67.85,0,1.32-.56.91-1.36a1.19,1.19,0,0,1-.18-1C159.56,157,159.12,156.91,158.53,156.81Z"/>
                        <path class="cls-1" d="M181,150.19c2.24-.41,4.27-1.32,6.42-1.86a.34.34,0,0,0,.27-.36c0-.86-1.91-2.23-2.8-2a21.43,21.43,0,0,1-3,.72c-1.07.14-2.5,0-1.83,1.8,0,.09-.05.23-.1.34C179.51,149.87,180.24,150,181,150.19Z"/>
                        <path class="cls-1" d="M158.53,146.81a23.58,23.58,0,0,1-3.9-.76c-.91-.31-2.75,1-2.83,1.9a.48.48,0,0,0,.44.52c2.08.47,4,1.43,6.3,1.67.85,0,1.32-.56.91-1.36a1.19,1.19,0,0,1-.18-1C159.56,147,159.12,146.91,158.53,146.81Z"/>
                        <path class="cls-1" d="M181,140.19c2.24-.41,4.27-1.32,6.42-1.86a.34.34,0,0,0,.27-.36c0-.86-1.91-2.23-2.8-2a21.43,21.43,0,0,1-3,.72c-1.07.14-2.5,0-1.83,1.8,0,.09-.05.23-.1.34C179.51,139.87,180.24,140,181,140.19Z"/>
                        <path class="cls-1" d="M158.53,136.81a23.58,23.58,0,0,1-3.9-.76c-.91-.31-2.75,1-2.83,1.9a.48.48,0,0,0,.44.52c2.08.47,4,1.43,6.3,1.67.85,0,1.32-.56.91-1.36a1.19,1.19,0,0,1-.18-1C159.56,137,159.12,136.91,158.53,136.81Z"/>
                        <path class="cls-1" d="M181,130.19c2.24-.41,4.27-1.32,6.42-1.86a.34.34,0,0,0,.27-.36c0-.86-1.91-2.23-2.8-2a21.43,21.43,0,0,1-3,.72c-1.07.14-2.5,0-1.83,1.8,0,.09-.05.23-.1.34C179.51,129.87,180.24,130,181,130.19Z"/>
                        <path class="cls-1" d="M158.53,126.81a23.58,23.58,0,0,1-3.9-.76c-.91-.31-2.75,1-2.83,1.9a.48.48,0,0,0,.44.52c2.08.47,4,1.43,6.3,1.67.85,0,1.32-.56.91-1.36a1.19,1.19,0,0,1-.18-1C159.56,127,159.12,126.91,158.53,126.81Z"/>
                        <path class="cls-1" d="M181,120.19c2.24-.41,4.27-1.32,6.42-1.86a.34.34,0,0,0,.27-.36c0-.86-1.91-2.23-2.8-2a21.43,21.43,0,0,1-3,.72c-1.07.14-2.5,0-1.83,1.8,0,.09-.05.23-.1.34C179.51,119.87,180.24,120,181,120.19Z"/>
                        <path class="cls-1" d="M158.53,116.81a23.58,23.58,0,0,1-3.9-.76c-.91-.31-2.75,1-2.83,1.9a.48.48,0,0,0,.44.52c2.08.47,4,1.43,6.3,1.67.85,0,1.32-.56.91-1.36a1.19,1.19,0,0,1-.18-1C159.56,117,159.12,116.91,158.53,116.81Z"/>
                        <path class="cls-1" d="M162.77,286.16c-.25.69.36,1.19.92,1.55a6.39,6.39,0,0,0,1.3.51c.54.2,1.34.15,1.36.92s-.75,1-1.37,1.21c-.31.12-.63.21-.94.34-.8.33-1.42.84-1.22,1.76a1.58,1.58,0,0,0,2,1.17,37.31,37.31,0,0,1,10.35.15c.63-.09,1.3.38,1.62-.15s-.31-1-.66-1.48a4,4,0,0,0-1.65-1.37c-2.24-.92-2.25-1.09-.41-2.51.56-.43,1.45-.8,1.13-1.63s-1.26-.58-2-.61c-3-.13-5.93.24-8.87-.3C163.8,285.62,163,285.48,162.77,286.16Z"/>
                        <path class="cls-1" d="M336,528.6c-.26-2.42-.66-4.85-.09-7.27.12-.53.39-1.18-.24-1.6a1.23,1.23,0,0,0-.93.07c-.65.31-.6.91-.52,1.51a17.32,17.32,0,0,1-.25,5.92c-.16.82-.33,1.64-.46,2.46s0,.94,1.05.9C336.34,530.54,336.16,529.66,336,528.6Z"/>
                        <path class="cls-1" d="M334.49,513.28a23.6,23.6,0,0,1-1.55-4.34c-.17-1-.36-2-.62-3-.17-.63-.55-1.33-1.36-1.11-1,.27-.49,1-.3,1.59.88,2.56,1.73,5.12,1.28,7.83.2.62-.12,1.5.79,1.61S334.84,514.19,334.49,513.28Z"/>
                        <path class="cls-1" d="M330.36,496.59a24,24,0,0,1-2.7-9.75,16.46,16.46,0,0,0-.61-3c-.18-.7-.22-1.76-1.38-1.47s-.66,1.22-.45,1.93a68.89,68.89,0,0,1,2.25,11.28c.18,1.59.31,3.19.55,4.77.11.73.28,1,1.3.47C331.64,499.68,331.21,498.2,330.36,496.59Z"/>
                        <path class="cls-1" d="M118.32,904.68a8.38,8.38,0,0,1,1.5-4.06c.86,5.74-3.08,9.53-5.1,14a.65.65,0,0,1-.88.4,1.2,1.2,0,0,1-.51-1.46,8.56,8.56,0,0,1,2.24-3.54A9.69,9.69,0,0,0,118.32,904.68Z"/>
                        <path class="cls-1" d="M130.56,909.5a8.15,8.15,0,0,0,1.48-6.11c-.06-.75-.09-1.51-.19-2.26-.24-1.76.5-2.8,2-3,2.06-.6,2.54,0,2,1.92-.73,2.87-2.05,5.62-1.91,8.65.1,2.19.23,4.4.14,6.6s-.8,2.38-2.69,1.39a1.52,1.52,0,0,0-1-.21c-2.42.69-2.19-1-2-2.23A10.57,10.57,0,0,1,130.56,909.5Z"/>
                        <path class="cls-1" d="M116.24,933.36c2.51-3.44,4.67-7,5.38-11.24.1-.64.11-1.64,1-1.55a3.39,3.39,0,0,1,2.58,1.22c.42.64-.19,1.34-.74,1.79a7.55,7.55,0,0,0-2.59,4.86c-.45,2.43-1.66,4.71-1.79,7.23a6.13,6.13,0,0,1-.75,1.94c-.14.32-.36.63-.79.59s-.57-.39-.58-.74c0-1.12-.72-1.56-1.78-1.67a.85.85,0,0,1-.82-.63A2.8,2.8,0,0,1,116.24,933.36Z"/>
                        <path class="cls-1" d="M116.72,913.3c2.23-3.61,4.88-7.06,4.51-11.57a1.17,1.17,0,0,1,1.33-1.32c.87.09.8.79.8,1.43,0,4.95-2.62,9.13-4.41,13.55-.32.81-1.16.7-1.88.62-.56-.06-.89-.39-1-1.14A8.92,8.92,0,0,1,116.72,913.3Z"/>
                        <path class="cls-1" d="M123.2,910.72a10.12,10.12,0,0,0,2.4-8.13,10.29,10.29,0,0,1,.05-1.24,2.07,2.07,0,0,1,2.08-2.2c1.62-.53,2,.13,1.66,1.51-.5,1.88-1.51,3.77-1.42,5.6.16,3.34-1.56,6.16-2.2,9.25-.09.42-.09,1-.84,1-3-.15-3.68-1.22-2.56-4.1A5.55,5.55,0,0,1,123.2,910.72Z"/>
                        <path class="cls-1" d="M110.65,930.45A26.06,26.06,0,0,0,117,920.09c.15-.51.3-1.45,1.22-1.08s1.76.74,1.45,2a3.77,3.77,0,0,1-1.26,1.92,7.64,7.64,0,0,0-2.35,3.67c-.71,2.4-1.63,4.75-2.51,7.1-.2.53-1,1.54-1.08,1.16a3.64,3.64,0,0,0-2.48-2.56A1.85,1.85,0,0,1,110.65,930.45Z"/>
                        <path class="cls-1" d="M139.19,901.17a3.29,3.29,0,0,1-.2-1.42c0-.52.22-1.14.71-1.18,1.58-.13,3.06-2,4.37-1.12s.16,2.67-.17,4a19.27,19.27,0,0,1-.71,2.19,1.47,1.47,0,0,0,0,1.38c1,1.58.92,3.45,1.34,4.77.35,1.67.61,2.95.89,4.23s-.33,3.3-1.25,3.12c-1.86-.35-3.65.57-5.38-.06-.2-.07-.3-.46-.37-.71a4.25,4.25,0,0,1,0-3C140.12,909.37,141.56,905.36,139.19,901.17Z"/>
                        <path class="cls-1" d="M124.63,931.44c2.51-3.44,4.68-7,5.38-11.23.11-.65.11-1.64,1.05-1.56a3.42,3.42,0,0,1,2.58,1.22c.42.65-.19,1.34-.75,1.79a7.61,7.61,0,0,0-2.58,4.86c-.46,2.43-1.67,4.71-1.79,7.23a6.13,6.13,0,0,1-.75,1.94c-.14.32-.37.64-.79.59s-.57-.39-.58-.74c0-1.12-.73-1.56-1.78-1.67a.85.85,0,0,1-.82-.62A2.86,2.86,0,0,1,124.63,931.44Z"/>
                        <path class="cls-1" d="M133.57,931.8c2.33-3.57,4.32-7.25,4.81-11.49.07-.65,0-1.64,1-1.61a3.43,3.43,0,0,1,2.64,1.09c.45.63-.12,1.35-.65,1.83a7.56,7.56,0,0,0-2.34,5c-.33,2.45-1.43,4.79-1.42,7.31a6.25,6.25,0,0,1-.65,2c-.13.33-.34.66-.76.64s-.59-.37-.62-.72c-.09-1.11-.8-1.51-1.86-1.57a.85.85,0,0,1-.85-.59A2.77,2.77,0,0,1,133.57,931.8Z"/>
                        <path class="cls-1" d="M104.15,930a26.06,26.06,0,0,0,6.34-10.36c.15-.51.3-1.45,1.22-1.08s1.76.74,1.45,2a3.77,3.77,0,0,1-1.26,1.92,7.64,7.64,0,0,0-2.35,3.67c-.71,2.4-1.63,4.75-2.51,7.1-.2.53-1,1.54-1.08,1.16a3.64,3.64,0,0,0-2.48-2.56A1.85,1.85,0,0,1,104.15,930Z"/>
                        <path class="cls-1" d="M233.77,929.61a26,26,0,0,1-6.34-10.35c-.16-.52-.31-1.45-1.23-1.08s-1.76.73-1.44,2a3.75,3.75,0,0,0,1.25,1.91,7.67,7.67,0,0,1,2.35,3.68c.71,2.4,1.64,4.74,2.52,7.1.19.53.94,1.53,1.07,1.16a3.66,3.66,0,0,1,2.48-2.56A1.87,1.87,0,0,0,233.77,929.61Z"/>
                    </g>
                    <path class="cls-1" d="M53.53,217.14s.79,18.24-.88,23.52a112.39,112.39,0,0,0-5.78,30.1c-1,15.76,6.15,25.4,5.81,35.16C52.68,305.92,64.56,250.48,53.53,217.14Z"/>
                    <path class="cls-1" d="M74,222.17s-10.75,23.5-3.25,80.5c0,0,1.5-17.5,3.5-24.25s4-14.5,3.75-21A264.73,264.73,0,0,0,74,222.17Z"/>
                    <path class="cls-1" d="M62.48,355.17s-1,3.5.5,10.5,5.67,15.25,4,35c-.35,4.11-22,53-22,53S57.48,366.67,62.48,355.17Z"/>
                    <path class="cls-1" d="M44.31,341.33s-2.83,7-6.16,11-8.84,22.34-9.84,28.5-.83,41.84-.83,41.84S36.31,363.67,44.31,341.33Z"/>
                    <path class="cls-1" d="M94.48,164.21s32.87-12.5,36.57-21.29,13.43-8.34,13.43-8.34-6.48,28.71-14.82,32.87S101,170.69,94.48,164.21Z"/>
                    <path class="cls-1" d="M107,519.17s16.5,131.5,30.5,147c0,0-3.5-18-1-35s11.5-44.5,7-66-14-20.5-22.5-34-15.5-24.5-15.5-24.5Z"/>
                    <path class="cls-1" d="M84,524.17s3,13,2,18.5-5.5,24.5-1.5,55,17,25.5,17.5,43.5c0,0,5,11,5,15C107,656.17,111,588.17,84,524.17Z"/>
                    <path class="cls-1" d="M135,719s13.51,16.42,12.28,56.4S137.3,822.61,136,848.58C136,848.58,132.55,732.42,135,719Z"/>
                    <path class="cls-1" d="M103,706.17s-17,13-14,45.5,18,81.5,18,81.5S99,715.17,103,706.17Z"/>
                    <path class="cls-1" d="M286.93,216.48s-.79,18.24.88,23.51a112.51,112.51,0,0,1,5.77,30.1c1,15.77-6.15,25.41-5.8,35.16C287.78,305.25,275.9,249.81,286.93,216.48Z"/>
                    <path class="cls-1" d="M264.81,222.5s10.75,23.5,3.25,80.5c0,0-1.5-17.5-3.5-24.25s-4-14.5-3.75-21A264.73,264.73,0,0,1,264.81,222.5Z"/>
                    <path class="cls-1" d="M276.31,351.83s1,3.5-.5,10.5-5.67,15.25-4,35c.35,4.11,22,53,22,53S281.31,363.33,276.31,351.83Z"/>
                    <path class="cls-1" d="M294.14,338.33s2.84,7,6.17,11,8.83,22.34,9.83,28.5.84,41.84.84,41.84S302.14,360.67,294.14,338.33Z"/>
                    <path class="cls-1" d="M244.64,164.21s-32.87-12.5-36.57-21.29-13.43-8.34-13.43-8.34,6.49,28.71,14.82,32.87S238.16,170.69,244.64,164.21Z"/>
                    <path class="cls-1" d="M229.14,519.17s-16.5,131.5-30.5,147c0,0,3.5-18,1-35s-11.5-44.5-7-66,14-20.5,22.5-34,15.5-24.5,15.5-24.5Z"/>
                    <path class="cls-1" d="M248.81,524.17s-3,13-2,18.5,5.5,24.5,1.5,55-17,25.5-17.5,43.5c0,0-5,11-5,15C225.81,656.17,221.81,588.17,248.81,524.17Z"/>
                    <path class="cls-1" d="M201.16,719s-13.5,16.42-12.28,56.4,10,47.22,11.24,73.19C200.12,848.58,203.57,732.42,201.16,719Z"/>
                    <path class="cls-1" d="M228,711.75s17.49,12.33,15.75,44.92-19.29,84.66-19.29,84.66S236.81,739.67,228,711.75Z"/>
                </g>
            </g>
        </g>
    </g>
</svg>