<svg xmlns="http://www.w3.org/2000/svg" viewBox="0 0 75.39 56.28">
    <defs>
        <style>.cls-1{fill:#c2c1c1;}</style>
    </defs>
    <title>Gehirn (3)</title>
    <g id="Ebene_2" data-name="Ebene 2">
        <g id="Mann">
            <g id="Organe">
                <g id="Endokrin">
                    <path id="Gehirn" class="cls-1" d="M74.15,25.5C67.63,1,46.25-.2,39.73,0a2,2,0,0,0-2,2c-.06,1.88-.17,5.09-.27,9.06-.15-4.05-.3-7.29-.38-9.12A1.87,1.87,0,0,0,35.33.17C29.13-.1,7.82.8,1.24,25.5c-7.73,29,23.18,19.64,23.18,19.64C21.58,55.7,37.66,56.28,37.66,56.28l0-.34,0,.34s13.35-.48,13.58-8.55a2,2,0,0,1,2.46-1.91C61.19,47.31,80.43,49.09,74.15,25.5Z"/>
                </g>
            </g>
        </g>
    </g>
</svg>