<svg xmlns="http://www.w3.org/2000/svg" viewBox="0 0 79.13 88.35">
    <defs>
        <style>.cls-1{fill:#c2c1c1;}</style>
    </defs>
    <title>psychosozial (3)</title>
    <g id="Ebene_2" data-name="Ebene 2">
        <g id="Mann">
            <g id="psychosozial">
                <path class="cls-1" d="M79.13,32.38a6.94,6.94,0,0,0-6.93-6.94,6.84,6.84,0,0,0-.79,0c0-.07,0-.14,0-.22a14,14,0,0,0-14-14,13.77,13.77,0,0,0-3.1.36,19.66,19.66,0,0,0-36.15.7A13.76,13.76,0,0,0,8.07,25.54h0a6.1,6.1,0,0,0-1.13-.11,6.94,6.94,0,0,0,0,13.88H72.33A6.93,6.93,0,0,0,79.13,32.38Z"/>
                <polygon class="cls-1" points="42.07 44.1 30.57 69.6 37.73 69.52 31.57 88.35 48.57 63.35 39.82 63.35 42.07 44.1"/>
            </g>
        </g>
    </g>
</svg>