<svg xmlns="http://www.w3.org/2000/svg" viewBox="0 0 36.61 27.64">
    <defs>
        <style>.cls-1{fill:#c2c1c1;}.cls-2{fill:#a5a4a4;}.cls-3{fill:#e5e4e4;}</style>
    </defs>
    <title>Gebiss (3)</title>
    <g id="Ebene_2" data-name="Ebene 2">
        <g id="Mann">
            <g id="Gebiss">
                <path class="cls-1" d="M2.7,13.7A8.52,8.52,0,0,0,.12,21.35c.78,4.85,4.29,6.09,4.29,6.09s11.16.19,13.93.19,14,.14,15.17-.56,5.67-7.84,1.06-13.6c0,0-10.1,4.06-16,4.06S5,16.05,2.7,13.7Z"/>
                <path class="cls-1" d="M1.5,3.19A1.67,1.67,0,0,0,.39,5.49c1,2.15,2.47,5.57,2.4,6.32-.09,1.1,10.34,2.26,10.34,2.26l5.11-2.26h.83L24,13.88,34.2,12.82s-.32-7.19.88-8.3S23.69,0,18.57,0C14.63,0,5.5,2.18,1.5,3.19Z"/>
                <path class="cls-2" d="M5.82,15.47a.54.54,0,0,0-.69,0c-.16.15-.31.32-.24.38s-.08.33-.25.73a2.43,2.43,0,0,0,.09-.73c-.07-.21-.35-.6-.48-.62A5,5,0,0,0,3,15.36a10.37,10.37,0,0,0-.29,1.19.48.48,0,0,0,0,.29,10.29,10.29,0,0,0,.66,1.59.46.46,0,0,0,.69.07s.08-.16.16-.34a2.08,2.08,0,0,0,0,.43s0,.14.06.29a.55.55,0,0,0,1,.16.21.21,0,0,0,0-.06A22.91,22.91,0,0,0,6.51,16.1C6.49,16,6.12,15.69,5.82,15.47Z"/>
                <path class="cls-2" d="M18.43,14.94l-3.29.23-.15,0-.4.14a2.17,2.17,0,0,0,0-.26.54.54,0,0,0-.54-.53H12.48a.52.52,0,0,0-.39.17l-.57.59a18.39,18.39,0,0,0-2.06-.57,5.4,5.4,0,0,0-.93,1.43h0a.56.56,0,0,0-.43-.69,7.6,7.6,0,0,0-.89-.11c-.34,0-1.15,2.12-1.37,2.73a.51.51,0,0,0,0,.3A2.69,2.69,0,0,1,5.63,20s-.16.35.3.14a7.69,7.69,0,0,0,1.93-1.56,11.75,11.75,0,0,1-.06,2.44c-.13.54.3.57.57.54a.52.52,0,0,0,.33-.16,26.94,26.94,0,0,0,2.81-3.15,2,2,0,0,0,.12-.44,13.5,13.5,0,0,0,1,4.17c.74,1.13,1.46-.25,1.46-.25A4.33,4.33,0,0,0,15,19.55c.22.85.64,2.17,1.19,2.5a1.07,1.07,0,0,0,1.37-.32.53.53,0,0,0,.11-.21,24.12,24.12,0,0,0,.94-5.08C18.54,14.81,18.43,14.94,18.43,14.94Z"/>
                <path class="cls-2" d="M31.38,15.52a.53.53,0,0,1,.69,0c.16.15.31.32.24.38s.08.33.25.72a2.37,2.37,0,0,1-.09-.72,1.35,1.35,0,0,1,.48-.63,6.18,6.18,0,0,1,1.25.09,10.66,10.66,0,0,1,.29,1.2.49.49,0,0,1,0,.29,9.79,9.79,0,0,1-.66,1.58.45.45,0,0,1-.69.07S33,18.39,33,18.2a2,2,0,0,1,0,.43s0,.15-.06.3a.55.55,0,0,1-1,.16l0-.06a22.94,22.94,0,0,1-1.13-2.89C30.71,16,31.08,15.73,31.38,15.52Z"/>
                <path class="cls-2" d="M18.77,15l3.29.23.15,0,.4.14a2.09,2.09,0,0,1,0-.26.54.54,0,0,1,.54-.53h1.56a.52.52,0,0,1,.39.17l.57.59a16.85,16.85,0,0,1,2.06-.58,5.09,5.09,0,0,1,.93,1.44v0a.55.55,0,0,1,.43-.68A6.13,6.13,0,0,1,30,15.4c.34,0,1.15,2.13,1.37,2.73a.54.54,0,0,1,0,.31,2.77,2.77,0,0,0,.2,1.65s.16.34-.3.13a7.69,7.69,0,0,1-1.93-1.56,11.73,11.73,0,0,0,.06,2.44c.13.55-.3.58-.57.55a.57.57,0,0,1-.33-.16,27.12,27.12,0,0,1-2.81-3.16,1.83,1.83,0,0,1-.12-.44,13.5,13.5,0,0,1-1,4.18c-.74,1.13-1.46-.25-1.46-.25a4.34,4.34,0,0,1-.86-2.23c-.21.85-.63,2.18-1.19,2.5a1.07,1.07,0,0,1-1.37-.31.53.53,0,0,1-.11-.21,24.12,24.12,0,0,1-.94-5.08C18.66,14.85,18.77,15,18.77,15Z"/>
                <path class="cls-3" d="M18.29,10.42c-.46-.64-1.38-1.75-1.84-1.8s-1.39-.27-1.94.24a6.25,6.25,0,0,0-1.25,2.76c0,.27,0,1,0,1.63a16.82,16.82,0,0,0-1.39-4A.55.55,0,0,0,11.34,9c-1,0-1.3.31-1.72,1.47a9.57,9.57,0,0,0-.34,3.05c-.15-.72-.34-1.7-.44-2.35a8.19,8.19,0,0,0-1.39-3,3.87,3.87,0,0,0-.75.33.54.54,0,0,0-.3.44,25.81,25.81,0,0,0,0,3.42L6,10.56a.62.62,0,0,0-.14-.25c-.18-.18-.51-.51-.66-.41a1,1,0,0,0-.24.54s0,.43-.06,1a4.64,4.64,0,0,0-.64-1.3c-.35-.33-.53.5-.53.5s-.1.48-.16.92c-.05-.06-.09-.13-.15-.19a.54.54,0,0,0-.84,0,1.34,1.34,0,0,0-.16.23,8.52,8.52,0,0,0-.13,2.12.73.73,0,0,0,.05.2c.13.31.56,1.27.77,1.33a2.74,2.74,0,0,0,1.16-.07s0,.08.07.13a.55.55,0,0,0,.8.19,2.14,2.14,0,0,0,.44-.39,2.21,2.21,0,0,0,.53.53.56.56,0,0,0,.75-.06l.05-.05L7,15.41a1.29,1.29,0,0,0,1.28.27,2.59,2.59,0,0,0,1.12-1,.08.08,0,0,0,0-.05v0a1.17,1.17,0,0,0,.46.64.51.51,0,0,0,.17.07,5.83,5.83,0,0,0,2.09.08,1.34,1.34,0,0,0,1.15-.91v.34a.5.5,0,0,0,.1.31.94.94,0,0,0,.78.39c.65,0,3.14-.18,3.55-.13a.65.65,0,0,0,.5-.19.54.54,0,0,0,.16-.34C18.42,14.13,18.7,11,18.29,10.42Z"/>
                <path class="cls-3" d="M18.73,10.52c.46-.65,1.38-1.76,1.85-1.8S22,8.44,22.51,9a6.22,6.22,0,0,1,1.25,2.77c0,.26,0,.94,0,1.62a16.82,16.82,0,0,1,1.39-4,.54.54,0,0,1,.51-.31c1,0,1.3.3,1.72,1.47a9.5,9.5,0,0,1,.34,3.05c.15-.73.34-1.71.45-2.36a8.06,8.06,0,0,1,1.38-3.05,3.87,3.87,0,0,1,.75.33.54.54,0,0,1,.3.44,25.82,25.82,0,0,1,0,3.42L31,10.66a.58.58,0,0,1,.13-.26c.18-.18.52-.5.66-.4a.87.87,0,0,1,.24.53s0,.43.06,1a4.64,4.64,0,0,1,.64-1.3c.35-.33.54.5.54.5s.09.48.15.92l.15-.19a.54.54,0,0,1,.84,0,1.88,1.88,0,0,1,.16.23,8.55,8.55,0,0,1,.13,2.12.46.46,0,0,1-.05.2c-.13.32-.56,1.27-.77,1.33a2.74,2.74,0,0,1-1.16-.07.83.83,0,0,1-.07.13.55.55,0,0,1-.8.19,1.88,1.88,0,0,1-.44-.39,2,2,0,0,1-.53.53.57.57,0,0,1-.75,0l-.05-.06-.06-.08a1.3,1.3,0,0,1-1.27.26,2.57,2.57,0,0,1-1.13-1s0,0,0,0v0a1.05,1.05,0,0,1-.46.64.36.36,0,0,1-.17.07,5.83,5.83,0,0,1-2.09.08,1.35,1.35,0,0,1-1.15-.9v.34a.47.47,0,0,1-.1.3.92.92,0,0,1-.78.4c-.64,0-3.13-.19-3.55-.14a.62.62,0,0,1-.5-.19.54.54,0,0,1-.16-.34C18.6,14.23,18.32,11.08,18.73,10.52Z"/>
            </g>
        </g>
    </g>
</svg>