<svg xmlns="http://www.w3.org/2000/svg" viewBox="0 0 112.35 201.82">
    <defs>
        <style>.cls-1{fill:#c2c1c1;}</style>
    </defs>
    <title>Harnorgane (3)</title>
    <g id="Ebene_2" data-name="Ebene 2">
        <g id="Mann">
            <g id="Organe">
                <g id="Harnorgane">
                    <path id="Penis" class="cls-1" d="M62,192.28c0-.17,0-.34,0-.52V170.85c0-2.14-1.5-5.32-3.5-6.16V152.23a1,1,0,0,0-2,0v12.46c-2,.84-3.5,4-3.5,6.16v20.91a4.36,4.36,0,0,0,.05.52,3.91,3.91,0,0,0-.6,4.72l.82,1.43.83,1.43a3.92,3.92,0,0,0,6.8,0l.82-1.43.83-1.43A3.92,3.92,0,0,0,62,192.28Z"/>
                    <g id="Harnleiter">
                        <path class="cls-1" d="M30,50.47a1.43,1.43,0,0,1-1.16-.59c.31,6.67,1.32,31.52.11,40.67s3.29,29.5,5,35.43a3.64,3.64,0,0,1,1.72-2.21c-2-7.21-5.56-24.91-4.48-33,1.24-9.36.23-33.93-.09-40.85A1.41,1.41,0,0,1,30,50.47Z"/>
                        <path class="cls-1" d="M82.31,50.47a1.41,1.41,0,0,1-1.14-.56c-.32,6.9-1.33,31.5-.08,40.86,1.06,8-4.09,25.32-6.15,32.64A3,3,0,0,1,76.87,125c1.94-6.76,7.66-25.55,6.49-34.4-1.22-9.14-.2-34,.1-40.65A1.42,1.42,0,0,1,82.31,50.47Z"/>
                    </g>
                    <g id="Nieren">
                        <path class="cls-1" d="M34.67,25a1.27,1.27,0,0,1-1.5-.76,4.6,4.6,0,0,0-4.33-2.45,5.75,5.75,0,0,0-1.73.27l-1.8-1.81c2-2.47,4.28-5.35,4.26-8.47C29.5,1.81,23,0,16,0,7.18,0,0,11.35,0,25.36S7.18,50.71,16,50.71c6.24,0,10.92-2.25,12.62-9.78v8.2a1.35,1.35,0,0,0,.22.75,1.39,1.39,0,0,0,1.16.63,1.4,1.4,0,0,0,1.39-1.38V28.3a4.28,4.28,0,0,0,1-.75,2.29,2.29,0,0,1,1.23-.68c2.91-.5,13.56-3.62,14.67-3.6v-2Z"/>
                        <path class="cls-1" d="M96.32,0C89.4,0,82.84,1.81,82.78,11.78c0,3.12,2.24,6,4.26,8.47l-1.81,1.81a5.65,5.65,0,0,0-1.73-.27,4.57,4.57,0,0,0-4.36,2.52,1.18,1.18,0,0,1-1.4.74l-14.9-3.92v2c1,0,11.38,2.9,15.27,3.64a4.71,4.71,0,0,1,2.11,1,4,4,0,0,0,.71.48V49.13a1.39,1.39,0,0,0,2.77,0v-8.2c1.69,7.53,6.37,9.78,12.62,9.78,8.85,0,16-11.35,16-25.35S105.17,0,96.32,0Z"/>
                    </g>
                    <path id="Blase" class="cls-1" d="M80.5,124.9a3.2,3.2,0,0,0-2.07-1.66c-4.2-1-12,6-20.85,6-9.37,0-17.49-7.74-21.5-5.76a3.92,3.92,0,0,0-1.86,2.38,21,21,0,0,0-.82,6.76C33.4,151.76,44.22,163,57.58,163s24.18-11.22,24.18-30.36C81.76,128.76,81.31,126.34,80.5,124.9Z"/>
                </g>
            </g>
        </g>
    </g>
</svg>