<svg xmlns="http://www.w3.org/2000/svg" viewBox="0 0 130.5 228.07">
    <defs>
        <style>.cls-1{fill:#c1c1c1;}</style>
    </defs>
    <title>Lungensystem</title>
    <g id="Ebene_2" data-name="Ebene 2">
        <g id="Frau">
            <g id="Organe">
                <g id="Lungensystem">
                    <path id="Lunge" class="cls-1" d="M130.31,218l-8.13-41c-4.38-18-10.38-31.05-17.59-38.14l-18-21.55c-4.47-5.34-12.4-2.41-13.24,4.9L71.07,141.6l-.64-.88V109.8c0-3.38-2.41-6.12-5.39-6.12s-5.39,2.74-5.39,6.12v30.64l-.31.39L57.2,122.24c-.84-7.31-8.77-10.24-13.24-4.9l-18,21.55C18.7,146,12.7,159,8.32,177L.19,218c-1.47,7.4,5.94,12.91,11.32,8.41l.85-.71a18,18,0,0,1,11.51-4.29H41.05c8,0,14.83-6.77,15.87-15.83l2.76-23.85a166.93,166.93,0,0,0,1-24.18l4.11-5.27,5,6.81a167.85,167.85,0,0,0,1,22.64l2.76,23.85c1,9.06,7.83,15.83,15.87,15.83h17.18a18,18,0,0,1,11.51,4.29l.85.71C124.37,230.94,131.78,225.43,130.31,218Z"/>
                    <path id="Luftröhre" class="cls-1" d="M84,32.89c0-5.77-6.36-10.67-9.21-17C71.42,8.45,71.11,0,65.59,0c-6.11,0-7.05,8-10.4,16.53-2.22,5.7-8,11.33-8,16.36,0,9.83,5,11.69,12,12v69.19a6,6,0,0,0,12,0V45C78.64,44.7,84,43.06,84,32.89Z"/>
                </g>
            </g>
        </g>
    </g>
</svg>