<svg xmlns="http://www.w3.org/2000/svg" viewBox="0 0 262.93 910.7">
    <defs>
        <style>.cls-1{fill:#c1c1c1;}</style>
    </defs>
    <title>Gefäßsystem</title>
    <g id="Ebene_2" data-name="Ebene 2">
        <g id="Frau">
            <g id="Organe">
                <path id="Gefäßsystem" class="cls-1" d="M262.73,482.63A242.88,242.88,0,0,0,260,454c-1.54-9.46-3.65-18.9-7.38-27.86-.45-1.12-1-2.22-1.5-3.31s-1-2.12-1.41-3.23-.79-2-1.17-3.07a120.81,120.81,0,0,1,.62-21.37,53.4,53.4,0,0,0,.26-12.37c-.3-4.09-.78-8.15-1.34-12.2-.5-3.5-1.07-7-1.67-10.49.47,1.14.93,2.28,1.41,3.41,1.41,3.3,2.86,6.59,4.47,9.8a83.73,83.73,0,0,0,5.29,9.37,84.89,84.89,0,0,1-4.61-9.68c-1.37-3.29-2.58-6.65-3.75-10s-2.25-6.77-3.28-10.19c-.94-3.12-1.85-6.27-2.68-9.4-1.42-6.94-2.94-13.85-4.5-20.75q-5-21.63-10.64-43.07c.11-11.41-.18-22.82-.57-34.23-.55-16.52-1.88-33-7.22-48.8-3.86-11.45-10.08-21.25-19.77-28.68-7.73-5.92-16.55-9.39-26-11.52A82.65,82.65,0,0,0,151.36,155c-1.74.17-2.69-.32-3.14-1.87-1.33-4.52-2.74-9-3.87-13.57-.78-3.16-1.32-6.38-.48-9.68,2.25-8.85,4.37-17.73,6.67-26.56,3-11.59,5.22-23.29,5.57-35.29a18.08,18.08,0,0,1,.67-4.39c3.95-14.37,3.43-28.84,1.07-43.35,0-.27-.33-.5-.5-.75l-.51.08a111.56,111.56,0,0,1-.69,29.24c-.41-.28-.57-.33-.59-.42a6.38,6.38,0,0,1-.24-1,78.32,78.32,0,0,0-6.59-25.16c-2.55-5.57-5.92-10.78-9-16.12-.27-.47-.86-.76-1.31-1.14l-.45.48L138.86,7c1.56,2.8,3.3,5.51,4.64,8.41,7.05,15.24,9.55,31.38,9.26,48a10.25,10.25,0,0,1-.48,2.64C150.2,72,148.09,77.88,146,83.81c-5.26,14.86-8.49,30.05-7.57,45.93a16,16,0,0,1-.19,3.53c-1.5,8.46-3,16.91-4.63,25.34a4.53,4.53,0,0,1-1.62,2.44c-3.57,2.51-4.07,5-6.75,8.55,0,0-2.1-3.27-2.07-4a173.11,173.11,0,0,0-4.78-49.33c-2.2-8.85-4.8-17.6-7.1-26.43-4-15.37-5.67-30.9-2.89-46.7,1.66-9.45,4.57-18.41,9.78-26.53a10.12,10.12,0,0,0,.65-1.46l-.88-.71a12.82,12.82,0,0,1-.89,1.73,65,65,0,0,0-8.35,16.23,80.94,80.94,0,0,0-4.48,26.89,16.83,16.83,0,0,1-.27,2.12l-.59,0c-.24-1-.55-1.91-.71-2.89-.29-1.73-.45-3.48-.68-5.22A56.3,56.3,0,0,1,102,37.84,61.22,61.22,0,0,1,120.49,2.15,6.87,6.87,0,0,0,121.56,0h-1.45a16,16,0,0,1-1.75,2.16c-9.87,8.76-16.46,19.42-18.6,32.56A76.42,76.42,0,0,0,101.19,65c2.64,11.05,5.84,22,8.7,33,1.46,5.61,3.2,11.22,3.93,16.94a139.38,139.38,0,0,1-.32,34.21c-.37,3.05-1.29,6.3-1.87,9.33-.17.9-.49,1.59-1.7,1.25-3.08-.86-11.13-2.48-13.82-3.19a37.05,37.05,0,0,0-4.52-1c-10-1.34-19.47.53-28.67,4.18C49.58,165,40.32,174.56,34.5,187.53,29.44,198.81,27.33,210.83,26,223c-1.72,16.26-1.77,32.6-2,48.92-.05,3.21,0,6.42,0,9.63q-1.83,18.54-3.78,37.07l-.66,6.19c-1,4.93-2.16,9.9-3.38,14.83s-2.57,9.88-4,14.79-3,9.78-4.59,14.63-3.44,9.63-5.34,14.39c2.21-4.62,4.33-9.29,6.28-14s3.82-9.53,5.55-14.36q1.63-4.56,3.17-9.15Q16,357.26,14.69,368.6q-1.47,12.48-3.09,24.93-.43,3.18-.85,6.36c-.07.13-.13.26-.2.41-.54,1.13-1.12,2.25-1.61,3.4-3.67,9.28-5.18,19-6.43,28.68S.7,451.81.34,461.54-.08,481,.09,490.75c.08-9.73.39-19.46,1-29.17s1.48-19.4,2.91-29c1.27-8.2,2.78-16.46,5.54-24.19L9,412.18l-1,6.18c-.32,2.07-.76,4.1-1.2,6.14l-1.27,6.19a43.74,43.74,0,0,0-.13,12.67A37,37,0,0,0,17,465.21a35.62,35.62,0,0,1-7.38-10.06,37.64,37.64,0,0,1-3.56-11.89,42.75,42.75,0,0,1,.5-12.37L8,424.81c.5-2.05,1-4.1,1.39-6.16l1.23-6.18,1.11-6.2c.29-1.58.55-3.16.82-4.75,0,0,0,0,0-.08A37,37,0,0,0,14.25,398c1-2.31,1.76-4.64,2.52-7,1.49-4.67,2.78-9.39,4-14.11,4.86-18.92,8.9-38,12.83-57.07q5.09-24.86,9.7-49.79l1.46-6.7a380,380,0,0,1,7.34-44.28c2.61-12,6-23.67,12.62-34.18a40.17,40.17,0,0,1,28.66-19c4.18-.7,7.63.28,10.48,3.4,1.26,1.38,2.62,2.69,3.75,4.17a42.49,42.49,0,0,1,7.29,16.07c1.21,5.09,3.61,9.89,3.63,15.29,0,3.56.28,7.12.45,10.68.14,2.78.33,5.56.45,8.34,0,1.13-.27,2.13-1.69,2-5.06-.38-10.14-.71-15.18-1.26-2.84-.31-4.19-2.55-3.52-5.36.38-1.59,1-3.12,1.34-4.71a7.38,7.38,0,0,0-1.17-6.42c-.88,3.65-1.16,7.4-3.18,11.22-.41-1.34-.68-2.18-.94-3-.55-1.79-1-3.63-1.69-5.35-.3-.71-1.17-1.18-2-2-.13.76-.24,1-.18,1.1,2,3.54,2.24,7.48,2.78,11.37a6.21,6.21,0,0,0,1.32,3.11,62.92,62.92,0,0,0,5.58,5.37c.91.79,1.09,1.19.1,2.07a16.12,16.12,0,0,0-5.5,11.95A85.13,85.13,0,0,1,94.14,253a14.25,14.25,0,0,0,0,1.57c3.39-2.36,2.33-6,3.43-8.79l.65,0,2.55,8,.53.05a18.09,18.09,0,0,0,.65-2.45c.34-2.45-.53-4.61-1.59-6.77-2-4.08-1.24-5.82,3.16-6.72,4.73-1,9.51-1.74,14.28-2.53,1.95-.32,2.93,1,2.21,2.87a16.23,16.23,0,0,0,.41,12.87A10.7,10.7,0,0,1,121.6,255c.32,14.94.71,29.87.74,44.81,0,20.63-.19,42.25-.32,62.88,0,2.66-.07,5.32-.06,8a2.56,2.56,0,0,1-1.51,2.56c-2.69,1.49-5.25,3.21-7.85,4.86a71.7,71.7,0,0,0-21.81,21.71c-9.15,14-13.08,29.52-13.79,46-.62,14.4,1.17,28.62,3.82,42.73C82.6,498,84.54,507.36,85.3,517c1.53,19.47,3.64,38.89,5.35,58.35,1,11.5,2.13,23,2.43,34.54s-.06,57-.7,68.45c-.56,10.13.19,19.24-4.11,28.49-7.49,16.12-9.11,32.37-11.17,50-1.69,14.43-.78,28.74,1.58,43,2.32,14,2.55,28.57,6.47,42.24,3.52,12.25,7.42,24.4,11.18,36.59a7,7,0,0,0,.88,1.43l.78-.31q-6.3-25-12.61-50l.61-.28a12.18,12.18,0,0,1,1.23,1.37c.82,1.2,1.58,2.44,2.35,3.67,6.51,10.4,12.15,21.19,15,33.23,2.35,9.83,1.15,18.8-6,26.51a34.23,34.23,0,0,0-7.61,11.6c-.54,1.53-.87,3.14-1.3,4.7l.53.17a8.39,8.39,0,0,0,.49-.94,31.73,31.73,0,0,1,5.73-10.45q4.24-4.8,8.25-9.8a14.79,14.79,0,0,0,2.17-4c2.14-7,1.38-14-.39-20.94a5.52,5.52,0,0,1-.1-1.9c.1-.94.65-1.93.47-2.79-3-13.76-6.14-27.49-9-41.27-3.33-15.86-6.4-31.77-7.8-47.95a166.23,166.23,0,0,1,.45-32.78,183.56,183.56,0,0,1,7-32,7.11,7.11,0,0,1,.89-1.52l.5.11q.57,3.45,1.13,6.88c1.23,7.65,2.71,15.27,5.64,22.47a38,38,0,0,1,2.54,17.61c-1.24,15.42-2.74,30.83-4.11,46.24-1.44,16.32-1.8,32.61,1.12,48.82.13.7.38,1.38.57,2.07A2.36,2.36,0,0,0,106,847c-.34-8-1.13-16-.92-23.91.29-11,1.24-22,2.1-32.94.79-10,1.93-20,2.72-30,.41-5.23.42-10.49.53-15.74.09-4.83-1.63-9.22-3.22-13.68-3.21-9-4.81-18.48-6.15-27.94-.4-2.87-4-4.92-2.78-7.94a128.52,128.52,0,0,0,5.27-16c2.92-11.35,4-57,4.31-68.67.37-13.87.32-27.75-2.43-41.4-2.41-12-5.37-23.94-8-35.92s-5.94-23.64-6.29-36c-.35-12.18-.24-24.29,1.37-36.38A117.6,117.6,0,0,1,100.1,431c4-9.7,8.91-18.86,16.8-26.17,3.35-3.11,6.06-6.9,8.95-10.47.94-1.16,1.56-1.15,2.59-.16a111.72,111.72,0,0,0,8.86,8.29,44,44,0,0,1,9.48,11.12c9.47,14.67,14.11,31.05,16.56,48.16,2.06,14.37,2,28.83,1.33,43.28-.76,17.09-1.88,34.18-2.93,51.26A68,68,0,0,1,160.4,568c-3.83,16.1-6.76,32.23-6.38,48.94.49,22,2.52,77.68,7.84,99a12.53,12.53,0,0,1,.57,5.14,153.26,153.26,0,0,1-3.9,16,41.05,41.05,0,0,0-1.94,16.45c1.17,12,2.65,23.92,4,35.88,1.2,10.94,2.77,21.85,3.43,32.82.58,9.52.1,19.1.09,28.65v1.6h.47a4.88,4.88,0,0,0,.22-.81c.54-5.84,1.39-11.67,1.54-17.52a245.82,245.82,0,0,0-2.17-36.36c-1.73-13.92-3.49-27.84-5.07-41.77-.77-6.81-.31-13.64,3-20.2a10.71,10.71,0,0,0,1-4.9,9.11,9.11,0,0,1,.9-3.23,2.18,2.18,0,0,1,.83,1.32,336.49,336.49,0,0,1,5.19,34.6,265.66,265.66,0,0,1,1.11,37.52c-.73,14.07-1.84,28.12-2.87,42.17a16.79,16.79,0,0,1-1.2,5.17,76.15,76.15,0,0,0-5.45,19,34,34,0,0,0,1.28,15.72,11.24,11.24,0,0,1,.59,4.42c-.25,3.74-.75,7.46-1.12,11.19a3.27,3.27,0,0,0,.24,1l.49,0a18,18,0,0,0,.45-1.75c.39-2.63.73-5.27,1.15-7.9a3.64,3.64,0,0,1,.65-1.16,3.8,3.8,0,0,1,1.07.75,27.37,27.37,0,0,0,4.21,4.89,29.38,29.38,0,0,1,8.7,13.05,8.25,8.25,0,0,0,.56,1.11.94.94,0,0,0,.33-.8c-.08-.48-.19-.95-.31-1.42a30,30,0,0,0-6-11.07c-2.26-2.82-4.39-5.76-6.65-8.58-1.49-1.87-1.62-3.92-1.33-6.17,1.41-10.85,2.74-21.72,4.13-32.57a4.9,4.9,0,0,1,.58-2.08s5.14-10.08,5.37-11.5a33.41,33.41,0,0,0,.12-7.31c-.26-1.09.37-2.9.91-4.17a32.87,32.87,0,0,0,1.39-3.86c1.76-6.11,6.31-22.7,7.74-35.19,1.36-11.89.35-23.79-1.6-35.62a155,155,0,0,0-12.64-41.69c-4-8.34-.79-16.4-2.41-25.53-2.15-12.13-3.08-58.38-2.84-70.66.3-15.84,1.09-31.67,1.79-47.5A81.23,81.23,0,0,1,170.3,547c3.53-14.2,7-28.42,10.16-42.69,3.08-13.88,5.54-27.89,6-42.15.53-16.47-.58-32.79-5.54-48.62-2.15-6.86-4.47-13.62-9.53-19.13-9.38-10.24-20.4-17.72-33.94-21.23a1.93,1.93,0,0,1-1.74-2.1c-.09-5.2-.35-10.39-.41-15.59-.27-21.43-.18-43.85,1.8-65.2.54-5.83,1.35-11.64,2.27-17.42.81-5.11.3-5.25,3.38-4.57a68.81,68.81,0,0,0,21.56,1.22,7.32,7.32,0,0,0,6.56-6.35c1.29-9.89-2.24-18.24-8.46-25.7a31.49,31.49,0,0,1-3.44-4.58c-1.69-3.07-3.06-6.26-6-8.56-.75-.59-.83-2.3-.78-3.48,0-.4,1.38-.93,2.18-1.06,2.27-.35,4.59-.39,6.85-.79,2.9-.52,5.38.44,7.72,1.89,3.65,2.27,4.48,4.66,3.23,8.77a7.06,7.06,0,0,0-.56,2.09c0,2.26.18,4.52.38,6.78,0,.37.58.69,1,1.16.79-4.16,1.52-8,2.29-12,2,.82,2.13,3.48,4.46,2.93,0-.28,0-.5-.06-.62-2.36-3.09-3.55-6.69-4.67-10.35a5.38,5.38,0,0,0-3.7-3.44c-2.11-.77-4.13-1.82-6.22-2.77.86-2.31,2.7-2.64,4.41-3.17,4.45-1.39,5.83-3.16,5.77-7.74-.05-4-.17-8,1.28-11.83.06-.18-.07-.44-.12-.74-1.67.11-2,1.39-2.16,2.5-.38,2.2-.55,4.44-.85,6.65a30.36,30.36,0,0,1-.73,4.28,4.94,4.94,0,0,1-3.27,3.48c-.18-.24-.3-.34-.31-.43a7.8,7.8,0,0,1,0-1.08,9.92,9.92,0,0,0-1.92-7.18,38.14,38.14,0,0,1-3.42-5.86,10.23,10.23,0,0,0-1-1.54l-.49.13c-.07.56-.16,1.12-.21,1.68-.26,2.92,1.46,5,3,7.22a5.73,5.73,0,0,1-3.44,9.07c-3.45.88-7,1.56-10.43,2.37-1,.24-1.45-.23-2-1.08a42.64,42.64,0,0,0-3.61-5.13c-.88-1.06-1.07-2.1,0-3.07a16,16,0,0,1,1.66-1.11c2.64-1.8,5.43-3.42,7.89-5.45,4.71-3.9,8-8.71,8.39-15.08.2-3.64.61-4.12,4.34-4.56a23,23,0,0,1,3.62-.13,34,34,0,0,1,26,14.12c5.9,7.85,8.84,17,11,26.41a236.68,236.68,0,0,1,5,35.36c.94,12.42,2.11,23.83,3.12,36.05l-.14,0c.08.45.17.91.25,1.36.07.91.15,1.81.22,2.74l.23-.25Q222,317.84,227.48,344c2,9.37,4,18.72,6.21,28.05s4.51,18.62,7.16,27.85c1.33,4.61,2.71,9.21,4.32,13.75.69,1.92,1.41,3.82,2.2,5.71v.06c.65,8.11,1.66,16.19,2.83,24.23s2.53,16.06,4.08,24q-2-12-3.46-24.12c-.83-7-1.52-13.91-2-20.88l.49,1c.51,1.08,1,2.11,1.53,3.19,3.81,8.64,6.12,18,7.86,27.32a243.77,243.77,0,0,1,3.39,28.42c.29,4.76.46,9.54.44,14.32,0,2.38-.07,4.77-.22,7.16a36.75,36.75,0,0,1-.78,6.1,36.88,36.88,0,0,0,.93-6.09c.21-2.39.31-4.78.38-7.17C263,492.21,262.92,487.42,262.73,482.63ZM150,85.12a96.79,96.79,0,0,1-5.56,22.74A74.24,74.24,0,0,1,150,85.12ZM70.35,167.81c-8,6.56-13.1,15.1-17,24.5a154.19,154.19,0,0,0-8.21,28.9c-2.64,13.35-4.4,26.82-6,40.33l-.62,3.51-.82,4.71L29.2,319c-3.43,19.14-7,38.28-11.32,57.2-1,4.35-2.1,8.69-3.31,13q1.59-10.08,3.1-20.19,3.67-24.89,7-49.81,2.37-17.44,4.62-34.91l3.15-49.46a142.89,142.89,0,0,1,4.43-31.18c2.2-8.43,5.37-16.4,10.78-23.37a44.52,44.52,0,0,1,20.6-14.52c1.59-.58,3.22-1.06,4.84-1.54a12.35,12.35,0,0,1,1.5-.25l.18.52C73.31,165.58,71.78,166.63,70.35,167.81Zm48.06-4.27c-3.23-.94-3.64-1.67-3.17-4.38.79-4.64,1.67-9.54,2.41-14.19.09-.57.2-1.15.3-1.73l.46,0C119.07,149.9,118.62,156.78,118.41,163.54ZM96.14,825.17c2.35,9.57,5,19.06,7.49,28.58a2.33,2.33,0,0,1-.12,1.72,15.17,15.17,0,0,1-1-1.73c-4.32-10.2-6.78-20-13.2-28.94-1-1.46-2.53-3.36-2.87-5.13-1.61-8.49-3.24-17-4.47-25.54a128.75,128.75,0,0,1,1.51-45.81c1.45-6.67.66-12.54,2.47-19.12a13.8,13.8,0,0,1,.93-2l.4.12c0,.64,0,1.29-.11,1.91a174.57,174.57,0,0,0-.31,47A436.94,436.94,0,0,0,96.14,825.17Zm1.5-262c4,17.76,4.49,35.77,3.88,53.87l-.53,0L97.18,563.2Zm21.09-172c-6,6.56-12.43,12.85-17.24,20.47a107.66,107.66,0,0,0-13.25,32c-1,4-1.6,8.05-2.4,12.07-.13.62-.35,1.21-.52,1.81H84.8a8.09,8.09,0,0,1-.36-1.57c-.26-17,1.9-33.54,9.85-48.87,4.15-8,10.46-13.94,18.08-18.61,2.47-1.51,4.87-3.12,7.32-4.67.43-.27.9-.47,1.46-.76C122.36,386.58,120.88,388.82,118.73,391.15Zm46,486.24c-1.93-3-.61-15.28,2-17.78C166,865.38,165.37,871.15,164.68,877.39ZM127.12,202.92c-.46-.37-1.18-.64-1.35-1.11-.89-2.55-1.7-5.14-2.42-7.74a9.3,9.3,0,0,1,0-2.42l.74-.08a4.5,4.5,0,0,1,.66,1c.93,2.92,1.85,5.84,2.68,8.79C127.53,201.81,127.22,202.39,127.12,202.92Zm37.62,500.84a14.81,14.81,0,0,1-.4,2l-.74-.05c-2.61-13.71-3.48-27.59-3.86-41.5l.63-.09c.31,2.15.55,4.31.94,6.45,1.15,6.29,2.4,12.55,3.5,18.85a34.23,34.23,0,0,1,.42,6.07C165.19,698.22,164.94,701,164.74,703.76Zm7.55,19.62a143.64,143.64,0,0,1,8.94,71.91c-.86,6.71-1.32,13-3.2,19.51-.92,3.17-1.37,4.88-2.7,7.07-2.93,4.86.19,10.59-2.74,15.44a2.85,2.85,0,0,1-1.37,1.19,12.72,12.72,0,0,1-.12-1.74c.91-13.44,2-26.87,2.73-40.32.8-14.28-.15-28.53-1.63-42.72a281.58,281.58,0,0,0-6-36.83,10.29,10.29,0,0,1-.19-3.23,12.41,12.41,0,0,1,.6-3.35C167.51,714.38,169.63,716.62,172.29,723.38ZM160.85,394.5c7.45,5.69,10.8,13.74,13.29,22.32a144.74,144.74,0,0,1,5.26,37.95,275.27,275.27,0,0,1-4.63,53.38c-.66,3.74-1.43,7.47-2.19,11.2-.18.92-.52,1.8-.79,2.7l-.64,0c0-.75-.14-1.49-.11-2.23.34-8.76,1-17.52,1-26.28-.06-10.07-.37-20.19-1.3-30.21a129.89,129.89,0,0,0-9.28-37.54c-3.43-8.38-7.58-16.39-13.52-23.25-3.82-4.41-8.24-8.31-12.4-12.42-1.55-1.53-3.24-2.94-4.63-4.59a3.4,3.4,0,0,1-.61-2.75c.14-.46,1.59-.78,2.43-.74C143.67,382.53,152.44,388.07,160.85,394.5ZM129.94,264.69c0-1.6.29-1.7,1.82-1.05s1.94,1.57,1.49,3.24c-.72,2.66-1.15,5.41-1.73,8.12a15.33,15.33,0,0,1-.59,1.73l-.49-.05c-.08-.75-.23-1.49-.25-2.23C130.09,271.2,130,267.94,129.94,264.69Zm5.25-64.42c-.74.66-1.34.16-1.53-.72a73.86,73.86,0,0,0-6.2-17.74,1.78,1.78,0,0,1,.09-1.51c2-2.94,4.07-5.84,6.15-8.72a4.15,4.15,0,0,1,1.12-.78l.54.23c-.11,2.5-.35,5-.31,7.5.11,6.64.36,13.28.52,19.92C135.59,199.07,135.57,199.93,135.19,200.27Zm7.9-51.58.58-.08c.28.67.58,1.32.82,2s.5,1.62.79,2.41c1.11,3.07.81,3.49-3.16,3.73Zm-.31,43.81c-.17.35-.42.66-1,1.51a10.72,10.72,0,0,1-.43-1.87c-.08-8.2-.12-16.41-.2-24.61A2.38,2.38,0,0,1,143,165c.86-.28,1.66-.72,2.52-1,4.45-1.55,4.53-1.6,7.33,2.14a40.57,40.57,0,0,1,3.52,5.89,2.3,2.3,0,0,1-.36,2.13C150.09,179.17,146.12,185.6,142.78,192.5Zm7.33-.74a47.39,47.39,0,0,1,7-9.58C157.21,185.39,152.73,191.43,150.11,191.76Zm68.74,53.29a2.32,2.32,0,0,1-.35-.68c-1.13-8.2-2-16.44-3.41-24.59C213.3,209.26,210.43,199,205,189.7c-7.54-12.9-18.63-20.21-33.69-20.92a30.11,30.11,0,0,0-7.67,1.06c-1.3.28-2,.08-2.62-1.08-1.27-2.24-2.7-4.38-4.35-7,1.42,0,2.43-.07,3.42,0,12.25,1,23.84,4,34,11.27,7.37,5.27,12.5,12.34,16.14,20.57,4.59,10.35,6.61,21.33,7.83,32.47.63,5.71.82,11.45,1.19,17.18A3,3,0,0,1,218.85,245.05Zm5.39,38.9,0,.14-.22.06Zm23,111a109.32,109.32,0,0,0-.35,17c-1.34-4.16-2.51-8.4-3.64-12.64-2.43-9.21-4.54-18.53-6.52-27.86s-3.82-18.72-5.58-28.1q-5.08-27.21-9.36-54.57c2.26,7.35,4.44,14.76,6.47,22.19,1.18,4.34,2.31,8.69,3.32,13.07.5,2.19,1,4.39,1.34,6.6a25.94,25.94,0,0,1,.54,6.69,26.44,26.44,0,0,0,.09-6.77c-.18-2.25-.45-4.5-.74-6.74-.6-4.48-1.33-8.95-2.11-13.4q-.92-5.19-1.91-10.36,3.24,11.75,6.26,23.54c4,15.72,7.78,31.51,10.5,47.46.66,4,1.23,8,1.63,12A51.76,51.76,0,0,1,247.25,394.94Z"/>
            </g>
        </g>
    </g>
</svg>