<svg xmlns="http://www.w3.org/2000/svg" viewBox="0 0 80.26 490.35">
    <defs>
        <style>.cls-1{isolation:isolate;}.cls-2,.cls-3,.cls-5{fill:#c1c1c1;}.cls-3{mix-blend-mode:darken;}.cls-4{mix-blend-mode:multiply;}.cls-5{opacity:0.5;}</style>
    </defs>
    <title>Endokrin (2)</title>
    <g class="cls-1">
        <g id="Ebene_2" data-name="Ebene 2">
            <g id="Frau">
                <g id="Endokrin">
                    <g id="Nebenniere">
                        <path id="Nebenniere-2" data-name="Nebenniere" class="cls-2" d="M.68,347.1c1.48-.36,6.85-1.38,11.21,1.39a.73.73,0,0,0,1.07-.86c-.63-1.86-2-4.38-4.61-5.07-3.37-.88-6.67,1.74-8,3a1.12,1.12,0,0,0-.25,1.3h0A.5.5,0,0,0,.68,347.1Z"/>
                        <path id="Nebenniere-3" data-name="Nebenniere" class="cls-3" d="M78.77,347.1c-1.48-.36-6.86-1.38-11.22,1.39a.73.73,0,0,1-1.07-.86c.64-1.86,2-4.38,4.62-5.07,3.37-.88,6.67,1.74,8,3a1.1,1.1,0,0,1,.26,1.3h0A.5.5,0,0,1,78.77,347.1Z"/>
                    </g>
                    <path id="Bauchspeicheldrüse" class="cls-2" d="M37.67,353.36a4.21,4.21,0,0,0-3.13,4.76,6.17,6.17,0,0,1,.05.63c0,.9-.35,2.32-1.65,2.46,0,0-1.67,1.63-3.54,1a22.56,22.56,0,0,1-10-3.36s-1.56-1.65-1-3.26c0,0-1.23-1.82-1-2.91a2.37,2.37,0,0,1,1-3.19s-.75-1.39-.06-2.17c0,0,1.94-4.34,9.88-5.84S39,340.26,39,340.26s2.09-1,6.74.29c0,0,11.25.47,13.28,1.46A59.34,59.34,0,0,1,67,343.32s7.33.7,9.86,2.1c0,0,2.82.78,3.13,2.13s.54,3.95-.82,3.71-4.52-.19-6.83-1.17c0,0-3.78,2.06-7,.89,0,0-9.3,1.38-11.76.89,0,0-6.43,1.34-8.12,1,0,0-5.74,1.1-7.52.47C38,353.34,37.91,353.31,37.67,353.36Z"/>
                    <path id="Schilddrüse" class="cls-2" d="M46.89,120.16s-.87-2.48-1.71-3.11a2.69,2.69,0,0,0-.67-1.1.73.73,0,0,0-1,0c-.52.47-1.36,1.3-1.36,1.74v0a1.26,1.26,0,0,1,0-.67,3.26,3.26,0,0,0,0-1.11c.61-1.21.2-1.78.2-1.78-.74-1.07-1.33,0-1.33,0-.45.59,0,2,0,2a6.65,6.65,0,0,0-.17,2.45c-.65.77-.63,2.85-.63,2.85s-.43.26-.61.44l-.25-.09a1.13,1.13,0,0,0-.54-1c0-.42-.65-1.34-.65-1.34a3.54,3.54,0,0,0-.57-1.65c0-.44-.84-1.27-1.35-1.74a.74.74,0,0,0-1,0,2.74,2.74,0,0,0-.66,1.1c-.85.63-1.71,3.11-1.71,3.11a10.51,10.51,0,0,0-.14,2.69,10.33,10.33,0,0,1,.4,1.89c-.4.75.8,2.1.8,2.1a2.64,2.64,0,0,0,1.17,1.77,2.06,2.06,0,0,0,1.93,1.2c.55.05,1.12-.69,1.12-.69.65-.41.43-1.82.43-1.82.37,0,.52-.66.52-.66a.83.83,0,0,0,.56-.23h.44a.82.82,0,0,0,.55.23s.16.69.52.66c0,0-.21,1.41.44,1.82,0,0,.57.74,1.12.69a2,2,0,0,0,1.92-1.2,2.61,2.61,0,0,0,1.17-1.77s1.21-1.35.8-2.1a10.59,10.59,0,0,1,.41-1.89A11,11,0,0,0,46.89,120.16Z"/>
                    <g id="Gebärmutter" class="cls-4">
                        <path class="cls-5" d="M71.07,440.87a5.33,5.33,0,0,0-.7-.11s-.36,0-.9.11Z"/>
                        <path class="cls-2" d="M72.1,442.79a2.6,2.6,0,0,0-2.43-.49,24.77,24.77,0,0,0-3.84,1.51c-3,1.47-4.15,2-7.16,2.16s-12.65.44-12.65.44-3.93-2-6-2h0l-.28,0h-.29c-2.07,0-6,1.94-6,1.94s-9.63-.28-12.64-.43-4.2-.7-7.17-2.17a26.54,26.54,0,0,0-3.84-1.51,2.59,2.59,0,0,0-2.42.5c-1.19,1-2.86,2.8-2.78,5.15.13,3.64,4.32,7.91,4.32,7.91.38.35.09.6,3,1.6s4-.62,4.92-2.26a3.09,3.09,0,0,0-1.4-4.3,6.41,6.41,0,0,0-3.27-.4s-4.17-.12-4.34-2.13a4,4,0,0,1,.92-2.65,1.52,1.52,0,0,1,2-.33c6.61,4.35,19.83,6.79,19.83,6.79-1,5.19,2.84,10.89,2.84,10.89a20.73,20.73,0,0,1,0,7.7,47.74,47.74,0,0,0,3.39,19.59h5.79A47.59,47.59,0,0,0,46,470.76a21,21,0,0,1,0-7.7s3.86-5.7,2.85-10.89c0,0,13.22-2.43,19.83-6.78a1.49,1.49,0,0,1,2,.33,4,4,0,0,1,.93,2.65c-.17,2-4.35,2.12-4.35,2.12a6.48,6.48,0,0,0-3.27.41,3.1,3.1,0,0,0-1.39,4.3c.89,1.63,2,3.26,4.92,2.26s2.63-1.26,3-1.6c0,0,4.19-4.27,4.31-7.91C75,445.6,73.29,443.78,72.1,442.79Z"/>
                    </g>
                    <path id="Thymus" class="cls-2" d="M45.89,155.73c-.26-.8.25-.84-.13-1.75-.19-.47-.89-.79-1.16-1.33s-.07-1.27-.35-1.74-1.07-.68-1.42-1c-.49-.5-.9-1.18-1.39-1-.32.11-.34.73-.58,1s-.83.25-1,.57.17.83.06,1.16-.7.53-.78.86.34.85.29,1.15c0-.06,0-.27-.07-.33s-.52.05-.54,0,.44-.3.42-.35-.53.05-.55,0,.38-.45.29-.49-.52.39-.68.38-.4-.53-.56-.51-.23.57-.37.64-.64-.16-.74,0,.28.51.16.75a15.93,15.93,0,0,0-1.7,2.72c-.32.95-.12,2.13-.39,3.18s-1,2-1.2,3,.08,2.24-.08,3.21c-.22,1.24-.88,2.25-1,3,0,.27.46.57.46.83s-.48.58-.44.84.61.4.69.65-.27.71-.14.94.7.18.86.39.26,1,.64,1.25.92-.11,1.39-.08.88.47,1.36.31.54-.76,1-1,1-.05,1.36-.36c0,0-.25-.45-.21-.49s.43.3.46.27-.28-.44-.24-.48.44.27.48.23.08-.41.11-.45c.14.25-.09.81.08,1s.75.09,1,.28.13.77.38.93.73-.16,1-.05.37.68.66.75.8-.36,1.16-.32.73.57,1.08.55.65-.58,1-.69.91.18,1.2,0,.16-.81.37-1.14a5.88,5.88,0,0,0,1.06-3.33c0-1.07-.65-2.24-.84-3.48s.11-2.45-.13-3.59-1.05-2.31-1.31-3.34C46.31,157.12,46.42,157.43,45.89,155.73Z"/>
                    <path id="Gehirn" class="cls-2" d="M76.51,25.57C70,1,48.55-.2,42,0a2,2,0,0,0-2,2c-.07,1.89-.17,5.11-.27,9.09C39.61,7,39.47,3.78,39.39,2A1.88,1.88,0,0,0,37.6.17C31.39-.1,10,.8,3.43,25.57-4.32,54.66,26.66,45.25,26.66,45.25,23.82,55.83,39.94,56.42,39.94,56.42l0-.34,0,.34s13.38-.49,13.61-8.57a2,2,0,0,1,2.47-1.92C63.52,47.43,82.81,49.21,76.51,25.57Z"/>
                </g>
            </g>
        </g>
    </g>
</svg>