<svg xmlns="http://www.w3.org/2000/svg" viewBox="0 0 82.48 91.69">
    <defs>
        <style>.cls-1{fill:#c2c1c1;}</style>
    </defs>
    <title>HNO (2)</title>
    <g id="Ebene_2" data-name="Ebene 2">
        <g id="Frau">
            <path id="HNO" class="cls-1" d="M82.47,2.87C82.29.7,80.73-.65,79.1.32L76.15,2.08l-3,1.75a3.64,3.64,0,0,0-1.33,1.51C64.4,4.35,50.08,3.12,45,7.4a6.09,6.09,0,0,0-1.49,1.82H39A5.87,5.87,0,0,0,37.5,7.4C32.41,3.12,18.08,4.35,10.61,5.34A3.57,3.57,0,0,0,9.28,3.83L6.33,2.08,3.38.32C1.75-.65.2.7,0,2.87A4,4,0,0,0,.42,4.93,12.68,12.68,0,0,1,1.64,12.2a3.9,3.9,0,0,0,.28,2.08c.88,2,2.79,2.76,4,1.31L8.15,13l2.22-2.62a3.31,3.31,0,0,0,.56-1c8.82-1.18,20.64-1.69,24,1.13a1.71,1.71,0,0,1,.71,1.4,2.33,2.33,0,0,0,0,2.1c.59,1,2.13,0,3.25-.15V89.69a2,2,0,0,0,4,0h0v-76s3.15,1,4,.17,0-2.09,0-2.09a1.71,1.71,0,0,1,.71-1.4c3.36-2.82,15.18-2.31,24-1.13a3.09,3.09,0,0,0,.55,1L74.33,13l2.22,2.61c1.23,1.45,3.14.68,4-1.31a3.81,3.81,0,0,0,.28-2.08,12.76,12.76,0,0,1,1.22-7.27A4,4,0,0,0,82.47,2.87Z"/>
        </g>
    </g>
</svg>