<svg xmlns="http://www.w3.org/2000/svg" viewBox="0 0 116.43 406.74">
    <defs>
        <style>.cls-1{fill:#c1c1c1;}</style>
    </defs>
    <title>Gastrointestinal (2)</title>
    <g id="Ebene_2" data-name="Ebene 2">
        <g id="Frau">
            <g id="Gastrointestinal">
                <g id="Darm">
                    <g id="Dünndarm">
                        <path class="cls-1" d="M29.94,310.87a8.06,8.06,0,0,0-1.3,1.48l1.3-1.48Z"/>
                        <path class="cls-1" d="M95.52,320.11l1,4.11a12.45,12.45,0,0,0-1-4.11Z"/>
                        <path class="cls-1" d="M28.26,313l.37-.64A6.67,6.67,0,0,0,28.26,313Z"/>
                        <path class="cls-1" d="M19.49,334l0,.37c0-.08,0-.17,0-.23S19.51,334.05,19.49,334Z"/>
                        <path class="cls-1" d="M101.61,309.56v0l0,0Z"/>
                        <path class="cls-1" d="M25.93,316.94h0c-.32.54-.1.74.26.79a.18.18,0,0,1,.07-.05A6.62,6.62,0,0,1,25.93,316.94Z"/>
                        <path class="cls-1" d="M62.21,300.41l-.68.19.2.15Z"/>
                        <path class="cls-1" d="M53.3,314.47,54,314a3.35,3.35,0,0,1-.53-.28C53.4,314,53.35,314.23,53.3,314.47Z"/>
                        <path class="cls-1" d="M88.91,334.52l.07,0v-.06Z"/>
                        <path class="cls-1" d="M81.38,346.93v0h0Z"/>
                        <path class="cls-1" d="M48,325.58h0l0-.06A.13.13,0,0,0,48,325.58Z"/>
                        <path class="cls-1" d="M53.36,347.33a4.12,4.12,0,0,1,.51,0,1.07,1.07,0,0,1-.2-.38s-.05-.17-.15-.43C53.48,346.8,53.43,347.06,53.36,347.33Z"/>
                        <path class="cls-1" d="M41,357.27c-.11-.2-.22-.4-.32-.6l0,.17c0,.18-.09.36-.14.54A4.85,4.85,0,0,1,41,357.27Z"/>
                        <path class="cls-1" d="M47.12,322.33l-.28.13a3.83,3.83,0,0,1,.28.29A2.94,2.94,0,0,1,47.12,322.33Z"/>
                        <path class="cls-1" d="M39,351.21q-.06-.42-.12-.87l-.49.44A4.45,4.45,0,0,1,39,351.21Z"/>
                        <path class="cls-1" d="M64.73,351c.21.23.42.47.63.73a6.58,6.58,0,0,1,.11-1Z"/>
                        <path class="cls-1" d="M53.57,360.07c.9.17,1.74.37,2.47.56-.16-.51-.3-1.05-.43-1.61A20,20,0,0,1,53.57,360.07Z"/>
                        <path class="cls-1" d="M100.94,293.14c-4.89-2.56-20.8,2.94-22.6,3.58a1.07,1.07,0,0,0-.69.78c0,.05,0,.1,0,.14a18.89,18.89,0,0,0-15.42,2.77l-.48.34-.2-.15c-6.83-5.4-25.36-7.22-26.51-7.33-1.93-.28-8.17-.94-9.47,1.89l-.32.66c-1.27,2.59-4.66,9.45,2.47,13.64l.38.22c-1.59,1.58-3.24,4.32-2.15,7.26a6.62,6.62,0,0,0,.32.74.18.18,0,0,0-.07.05c-2.62,1.78-4.22,3.87-4.76,6.23a8.23,8.23,0,0,0,.33,4.66h0a7.9,7.9,0,0,0,.33.79c-1.92,1.51-2.45,2.51-2.64,3.21a2.26,2.26,0,0,0,0,1.39s0,.09.05.14,0,.15,0,.23c-.34,2.19-1.11,9.69,3,14.95a9.1,9.1,0,0,0-2.84,1.32,1.32,1.32,0,0,0-.29.33,16.23,16.23,0,0,0-1.65,4.16h0a7.19,7.19,0,0,0,.15,4.38,4.86,4.86,0,0,0,3.53,2.78l.2.06c-.24,1.95-.4,6.29,2.36,9.23,1.76,1.88,4.35,2.82,7.72,2.82a22,22,0,0,0,2.62-.17c.09.47.18.94.28,1.43a3.36,3.36,0,0,0,1,2c2.17,2.33,7.29,3.61,15.23,3.83l2,0c5.45,0,8.42-.73,9.41-2.29a16,16,0,0,0,6.57,1.69,7.93,7.93,0,0,0,3.24-.63c2.27-1,3.8-3.08,4.55-6.21a8.4,8.4,0,0,0,1.38.12c3.4,0,5.64-2.2,7.09-3.62.36-.35.67-.66.93-.87.62-.44,1.8-2,1.55-7.71l.71-.22c7.7-.51,10.31-4.81,11.15-8.34.86-3.68,0-7.9-1.11-9.68l.12-.18c2.58-4.59.49-15.38.15-17,.83-5-1.94-9.53-3.5-11.6a15,15,0,0,0,6.58-5.4l0,0a16.07,16.07,0,0,0,2.64-7.47C104.62,298,103.28,294.37,100.94,293.14Zm-13,66.52a1.59,1.59,0,0,0-.3.06c-.09,0-9.43,3.24-15.37-.27-2.56-1.51-4.16-4.1-4.75-7.71a4.66,4.66,0,0,1,1.37-3.18,2.36,2.36,0,0,1,1.3-.48,5,5,0,0,0,1.9.16,1.06,1.06,0,0,0,.07-2.08,7.28,7.28,0,0,0-1.68-.21h0a2.53,2.53,0,0,1-1.12-1,6.12,6.12,0,0,0-.7-2,1.1,1.1,0,0,0-1.29-.45,1.06,1.06,0,0,0-.69,1.18,7.61,7.61,0,0,0,.6,1.95,2.76,2.76,0,0,1-.19,1.21c-.49,1.14-1.93,2-4.16,2.55a10.6,10.6,0,0,0-3.08-1.65,11.48,11.48,0,0,1,2.77-6.09c.3-.24.63-.55,1-.91,3.2-3,6.72-5.61,11.29-1.1A23.37,23.37,0,0,1,77.06,342a4.53,4.53,0,0,0,2,3.77,4.08,4.08,0,0,1,0,2.24,3.41,3.41,0,0,1-2.8,2.16,1.06,1.06,0,0,0-.85,1.13,1.09,1.09,0,0,0,1,1,2.23,2.23,0,0,1,2.06,1.84c0,.08,0,.12,0,.14a1.09,1.09,0,0,0,1.3.75,1.07,1.07,0,0,0,.78-1.27l0-.12a5.22,5.22,0,0,1,.43-3.56,4,4,0,0,1,2.67-1.74,26.83,26.83,0,0,1,4-.69l.85-.05a4.83,4.83,0,0,1,1.25.08.93.93,0,0,0,1.06-.1l.57-.39a15.56,15.56,0,0,0,5.23-1.93,13.16,13.16,0,0,1,.18,9.05C95.52,357.59,92.52,359.39,87.93,359.66Zm-4.42,9.4c-2.2,2.16-5.22,5.12-11.37.7a1.08,1.08,0,0,0-.38-.17c-.81-.19-2.33-.85-2.39-1.57a1.07,1.07,0,0,0-.47-.79,1.08,1.08,0,0,0-.91-.14,7.6,7.6,0,0,1-5.65-.86c-2.49-1.53-4.15-4.6-4.93-9.13a1.09,1.09,0,0,0-.66-.81,1.08,1.08,0,0,0-1,.13c-.06.05-6,4.32-10.2,2.38-2.64-1.22-4.2-4.68-4.64-10.29a48.54,48.54,0,0,0,6-6.58,1.07,1.07,0,0,0,.47,0,2.92,2.92,0,0,1,2.08.29,5,5,0,0,1,2.08,3.24c0,.55-.07,3.3-2.7,3.56a7.09,7.09,0,0,1-2.24-.22,1.07,1.07,0,0,0-1.3.78,1.06,1.06,0,0,0,.79,1.28,9.74,9.74,0,0,0,2.29.3h.05c.36.46.66.88.89,1.23l.24.4a1.16,1.16,0,0,0-.2.32,1,1,0,0,0,.59,1.38,1.78,1.78,0,0,0,.66.14,1.32,1.32,0,0,0,1-.47c.64-.76.15-1.8-.29-2.53a3.05,3.05,0,0,1,1.27-2,2.2,2.2,0,0,1,1.68,0,1.07,1.07,0,0,0,.91,0,5.48,5.48,0,0,1,2.74-.28,3.72,3.72,0,0,0,.2.5c.5,1,1.65,2.06,4.22,1.74a17,17,0,0,1,3.29,4.32c.28.72,2.22,5,8.38,6.93a20.2,20.2,0,0,0,11.4-.11c.1,4.06-.64,5.16-.74,5.28A14.74,14.74,0,0,0,83.51,369.06Zm-12.37,9.28c-3.21,1.4-7.64-.8-8.83-1.46a4.62,4.62,0,0,0-1.21-1.53,1,1,0,0,0-.51-.22c-.06,0-5.73-.93-7-5.11a5.5,5.5,0,0,0-4.81-3.65c-1.58-2.24-1.82-3.52-1.49-4,.85-1.15,5.63-.56,9.75.71A11.18,11.18,0,0,0,61.21,368a9.79,9.79,0,0,0,6.37,1.3,6,6,0,0,0,3.47,2.27,15.91,15.91,0,0,0,3.43,1.89C73.9,376,72.78,377.62,71.14,378.34Zm-20.29,1c-12.68-.35-14-3.46-14.12-3.81a.69.69,0,0,0,0-.23c-1.31-6.25-1-10.93.95-13.59a7.32,7.32,0,0,0,1.43-1.41,6.19,6.19,0,0,1,3.4-1.09,7.85,7.85,0,0,0,1.68,1.26,4.35,4.35,0,0,1,.41,2.4,1,1,0,0,0,0,.3c.14,1.95-.15,3.29-.79,3.69s-1.93-.12-2.31-.34a1.08,1.08,0,0,0-1.47.38,1.05,1.05,0,0,0,.37,1.45,6.54,6.54,0,0,0,1,.46,2.94,2.94,0,0,0-.58,1.72,1.08,1.08,0,0,0,2.15,0c0-.73,1.39-1.72,3.46-2s4.45.09,5.1,2.14c1.52,4.83,7,6.23,8.43,6.51a2,2,0,0,1,.46.69l0,0a.25.25,0,0,1,0,.15C60.39,378.1,59.71,379.6,50.85,379.36ZM34,372.14c-3.92.48-6.77-.19-8.46-2-2.05-2.17-2-5.56-1.83-7.27.67.16,1.14.25,1.46.3A1.44,1.44,0,0,0,27,362.3l.1,0c.95-.39,2.89.39,3.67.82a1.1,1.1,0,0,0,.33.12,10,10,0,0,0,1.38.09,10.44,10.44,0,0,0,2.15-.22A20.32,20.32,0,0,0,34,372.14ZM23.05,360.53h0l-1.12-.28a2.8,2.8,0,0,1-2.08-1.55c-.82-1.92.55-5.14,1.27-6.46,3.66-2.45,10.65-.71,10.72-.69a1.34,1.34,0,0,0,.35,0c1.15-.09,4.43,0,5.82,1.6a3.43,3.43,0,0,1,.53,3.19,7,7,0,0,1-1,2.46,6.71,6.71,0,0,0-1,.93c-.13.14-.25.29-.37.44a6.68,6.68,0,0,1-4.53.93c-.76-.39-3.42-1.63-5.36-.84a2.24,2.24,0,0,0-1,.74c-.5-.09-1.33-.29-2.16-.5Zm-1.53-27.21s0-.05,0-.15c.62-2.27,9.82-7.07,16.17-9.77h0c.85.07,1.69.1,2.49.1a26.22,26.22,0,0,0,4-.29.94.94,0,0,0,.25.18c.39.19,1.48.93,1.41,1.71a3.69,3.69,0,0,1-.54,1.3,37.45,37.45,0,0,1-2.89,4.24c-2,.57-10,3.14-12,7.1-2.21,4.38-1,6.11-.7,6.42l1.6-1.42.06.08s-.59-1.06,1-4.13c1.47-2.9,8.48-5.39,11.06-6.11a1.09,1.09,0,0,0,.55-.36,44.5,44.5,0,0,0,3-4.38,11.5,11.5,0,0,1,3-.11c1.71,1.75,3.05,3.33,4.16,4.68A7.1,7.1,0,0,0,58.57,337c.35,4.28-.06,9-1.3,9.66-.32.18-.91,0-1.64-.57-.46-1.35-2.39-6.12-7.26-7.95a3.85,3.85,0,0,0-.34-1.73l0-.1a9.37,9.37,0,0,1,1.47-1.17,1.06,1.06,0,0,0,.26-1.48,1.08,1.08,0,0,0-1.5-.26c-2.15,1.5-2.8,2.3-2.17,3.82a2.25,2.25,0,0,1-.07,1.93c-1,2.69-7.14,8.46-9.43,10.46a1.13,1.13,0,0,0-.24.3,13.87,13.87,0,0,0-4.11-.43,24.06,24.06,0,0,0-7.26-.56c-5.06-5.22-3.24-14.63-3.22-14.72A1,1,0,0,0,21.52,333.32Zm2-8.92a8.59,8.59,0,0,1,4-5h0a13,13,0,0,0,6.37,3.36c-1.45.67-3.29,1.56-5.15,2.54-2,1.08-3.64,2-4.88,2.83A6.21,6.21,0,0,1,23.52,324.4Zm23.32-1.94.28-.13a2.94,2.94,0,0,0,0,.42A3.83,3.83,0,0,0,46.84,322.46ZM48,325.58a.13.13,0,0,1,0-.06l0,.06Zm5.87,21.78a4.12,4.12,0,0,0-.51,0c.07-.27.12-.53.16-.78.1.26.15.42.15.43A1.07,1.07,0,0,0,53.87,347.36Zm-13.21,9.31c.1.2.21.4.32.6a4.85,4.85,0,0,0-.49.11c0-.18.1-.36.14-.54ZM39,351.21a4.45,4.45,0,0,0-.61-.43l.49-.44Q39,350.79,39,351.21ZM64.73,351l.74-.27a6.58,6.58,0,0,0-.11,1C65.15,351.49,64.94,351.25,64.73,351Zm-4-13.35a6.14,6.14,0,0,0,2.76-.58,9.63,9.63,0,0,1,1.76-.52,20.7,20.7,0,0,0-3.16,2.58c-.35.33-.65.61-.88.8a4.38,4.38,0,0,0-.4.37C60.86,339.36,60.82,338.45,60.77,337.67Zm12.29-2a2.44,2.44,0,0,0,.4-.32A9.58,9.58,0,0,0,77.24,337a10.42,10.42,0,0,0,1.23.18,6.63,6.63,0,0,0-.81,2.16v0c-.38-.43-.79-.87-1.24-1.3A11.34,11.34,0,0,0,73.06,335.7Zm8.32,11.23h0Zm15.14-21.81c-2.7-1-9-3-14.29-2.59-2.85.22-3.87-2.06-5.11-5.55-.23-.64-.45-1.28-.71-1.88a44.72,44.72,0,0,0,10.3,1.37,23.25,23.25,0,0,0,6-.72l.16,0a18.52,18.52,0,0,1,2.64,4.4,12.45,12.45,0,0,1,1,4.11C96.52,324.52,96.53,324.81,96.52,325.12ZM92.17,313.7c-10,2.65-25.37-3.77-28.43-5.12l0-.28a9.62,9.62,0,0,0-.6-5.38l0-.51a16.61,16.61,0,0,1,15.27-2.31,35.72,35.72,0,0,1,3.46,1.44,19.12,19.12,0,0,0,3.1,1.8,9.42,9.42,0,0,1,2.8,2.76,5.05,5.05,0,0,0,.33.73,1.07,1.07,0,0,0,1.32.48,1.06,1.06,0,0,0,.66-1.23,3.27,3.27,0,0,0-.33-.83.62.62,0,0,1,0-.45c.29-.52,1.61-.86,2.51-.92h.14a1,1,0,0,0,1-1.11,1.08,1.08,0,0,0-1.11-1h-.16c-.47,0-2.08.1-4.62.1a4,4,0,0,1-1.49-.38,26.11,26.11,0,0,0-3.06-1.76c-.6-.42-1.22-.89-1.86-1.4l-.24-.2c6.58-2.16,16.33-4.56,19.12-3.1,1.55.81,2.47,3.7,2.19,6.87a13.2,13.2,0,0,1-9.2,11.59Zm-29.06-2c1.52.57,6.84,2.51,10,2.59.74,0,1.38,1.81,1.94,3.39,1.09,3.08,2.6,7.31,7.29,7,5.39-.41,12.2,2,14.11,2.73.71,3.58,1.84,11.88,0,15.15a1.43,1.43,0,0,1-.14.2c-1.67,0-4,1.31-5.76,2.45-.76.13-1.56.23-2.36.29l-.54,0a14.08,14.08,0,0,1-6.66-1l-.16-.09a13.38,13.38,0,0,0-1.62-3,5.49,5.49,0,0,1,.42-1.31,1,1,0,0,0,.09-.33,4.16,4.16,0,0,1,1.59-2.64,20.07,20.07,0,0,0,4-1,17.85,17.85,0,0,1,4.89,1,1.08,1.08,0,0,0,1.24-.39,1.05,1.05,0,0,0,0-1.27c-.09-.11-.8-1.15.45-2.82a1.06,1.06,0,0,0-.1-1.38,1.08,1.08,0,0,0-1.39-.11A26.8,26.8,0,0,1,85,334h0a8.15,8.15,0,0,0-4.34,1.09,10,10,0,0,1-2.94-.13,7.38,7.38,0,0,1-4.3-2.55c-.74-1.3-1.46-2.42-2.15-3.4a27.32,27.32,0,0,1-2.89-6.82,6.89,6.89,0,0,0,0-3.61,1.06,1.06,0,0,0-.84-.76,1.08,1.08,0,0,0-1.06.42c-.21.29-.76,1.32-.33,3.73a1.44,1.44,0,0,1-.22.31,2.43,2.43,0,0,1-1.75.62,3.74,3.74,0,0,0-2.06-.11,1.06,1.06,0,0,0,.1,2.06,10.71,10.71,0,0,0,1.61.18c1.15.4,3.11,1.6,5.6,5.09.36.65.75,1.32,1.18,2a14.36,14.36,0,0,0,1,1.45,2,2,0,0,1,.18.39,14.7,14.7,0,0,1-2.33.15,17.56,17.56,0,0,0-6.73,1,3.4,3.4,0,0,1-2.28.33,1.06,1.06,0,0,0-.73-.41l-.2,0a19.74,19.74,0,0,1-3.27-3.48l-.17-.2a9.82,9.82,0,0,1-.28-1.13,5.24,5.24,0,0,0-2.35-3.58,6.88,6.88,0,0,0-2.4-.91l-.41-.42A3.53,3.53,0,0,1,49.32,322a5,5,0,0,1,.84-1.82,11.59,11.59,0,0,0,1.27-1.48C54.55,315.61,60.24,312.86,63.11,311.71Zm25.8,22.81.07,0v.06ZM28.63,312.36h0a8.06,8.06,0,0,1,1.3-1.48l.07-.06c5.48,3.18,8.48,4.56,10.75,2.56l.9-.8a1.53,1.53,0,0,1,.54.85,1.07,1.07,0,0,0,1.19.87,1.06,1.06,0,0,0,.94-1.14,7.15,7.15,0,0,1,1.48-4.36,1,1,0,0,0-.1-1.44,1.09,1.09,0,0,0-1.46,0s-1.78,1.64-3.48,3.17l-1.44,1.28c-1.33,1.17-4.19-.43-10.54-4.16-5-2.94-3.47-7.16-1.63-10.88.13-.27.25-.51.34-.72.43-.91,4.17-1.1,7.24-.66h0c.21,0,20.12,1.92,25.89,7.28a5.57,5.57,0,0,1,.33.76l.51,4.61a.41.41,0,0,1-.07.11c-4,4.19-5.87,4.2-6.49,4-1.15-.35-1.46-2.19-1.46-2.2h0c-.91-8-7.4-8.24-7.46-8.24H46l-9.11.37a1.36,1.36,0,0,0-.35.07.82.82,0,0,1-.51-.22l-.58-.4c-.83-.55-.86-.64-.75-1.11a1.07,1.07,0,0,0-2.08-.5c-.49,2,.84,2.85,1.64,3.38l.46.31a2.77,2.77,0,0,0,2.42.59l8.91-.37c.44,0,4.7.4,5.37,6.38a10.19,10.19,0,0,1-1.61,7.13,12,12,0,0,0-1.22,1.44,8.9,8.9,0,0,1-3.3,2c-2.41.76-12.15,1.37-16.16-2.85a6.8,6.8,0,0,1-.5-.59,3.88,3.88,0,0,1-.32-4.37A6.67,6.67,0,0,1,28.63,312.36Z"/>
                    </g>
                    <g id="Dickdarm">
                        <path class="cls-1" d="M46.42,256.7c-.12-.16-.4-.06-.55-.09-2.31-.53-8.32-.21-9.75-.09s-.49.06-.57.11c-4,2.11-6.32,6.13-7.81,9.79a25.61,25.61,0,0,0-1.54,5.46H26c-9.53-.28-13.66,1.31-17,6.58a.37.37,0,0,0,0,.11c-.16.39-3.65,9.66,3.4,19.72a7.6,7.6,0,0,0-1.87,7.33c-.88,1.33-4.38,7.13-2.35,12.4a9.16,9.16,0,0,0-2.65,10.26l-.12.1-.07.07,0,.05a6.51,6.51,0,0,0-1.07,1.12l0,0a10.84,10.84,0,0,0-1.09,1.64c-1.09,2-2.11,5.35-.86,10.11a7.48,7.48,0,0,0-.94,1.37.38.38,0,0,0,0,.1,6.76,6.76,0,0,0-1.16,4.46c.76,3.51,3.48,6.08,8.3,7.85.35,1.06,1.79,3.92,7.22,3.92a11.44,11.44,0,0,0,2-.29,8,8,0,0,1,.08-3.66A16.94,16.94,0,0,1,19.36,351a1.3,1.3,0,0,1,.3-.32,9,9,0,0,1,2.83-1.33c-4.09-5.26-3.32-12.75-3-14.95,0-.08,0-.17,0-.23l-.06-.14a2.26,2.26,0,0,1,0-1.39c.19-.7.71-1.7,2.63-3.2-.1-.22-.21-.49-.32-.8a8.18,8.18,0,0,1-.34-4.65,10.53,10.53,0,0,1,4.76-6.24l.07-.05a5.08,5.08,0,0,1-.31-.74c-1.09-2.94.55-5.68,2.15-7.25l-.39-.23c-7.12-4.18-3.73-11-2.47-13.63.13-.25.24-.47.33-.67.68-1.49,2.58-1.9,4.05-2.07a20.94,20.94,0,0,1,5.42.18c1.15.11,19.67,1.93,26.51,7.34l.19.14.49-.33a18.84,18.84,0,0,1,15.42-2.77s0-.09,0-.14a1,1,0,0,1,.69-.78c3-1.07,6-2,9.09-2.74A56.32,56.32,0,0,1,94,292.7c2.19-.28,4.92-.62,7,.45,2.34,1.23,3.67,4.81,3.31,8.93a15.81,15.81,0,0,1-2.64,7.46.08.08,0,0,0,0,0A15,15,0,0,1,95,315c1.56,2.08,4.33,6.6,3.51,11.61.33,1.62,2.43,12.41-.15,17a1.77,1.77,0,0,0-.12.17c1.13,1.79,2,6,1.1,9.68s-3.44,7.84-11.15,8.35l-.82.24c.21,4.7-.48,6.58-1.08,7.34a.64.64,0,0,0,.21,1.24l.15,0c17.9-4.31,29.77-19.17,29.77-27.11a12.07,12.07,0,0,0-4.31-9.09c.23-2.84-.05-5.45-1.9-7.64a7.15,7.15,0,0,0-1.48-1.15c-.08-.06,0-.19,0-.25-.51-4.81-1.68-9.07-4.82-12.8h0a18.53,18.53,0,0,0,5.06-4c1.5-1.95.84-4.87.52-6a13.62,13.62,0,0,0,2.9-3.84,11,11,0,0,0,.82-5.67c3.5-3.24,1.38-9.28,1.25-9.61-5.29-10.58-15.84-7-16.4-6.82a21.59,21.59,0,0,0-7.8-2.55c-.45-.13-3.1-.84-4.88-.06a2.94,2.94,0,0,0-1.71,2.64,10.46,10.46,0,0,0-4.62,0,5.45,5.45,0,0,0-3.32,2.43,10.39,10.39,0,0,0-4.23-.95,6.12,6.12,0,0,0-4.25,2A5.79,5.79,0,0,0,63,278.55a7,7,0,0,0-3.64.78A6.32,6.32,0,0,0,57.5,277a.67.67,0,0,0-.45-.14l-2.67.17a3,3,0,0,0-.63-1.42c-.86-1.07-2.43-1.66-4.67-1.75a17,17,0,0,0-8.66,1.67l-.14.06a13.47,13.47,0,0,1-.08-4.52c.1,0,.45,0,.54.05a17.26,17.26,0,0,0,4.16-.3c.75-.17.37-.24.56-.41s.1-.54,0-.63c-1.68-1.93-1.74-4.83-1.32-7.22a12.3,12.3,0,0,1,1-3.24,5.54,5.54,0,0,1,.63-1c.13-.18.92-.84.88-1.09m-10.75.68a59.6,59.6,0,0,1,8.66-.12c-2.51,4-2.47,7.64-.71,11.92a10.7,10.7,0,0,1-5-.33,5.76,5.76,0,0,1-2-1.29c-.43-.43-1.18-2.06-1.9-1.74a.62.62,0,0,0-.37.84,6.54,6.54,0,0,0,4.34,3.68,13.69,13.69,0,0,0-.16,4.38l-.21-.11,0,.27c-1.7-1.19-5.17-3-11-3.4C28.76,266.22,31,261.36,35.93,257.85ZM16.8,357.75c-6.49.49-7.23-3-7.25-3.18a.65.65,0,0,0-.42-.5c-4.57-1.61-7.12-3.91-7.8-7-.35-1.63,1.39-4.23,2.09-5.1h0A42.3,42.3,0,0,1,8.6,337.2a.66.66,0,0,0,.11-.91.65.65,0,0,0-.91-.11,52.12,52.12,0,0,0-4.54,4c-1.07-5.07.62-8.25,2-9.87a1.63,1.63,0,0,1,.17-.2l.38-.41c.24-.23.51-.46.8-.69l0,0,0,0a25.76,25.76,0,0,1,2.71-1.8.64.64,0,0,0,.25-.87.65.65,0,0,0-.88-.25c-.08.05-1.08.62-2.17,1.39a7.45,7.45,0,0,1,1.16-7.12l.12-.09c1-1.32,4.54-3.42,5.8-4.12a.64.64,0,0,0,.25-.87A.63.63,0,0,0,13,315a43.87,43.87,0,0,0-3.75,2.34c-1.11-3.18,0-6.68,1.11-8.92a.64.64,0,0,0,.11-.16c.74-1.6,3.92-3.63,5.08-4.28a.64.64,0,0,0,.25-.87.65.65,0,0,0-.88-.25,26.08,26.08,0,0,0-3.27,2.22,6.51,6.51,0,0,1,1.94-6.24.66.66,0,0,0,.1-.87c-6.77-9.26-3.86-18.12-3.58-18.89,3.06-4.81,6.77-6.2,15.82-5.93,7,.21,10.78,2.48,12.21,3.57A1,1,0,0,1,38,277l.07.08a11.34,11.34,0,0,0-1.87,2.07c-1.64,2.36-3.19,6.59-1.38,13.33l-.14,0v0a24.93,24.93,0,0,0-4.72-.24c-1.92-.81-3.68-3-4.39-3.85-1.06-1.32-.21-4.07-.18-4.19.23-.94.12-1-.27-1.09s-.51-.44-.91.43a7.64,7.64,0,0,0-.1,4.73c-.86.48-2,.89-2.87.38-1.92-1.17-2.31-3.61-2.62-5.51-.09-.55-.34-.71-.71-.6s-.64-.11-.58.82a13.7,13.7,0,0,0,1.36,4.49,4,4,0,0,1-4.1-1.68c-.38-.94-.47-.56-.86-.55s-.63.28-.42.82a3.59,3.59,0,0,0,1.35,1.8,6.08,6.08,0,0,0,3.35,1,11.43,11.43,0,0,0,1.58-.16,4,4,0,0,0,1.05.75,3.34,3.34,0,0,0,1.57.35,6,6,0,0,0,2.45-.72,10.77,10.77,0,0,0,2.87,3.19,4.33,4.33,0,0,0-2.78,2.26c-.09.17-.18.37-.3.61-1.23,2.49-4.85,9.85,2.27,14.46-1.17,1.44-2.8,4.18-1.62,7.35l.05.16a11,11,0,0,0-4.59,6.39A9.07,9.07,0,0,0,21,329l.09.24a6.46,6.46,0,0,0-2.42,3.24,3.08,3.08,0,0,0,0,1.83v0c-.33,2.13-1.05,9.21,2.47,14.64a8.67,8.67,0,0,0-2,1.08,2,2,0,0,0-.53.58,17.56,17.56,0,0,0-1.74,4.4,10.76,10.76,0,0,0-.24,1.62A2.67,2.67,0,0,0,16.8,357.75Zm83.84-65.59-.17,0h-.12l-.07,0h-.06l0,0,0,0h0l-.11,0,0,0h0l-.06,0a16,16,0,0,0-5.26-.1,52.62,52.62,0,0,0-6.7,1.23c-3.32.8-6.6,1.79-9.83,2.92a2,2,0,0,0-.94.72,19.85,19.85,0,0,0-15.37,3.06c-6.35-4.7-20.81-6.63-25.4-7.14,0,0,0,0,0-.05h-.16a.49.49,0,0,0,0-.17c-3.43-12.21,4.43-15.58,4.76-15.72l.09,0a15.67,15.67,0,0,1,8-1.52c1.8.07,3.08.51,3.7,1.25a1.67,1.67,0,0,1,.4,1.05,6.15,6.15,0,0,0-4,4.77.63.63,0,0,0,.53.73h.11a.63.63,0,0,0,.63-.54,5,5,0,0,1,3.71-3.94.89.89,0,0,0,.27-.15l2.48-.17a4,4,0,0,1,1.5,2.39,1.67,1.67,0,0,0,.05.18,6,6,0,0,0,.08,5.69.65.65,0,0,0,.57.33.71.71,0,0,0,.31-.08.65.65,0,0,0,.25-.88,5,5,0,0,1,.47-5.38,6,6,0,0,1,2.88-.55c2.84,0,3.68,1.52,3.71,1.57a.58.58,0,0,0,.14.17,6.08,6.08,0,0,0,1.35,5.73.64.64,0,0,0,.95-.87,5,5,0,0,1-.78-5.35.62.62,0,0,0,.06-.26,4.74,4.74,0,0,1,3.13-1.42,9,9,0,0,1,3.82.9,6.17,6.17,0,0,0,2.9,5.71.66.66,0,0,0,.33.09.63.63,0,0,0,.55-.3.66.66,0,0,0-.21-.89,5,5,0,0,1-2.27-4.77,4.08,4.08,0,0,1,2.76-2.26,9.69,9.69,0,0,1,4.48.13,6.19,6.19,0,0,0,4.61,4.42h.14a.64.64,0,0,0,.13-1.27,5,5,0,0,1-3.75-3.9.15.15,0,0,0,0-.07,1.9,1.9,0,0,1,.94-2c1.22-.53,3.34-.08,4,.14l.12,0c.08,0,8.18.88,11.13,6C102.85,284.18,102.64,287.81,100.64,292.16Zm1.69,18a17.06,17.06,0,0,0,2.8-7.9c.35-4-.82-7.51-2.94-9.21a14.14,14.14,0,0,0,3.88-2.73c.81-.92.22-.67.06-1s-.54-.32-1,.17a16.9,16.9,0,0,1-2.8,2.1l0,0c1.7-4.24,1.74-7.88.06-10.81a10.63,10.63,0,0,0-2.87-3.19c2.6-.66,9.82-1.64,13.84,6.41,0,.05,2,5.74-1.16,8.35a.63.63,0,0,0-.22.59,10.28,10.28,0,0,1-.66,5.26,12.38,12.38,0,0,1-2.9,3.71.64.64,0,0,0-.19.72s1.21,3.34-.2,5.17a18.46,18.46,0,0,1-4.92,3.81,1,1,0,0,1-.1-.17l0,0a7.25,7.25,0,0,0-1.08-.63Q102.1,310.45,102.33,310.12Zm5,47.32A44.76,44.76,0,0,1,87.61,369l.3-.3a25.83,25.83,0,0,0,.47-5.9c8.14-.57,10.94-5.33,11.83-9.12a15.82,15.82,0,0,0-.94-9.87c2.45-4.79.63-14.82.14-17.2.7-4.61-1.39-8.77-3.07-11.24a15.57,15.57,0,0,0,5.11-4.1,3.38,3.38,0,0,1-.45.55,4.39,4.39,0,0,1,1.38.95l.48.48c1.49,1.47,5,8.28,4.47,11.73a14.21,14.21,0,0,0-2.78-.29c-.69.12-.74.34-.68.73s0,.59.94.57c.07,0,3.73.35,4.14,1.36,0,.06.26.16.35.28a6,6,0,0,1,1,1.63,10.45,10.45,0,0,1,.54,4.1A14.2,14.2,0,0,0,108.7,332a.64.64,0,0,0-.54,1.16c.07,0,7,3.36,7,10.27C115.14,347.17,112.09,352.65,107.36,357.44Z"/>
                    </g>
                    <path id="After" class="cls-1" d="M46.8,381.25A21.81,21.81,0,0,0,55.29,395a81.15,81.15,0,0,1,1.15,9.28l1.71,2.43,1.5-2.36.93-9.57s6.19-6.87,7-13.93a17,17,0,0,1-5.41-1.66S60.68,382.48,46.8,381.25Z"/>
                </g>
                <path id="Magen" class="cls-1" d="M61.21,224.52c0,1.57,2.75,4.72,5.52,7.3,2.15,2,2.66,2.18,4.28,1.66,7.28-2.36,18.7-3.14,24.25,4.85a14.92,14.92,0,0,1,2.29,11.82c-1.36,6-5,18.77-14.27,25.93-20.24,15.6-22.38-1.16-29.72-5.51-3.3-1-4.88-.36-7.25-.46-.5,0-.8.07-1.14-.34l-.46-.73c-1.22-1.92-1.15-7.14.6-9.93A6.79,6.79,0,0,1,46,258c.36-.4.66-.69.66-.69,8.38,5.64,14.59,6.33,21.4,2,4.15-2.63,4.44-13.94,3-16.67-1.77-3.36-2-3.14-4.66-5.37s-8.71-8.33-8.45-13.14Z"/>
                <g id="Speiseröhre">
                    <path class="cls-1" d="M57.51,225.49C51.45,205,53.89,64.74,53.8,33.92a4.17,4.17,0,0,1,3.91-4.35,4.06,4.06,0,0,1,4.08,4.16c-1.65,74.84-5.89,176.42-1.32,191.88"/>
                    <path class="cls-1" d="M54.18,29.57h7.24a1.51,1.51,0,0,1,.76,2.74l-3.62,2.5a1.32,1.32,0,0,1-1.52,0l-3.62-2.5A1.51,1.51,0,0,1,54.18,29.57Z"/>
                    <path class="cls-1" d="M73.92,15.21c0,12.57-7.18,15.48-16,15.48s-16-2.91-16-15.48S49,0,57.89,0,73.92,2.65,73.92,15.21Z"/>
                </g>
                <path id="Leber" class="cls-1" d="M43.91,203.17A17.46,17.46,0,0,0,54,202a21.91,21.91,0,0,1,9.53-1.6,79.38,79.38,0,0,1,27.88,6A34.26,34.26,0,0,1,97.64,210a3.06,3.06,0,0,1,1,4.49,3.25,3.25,0,0,1-2.18,1.61c-2.76.09-4.64,1.69-6.44,3.36-3.33,3.11-6.57,6.3-10.47,8.75-9.08,5.7-18.08,11.53-27.17,17.22-4.9,3.06-10.41,4.4-16,5.4-3.51.63-7,1.37-10.45,2.28-2.9.77-4.72,3-6.38,5.36A41.88,41.88,0,0,1,14.93,264c-1.48,1.5-3.39,1.29-4.76-.31a16.41,16.41,0,0,1-3.43-8.21,64.24,64.24,0,0,1-.33-7.87,47.14,47.14,0,0,0-.3-4.76c-.53-3.73-1.52-7.43-1.71-11.17-.43-8.63,2.25-16.12,9.32-21.55a20.5,20.5,0,0,1,4.85-2.73,50.19,50.19,0,0,1,17.33-3.72C38.57,203.63,41.24,203.35,43.91,203.17Z"/>
            </g>
        </g>
    </g>
</svg>