<svg xmlns="http://www.w3.org/2000/svg" viewBox="0 0 141.56 477.43">
    <defs>
        <style>.cls-1{fill:#eeeded;}.cls-2{fill:#c2c1c1;}.cls-3{fill:#c1c1c1;}</style>
    </defs>
    <title>hämatologie</title>
    <g id="Ebene_2" data-name="Ebene 2">
        <g id="Frau">
            <g id="hämatologie">
                <path class="cls-1" d="M89.38,166a9,9,0,0,1,4.61,3.3.9.9,0,0,1-.28,1.29c-2.12,1.27-8.38,4.68-14.3,4.71-7.27,0,.52-7.41.52-7.41a23.07,23.07,0,0,0,6.94-1.76A3.31,3.31,0,0,1,89.38,166Z"/>
                <path class="cls-1" d="M87.7,184.37a29.72,29.72,0,0,0,2,4.51,1.18,1.18,0,0,1-.65,1.69c-1.67.55-5.49,1.11-14.13.27l.09-6.77a45.78,45.78,0,0,0,11.37-.46A1.19,1.19,0,0,1,87.7,184.37Z"/>
                <path class="cls-1" d="M91.64,199.73a20.14,20.14,0,0,1,1.14,5,1.4,1.4,0,0,1-1.19,1.5c-2.55.37-8.91.76-17.84-2.33l-.36-7.55s8.61,3.49,16.77,2.49A1.39,1.39,0,0,1,91.64,199.73Z"/>
                <path class="cls-1" d="M99.94,216a12.89,12.89,0,0,1,1.24,3.29,2.29,2.29,0,0,1-2,2.77c-4.26.46-14.23.34-24.45-8.51l.09-7.59a30.83,30.83,0,0,0,23,8.85A2.28,2.28,0,0,1,99.94,216Z"/>
                <path class="cls-1" d="M105.94,231.82a27.4,27.4,0,0,1,1.71,3.54,2.72,2.72,0,0,1-2.22,3.68c-4.63.53-14.64-.21-28.66-11.63l.64-7.31s12.65,8.77,26.5,10.38A2.72,2.72,0,0,1,105.94,231.82Z"/>
                <path class="cls-1" d="M110.82,246.66a19.21,19.21,0,0,1,2.58,6.55,2,2,0,0,1-1.86,2.24c-3.2.17-10.08.15-15.79-2.61a2,2,0,0,0-2.45,3,26.54,26.54,0,0,0,7,6,2.19,2.19,0,0,0,.3.16c1.1.46,7.46,2.84,17.27.26a2,2,0,0,1,1.44.17c1.13.63,2.89,2.42,2.21,7.37a2,2,0,0,1-1,1.46c-2,1.09-7.93,3.15-20.44.51a1.2,1.2,0,0,0-1.38,1.58c1.13,3.2,4.48,9.12,13.82,9.06,0,0,5.62.15,8.88-1.59a2,2,0,0,1,2.66.76,5.69,5.69,0,0,1,.57,2.81,2,2,0,0,1-.53,1.32c-2.38,2.58-13.08,12.79-25.74,3.21a2.07,2.07,0,0,1-.58-.7c-1.16-2.3-6.92-13.93-8.42-21a14,14,0,0,0-2.06-4.89c-3.17-4.72-10.13-14.74-15.92-20.81l2.37-6.4s5.86,7.68,9.42,10.52,1.56-1.19,1.56-1.19a144.81,144.81,0,0,1-11.07-12.07c-3.93-5.12.92-6.58.92-6.58s11.42,15.71,34.9,20A2,2,0,0,1,110.82,246.66Z"/>
                <path class="cls-1" d="M53,166a9,9,0,0,0-4.62,3.3.91.91,0,0,0,.29,1.29c2.12,1.27,8.38,4.68,14.3,4.71,7.26,0-.52-7.41-.52-7.41a23.07,23.07,0,0,1-6.94-1.76A3.31,3.31,0,0,0,53,166Z"/>
                <path class="cls-1" d="M54.7,184.37a30.76,30.76,0,0,1-2,4.51,1.17,1.17,0,0,0,.65,1.69c1.66.55,5.49,1.11,14.12.27l-.09-6.77A45.7,45.7,0,0,1,56,183.61,1.18,1.18,0,0,0,54.7,184.37Z"/>
                <path class="cls-1" d="M50.76,199.73a19.69,19.69,0,0,0-1.14,5,1.4,1.4,0,0,0,1.19,1.5c2.54.37,8.91.76,17.83-2.33l.37-7.55s-8.61,3.49-16.77,2.49A1.39,1.39,0,0,0,50.76,199.73Z"/>
                <path class="cls-1" d="M42.46,216a12.87,12.87,0,0,0-1.25,3.29,2.3,2.3,0,0,0,2,2.77c4.26.46,14.22.34,24.45-8.51l-.09-7.59a30.86,30.86,0,0,1-23,8.85A2.28,2.28,0,0,0,42.46,216Z"/>
                <path class="cls-1" d="M36.46,231.82a26.15,26.15,0,0,0-1.71,3.54A2.72,2.72,0,0,0,37,239c4.63.53,14.64-.21,28.66-11.63L65,220.1s-12.65,8.77-26.51,10.38A2.68,2.68,0,0,0,36.46,231.82Z"/>
                <path class="cls-1" d="M31.58,246.66A19.21,19.21,0,0,0,29,253.21a2,2,0,0,0,1.85,2.24c3.2.17,10.09.15,15.79-2.61a2,2,0,0,1,2.46,3,26.45,26.45,0,0,1-7,6,1.43,1.43,0,0,1-.3.16c-1.09.46-7.45,2.84-17.27.26a2,2,0,0,0-1.43.17c-1.13.63-2.9,2.42-2.21,7.37a1.92,1.92,0,0,0,1,1.46c2,1.09,7.93,3.15,20.44.51a1.21,1.21,0,0,1,1.38,1.58c-1.13,3.2-4.48,9.12-13.83,9.06,0,0-5.61.15-8.87-1.59a2,2,0,0,0-2.66.76,5.58,5.58,0,0,0-.57,2.81,2,2,0,0,0,.52,1.32c2.38,2.58,13.09,12.79,25.74,3.21a2,2,0,0,0,.59-.7c1.15-2.3,6.91-13.93,8.41-21a14,14,0,0,1,2.07-4.89c3.17-4.72,10.13-14.74,15.92-20.81l-2.38-6.4s-5.85,7.68-9.42,10.52-1.55-1.19-1.55-1.19a145.43,145.43,0,0,0,11.06-12.07c3.94-5.12-.91-6.58-.91-6.58s-11.43,15.71-34.9,20A2,2,0,0,0,31.58,246.66Z"/>
                <path class="cls-2" d="M79.38,184.35a.3.3,0,0,0,.1-.2c.12-1.41,1.41-3.49,3.19-5.86a12.74,12.74,0,0,0,2.13-3.81.31.31,0,0,0,0-.19,14.83,14.83,0,0,1-1.29-3.48,15.47,15.47,0,0,1,.14-3.19.28.28,0,0,0-.19-.3,32.68,32.68,0,0,1-6.78-4.08.35.35,0,0,0-.43,0c-1.61,1.52-4.64,1.83-5,1.86H71.2c-.33,0-3.36-.34-5-1.86a.35.35,0,0,0-.43,0A32.83,32.83,0,0,1,59,167.32a.29.29,0,0,0-.19.3,15.39,15.39,0,0,1,.15,3.19,14.83,14.83,0,0,1-1.29,3.48.25.25,0,0,0,0,.19,12.74,12.74,0,0,0,2.13,3.81c1.78,2.37,3.07,4.45,3.18,5.86a.27.27,0,0,0,.11.2c.4.33,1.89,1.62,2,2.53s-1.43,2.87-1.94,4.05c-.05.11.6,2.22.6,2.58s.39,1-.87,3.27a.29.29,0,0,0,0,.1,11.55,11.55,0,0,0,.11,3.56,5.9,5.9,0,0,1-.82,4.3.28.28,0,0,0,0,.18,5.47,5.47,0,0,1-.64,3.84.27.27,0,0,0,0,.34c.63.65,2.72,3.34-.18,8.19a.65.65,0,0,0,0,.13,6.6,6.6,0,0,1-1,3.44.29.29,0,0,0,0,.35c.51.64,2.07,3.1.52,7.94a.29.29,0,0,0,.07.28,9.89,9.89,0,0,1,2.75,6.81,4.43,4.43,0,0,0,.12.84.32.32,0,0,0,.37.23c.36-.07.7.17,2.87,2l0,.06a4.07,4.07,0,0,1,.69,2.81.37.37,0,0,1-.07.14,4.42,4.42,0,0,0-.67.95.27.27,0,0,0,.08.32,5.58,5.58,0,0,1,2.1,3.5,1.85,1.85,0,0,0,.67,1.39.23.23,0,0,1,.1.22h0a.32.32,0,0,0,.36.29l.38-.06h1.25l.39.06a.31.31,0,0,0,.35-.29h0a.29.29,0,0,1,.1-.22,1.85,1.85,0,0,0,.67-1.39,5.62,5.62,0,0,1,2.1-3.5.27.27,0,0,0,.09-.32,4.8,4.8,0,0,0-.67-.95.27.27,0,0,1-.07-.14,4,4,0,0,1,.68-2.81l.05-.06c2.18-1.84,2.52-2.08,2.88-2a.31.31,0,0,0,.36-.23,4.43,4.43,0,0,0,.12-.84,9.89,9.89,0,0,1,2.75-6.81.25.25,0,0,0,.07-.28c-1.55-4.84,0-7.3.52-7.94a.27.27,0,0,0,0-.35,6.69,6.69,0,0,1-1-3.44.33.33,0,0,0,0-.13c-2.89-4.85-.8-7.54-.18-8.19a.26.26,0,0,0,0-.34,5.59,5.59,0,0,1-.64-3.84.19.19,0,0,0,0-.18,6,6,0,0,1-.81-4.3,11.77,11.77,0,0,0,.1-3.56.17.17,0,0,0,0-.1c-1.26-2.29-.86-2.9-.86-3.27s.64-2.47.59-2.58c-.51-1.18-2-3-1.93-4.05S79,184.68,79.38,184.35Z"/>
                <path class="cls-3" d="M42.44,61.17a3,3,0,0,1,1.28,4.23c-.75,1.59,0,2.66,1.48,3.41a6.81,6.81,0,0,0,2.84.78c5.05.19,8.61-2.36,11.5-6.06,1.09-1.39,1.92-3,3-4.42.37-.51.85-1.2,1.66-.93S65,59.29,65,60c0,2.34-1.22,4.2-2.54,6a36.38,36.38,0,0,0-5.33,9.18c-1,2.69-1.49,5.36-.28,8.18a5.08,5.08,0,0,0,5.38,3.37c2.86-.44,5.72-.19,8.57-.31,3.55.06,7.11.24,10.57-.76,5.7-1.66,8.26-4.56,4.27-10.29-2.76-4-5.17-8.19-8-12.13a4.35,4.35,0,0,1-.76-4.34c.56-1.37,1.45-1.6,2.56-.63a12.07,12.07,0,0,1,2.34,2.6A24.27,24.27,0,0,0,87.36,67a11.11,11.11,0,0,0,9.08,2.43c2.81-.49,3.65-1.84,3-4.53-.55-2.31-.11-3.39,2-4.48a8.61,8.61,0,0,0,4.35-4.58c.45-1.13.81-2.3,1.17-3.47a21.09,21.09,0,0,0-2.23-18.13,30.14,30.14,0,0,1-4.92-12.84c-.22-2-.52-4-.86-6A15.45,15.45,0,0,0,88.59,2.72C83.32.73,77.83.2,72.31,0A48.77,48.77,0,0,0,60.16,1.65C51,3.72,45,10.2,44.1,19.31A19.25,19.25,0,0,1,39.88,29.7c-4.74,5.83-5.38,12.57-4.32,19.61C36.29,54.11,38,58.38,42.44,61.17Z"/>
                <path class="cls-3" d="M101,462.77l-.19.05c-5,1.82-10.07,3.73-15.49,4.38-1.18.14-1.23.71-.57,1.48a15,15,0,0,0,10,5.56,5.27,5.27,0,0,0,3.48-1.17c2.6-1.84,4.18-4.46,5.75-7.07.53-.88,1.77-1.93.87-2.94S102.3,462.47,101,462.77Z"/>
                <path class="cls-3" d="M102.85,455.24c3.52-.46,6.69.23,9.29,2.79,1.68,1.65,5.67,1.4,7.28-.41a32.57,32.57,0,0,1,7.16-6A6.82,6.82,0,0,0,128.3,450a58.63,58.63,0,0,0,7.21-11.28c1.45-3,2.63-6.47,1-9.69-1.52-3-.76-5.59.95-7.89,3.17-4.27,3.73-9.1,4.08-12.64A37.2,37.2,0,0,0,140,396.68c-2.4-8.39-6.24-16-14.22-20.79-6.26-3.76-13.09-3.85-17.35,3.59-2.34,4.09-3.93,8.5-6.22,12.61-2.55,4.58-4.69,9.38-8.53,13.18-.57.56-.37,1.05,0,1.6a22.13,22.13,0,0,1,2.93,7.88A2.45,2.45,0,0,0,98.83,417a11.82,11.82,0,0,1,6.22,3.14,20.09,20.09,0,0,1,6.1,16.15c-.57,9.26-7.56,15.64-17.25,15.67a36.93,36.93,0,0,0-9,.58c-1.16.28-2.5.71-3.68.24s-.67-1.84-1.27-2.67a.78.78,0,0,0-.1-.15c-1-1.25-.72-2.45.13-3.64a8.68,8.68,0,0,0,1.51-5.07,18.86,18.86,0,0,1,1.88-8.67c1.67-3.11,4.45-5.09,7.16-7.2,2.38-1.85,4.25-4.21,4.31-7.08.11-5.67-1.67-10.82-6.19-14.82a3,3,0,0,0-3.45-.63c-1.59.69-3.28,1.23-4.79,2.05a17.33,17.33,0,0,1-7.72,1.9C68.82,407,65.48,405.31,62,404c-5-1.85-5.28-2.42-9.26,1.84-3.41,3.64-4.83,8.09-3.18,13a17,17,0,0,0,7.13,8.74c5.39,3.52,8.24,7.9,5.8,14.32a3.18,3.18,0,0,0,1.13,3.57,10.27,10.27,0,0,1,2.52,2.86,2.92,2.92,0,0,1-.3,3.22c-.74,1-1.72.49-2.58.25a34.28,34.28,0,0,1-3.92-1.22A18.91,18.91,0,0,0,52.47,449a13.77,13.77,0,0,1-6-1.85c-10.15-5.22-9.83-20.94-3.28-26.22,2.24-1.81,4.17-3.94,3.93-7.12a3.76,3.76,0,0,1,.51-2.26c2.22-3.31,1-5.95-1.21-8.83a16.69,16.69,0,0,1-3.7-11.59,15.25,15.25,0,0,0-.63-4.4c-1-4.17-3.73-7.21-6.95-10-3.43-2.92-7.4-4.1-11.76-2.58a25.9,25.9,0,0,0-10.22,7.11C7.48,387.3,2.86,394,.92,402.07a26.1,26.1,0,0,0,.2,14.45,15.11,15.11,0,0,0,6.36,8.55,69.63,69.63,0,0,0,6.42,3.32c2.52,1.24,3.26,2.67,3,5.38a14.33,14.33,0,0,1-1.56,4.94c-1.68,3.53-2.88,7.11-2,11.08a3.58,3.58,0,0,0,1.65,2.44,25.22,25.22,0,0,1,8.35,8.34,2.54,2.54,0,0,0,2.1,1.26,19.46,19.46,0,0,0,10.92-1.77c2.62-1.19,4.69-3.18,7.32-4.31,1.36-.58,2.71-1.34,4.26-1.11a23.23,23.23,0,0,1,10.61,4.2,17.92,17.92,0,0,0,11,3.49,69,69,0,0,0,27-5.38A24.21,24.21,0,0,1,102.85,455.24Z"/>
                <path class="cls-3" d="M42.42,476.42a4.13,4.13,0,0,0,3.59.9,18.46,18.46,0,0,0,11.85-8.74c.6-1,.44-1.47-.81-1.8-2.16-.59-4.28-1.31-6.38-2.08a17,17,0,0,0-6.58-1.14A18.68,18.68,0,0,0,36.58,465c-.74.28-1.52.66-1.06,1.62C37.26,470.22,39,473.87,42.42,476.42Z"/>
            </g>
        </g>
    </g>
</svg>