<svg xmlns="http://www.w3.org/2000/svg" viewBox="0 0 269.62 910.47">
    <defs>
        <style>.cls-1{opacity:0.5;}.cls-2{fill:#c1c1c1;}</style>
    </defs>
    <title>Skelett+Muskeln</title>
    <g id="Ebene_2" data-name="Ebene 2">
        <g id="Frau">
            <g id="Organe">
                <g id="Skelett_Muskeln" data-name="Skelett+Muskeln" class="cls-1">
                    <path class="cls-2" d="M82.79,225.94c-.47.28-.35.68,0,1a29,29,0,0,0,5.83,5c.56.34,1.08.47,1.3-.43.51-2.1,1.13-4.18,1.62-6.28.28-1.22-.79-2.29-2.29-2.24A33.94,33.94,0,0,0,82.79,225.94Z"/>
                    <path class="cls-2" d="M87.52,193.3c-.13-.34-.17-.81-.72-.85-.31.23-.17.51-.12.77,1.07,5.27,5.15,8.52,9.16,11.5,3.83,2.85,8.69,3.92,13.45,4.79,5.4,1,10.91.78,16.37,1,1.37.05,2.26,0,2.31-1.7s-.68-2.12-2.32-2.11a103.86,103.86,0,0,1-11.43-.28c-7-.74-13.73-2.25-19.83-5.77C91.3,198.86,88.74,196.67,87.52,193.3Z"/>
                    <path class="cls-2" d="M90.61,207A19.36,19.36,0,0,0,87,208.36c-.75.43-.84.88-.25,1.49a25.87,25.87,0,0,0,5,4.12c.24.15.47.41.79.25s.23-.47.13-.75c-.21-1.79-.39-3.59-.65-5.39C91.86,207.41,91.67,206.64,90.61,207Z"/>
                    <path class="cls-2" d="M80.58,231.65a36,36,0,0,0,14.74,10.93,31.44,31.44,0,0,0,17.13,2.06,38.56,38.56,0,0,0,12.39-4.19c2.36-1.31,2.46-1.15,2-3.89l-3.07,2.36A19.31,19.31,0,0,1,108.57,243a45.58,45.58,0,0,1-12.74-3.73c-5.11-2.36-10-5-14-9a38,38,0,0,1-5.44-6.65A24.18,24.18,0,0,0,80.58,231.65Z"/>
                    <path class="cls-2" d="M84,196.48a3.63,3.63,0,0,0-.41.44c-1.23,1.58-1.21,6.47,0,8.05a.88.88,0,0,0,1.21.37c1.12-.53,2.26-1,3.37-1.57.83-.4,1.14-.87.37-1.71-1.45-1.57-3-3.08-3.8-5.12A.64.64,0,0,0,84,196.48Z"/>
                    <path class="cls-2" d="M80.11,206.41a21.71,21.71,0,0,0,6.48,10.43,37.64,37.64,0,0,0,12.2,6.63A87.66,87.66,0,0,0,115,226.93a40.19,40.19,0,0,0,9.55.35c1.72-.16,2.33-.65,2.49-2.31s-.22-1.69-1.64-1.18a27.16,27.16,0,0,1-15.15.8,72,72,0,0,1-17.88-6.78,29.39,29.39,0,0,1-8.6-6.56c-1.52-1.72-2.3-3.78-3.42-5.71A.69.69,0,0,0,80.11,206.41Z"/>
                    <path class="cls-2" d="M116.59,88.91a21.86,21.86,0,0,0,2.47,5.16c.34.47.78,1.27,1.4.84a4.55,4.55,0,0,1,3-.69c-1.34-.78-2.81-1.13-2.77-2.44.09-2.73-1.68-4.76-2.62-7.1a4.64,4.64,0,0,0-2.26-2c-.31-.18-.65-.48-1-.26s-.26.74-.12,1.13C115.32,85.31,115.93,87.12,116.59,88.91Z"/>
                    <path class="cls-2" d="M151.84,93.26c-.38.14-.88.13-1.19.91,1.54-.24,2.92-1.29,4.14-.49,1.51,1,1.92.28,2.34-.89.22-.62.51-1.21.73-1.83a55.58,55.58,0,0,0,2.37-8.29c-2.18.86-5.29,4.69-5.28,6.28C155,92.12,155,92.12,151.84,93.26Z"/>
                    <path class="cls-2" d="M147.56,165.09a14.35,14.35,0,0,1,4.08-.38,53.64,53.64,0,0,1,9.54,1.1c.38.08.87.36,1.13-.08s-.24-.71-.5-1a11.31,11.31,0,0,0-13.58-2.65c-.88.41-1.66.9-1.78,1.95C146.34,164.88,146.47,165.4,147.56,165.09Z"/>
                    <path class="cls-2" d="M111.57,84.25c-.2-.51-.62-1-1.26-.79s-.16.78-.11,1.19a66.5,66.5,0,0,1,.94,6.88,14.14,14.14,0,0,0,4.45,10.58c1.38,1.27,2.8,2.51,4.14,3.82a26.53,26.53,0,0,0,10.72,6.17,3.61,3.61,0,0,0,1.62.3c3-.47,6-.15,8.94-.25a8,8,0,0,0,2.56-.43,46,46,0,0,0,7.73-3.5c4.06-2.42,7.35-5.31,8.55-10a92.12,92.12,0,0,1,5.39-14.45c-1.5.13-2.55.42-3,1.87-1.06,3.83-2.29,7.63-3.3,11.48-.89,3.4-3.06,5.69-6.11,7.48-5.42,3.15-11.39,3.81-17.46,3.24-6.91-.66-13.14-3.08-18-8a9.63,9.63,0,0,1-2.81-4.94c-.33-1.68-.45-3.42-.92-5.06C113.1,87.89,112.3,86.08,111.57,84.25Z"/>
                    <path class="cls-2" d="M89.22,242.84a29.25,29.25,0,0,0-4.9-3.62c-1.11-.59-2.24.53-3.07,1.24s.24,1.17.62,1.69a28.06,28.06,0,0,0,4,4.11c.75.67,1.48,1.81,2.62,1.43s.7-1.76.86-2.7C89.2,244.25,89.84,243.37,89.22,242.84Z"/>
                    <path class="cls-2" d="M128.12,248.13c-17.5,13.14-33.66,11.75-48.66-3.94,3.8,8.05,13.85,13.3,25.54,13.49C114.17,257.83,122.18,254.94,128.12,248.13Z"/>
                    <path class="cls-2" d="M105.48,254.19a26.62,26.62,0,0,0,5.49-.7c5.55-1.05,10.12-3.88,14.36-7.29.26-.22.59-.47.47-.85s-.57-.36-.91-.37a7.41,7.41,0,0,0-3.65.62,25,25,0,0,1-14.53,2.65c-4.13-.55-7.75.72-11.54,1.57-.58.12-1.27.28-1.36.94-.12.82.71,1,1.27,1.22A29.08,29.08,0,0,0,105.48,254.19Z"/>
                    <path class="cls-2" d="M96.8,259.56c-1.43-.54-2.89-1-4.35-1.45a.75.75,0,0,0-.86.47,16.57,16.57,0,0,1-3.52,4.85A.83.83,0,0,0,88,264c0,.08.29.12.39.16a1.21,1.21,0,0,0,.24-.07l8.12-3.83C97.07,260.12,97.29,259.75,96.8,259.56Z"/>
                    <path class="cls-2" d="M94.73,267.79a22.47,22.47,0,0,0,7.13,1.41c5.86-.35,10.76-3.42,15.45-6.92.41-.31.49-.73,0-1-1.17-.6-2.18-1.58-3.77-1.15a154.55,154.55,0,0,0-18.84,6.37c-.32.13-.74.22-.73.64S94.41,267.67,94.73,267.79Z"/>
                    <path class="cls-2" d="M78.86,221.27c.49,1.31,1.12,2,2.55.88A16.28,16.28,0,0,1,84,220.69c1.11-.53,1.45-1,.32-1.94a48,48,0,0,1-3.43-3.69c-.57-.6-.81-2-1.68-1.71s-1,1.57-1,2.54c0,.4,0,.8,0,1.2A10.15,10.15,0,0,0,78.86,221.27Z"/>
                    <path class="cls-2" d="M98.67,210c-.1,1.3-.19,2.59-.29,3.89-.06.8.37,1.06,1.1.81,3.28-1.12,6.7-1.79,10.08-2.92-3.29-.85-6.48-1.84-9.68-2.81C99,208.66,98.72,209.24,98.67,210Z"/>
                    <path class="cls-2" d="M103.88,195c-3.79-1.18-3.79-1.19-4.33,2.66,0,.11,0,.22-.07.34-.16.94.28,1.31,1.21,1,2.6-.76,5.19-1.56,8-2.41-.28-.23-.31-.29-.37-.31C106.82,195.86,105.34,195.44,103.88,195Z"/>
                    <path class="cls-2" d="M102.28,219.41c6.79,2.28,13.7,3.56,20.88,2,5-1.09,4.33-.5,4.46-5.46,0-1.32-.45-1.62-1.81-1.47a188.7,188.7,0,0,0-24.1,4.41C102,219.19,102.14,219.36,102.28,219.41Z"/>
                    <path class="cls-2" d="M107.79,202.59a65.1,65.1,0,0,0,16.29,1.78c4.08,0,4,0,4.45-3.82.11-1.12-.29-1.63-1.43-1.62-2.73,0-5.44-.46-8.18.17-3.42.77-6.89,1.32-10.32,2a4.49,4.49,0,0,0-2.47.76C106.59,202.5,107.24,202.45,107.79,202.59Z"/>
                    <path class="cls-2" d="M95,236c4.37,2,8.79,3.79,13.75,3.82.54,0,1.08,0,1.6,0,6.25-.59,11.36-3.47,16-7.22.45-.36.93-.81.62-1.45s-.89-.48-1.42-.5a94,94,0,0,0-15.81,1.11,119.08,119.08,0,0,0-14.28,3c-.39.1-.9.09-1.06.52S94.67,235.83,95,236Z"/>
                    <path class="cls-2" d="M104.48,228.34c-2.92-.76-5.69-1.9-8.57-2.68a.88.88,0,0,0-1.14.59c-.41,1.3-.81,2.61-1.11,3.93-.14.61.2,1,.94.79Z"/>
                    <path class="cls-2" d="M127.22,191c1.28.16,1.9-.37,1.84-1.64-.05-1-.06-1.93,0-2.9.05-1.34-.53-2-2-2a64.81,64.81,0,0,0-8.92.39,63.27,63.27,0,0,0-9.8,1.91,6,6,0,0,0,.92.57A101.8,101.8,0,0,0,127.22,191Z"/>
                    <path class="cls-2" d="M133.67,338.49c-1,.28-1.82.67-1.6,1.81s1.29,1.08,2.23,1.12c3.34.15,6.72-.39,10,.39.78.19.87-.22.61-.8a4.5,4.5,0,0,0-2.77-2.48c-1.19-.43-1.19-1.08-.23-1.8.19-.15.41-.27.6-.42.46-.38,1.19-.68,1-1.37s-1.11-.62-1.75-.63c-1.37,0-2.74,0-4.11,0h-4.86c-.36,0-.83,0-.87.48a1,1,0,0,0,.4.74,7.56,7.56,0,0,0,1.26.74c.6.31,1.74,0,1.72,1C135.3,338.06,134.39,338.29,133.67,338.49Z"/>
                    <path class="cls-2" d="M122.66,168.16a48.65,48.65,0,0,1-9.93,1c-.84,0-1.8,0-1.85,1.11a1.73,1.73,0,0,0,1.7,1.86,36.06,36.06,0,0,1,4.63.43c2.38-.51,4.86-.81,6.47-2.86.31-.39.72-.89.44-1.4S123.14,168.08,122.66,168.16Z"/>
                    <path class="cls-2" d="M133.94,313.17c-.23.1-.47.15-.7.25-.85.38-1.52,1-1.35,1.91s1.16.77,1.87.76c2.78,0,5.56-.47,8.39.18.9-.66,2.36.74,2.74-.37.25-.74-.95-1.8-2-2.34-2-1.09-2-1.13-.15-2.56.38-.29.95-.5.75-1.09s-.65-.51-1.09-.53c-3.09-.13-6.19-.26-9.28-.36-.52,0-1.23-.11-1.34.62s.45.95.93,1.22c.32.17.7.23,1,.37.55.21,1.39.15,1.45.89S134.48,312.93,133.94,313.17Z"/>
                    <path class="cls-2" d="M104.22,168.53a4.76,4.76,0,0,0,1,4.33A18.72,18.72,0,0,0,113,178.4c3,1.29,6.15,1.52,9.33,1.84,1.44.15,3-.42,4.48.64-.29-1.56-1-2.42-2.36-2.43a35.72,35.72,0,0,1-5.47-.81,31.13,31.13,0,0,1-8.91-2.95c-4-2-4.68-4.93-2.11-8.46a33.8,33.8,0,0,1,5.5-5.32c2.54-2.2,5.47-2.6,8.65-2.28,1.74.17,3.25,1,5.39,1.71a12.29,12.29,0,0,0-12.77-2.53c-2.32,1-4.06,2.75-6.09,4.12A10.91,10.91,0,0,0,104.22,168.53Z"/>
                    <path class="cls-2" d="M105.09,183.64l9-2.48c-1.75-.64-3.15-1.11-4.52-1.66-3.64-1.46-5.41-.75-5.83,3C103.67,183.61,104.07,183.92,105.09,183.64Z"/>
                    <path class="cls-2" d="M132.5,318.91c3.82.94,7.67.6,11.51.31C140.19,318.28,136.35,318.57,132.5,318.91Z"/>
                    <path class="cls-2" d="M144.94,328.64c.26-.71-.71-1.41-1.31-2a3.62,3.62,0,0,0-.59-.44c-2.06-1.3-2.06-1.29-.2-2.67.37-.28.93-.51.74-1.1s-.72-.65-1.21-.66c-1.61,0-3.23,0-4.84,0v-.06c-1.3,0-2.61,0-3.91,0-.58,0-1.45-.26-1.64.43s.64,1,1.2,1.37a5.79,5.79,0,0,0,.68.29c.51.21,1.18.32,1.19,1s-.68.94-1.27,1.1c-1,.28-2,.71-1.74,1.9.25,1.34,1.51,1.12,2.41,1a34.73,34.73,0,0,1,8.34,0C143.51,328.84,144.62,329.53,144.94,328.64Z"/>
                    <path class="cls-2" d="M144.07,281.16c-1.67-1.08-10.12-1.21-11.68-.24C136.39,281.62,140.23,281.26,144.07,281.16Z"/>
                    <path class="cls-2" d="M132,284c-.23.64.34,1.1.85,1.44a6.65,6.65,0,0,0,1.2.47c.5.18,1.24.13,1.26.84s-.69.9-1.26,1.12l-.88.31c-.74.31-1.31.79-1.12,1.63a1.46,1.46,0,0,0,1.85,1.09,34,34,0,0,1,9.56.13c.58-.08,1.2.35,1.49-.13s-.28-1-.6-1.38a3.72,3.72,0,0,0-1.53-1.26c-2.07-.85-2.08-1-.37-2.32.51-.39,1.33-.73,1-1.5s-1.16-.54-1.82-.57c-2.73-.11-5.47.22-8.19-.27C133,283.45,132.24,283.33,132,284Z"/>
                    <path class="cls-2" d="M144.06,293.55c-2-1.12-10.24-1.15-12.11-.05A89.15,89.15,0,0,0,144.06,293.55Z"/>
                    <path class="cls-2" d="M133.84,134.4c-.66.17-1.36.22-2,.44s-1,.55-1,1.16.76.7,1.31.72c4.13.1,8.27-.17,12.65.25a5,5,0,0,0-2.24-2.11c-1.91-.93-1.92-1-.29-2.21.29-.23.66-.42.54-.83s-.45-.39-.76-.39q-5.13,0-10.27,0c-.3,0-.72,0-.71.39s.29.51.52.67c.63.45,1.44.29,2.15.46.43.1.91.21.95.72S134.25,134.29,133.84,134.4Z"/>
                    <path class="cls-2" d="M131.71,155.54c-.78.34-1.56.7-1.38,1.64s1.15.92,1.95.93c1.86,0,3.73,0,5.59,0v0c1.56,0,3.11,0,4.66,0,.74,0,1.79.78,2.15-.15.27-.7-.84-1.2-1.35-1.77a3.17,3.17,0,0,0-1.09-.64c-.55-.24-1.3-.31-1.31-1.06s.62-1,1.16-1.28,1.33-.45,1.19-1.17c-.17-.87-1.06-.68-1.7-.7-3.23-.09-6.46.18-9.68-.31-.61-.1-1.58-.25-1.73.58s.84,1.05,1.48,1.35,2.24,0,2.31,1.09S132.56,155.17,131.71,155.54Z"/>
                    <path class="cls-2" d="M160.05,158a10,10,0,0,0-8-.53,12.18,12.18,0,0,0-5,3,26.27,26.27,0,0,1,2.91-1.21c3.32-.95,6.67-1.44,9.74.69a37.49,37.49,0,0,1,6.94,6.11c2.15,2.46,2.15,5.33,0,7.19a12.12,12.12,0,0,1-3.13,1.95,42,42,0,0,1-12.93,3.19,2.85,2.85,0,0,0-2.32,1.36c-.26.41-.23.83.47.69,2.31-.47,4.66-.2,7-.52a24.75,24.75,0,0,0,11.06-4.47c4.21-2.92,4.85-6.58,1.92-10.65A23,23,0,0,0,160.05,158Z"/>
                    <path class="cls-2" d="M170.68,183.71c1-.66-.27-1.91-.15-3s-.58-1.49-1.68-1.76c-3.09-.74-5.16,1.55-7.79,2.27,2.21.61,4.41,1.22,6.63,1.81C168.71,183.34,170.13,184.09,170.68,183.71Z"/>
                    <path class="cls-2" d="M143.71,149.38c-2.67-1.09-10.93-1.11-13.09,0A106.06,106.06,0,0,0,143.71,149.38Z"/>
                    <path class="cls-2" d="M144.68,189.82c-.08,1.21.29,1.45,1.5,1.34a125.66,125.66,0,0,0,14.06-2.33c2-.42,4-1.07,6.08-1.64a1.23,1.23,0,0,0-1.07-.76,70,70,0,0,0-14.64-1.9C145.08,184.52,145.05,184.58,144.68,189.82Z"/>
                    <path class="cls-2" d="M128,164.58c.3-.76-.34-1.4-.92-1.9-1.73-1.48-3.92-1.48-5.6-1.69a10.88,10.88,0,0,0-8.45,3.5c-.35.35-1,.68-.77,1.21s1,.13,1.45,0a46.93,46.93,0,0,1,12.4-.91C126.75,164.88,127.63,165.48,128,164.58Z"/>
                    <path class="cls-2" d="M132.72,118c-.42.22-1.1.21-1,.82s.76.48,1.21.5c3,.13,6.1-.2,9.13.29.44.07,1.13.21,1.2-.46s-.52-.76-1-1c-2.32-1.14-2.33-1.14-.33-2.56,0,0,0-.11,0-.28-1.46-.59-3-.16-4.52-.32-.39,0-1,.29-1.05-.52s-.49-1.18-1-.79a23.14,23.14,0,0,1-3.53,1.51c.15.56.59.54.91.69.78.36,2.26,0,2.21,1.14C134.9,117.83,133.47,117.56,132.72,118Z"/>
                    <path class="cls-2" d="M130.67,164.29h13.76C142.3,163.21,132.25,163,130.67,164.29Z"/>
                    <path class="cls-2" d="M133.06,125.64c-.51.38-1.51.46-1.38,1.25s1.1.55,1.72.56c2.92.06,5.84.06,8.76.07.4,0,1,.29,1.17-.21s-.4-.9-.83-1.22c-.67-.51-2-.3-2.19-1.15-.31-1.12,1.51-.79,1.73-1.73-1.37-.46-7.72-.58-10.21-.18.21.55.63.54.95.69.74.33,2.07,0,2.11,1C134.92,125.59,133.64,125.22,133.06,125.64Z"/>
                    <path class="cls-2" d="M149.8,168.58c-.2.32.13.62.38.87,2.45,2.57,8.9,3.94,12.33,2.61a1.74,1.74,0,0,0,1.2-1.88,1,1,0,0,0-1-1,48.09,48.09,0,0,1-10.86-1.13C151,168.24,150.2,167.89,149.8,168.58Z"/>
                    <path class="cls-2" d="M145.52,146.85c.38-1-1.17-1.3-1.84-1.95a4.05,4.05,0,0,0-1-.51c-.45-.24-1.3,0-1.32-.72s.69-.92,1.24-1.21,1.07-.38,1-.94c-.15-.71-.9-.49-1.41-.5-3-.07-6.1.13-8.69-.36-.75,0-1.06,0-1.37,0-.47,0-1.13-.11-1.22.51s.55.57.93.71c.63.25,1.28.43,1.93.64.42.14.86.3.83.81s-.42.57-.78.68c-.76.26-1.54.45-2.29.74a1.06,1.06,0,0,0-.77,1.11c.08.57.57.75,1.09.79s1.12.05,1.68.05c3.22,0,6.45-.2,9.68,0C144,146.75,145.18,147.71,145.52,146.85Z"/>
                    <path class="cls-2" d="M143.16,300.9c-2.13-1.13-2.13-1.14-.33-2.68.41-.35,1-.7.75-1.3s-.93-.5-1.47-.5c-2.91,0-5.83,0-8.75,0-.51,0-1.28-.21-1.4.49s.68.72,1.1,1c.71.54,2.16.32,2.22,1.32.07,1.18-1.42,1.08-2.2,1.57-.6.38-1.19.73-1,1.52a1.48,1.48,0,0,0,1.48,1.13,10.52,10.52,0,0,0,1.86,0c3.19-.29,6.37.07,9.68.06A4.11,4.11,0,0,0,143.16,300.9Z"/>
                    <path class="cls-2" d="M133.32,391.83c-.5.35-1.17.6-1.11,1.3s.78.67,1.29.81c3.07.87,6.14.18,9.21,0,.52,0,1.18-.2,1.24-.87s-.47-.78-.87-1.05c-2.06-1.36-2.05-1.36-.24-2.79.33-.25.82-.45.74-.93s-.7-.6-1.16-.7c-1.72-.37-3.47-.1-5.32-.21-1,0-2.12-.05-3.24,0-.67,0-1.69-.37-1.89.55-.14.7.79.94,1.36,1.28s2,.47,2,1.37C135.37,391.71,134,391.37,133.32,391.83Z"/>
                    <path class="cls-2" d="M198.88,262.87c-.21-.05-.54.18-.74.36-.9.82-1.78,1.67-2.66,2.52-2.32,2.25-2.32,2.25.55,3.82a3.07,3.07,0,0,1,.31.17c.76.48,1.2.19,1.48-.54a29.2,29.2,0,0,0,1.37-5.41C199.14,263.42,199.34,263,198.88,262.87Z"/>
                    <path class="cls-2" d="M190.49,271.62a1.34,1.34,0,0,0-1.51,0,30.26,30.26,0,0,1-12.92,4.72c2.72,1.69,5.45,3.21,8,5a2.72,2.72,0,0,0,3.12.24,19.33,19.33,0,0,0,6.39-4.84c1.92-2.27,1.91-2.28-.71-3.85C192.06,272.44,191.27,272.05,190.49,271.62Z"/>
                    <path class="cls-2" d="M198.29,254.84c-1.5,2.76-2.54,5.78-4.87,8.09-4.71,4.68-10.66,7-17.22,8-4.77.73-9.56.85-13.92-1.58a42.7,42.7,0,0,1-11-8.91c-2.47-2.75-4.86-5.55-7.44-8.49a1.69,1.69,0,0,0,.45,2,70,70,0,0,0,7.44,8.25c5.4,5,11.16,9.16,18.85,10.76,8.47,1.77,15.15-1.38,21.12-6.22,4.44-3.59,6.34-9,8.39-14.08a1.83,1.83,0,0,0,0-.62A14.41,14.41,0,0,0,198.29,254.84Z"/>
                    <path class="cls-2" d="M215.32,164.22c-2-.09-4.06-.58-5.84-.4a34.85,34.85,0,0,0-10.39,1.29c-.4.11-1,.16-1,.66s.56.57,1,.69a34.44,34.44,0,0,0,6.88,1.55c3.57.37,6.94-.18,9.78-2.51.28-.23.68-.43.55-.83S215.69,164.24,215.32,164.22Z"/>
                    <path class="cls-2" d="M173.48,168.39c1.6-.26,3.24-.11,4.82-.34,2.78-.4,5.58-.52,8.26-1.8A43.12,43.12,0,0,1,202,161.94c2.72-.21,5.44,0,8.16,0,5.7.12,10.64,1.6,14.31,6a2.75,2.75,0,0,0,1.4,1.13c.56.12,1.26.61,1.67-.12s-.19-1.12-.71-1.46c-2-1.29-4.14-2.44-6-3.86-4.33-3.25-9.4-3.53-14.52-3.35a45.77,45.77,0,0,0-15.9,3.5,49.8,49.8,0,0,1-8.13,2.55c-4.29,1-8.63.65-13.34.53A5,5,0,0,0,173.48,168.39Z"/>
                    <path class="cls-2" d="M253.28,339.34c.61,3.39,1.6,6.72,2.15,10.12,1.92,12,3.79,24,5.54,36.07,1.43,9.86,3.34,19.68,4.1,29.62.27,3.64-.12,7.33-.1,11,0,1.38-1.23,2.82-.5,3.94,2.35,3.61,1.41,6.92-.38,10.28-.28.54-.75,1.13-.15,1.81.7-.4,1.38-1.1,2.06-1.1,2.28,0,2.18-1.23,1.74-2.71a33.29,33.29,0,0,1-1.12-10c.06-5-.09-10.08.17-15.12a4.19,4.19,0,0,0-.19-1.4,44.56,44.56,0,0,1-1.22-8.4c-.5-5.31-1.56-10.54-2.08-15.84-.37-3.72-1.14-7.4-1.55-11.11-1.18-10.61-2.17-21.25-4.89-31.66-1.66-6.32-3.56-12.58-4.92-19-1,1.64-.06,3.16.12,4.71C252.4,333.47,252.74,336.42,253.28,339.34Z"/>
                    <path class="cls-2" d="M173.22,170.79c.7.53,1.47,1,2.12,1.55,2,1.76,4.38,3.24,4.53,6.23.17,3.27-1.79,5.42-4.23,7.26a24.73,24.73,0,0,1-9.65,4.24c-5.16,1.17-10.39,2-15.63,2.72-1.47.22-3,.36-4.42.59s-1.12,1.39-1.07,2.3.77,1,1.56.86c7.87-1.14,15.83-1.74,23.48-4.11,3.12-1,6-2.46,9-3.67a6.29,6.29,0,0,0,3.86-6.5c0-4.78-4.44-10.77-8.93-12.27-.28-.09-.58-.27-.79,0A.56.56,0,0,0,173.22,170.79Z"/>
                    <path class="cls-2" d="M249.25,338.8c.93,9.81,1.91,19.61,2.87,29.41.69,7,1.68,13.92,2,20.9a111.59,111.59,0,0,0,6.81,33.61c.12.35.14.87,1.46.73-2.25-29.57-8.6-58.61-13-87.92A25.56,25.56,0,0,0,249.25,338.8Z"/>
                    <path class="cls-2" d="M199.94,271.09c-.42.15-.46.53-.57.83a19.28,19.28,0,0,1-7.15,9.55c-4.25,3.07-9.05,4.82-14.37,3.77a33.41,33.41,0,0,1-14.77-7.3,44,44,0,0,1-7.3-8.37,10.74,10.74,0,0,0-3.84-3.36,48.16,48.16,0,0,0,5.55,8.36c4.61,5.33,9.62,10.16,16.93,11.92,2.32.56,4.7,1.67,7.11,1a50.2,50.2,0,0,0,9.25-2.88c5.56-2.68,8.19-7,9.34-12.52C200.2,271.78,200.46,271.35,199.94,271.09Z"/>
                    <path class="cls-2" d="M182,310a6.81,6.81,0,0,0,8.37,1,12.34,12.34,0,0,0,5.19-8.15c-.77.32-.82.87-1,1.32a12.13,12.13,0,0,1-3.22,4.46,5.73,5.73,0,0,1-6.43,1,15.54,15.54,0,0,1-5.38-4.14c-1.25-1.41-2.57-2.76-3.86-4.15A35.4,35.4,0,0,0,182,310Z"/>
                    <path class="cls-2" d="M184.79,306.09c4.3,1.4,9.54-2.75,9-7-4.13,4.8-8.93,5.82-15.56,2.29A14.5,14.5,0,0,0,184.79,306.09Z"/>
                    <path class="cls-2" d="M198.44,287.82c-1,1.26-1.46,2.82-2.34,4.17a20.32,20.32,0,0,1-3.4,3.71A11.54,11.54,0,0,1,180,297.76a27,27,0,0,1-10-7.75l-3.54-4.37c3.72,6.53,8.69,11.72,16.44,13.89a10.27,10.27,0,0,0,5.11.08,12.05,12.05,0,0,0,7.7-5.61C196.91,292.08,198.16,290.15,198.44,287.82Z"/>
                    <path class="cls-2" d="M75.3,262.62c.32,1.69.53,3.13.88,4.54.79,3.26,1.26,3.41,4,1.42.09-.06.2-.12.29-.19.39-.29.51-.67.18-1C79.14,265.68,77.81,263.8,75.3,262.62Z"/>
                    <path class="cls-2" d="M144.87,379.54c.26-1.05-1-1.91-2-2.55-2-1.3-2-1.28-.08-2.69.4-.29.91-.56.71-1.13s-.76-.56-1.25-.56c-1.56,0-3.12,0-4.67,0v0a18.91,18.91,0,0,0-2.61,0c-1,.13-2.72-.64-2.95.55s1.5,1.28,2.55,1.57,1,.91.27,1.49a4.09,4.09,0,0,1-1.34.61c-1,.29-1.73.83-1.49,1.9s1.25,1,2.12.87a32.94,32.94,0,0,1,8,0C143.09,379.7,144.7,380.2,144.87,379.54Z"/>
                    <path class="cls-2" d="M130.16,252.62a10,10,0,0,0-.95,1,77.66,77.66,0,0,1-10.32,11.06c-3.58,3.12-7.38,6.05-12.47,6.51A33.88,33.88,0,0,1,90,268.62c-5.34-2.25-9.8-5.56-12.15-10.94-.77-1.76-1.8-3.42-2.88-5.43-.06.53-.13.69-.08.82a41.77,41.77,0,0,0,6.61,12.35c1.42,1.82,3.55,2.57,5.31,3.86,2.65,1.93,5.63,3.66,9,3.93a30,30,0,0,0,21.33-6.11,72.8,72.8,0,0,0,11.7-11.16,6,6,0,0,0,1.83-3.33C130.38,252.61,130.22,252.56,130.16,252.62Z"/>
                    <path class="cls-2" d="M80.35,275.7A22.7,22.7,0,0,0,84.67,280c3.26,2.38,4.25,2.43,7.66.29,2-1.29,4.14-2.54,6.62-4.06a38.83,38.83,0,0,1-7.21-1.51,29.15,29.15,0,0,1-6.09-3.18,1.42,1.42,0,0,0-1.52.09c-1.13.64-2.25,1.29-3.39,1.9S79.62,274.79,80.35,275.7Z"/>
                    <path class="cls-2" d="M142.55,351.42c-.59-.2-1.28-.35-1.4-1-.16-.85.76-.77,1.22-1.09s1.42-.56,1.22-1.37-1.06-.78-1.72-.79c-3,0-6,0-8.94,0-.43,0-.94,0-1.1.48s.26.88.68,1.14.67.3,1,.47c.56.28,1.53.2,1.5,1.06s-.88.87-1.51,1.09a4.69,4.69,0,0,0-.69.26,1.59,1.59,0,0,0-.93,1.62c.13.82.94.63,1.52.63a82.18,82.18,0,0,1,12,.58C144.5,352.94,143.87,351.89,142.55,351.42Z"/>
                    <path class="cls-2" d="M131.57,241.65c.18,2,.36,4.1,1.63,5.86a13.16,13.16,0,0,1,2.29,8.09,29.32,29.32,0,0,0,1.14,9.26c.21.7.44,1.61,1.34,1.58.75,0,.78-.92.93-1.5,1-3.8.23-7.66.24-11.48,0-2.26,0-4.3,1.76-6a5.38,5.38,0,0,0,1.35-2.74c1.78-7.13,1.31-14.38.92-21.56-.45-8.09-1.73-16.15-1.6-24.28a63,63,0,0,0-.48-9.52c-.6-4.33.42-8.11,3.76-11.21.83-.77,1.76-1.7,1.59-2.75-.41-2.67-.78-5.41-2.85-7.56a1.79,1.79,0,0,0-2.9,0c-.74.73-1.4,1.54-2.11,2.31a1.37,1.37,0,0,1-2.27,0c-.47-.51-.9-1.06-1.35-1.58a2.3,2.3,0,0,0-2.74-.61,4.49,4.49,0,0,0-3.18,4.46,7.56,7.56,0,0,0,1.7,4.76,10.63,10.63,0,0,1,2.18,9.91c-.64,2.58-1.81,5-1.82,7.79,0,2.14,0,4.31-.11,6.44-.31,5.34,0,10.68-.17,16A227.31,227.31,0,0,0,131.57,241.65Z"/>
                    <path class="cls-2" d="M143.77,357.5c-3.83-1-7.69-.63-11.54-.32C136.07,358.09,139.92,357.78,143.77,357.5Z"/>
                    <path class="cls-2" d="M143.09,360.84c-3.8-1-7.66-.59-11.53-.33C135.37,361.53,139.23,361.15,143.09,360.84Z"/>
                    <path class="cls-2" d="M123,265.92a14.36,14.36,0,0,0-3.83,3.41,35.7,35.7,0,0,1-16.06,13.85c-3.21,1.36-6.49,2.83-10.13,2.33-8.44-1.15-14.3-5.52-17.45-13.13-.23-.57-.3-1.29-1-1.69-.1.21-.21.32-.19.42.82,5.2,3,9.68,7.87,12.52s9.68,4.85,15.44,3.13a1.36,1.36,0,0,1,.35,0,14.72,14.72,0,0,0,7.07-2A34,34,0,0,0,112,280,49.88,49.88,0,0,0,123,265.92Z"/>
                    <path class="cls-2" d="M144.61,366.05a6.83,6.83,0,0,0-2.31-1.75c-1.54-.68-1.53-1-.08-2a5,5,0,0,0,.62-.4c.41-.34,1-.69.74-1.3s-.81-.47-1.3-.49c-3-.13-6.09.24-9.05-.32-.56,0-1.15,0-1.34.52s.35,1,.84,1.21,1,.39,1.55.6,1,.25,1.06.85-.56.85-1.08,1.06c-.28.12-.58.21-.87.31-.82.29-1.5.76-1.35,1.68s1.06.83,1.78.85c3.41.09,6.83-.22,10.24.21a1.16,1.16,0,0,0,.85-.15C145.2,366.62,144.86,366.31,144.61,366.05Z"/>
                    <path class="cls-2" d="M89.54,306.22A12.91,12.91,0,0,0,96,301.59c-5.92,3.24-11,2.31-15.37-2.7a13.29,13.29,0,0,0,3,5.8A5.49,5.49,0,0,0,89.54,306.22Z"/>
                    <path class="cls-2" d="M108.11,286.32c-.32.1-.47.1-.53.17-.34.39-.69.77-1,1.19a33.43,33.43,0,0,1-9.92,9.15c-6.9,4.09-13.48,1.22-17.35-3.83a50.57,50.57,0,0,1-3-5.11,4.3,4.3,0,0,0,.65,2.4,22.41,22.41,0,0,0,3.75,5.78A11,11,0,0,0,91,299.69a20.79,20.79,0,0,0,9-4.25A30.71,30.71,0,0,0,108.11,286.32Z"/>
                    <path class="cls-2" d="M82.68,309.55a6.72,6.72,0,0,0,10,.3,29.76,29.76,0,0,0,3-3.31c1.35-1.74,2.55-3.57,4-5.57a1.88,1.88,0,0,0-1.36,1,31,31,0,0,1-5.81,6c-3.38,2.72-7.06,3.61-10.54-.82a25,25,0,0,1-2.75-4.55A12.11,12.11,0,0,0,82.68,309.55Z"/>
                    <path class="cls-2" d="M96,895.5c.24-1.1-.2-1.54-1.16-1.78-1.15-.29-1,.68-1.13,1.19a23.88,23.88,0,0,1-3.4,8.91c-.73,1.18-1.33,2.43.72,3,.28.07.43.54.65.82s.28.39.61.3a1.76,1.76,0,0,0,.58-1.27c.26-2.44.92-4.82,1.35-7.23C94.5,897.93,95.71,896.94,96,895.5Z"/>
                    <path class="cls-2" d="M183.91,882a7.12,7.12,0,0,0-.77-3.64c-1.45,4.78,1.44,8.5,2.61,12.53a.55.55,0,0,0,.7.44,1,1,0,0,0,.62-1.18,7.5,7.5,0,0,0-1.47-3.28A8.47,8.47,0,0,1,183.91,882Z"/>
                    <path class="cls-2" d="M165.81,685.69c-1.19.39-1.43,1.11-1.06,2.09a4.83,4.83,0,0,0,4,3.41c2.43.38,3.19,1.5,2.66,3.82a61.35,61.35,0,0,0-1.6,9.06c-.39,5.35-.75,10.69-1.11,16a2,2,0,0,0,.46,1.71c1.05,1,1,2.26,1,3.54-.06,9.18-.12,18.35-.64,27.54-.6,10.54-.73,21.1-1.51,31.65-.61,8.24-.62,16.53-.83,24.8-.09,3.26-.19,6.5-.59,9.76-.37,2.92-.69,5.88-.9,8.82-.14,1.84.32,3.8-1.54,5.16-.24.18-.27.66-.33,1-.35,2.08-.74,4.16-1,6.26-.23,1.69-.35,3.5,1.08,4.75a2.71,2.71,0,0,1,1.06,3.18c-.15.46-.47,1.19.41,1.3.71.09,1.43-.21,1.47-1a7.77,7.77,0,0,1,.37-2.5c.3-.8,0-2.16,1.21-2.2,1.37-.05.81,1.35,1.08,2.12.06.17.08.36.14.53.19.58.39,1.19,1.14,1.29a1.6,1.6,0,0,0,1.54-.83,9.12,9.12,0,0,0,2-5.37c.1-4.61-1.56-8.88-2.66-13.26-.5-2-1.62-4-1.74-6-.3-5.13-.35-10.28-.21-15.41.18-6.58,0-13.17.4-19.75.32-5.49-.21-11,.18-16.5.73-10.25.74-20.51,1.31-30.76.36-6.45.83-12.89,1.31-19.33a23.42,23.42,0,0,1,.7-5.38c.29-.95,1.28-1.54,1.29-2.58,0-5.68.94-11.3,1.24-17,.15-2.81.53-5.52,2.2-7.93.76-1.08.74-2.41,1-3.68a4.41,4.41,0,0,0-1.21-2.56c-1.15-1.53-2.53-1.64-4.08-.46-1.35,1-1.83.89-2.78-.84-.49-.9-1.06-2.13-2.32-1.25-.93.64-2.65,1.15-1.57,3.07S168,685,165.81,685.69Z"/>
                    <path class="cls-2" d="M186.14,679.47a2.16,2.16,0,0,0-1.08-1.59,1.91,1.91,0,0,0-2.55.14c-.79.78,0,1.37.54,1.93a4.61,4.61,0,0,1,.92,1.11c.39.75.35,1.51-.74,1.53-1.38,0-1.19,1-1.32,1.76-.18,1-.62,2.2.62,2.91a6.08,6.08,0,0,1,2.91,4.74c.7,4.55,1.48,9.06,1.26,13.76-.39,8.17-.17,16.37-.08,24.55.08,7.65-.28,15.3.29,23,.52,6.93-.62,13.85-.75,20.78a21.32,21.32,0,0,1-.47,4.06,90.94,90.94,0,0,0-1.35,10c-.31,3.06-.57,6.13-1,9.18-.57,4.11-1.54,8.18-1.89,12.31a93.49,93.49,0,0,1-2.2,13.63c-.5,2.13-.74,4.4-2,6.26a3.12,3.12,0,0,0-.5,3.45c.25.52,0,1.42.68,1.53.84.15.65-.83,1-1.28a14,14,0,0,0,1.34-2.34,38.85,38.85,0,0,0,2.89-10.6c.52-4.27,1.27-8.53,2-12.77.39-2.12.17-4.27.71-6.35,1.09-4.25,1.36-8.63,1.92-13,.39-3,.65-6.12,1-9.15.86-6.72,1.38-13.45,1.6-20.19.25-7.35.06-14.7.06-22.06q0-1-.06-2c-.47-8.46-.93-16.92-1.44-25.38-.38-6.13-.17-12.33-1.93-18.34a14.41,14.41,0,0,1,0-8.05C186.34,681.59,186.26,680.53,186.14,679.47Z"/>
                    <path class="cls-2" d="M190.79,464.19a3,3,0,0,0-3.66,1.34,7.41,7.41,0,0,0-.82,7.29c.7,1.82,3.07,2.5,5.43,1.65a3.06,3.06,0,0,0,1.38-4,4.67,4.67,0,0,1-.31-2.6c0-.23,0-.47,0-.71A2.67,2.67,0,0,0,190.79,464.19Z"/>
                    <path class="cls-2" d="M166.67,464.44l-.18.05c-5.05,1.82-10.08,3.73-15.49,4.38-1.19.14-1.23.71-.57,1.48a15,15,0,0,0,10,5.56,5.27,5.27,0,0,0,3.48-1.17c2.59-1.85,4.18-4.47,5.75-7.07.53-.88,1.77-1.93.87-2.95S168,464.14,166.67,464.44Z"/>
                    <path class="cls-2" d="M179.27,865.82a1.57,1.57,0,0,0,1.61-.67,1.87,1.87,0,0,0,.13-2.32,3.64,3.64,0,0,0-3.62-1.84,10.74,10.74,0,0,0-4.44,1,2,2,0,0,0-1.36,2.31,2.25,2.25,0,0,0,2,1.65c1.14.18,1.5-.6,1.86-1.38a6.55,6.55,0,0,1,.44-.78,1.76,1.76,0,0,1,1.87-.9c1,.18.8.88.73,1.54S178.51,865.62,179.27,865.82Z"/>
                    <path class="cls-2" d="M167.65,866.36c.44-.14.61-.39.53-.79-.5-2.34.55-4.12,2.58-5.8-2.33-.51-4.21.39-6.14.07a2.35,2.35,0,0,0-3,2.71C161.79,865.23,164.93,867.21,167.65,866.36Z"/>
                    <path class="cls-2" d="M182.55,631.79c-1.49-.22-3-.31-4.69-.46a5.07,5.07,0,0,0-1,0c-.68.09-1.47.19-2.24.34-4.24.83-5.56,2.85-4.4,6.77.3,1,.72,2,2,2.1s2-.69,2.55-1.7c.67-1.17.68-2.53,1.3-3.7a1.87,1.87,0,0,1,2-1.22,1.9,1.9,0,0,1,1.61,1.53,3.42,3.42,0,0,1-1.05,3.29,12.12,12.12,0,0,0-2.93,4c-.4,1-.25,1.67,1,1.71,2.66.06,4.58-1.79,7-2.51.83-.25,1.07-1.8,1.29-2.85a14.71,14.71,0,0,1,.68-2.39C186.61,634.39,185.25,632.2,182.55,631.79Z"/>
                    <path class="cls-2" d="M168.37,854.13c-1.06-1-2.16-.46-3,.33s-1.54,1.68-.89,2.69,1.88.62,2.9.42a6.78,6.78,0,0,0,1.18-.51,4.83,4.83,0,0,1,4,0,8.41,8.41,0,0,0,4.5.74,4.81,4.81,0,0,0,.93,0c.9-.17,2.26.58,2.63-.6s-.44-2.15-1.35-2.95a5,5,0,0,0-1.81-.9,8.17,8.17,0,0,0-6.62.9C170,854.67,169.25,854.93,168.37,854.13Z"/>
                    <path class="cls-2" d="M180.58,801.27c1.83-13.41,2.75-26.9,3.33-40.41.42-9.65.62-19.32.77-29,.16-10.68-.15-21.35-.76-32-.17-3-.39-6.07-2.11-8.76-.25-.39-.44-1-1.07-.81-.42.1-.41.55-.45.9-.9,6.58-2.09,13.13-2.7,19.75-.69,7.56-1.39,15.11-2,22.68-.77,10.47-1.18,21-1.77,31.43-.4,6.92-.44,13.86-.61,20.79-.25,10.08-1,20.17-.08,30.24a51.94,51.94,0,0,0,1.38,9.67,14.05,14.05,0,0,0,.76-1.39A117.1,117.1,0,0,0,180.58,801.27Z"/>
                    <path class="cls-2" d="M112.13,873.59c-.7-.28-3.82,1.61-3.77,2.33a6.39,6.39,0,0,0,.8,3.42c1.52,2,1.07,3.89,0,5.85a5.23,5.23,0,0,0-.59,4.28c.28,1.26.74,2.36,2.49,1a1.26,1.26,0,0,1,1.08-.06c1.91.42,2.75-.19,2.6-2a13.44,13.44,0,0,0-2.16-6.5,3,3,0,0,1-.5-2.33,21.13,21.13,0,0,0,.68-4.6C112.72,874.42,112.75,873.83,112.13,873.59Z"/>
                    <path class="cls-2" d="M99,875.09a2.49,2.49,0,0,0-2.65,1.57,3.14,3.14,0,0,0-.26,1.57,10,10,0,0,1-1.57,7.85A6,6,0,0,0,94,887.6c-.62,2-.44,2.22,1.7,2.45a4,4,0,0,1,1.06.45c1.85-4.42,1.28-9.13,2.58-13.58C99.47,876.36,99.92,875.16,99,875.09Z"/>
                    <path class="cls-2" d="M103.59,874c-1.47.46-2.44,1.22-2.08,2.85a11.21,11.21,0,0,1-1.4,9.06,7.22,7.22,0,0,0-.66,2.59c-.29,1.4,0,2.32,1.79,1.74a1.32,1.32,0,0,1,1,.17c1.51.74,2.15.34,2.13-1.37a20,20,0,0,0-.24-3.37,17.51,17.51,0,0,1,.39-8.47,17.48,17.48,0,0,0,.41-2.27C104.77,874,104.37,873.77,103.59,874Z"/>
                    <path class="cls-2" d="M84.42,804.1c.93,5.66,1.65,11.34,2.76,17,.93,4.72,1.72,9.44,5.09,13.61.67-1.6,1.37-3,.4-4.42-1.47-2.22-1.89-4.77-2.45-7.24a95.72,95.72,0,0,1-1.82-11.95c-.59-6.37-2.15-12.63-2.65-19-.1-1.23-.28-2.45-.47-3.68-.38-2.38-1-4.73-1.17-7.17-.33-4.2-.23-8.45-.83-12.58-.8-5.46-.53-10.9-.61-16.34-.11-7.94.3-15.89.38-23.84,0-4.44-.09-8.89-.24-13.34-.23-6.78-.41-13.59.7-20.34.48-2.93.89-5.87,3.84-7.78,1.25-.8.48-4-.95-4.35-1.13-.32-1.16-1-.68-1.75a8.17,8.17,0,0,1,1-1.07c.47-.48,1.07-1,.58-1.69a2.07,2.07,0,0,0-2-.64A1.91,1.91,0,0,0,83.64,679a9.79,9.79,0,0,0-.19,6,6,6,0,0,1,.1,3.5,84.88,84.88,0,0,0-2.35,19.56c0,3.14-.16,6.29-.41,9.42-.83,10.34-1.37,20.7-1.42,31.08,0,2.07.44,4.11.36,6.21a81.64,81.64,0,0,0,.08,8.71c.51,7.38,1.21,14.76,2.17,22.11C82.79,791.76,83.41,798,84.42,804.1Z"/>
                    <path class="cls-2" d="M94.29,877.93c-.09-.6-.15-1-.69-1.11s-.9.32-1.07.82a5.82,5.82,0,0,0-.15,2.65,5.47,5.47,0,0,1-1.15,4.2,11.73,11.73,0,0,0-2.08,4c-.17.71-.6,1.67.49,2a1.52,1.52,0,0,0,1.91-1.3c.43-1.89,1.44-3.57,2-5.41A19.61,19.61,0,0,0,94.29,877.93Z"/>
                    <path class="cls-2" d="M168.54,456.91c3.52-.46,6.69.23,9.29,2.78,1.68,1.66,5.67,1.41,7.28-.41a33.13,33.13,0,0,1,7.16-6,7,7,0,0,0,1.72-1.61,58.94,58.94,0,0,0,7.21-11.28c1.45-3,2.63-6.48,1-9.69-1.52-3-.76-5.6.95-7.9,3.17-4.26,3.73-9.09,4.08-12.64a37.28,37.28,0,0,0-1.52-11.81c-2.41-8.38-6.25-16-14.23-20.78-6.26-3.76-13.08-3.85-17.34,3.59-2.35,4.09-3.93,8.5-6.22,12.61-2.55,4.57-4.69,9.37-8.53,13.17-.58.57-.37,1.05,0,1.6a22.25,22.25,0,0,1,2.93,7.89,2.43,2.43,0,0,0,2.22,2.23,11.88,11.88,0,0,1,6.21,3.15A20.05,20.05,0,0,1,176.84,438c-.57,9.26-7.56,15.64-17.26,15.66a38,38,0,0,0-9,.58c-1.15.29-2.5.72-3.67.25s-.67-1.85-1.27-2.68l-.1-.15c-1-1.24-.72-2.45.13-3.63a8.68,8.68,0,0,0,1.51-5.07,18.85,18.85,0,0,1,1.87-8.67c1.68-3.11,4.46-5.09,7.17-7.2,2.37-1.85,4.25-4.21,4.31-7.08a18.44,18.44,0,0,0-6.19-14.83,3,3,0,0,0-3.45-.62c-1.59.69-3.28,1.22-4.79,2.05a17.46,17.46,0,0,1-7.73,1.89c-3.9.19-7.24-1.48-10.74-2.77-5-1.86-5.28-2.42-9.26,1.84-3.41,3.63-4.83,8.09-3.18,13a17.07,17.07,0,0,0,7.13,8.75c5.38,3.52,8.24,7.9,5.8,14.31a3.17,3.17,0,0,0,1.13,3.57,10.45,10.45,0,0,1,2.52,2.87,2.9,2.9,0,0,1-.31,3.22c-.73,1-1.71.48-2.58.25a35.57,35.57,0,0,1-3.92-1.22,18.61,18.61,0,0,0-6.84-1.59,13.74,13.74,0,0,1-6-1.86c-10.14-5.21-9.82-20.93-3.27-26.21,2.24-1.81,4.16-3.95,3.93-7.13a3.73,3.73,0,0,1,.51-2.25c2.22-3.32,1-5.95-1.21-8.84a16.61,16.61,0,0,1-3.7-11.58,15,15,0,0,0-.64-4.41c-1-4.16-3.72-7.2-7-10-3.43-2.92-7.39-4.1-11.75-2.58a26.09,26.09,0,0,0-10.23,7.1c-5.66,6.05-10.28,12.71-12.22,20.81a26.13,26.13,0,0,0,.2,14.46,15.11,15.11,0,0,0,6.36,8.55,72.19,72.19,0,0,0,6.42,3.32c2.51,1.24,3.25,2.66,3,5.38a14.55,14.55,0,0,1-1.56,4.94c-1.68,3.52-2.88,7.11-2,11.08a3.62,3.62,0,0,0,1.65,2.44,25.22,25.22,0,0,1,8.35,8.34,2.59,2.59,0,0,0,2.1,1.26,19.47,19.47,0,0,0,10.92-1.78c2.61-1.18,4.69-3.17,7.32-4.3,1.35-.59,2.71-1.34,4.25-1.11a23.21,23.21,0,0,1,10.62,4.19,17.93,17.93,0,0,0,11,3.5,69.28,69.28,0,0,0,26.94-5.38A23.89,23.89,0,0,1,168.54,456.91Z"/>
                    <path class="cls-2" d="M149.1,440.23c-.17,3.07-.35,6.06-2.24,8.72-.91,1.29.33,2.24.85,3.26.42.84,1.25.5,2,.44a34.51,34.51,0,0,0,9.41-2.32c8.44-3.15,14.31-10.81,14.33-18.66,0-5.93-3.63-10.4-9.5-11.73-1-.22-1.62-.15-1.87.85-1.07,4.3-4.22,7-7.75,9.54A12.33,12.33,0,0,0,149.1,440.23Z"/>
                    <path class="cls-2" d="M127.28,439.09c0-3.54-.69-4.74-4.13-7.33-3.8-2.86-7.46-5.85-9.26-10.35-.45-1.14-1.07-1.16-1.84-.16a12.68,12.68,0,0,0-2.73,9.1c.57,6.32,2.8,12,8.09,16.19a29.88,29.88,0,0,0,11.37,5.29c.51.13,1.15.37,1.55-.2s0-1-.21-1.51a5.51,5.51,0,0,0-1.77-2.06c-2-1.46-2.2-3.34-1.59-5.46A10.42,10.42,0,0,0,127.28,439.09Z"/>
                    <path class="cls-2" d="M109.33,860.14c-2.44.21-4.8-.28-7.41-.12,2.36,1.37,3,3.38,2.81,5.72a.82.82,0,0,0,.64.94c2.52.77,6-1.48,6-4C111.33,861.41,110.72,860,109.33,860.14Z"/>
                    <path class="cls-2" d="M88.32,894.86c-.33-.28-.49.21-.52.5a28.27,28.27,0,0,1-4.7,12c-.54.83-.22,1.21.78,1.13a1.27,1.27,0,0,1,1.46.82c.15.41-.06,1.14.65,1.09s.77-.76.86-1.26c.33-1.88.54-3.77.9-5.65s.38-4.18,2.3-5.7a2.21,2.21,0,0,0,.66-1.85C90.21,895.09,89,895.45,88.32,894.86Z"/>
                    <path class="cls-2" d="M108.1,478.09a4.19,4.19,0,0,0,3.6.9,18.49,18.49,0,0,0,11.85-8.74c.6-1,.44-1.47-.81-1.81-2.16-.58-4.28-1.3-6.38-2.07a17,17,0,0,0-6.58-1.15,18.69,18.69,0,0,0-7.51,1.42c-.74.28-1.52.66-1.06,1.62C103,471.89,104.68,475.54,108.1,478.09Z"/>
                    <path class="cls-2" d="M172.9,884.54a7,7,0,0,1-.51-5.39c.14-.64.26-1.28.44-1.9.43-1.47-.08-2.45-1.37-2.79-1.67-.76-2.15-.35-2,1.39.26,2.53,1,5,.55,7.6-.36,1.86-.74,3.72-.94,5.6s.39,2.13,2.13,1.52a1.31,1.31,0,0,1,.87-.05c2,.88,2-.6,2-1.66A9.08,9.08,0,0,0,172.9,884.54Z"/>
                    <path class="cls-2" d="M264.19,457.48c.34-.24.19-.64.09-1a6.37,6.37,0,0,1,0-3.84,1,1,0,0,0-.51-1.36.8.8,0,0,0-1.07.43c-.38.85-1.43,1.62-.5,2.7.53.6.89,1.13.34,1.88-.35.48.05.77.48.94S263.77,457.78,264.19,457.48Z"/>
                    <path class="cls-2" d="M265.5,518.05c.7.28.77-.37.77-.85a17.33,17.33,0,0,1,1.58-8.12,1.34,1.34,0,0,0-.43-1.63c-.27-.26-.61-.49-1-.23a1.36,1.36,0,0,0-.55,1.43c.3,1.44-.33,2.63-.71,3.94-.54,1.91-1.82,3.6-1.86,5.77C264.11,518.33,264.68,517.73,265.5,518.05Z"/>
                    <path class="cls-2" d="M245.1,484.26a12.43,12.43,0,0,1,.49-4.93c.14-.52.3-1,.41-1.55s.25-1.42-.72-1.53-.91.67-.87,1.25c.15,2.37-1.11,4.33-1.84,6.44-.17.5-.66,1.17-.21,1.47.65.44,1.51-.2,2.37,0C245.15,485.58,245.12,484.72,245.1,484.26Z"/>
                    <path class="cls-2" d="M268.18,500.54a19.85,19.85,0,0,1,.42-6.7c.15-.48.44-1.06-.11-1.49a1.16,1.16,0,0,0-.86,0c-.62.24-.62.8-.58,1.35a16.12,16.12,0,0,1-.64,5.44c-.2.74-.42,1.48-.6,2.23s0,.87.91.91C268.33,502.35,268.22,501.52,268.18,500.54Z"/>
                    <path class="cls-2" d="M249.39,471.86c.1-.73.25-1.43.28-2.14a19.91,19.91,0,0,1,2.74-9.1,11.39,11.39,0,0,0,.86-2.14c.21-.65.07-1.17-.8-1.27-.72-.08-1.39-.14-1.51.8-.59,4.79-3,8.95-4.73,13.35-1,2.63-1,2,1.49,2.5C249.45,474.19,248.8,472.51,249.39,471.86Z"/>
                    <path class="cls-2" d="M266.84,487.12a21.56,21.56,0,0,1,.13-4.25c.18-.93.36-1.86.47-2.79.06-.6,0-1.33-.8-1.42-1-.11-.77.73-.79,1.27-.1,2.5-.23,5-1.53,7.17,0,.6-.61,1.24.14,1.65S266.84,488,266.84,487.12Z"/>
                    <path class="cls-2" d="M269.53,449.93a2.09,2.09,0,0,0-1.09-2.3,12.27,12.27,0,0,0-1.94-.65,6.64,6.64,0,0,0-3.48-.27c-.75.13-.9.39-.64,1.08a6.47,6.47,0,0,0,5.34,3.36C268.56,451.07,269.39,450.83,269.53,449.93Z"/>
                    <path class="cls-2" d="M261.64,473.63a22.17,22.17,0,0,1,1-9.3,15.21,15.21,0,0,0,.48-2.79c.08-.66.4-1.59-.69-1.72s-1,.83-1,1.5a62.78,62.78,0,0,1-1.85,10.46c-.38,1.43-.81,2.85-1.13,4.29-.15.67-.09.93,1,.84C261.71,476.71,261.84,475.29,261.64,473.63Z"/>
                    <path class="cls-2" d="M255.17,475.56a40.54,40.54,0,0,1,3.09-15.26c.24-.54.58-1.33-.54-1.53-.88-.16-1.54,0-1.71,1-.35,2.22-.46,4.5-1.39,6.6-1.13,2.55-1.6,5.34-2.63,7.37-.71,2.54-.75,3-.39,3.24C252.57,477.71,255.13,476.71,255.17,475.56Z"/>
                    <path class="cls-2" d="M182.13,906.63c-1.71-3.24-3.11-6.56-3.18-10.23,0-.57.1-1.41-.7-1.46a3,3,0,0,0-2.35.72c-.44.5,0,1.17.41,1.62a6.49,6.49,0,0,1,1.6,4.46c.09,2.12.83,4.21.62,6.38a5.12,5.12,0,0,0,.41,1.74c.08.29.23.59.59.61s.54-.27.59-.57c.17-.94.81-1.23,1.72-1.2a.74.74,0,0,0,.78-.43A2.42,2.42,0,0,0,182.13,906.63Z"/>
                    <path class="cls-2" d="M256.41,455.53a1.62,1.62,0,0,0,1.41-.19c.56-.46.45-1,.17-1.63s-.82-1.42-.17-2.15c.29-.32.68-.15,1,.08s.89.57,1.26,0,.05-.92-.23-1.33-.8-.8-1.41-.46c-1.2.69-2.57,1.25-2.74,2.87a14.47,14.47,0,0,0-.19,1.58A1.09,1.09,0,0,0,256.41,455.53Z"/>
                    <path class="cls-2" d="M206,476.12a5.35,5.35,0,0,0-5.08-.94c-1.93.59-3.55,1.78-5.45,2.34-.56.16-1.12.12-1.26.85a1.49,1.49,0,0,0,.69,1.63,17.37,17.37,0,0,0,3.35,1.65c2.34.9,3.08,2.61,2.28,5a20.92,20.92,0,0,1-2.17,5,18.59,18.59,0,0,0-2.79,10.85c0,3.61.74,7.2.4,10.29a132.06,132.06,0,0,1-1.66,21c-1.69,12-3.77,24-6.16,35.94-.79,3.9-1.12,7.91-2.06,11.76-1.37,5.66-2.41,11.39-3.57,17.08-1.81,8.88-4.07,17.65-6.26,26.42s-4.83,17.7-6.62,26.71a5,5,0,0,0,.34,3.52,3.92,3.92,0,0,1-.52,4.59,17.84,17.84,0,0,0-2.24,3.73c-1.15,2.84,0,5.84,2.7,6.7a11.09,11.09,0,0,0,4.25.5,2.26,2.26,0,0,0,2.35-2.4c.05-1.4,0-2.79.05-4.19,0-.72.1-1.46,1-1.63a1.76,1.76,0,0,1,1.75.87c.74,1,.73,2.14,1,3.24.32,1.45.57,2.93,2.33,3.3a4.57,4.57,0,0,0,5-2.14,6.53,6.53,0,0,0-4.09-9.93,6.34,6.34,0,0,1-2.67-1.26c-1.1-.86-1.4-1.69-.45-3a13.22,13.22,0,0,0,2.42-9.37,46.46,46.46,0,0,1-.31-10.21c.57-5.74,1.34-11.45,2.21-17.14,1-6.44,2.33-12.84,3.45-19.26,1.23-7.11,2.23-14.27,3.62-21.35q2.81-14.25,6.11-28.39,3.54-15.06,7.29-30c1.47-5.89,3-11.77,4.34-17.7s2.1-11.72.73-17.7A10.63,10.63,0,0,0,206,476.12Z"/>
                    <path class="cls-2" d="M184.21,889.49c-1.45-3.35-3.28-6.62-2.41-10.41a1,1,0,0,0-1-1.29c-.74,0-.77.57-.86,1.12-.66,4.2,1.1,8.09,2.08,12.08.17.73.9.75,1.52.76s.81-.22,1-.85A6.93,6.93,0,0,0,184.21,889.49Z"/>
                    <path class="cls-2" d="M179,886.49a8.69,8.69,0,0,1-1-7.22,9.24,9.24,0,0,0,.1-1.07,1.78,1.78,0,0,0-1.49-2.13c-1.32-.65-1.74-.14-1.6,1.09.19,1.65.82,3.39.51,4.94-.55,2.82.56,5.44.73,8.15,0,.37,0,.89.59,1,2.57.25,3.28-.58,2.68-3.17A4.71,4.71,0,0,0,179,886.49Z"/>
                    <path class="cls-2" d="M187.25,904.84a22.25,22.25,0,0,1-4.11-9.6c-.07-.46-.08-1.27-.91-1.07s-1.59.41-1.47,1.49a3.2,3.2,0,0,0,.83,1.78,6.6,6.6,0,0,1,1.54,3.42c.31,2.14.81,4.25,1.26,6.37.11.47.62,1.42.78,1.11a3.14,3.14,0,0,1,2.42-1.87A1.58,1.58,0,0,0,187.25,904.84Z"/>
                    <path class="cls-2" d="M216,178.57c.72-2,2.14-3.48,3.3-5.18a5.48,5.48,0,0,0-1.39.91c-2.33,2.1-4.89,2-7.58.76-.78-.38-1.55-.76-2.31-1.17a45.59,45.59,0,0,0-9.07-3.67c-5.12-1.53-10,.48-14.91.93-2,.18-2.3,1.26-1.31,3a8.41,8.41,0,0,1,1.1,3.38,5.26,5.26,0,0,0,1.76,3.39c2.27,2.34,4.12,4.95,4.59,8.2a4.37,4.37,0,0,0,1.65,2.82c4.48,4,7,8.75,5.22,14.81a1.92,1.92,0,0,0,.65,2.06c4.79,5,5.47,10.79,2.84,16.87-.94,2.18-.54,4,.08,6,.56,0,.5-.37.54-.64.71-5.11,1.55-10.2,2.29-15.31,1.38-9.51,4-18.63,10.75-26.14,1.17-1.3,2.11-2.42.67-4.09a2.43,2.43,0,0,1-.18-1.73A23.92,23.92,0,0,1,216,178.57Z"/>
                    <path class="cls-2" d="M259.31,440.68c.64-.17.57-.85.62-1.37a8.12,8.12,0,0,0-.69-4c-.3-.7-.73-1.49-.1-2.19a1.81,1.81,0,0,1,2.24-.19c.33.15.72.32,1,0s.16-.81-.08-1.14c-.63-.88-1.4-1.68-2-2.58-4-6.26-5.18-13.42-7.21-20.31-1.64-5.59-1.22-11.41-2-17.09-.65-4.64-.94-9.33-1.66-14-2-12.56-2.57-25.25-4.14-37.85-.46-3.68-.81-7.46-3-10.76a1.43,1.43,0,0,1,.52-2.17c.57-.36,1.16-.69,1.73-1.05,3.88-2.38,6.5-7.41,2.38-12-.73-.82-1.49-1.93-2.68-1.58s-.52,1.52-.49,2.37a1.36,1.36,0,0,1-1.38,1.57c-.91,0-1-.73-1.06-1.4-.3-2.61-.65-2.93-3.29-3-3-.1-4,.74-3.82,3.63a10.41,10.41,0,0,0,3.33,7,3.47,3.47,0,0,1,.93,3.9,24.17,24.17,0,0,1-1.07,2.83,2.35,2.35,0,0,0,.1,2.39,35.4,35.4,0,0,1,4,11.25c1.47,6.77,2.79,13.55,3.64,20.44.8,6.45,1.5,12.93,2.69,19.35,1,5.12,1.17,10.37,2,15.53,1.8,11.57,3.39,23.16,5.8,34.64a22.12,22.12,0,0,0,2.33,6.74C258.3,440.12,258.51,440.89,259.31,440.68Z"/>
                    <path class="cls-2" d="M258,446.44a1.16,1.16,0,0,0,1.35.7,1.36,1.36,0,0,0,1-1.32c0-1.14-1.13-.84-1.29-.94a3.72,3.72,0,0,0-4.65.69.92.92,0,0,0-.14,1.16,1.11,1.11,0,0,0,1.07.59.54.54,0,0,0,.53-.6c0-.57-.17-1.29.74-1.35C257.37,445.32,257.66,445.9,258,446.44Z"/>
                    <path class="cls-2" d="M224.53,180.29c1.93-1.56,4.34-2,6.65-2.62,1-.29,1.69-.73,1.58-1.85-.13-1.55-1.19-2.23-2.65-2.53-5.48-1.13-11.71,2.86-13,8.23a2.58,2.58,0,0,0,1.41,3.15c1.2.66,2-.28,2.71-1C222.41,182.62,223.28,181.31,224.53,180.29Z"/>
                    <path class="cls-2" d="M236.89,302c.74-1.14,1.5-1.21,2.37-.25a17.84,17.84,0,0,0,2.77,3c1.32.91,2.88.53,4.09-.89s.37-2.22-.66-3.09a31.3,31.3,0,0,1-2.35-2.11,1.43,1.43,0,0,1-.36-2,1.52,1.52,0,0,1,1.85-.45,8.62,8.62,0,0,0,3.09.6c.74,0,1.58,0,1.95-.82a2.12,2.12,0,0,0-.47-2.07,7,7,0,0,0-6.14-3.29c-4.28-.05-5.06-3-4-6.2a21.42,21.42,0,0,0,1-9.13c-.65-5.62-1.26-11.25-2-16.87-.52-4-1.2-8-1.81-12-.73-4.81-1.44-9.62-2.19-14.42-1.32-8.55-.26-17.08.86-25.59.59-4.52,1.33-9,.85-13.61a4.4,4.4,0,0,0-2.57-4,2.21,2.21,0,0,1-1.47-2.78,3.12,3.12,0,0,0-1.44-3.36c-.45-.32-1-.73-1.53-.38s-.18,1,0,1.49a9.55,9.55,0,0,1,1,4.29c-.06,1.5-.55,3.09-2.05,3.38s-1.61-1.4-2-2.46c-.9-2.43-3-2.86-4.7-.87a9,9,0,0,0-1.87,9c1.07,3.21,2.49,6.31,3.88,9.41,3.68,8.15,6.46,16.52,6.89,25.53.26,5.53.89,11,1.2,16.56.29,5,.19,10.1.16,15.14-.06,7-.18,14,0,21,.1,3.65.42,7.42-1.57,10.82a6.25,6.25,0,0,0-.67,4.21c-.12,3.09,1.51,4,3.09,4.58C234.21,305.12,235.22,304.58,236.89,302Z"/>
                    <path class="cls-2" d="M166.57,876.37a2.81,2.81,0,0,0,.35-1.18c.08-.44,0-1-.46-1.09-1.33-.31-2.35-2.1-3.58-1.5s-.47,2.25-.35,3.46a16.2,16.2,0,0,0,.33,2,1.27,1.27,0,0,1-.16,1.18c-1,1.23-1.22,2.82-1.73,3.89l-1.29,3.5c-.41,1.11-.13,2.85.68,2.81,1.63-.07,3,.94,4.59.62.17,0,.31-.35.4-.57a3.7,3.7,0,0,0,.4-2.58C164.77,883.24,164,879.65,166.57,876.37Z"/>
                    <path class="cls-2" d="M193.64,206.78c-1.9,4.87-5.88,7.83-10.32,10.46a76.14,76.14,0,0,1-14,6c-6.61,2.3-13.35,2.8-20.14.54-.66-.22-1.5-1.12-2-.37a2.77,2.77,0,0,0,.09,2.79c.45.89,1.46.8,2.32,1,4.81,1.1,9.48-.32,14.14-.88a51.05,51.05,0,0,0,21.79-7.54c4.76-3.06,7.43-7.34,9.06-12.77-.45.22-.57.25-.64.33A1.39,1.39,0,0,0,193.64,206.78Z"/>
                    <path class="cls-2" d="M188.06,209c-.4-1.41-2.54-1.37-3.91-2l-.16-.06c-.63-.18-1.09,0-1.19.64-.33,2.21-.62,4.43-1,7a12.31,12.31,0,0,0,3.73-2.49C186.49,211.05,188.42,210.28,188.06,209Z"/>
                    <path class="cls-2" d="M195.5,213.27c-.59-.15-.77.41-1,.76-.71.91-1.41,1.81-2.1,2.74-.84,1.13-2.92,1.91-2.62,3.14s2.5,1.45,3.72,2.34c.14.1.31.16.46.25.73.5,1.16.22,1.54-.45a9.3,9.3,0,0,0,1-4.8c-.08-.95-.13-1.91-.26-2.86C196.09,214,196,213.4,195.5,213.27Z"/>
                    <path class="cls-2" d="M189.91,197a18.7,18.7,0,0,1-4,5.33c-.42.43-.47.83.1,1.08,1.54.69,3.16,2.34,4.59,1.81s1.26-2.83,1.5-4.42a7.32,7.32,0,0,0-.91-3.78C190.81,196.41,190.29,196.17,189.91,197Z"/>
                    <path class="cls-2" d="M186.14,231.91a28,28,0,0,0,5.65-4.68c.41-.43.62-1,0-1.31a28.88,28.88,0,0,0-6.5-3,2,2,0,0,0-2.18,2.54c.56,1.92,1.15,3.82,1.69,5.74C185,231.92,185.27,232.46,186.14,231.91Z"/>
                    <path class="cls-2" d="M108.13,61.17a3,3,0,0,1,1.28,4.23c-.75,1.59,0,2.66,1.48,3.41a6.81,6.81,0,0,0,2.84.78c5,.19,8.61-2.36,11.49-6.06,1.1-1.39,1.93-3,3-4.42.37-.51.85-1.2,1.66-.93s.87,1.11.88,1.85c0,2.34-1.22,4.2-2.54,6a36.72,36.72,0,0,0-5.34,9.18c-1,2.69-1.48,5.36-.27,8.18A5.08,5.08,0,0,0,128,86.73c2.86-.44,5.72-.19,8.57-.31,3.55.06,7.11.24,10.57-.76,5.7-1.66,8.26-4.56,4.27-10.29-2.77-4-5.17-8.19-8-12.13a4.38,4.38,0,0,1-.77-4.34c.57-1.37,1.45-1.6,2.56-.63a11.57,11.57,0,0,1,2.34,2.6A24.5,24.5,0,0,0,153.05,67a11.1,11.1,0,0,0,9.08,2.43c2.81-.49,3.65-1.84,3-4.53-.55-2.31-.11-3.39,2.05-4.48a8.61,8.61,0,0,0,4.35-4.58c.45-1.13.8-2.3,1.17-3.47a21.12,21.12,0,0,0-2.23-18.13,30.14,30.14,0,0,1-4.92-12.84c-.23-2-.52-4-.86-6A15.45,15.45,0,0,0,154.28,2.72C149,.73,143.52.2,138,0a48.77,48.77,0,0,0-12.15,1.64c-9.18,2.07-15.14,8.55-16.06,17.66a19.18,19.18,0,0,1-4.23,10.39c-4.73,5.83-5.37,12.57-4.31,19.61C102,54.11,103.71,58.38,108.13,61.17Z"/>
                    <path class="cls-2" d="M58.12,164.23c-.31,0-.68.06-.79.38s.25.61.55.81a13.63,13.63,0,0,0,4.79,2.3c4.59,1.06,8.81-.37,13.2-1.64a1.37,1.37,0,0,0-1.16-.9C69.27,163.48,63.71,163.62,58.12,164.23Z"/>
                    <path class="cls-2" d="M48.09,169.35a4.1,4.1,0,0,0,2.4-1.58,15.08,15.08,0,0,1,4.26-3.65c4.55-2.47,9.69-2.38,14.54-2.51a35.25,35.25,0,0,1,15.17,3.17c1.91.86,3.74,2.12,5.74,2.46,4,.7,8.14.89,12.22,1.28a3.63,3.63,0,0,0,3-1.48c-.25-.11-.36-.21-.46-.2a42,42,0,0,1-20.76-3.07,43.55,43.55,0,0,0-18.73-3.47c-3.4.15-6.84.39-9.83,2.33-2.31,1.49-4.68,2.91-7.06,4.32a3.76,3.76,0,0,0-1.33,1.2c-.2.32-.4.65-.16,1S47.72,169.43,48.09,169.35Z"/>
                    <path class="cls-2" d="M91.8,181.65a8.41,8.41,0,0,0,2,5.36c1.87,2.26,4.74,2.79,7.2,3.89,8.16,3.65,17.1,4.28,25.88,5.5.83.11,1.87.38,1.82-1.07,0-1.08.21-2.13-1.57-2.27A127.75,127.75,0,0,1,110,190.38c-4.15-.9-8.23-2.08-11.47-4.89-4.91-4.26-5.18-8.09-.69-12a35.43,35.43,0,0,1,3.1-2.29c.46-.32,1-.65.64-1.19s-.86,0-1.22.22a30.48,30.48,0,0,0-2.76,1.88C94.48,174.62,91.88,177.44,91.8,181.65Z"/>
                    <path class="cls-2" d="M180.86,230.81c.83-1-.3-2.66-.72-4a4.78,4.78,0,0,0-.19-.48,1,1,0,0,0-1.43-.64l-8.65,2.63c2.77.71,5,1.31,7.25,1.83C178.41,230.43,180.14,231.66,180.86,230.81Z"/>
                    <path class="cls-2" d="M167.93,205.28a77.54,77.54,0,0,1-21,1.35c-.94,0-1.36.15-1.2,1.11a8.57,8.57,0,0,1,.1,1.52c0,1,.38,1.16,1.41,1.19,3.43.09,6.83-.06,10.25-.25,8.89-.51,17.47-1.64,24.22-8a39.14,39.14,0,0,0,3.68-3.47,10.89,10.89,0,0,0,2.46-6.16c-.88.88-1.07,2-1.8,3C181.51,201.35,174.88,203.7,167.93,205.28Z"/>
                    <path class="cls-2" d="M175.33,198.49c-.27-1.28-.56-2.55-.88-3.82a.82.82,0,0,0-1.22-.61,53.52,53.52,0,0,1-6.88,2.2l0,.48c2.7.81,5.4,1.64,8.11,2.44C175.12,199.37,175.45,199.09,175.33,198.49Z"/>
                    <path class="cls-2" d="M176.26,213.53c-.09-1.24-.27-2.48-.33-3.72-.05-1.05-.46-1.26-1.47-.89-1.49.54-3,1-4.56,1.46s-3.27.83-4.91,1.24c3.45,1.06,6.83,2,10.21,3C176.15,214.89,176.32,214.24,176.26,213.53Z"/>
                    <path class="cls-2" d="M146.26,217.79c0,1.71.87,2.62,2.66,3.08a34.41,34.41,0,0,0,14.49.76,43.31,43.31,0,0,0,9.32-2.4c-.29-.61-.7-.55-1-.63a201,201,0,0,0-22.07-4C145.11,214,146.17,214,146.26,217.79Z"/>
                    <path class="cls-2" d="M148.39,199c-3.46.51-3.55.58-3.25,3.93.08,1,.49,1.44,1.53,1.46,7.42.16,14.78-.09,22-2.68-2.41-.52-4.81-1.08-7.23-1.55C157.16,199.29,152.87,198.31,148.39,199Z"/>
                    <path class="cls-2" d="M148.71,230.62c-.47,0-1,0-1.2.53s.23.73.51,1a22.75,22.75,0,0,0,5.2,3.88,24,24,0,0,0,14.41,3.7c4.12-.34,7.83-1.9,11.52-3.52.45-.2,1.17-.31,1.08-1s-.73-.51-1.17-.63a116.13,116.13,0,0,0-26.95-4C151,230.62,149.84,230.6,148.71,230.62Z"/>
                    <path class="cls-2" d="M14.72,407.31a35.34,35.34,0,0,0,0,10.37,46.75,46.75,0,0,0,2.15-5.48,127.3,127.3,0,0,0,5.62-31.32c.72-11.42,2.36-22.79,3.5-34.18.57-5.78,1.43-11.54.95-17.38-.13.69-.28,1.38-.39,2.07-1,6.52-2,13-3.1,19.55C20.42,369.71,17.11,388.45,14.72,407.31Z"/>
                    <path class="cls-2" d="M146.46,248.42a30.41,30.41,0,0,0,23.83,9.18c7.52-.23,14.35-2.37,20.12-7a17.73,17.73,0,0,0,4.53-6.14c-6.2,7.24-14,11.81-23.78,12.41s-18-2.9-24.87-9.62A.88.88,0,0,0,146.46,248.42Z"/>
                    <path class="cls-2" d="M161.05,260.14a3.91,3.91,0,0,0-3.49.56c-.89.59-1,1-.09,1.66,1.36.92,2.67,1.92,4.06,2.79,3.54,2.2,7.28,3.91,11.29,4a18.53,18.53,0,0,0,5.6-.87c.86-.25,2.28-.22,2.35-1.14.06-.76-1.35-.9-2.14-1.22A162.92,162.92,0,0,0,161.05,260.14Z"/>
                    <path class="cls-2" d="M197.6,224.15a19.48,19.48,0,0,1-4.74,6.15c-6.85,6.32-15.12,10.16-24.32,12.27q-11.39,2.63-19.59-5.38c-.35-.34-.69-1-1.28-.69s-.34,1-.29,1.57a3.1,3.1,0,0,0,1.79,2.21,24.14,24.14,0,0,0,2.42,1.1c9.09,4.18,18.35,5,27.8,1.17a36.19,36.19,0,0,0,15.71-12.2,22.07,22.07,0,0,0,3.54-7.25C197.87,223.26,197.77,223.77,197.6,224.15Z"/>
                    <path class="cls-2" d="M86.1,696.13a124.46,124.46,0,0,0-1,15.78c-.3,14-.23,28,.36,42,.15,3.49.13,7,.37,10.48.74,10.59,1.36,21.18,2.57,31.73,1.07,9.39,2.6,18.7,5.76,27.69.2.57.17,1.3.93,1.67.11-.17.27-.3.28-.45a102,102,0,0,0,1.25-12.92c-.06-9.85.12-19.7-.37-29.55-.27-5.39-.22-10.79-.46-16.18-.42-9.36-.93-18.71-1.45-28.07-.23-4.14-.5-8.28-.86-12.41-.53-5.91-1.16-11.81-1.76-17.71-.58-5.67-1.53-11.29-2.5-16.91-.06-.33,0-.8-.42-.91s-.76.33-1,.68A16,16,0,0,0,86.1,696.13Z"/>
                    <path class="cls-2" d="M169.24,254.19a30.3,30.3,0,0,0,10.67-2.3c.53-.21,1.2-.45,1.09-1.17s-.74-.68-1.24-.82c-1.49-.41-3-.85-4.48-1.14s-3.07-1.07-4.71-.78a28.93,28.93,0,0,1-17.19-2.36,7,7,0,0,0-3.28-.64c-.4,0-.95-.16-1.16.2-.31.53.3.8.62,1.08A30.86,30.86,0,0,0,169.24,254.19Z"/>
                    <path class="cls-2" d="M186.73,264c.3-.35,0-.64-.3-.85a13.11,13.11,0,0,1-3.11-4.11c-.26-.44-.47-.94-1.19-.93-1.3.44-2.68.81-4,1.38-1,.42-.24.75.25,1,2.44,1.16,4.9,2.32,7.35,3.46C186.07,264.11,186.45,264.36,186.73,264Z"/>
                    <path class="cls-2" d="M187.45,247.45a24.53,24.53,0,0,0,5.2-5.07c1.27-1.7,1.24-1.91-.67-2.88-1.69-.86-6.75,2.73-6.72,4.76.12.84.22,1.68.36,2.51C185.82,248,186.44,248.19,187.45,247.45Z"/>
                    <path class="cls-2" d="M44.94,173.86a8.62,8.62,0,0,0-3,.78,2.1,2.1,0,0,0-1.36,2.29c.07,1.1.9,1.26,1.78,1.46,3.58.81,6.87,2.08,8.91,5.28a4.42,4.42,0,0,0,.9.88c.85.73,1.8,1.49,3,.86a2.58,2.58,0,0,0,1.21-3.23C55.1,177.47,50.68,174.1,44.94,173.86Z"/>
                    <path class="cls-2" d="M18.29,446c-.66-.1-1.29,0-1.47.74s.26.85.85.84,1.22-.31,1.41.43a1.54,1.54,0,0,1-.83,1.65c-.61.42-1,.88-.68,1.62a1.32,1.32,0,0,0,1.41.65,1.38,1.38,0,0,0,1.41-1.17l.3-1.3C20.75,447.84,19.5,446.16,18.29,446Z"/>
                    <path class="cls-2" d="M71.44,547.29c1.72,7.9,3.75,15.72,5.19,23.69C78.77,582.85,81,594.71,83,606.6c1.35,7.79,2.66,15.59,3.73,23.43A70.26,70.26,0,0,1,87,645c-.29,3.67.08,7,2.28,10,1.07,1.41.69,2.33-.53,3.14a9,9,0,0,1-2.36,1.12c-4.35,1.29-5.56,3.05-5.18,7.67a4.81,4.81,0,0,0,4.6,4.64c2.35.13,2.9-.46,3.57-3.85a7.63,7.63,0,0,1,1-2.87c.39-.59.9-1.15,1.67-1s1,.93,1,1.62,0,1.66,0,2.49h.1c0,.77-.06,1.54,0,2.3a2.09,2.09,0,0,0,1.89,2.05,8.7,8.7,0,0,0,5.44-1,4.47,4.47,0,0,0,2-5.76,13.89,13.89,0,0,0-1.82-3.34c-.86-1.24-1.91-2.57-1.4-4.2,1.33-4.16.14-8.15-.82-12.07-2.66-10.83-5.69-21.58-8.31-32.42-2-8.11-3.7-16.29-5.17-24.5-.51-2.83-1.71-5.44-2-8.34a60.7,60.7,0,0,0-1.32-8.7c-1.43-6.21-2.38-12.51-3.48-18.77-1.63-9.24-3.12-18.5-4-27.85a116.09,116.09,0,0,1-.2-20.08,24.2,24.2,0,0,0-1-9.25c-1-3.12-2.87-5.79-3.91-8.88-.9-2.66-.18-4.53,2.44-5.33a13.81,13.81,0,0,0,3.27-1.79c.91-.58.82-2.08-.15-2.26-1.41-.27-2.44-1.29-3.72-1.68s-2.76-1.47-4.27-1.14A8.76,8.76,0,0,0,60,480.79a22.7,22.7,0,0,0-1.17,7.15,70.78,70.78,0,0,0,3.06,20c2,7.18,3.63,14.46,5.37,21.7C68.64,535.52,70.15,541.38,71.44,547.29Z"/>
                    <path class="cls-2" d="M39.42,305.88a5.29,5.29,0,0,1-.85-.36c-2.14-1-3.14-.47-3.38,1.78-.13,1.29-.2,2.6-.36,3.89-.07.6-.35,1.27-1.06,1.29s-.63-.74-.72-1.22-.15-1.18-.23-1.77h.08a4.63,4.63,0,0,0,0-1.06c-.2-.78-.12-1.78-1.17-2.05s-1.46.52-2,1.06a7.46,7.46,0,0,0,.1,10.63,18.45,18.45,0,0,0,4,3.13c.92.53,1.35,1.24.5,2.19-1.09,1.24-1.33,2.78-1.72,4.28-1.79,6.76-2.2,13.69-2.81,20.58-.54,6.09-1.32,12.15-2.09,18.21-.89,7-1.92,13.88-2.56,20.85-.35,3.83-.29,7.68-1.14,11.49a160.43,160.43,0,0,1-4.49,16.51c-1.19,3.55-2.41,7.14-5.29,9.89-.33.31-.6.66-.4,1.1s.79.41,1.29.37c2-.14,2.42.37,1.94,2.29a22.31,22.31,0,0,0-.86,3.45c-.06.74-.23,2,.6,2.22,1.05.27,1.45-.93,1.79-1.72a45.1,45.1,0,0,0,2.08-7.19c1.84-7.7,2.85-15.52,4.19-23.29,1.08-6.26,2-12.54,2.75-18.84,1.1-8.57,2.66-17.09,3.79-25.66A201.62,201.62,0,0,1,35,337.07c.72-3,1.12-6.2,2.85-8.81a6.82,6.82,0,0,0,.41-7.52,3.1,3.1,0,0,1,.79-4.05,11.28,11.28,0,0,0,3.33-6.06C43.08,307.68,42.47,306.72,39.42,305.88Z"/>
                    <path class="cls-2" d="M52.62,206.12c1.42-3.38,3.62-6.5,3.87-10.4a8.51,8.51,0,0,0-2.68-6.88c-1.25-1.32-2.65-1.18-3.76.22a4.16,4.16,0,0,0-.78,1.79,1.75,1.75,0,0,1-1.37,1.52c-.74.14-1.06-.52-1.48-.93a3.78,3.78,0,0,1-1.06-3.12,10.09,10.09,0,0,1,1.3-3.49c.19-.44.46-.91-.07-1.28a1.22,1.22,0,0,0-1.4.12,3.42,3.42,0,0,0-1.6,3.22,2.86,2.86,0,0,1-2,3.21,2.8,2.8,0,0,0-1.77,2.13,14.39,14.39,0,0,0-.46,4.75c.43,6.94,1.87,13.77,2.45,20.69a67.42,67.42,0,0,1-.71,15.94Q39.8,242,38.64,250.32c-.62,4.64-1.22,9.28-1.75,13.93-.7,6.15-2,12.28.07,18.49.87,2.66-.17,5.4-3.87,5.08a6.38,6.38,0,0,0-2,.31,7.12,7.12,0,0,0-4.49,2.95c-1,1.58-.38,2.67,1.53,2.74a8.2,8.2,0,0,0,3.1-.53,1.56,1.56,0,0,1,1.88.33,1.41,1.41,0,0,1-.15,2,20.84,20.84,0,0,1-2.11,2c-1.07.92-2.12,1.83-.79,3.26a3.05,3.05,0,0,0,4.46.31,19.07,19.07,0,0,0,1.71-1.88c1.67-2,2-2,3.35.31a3,3,0,0,0,3.33,1.73c1.85-.33,3.58-.92,4.05-2.89a7,7,0,0,0-.36-5.06,16.43,16.43,0,0,1-2.08-8.91,87.28,87.28,0,0,0,.26-8.85c-.3-9.36-.63-18.73-.22-28.07s.48-18.95,3.12-28.22A117.8,117.8,0,0,1,52.62,206.12Z"/>
                    <path class="cls-2" d="M72.24,222.86c.37,3,1.18,5.86,1.53,8.84a6.51,6.51,0,0,0,.39-5.89c-2.65-6.19-1.89-12,2.8-17.07a2.38,2.38,0,0,0,.48-2.45,12.94,12.94,0,0,1,.4-7.36,17.27,17.27,0,0,1,5.3-7.19,3.37,3.37,0,0,0,1.45-2.19,13.49,13.49,0,0,1,4.16-8.16,6.68,6.68,0,0,0,2.39-4.66,6.13,6.13,0,0,1,.89-2.87c.85-1.47.56-2.34-1.2-2.68-3.4-.68-6.84-1.13-10.27-1.63a5.78,5.78,0,0,0-1.48.13,35.13,35.13,0,0,0-13.68,4.9c-2.83,1.68-5.69,2-8.44-.23a3.44,3.44,0,0,0-.61-.29.69.69,0,0,0,.19.88,15.85,15.85,0,0,1,3.2,7.13c.33,1.44.56,3-.32,4.33-.69,1-.34,1.69.43,2.48a34.64,34.64,0,0,1,6.91,10.27C70.1,206.74,71.24,214.79,72.24,222.86Z"/>
                    <path class="cls-2" d="M79.81,476.7a3,3,0,0,0,3.37-2,7.1,7.1,0,0,0-1.07-7.53,2.73,2.73,0,0,0-3.43-1c-1.27.53-2.32,1.38-1.94,3a6,6,0,0,1-.29,3.32C75.56,475.21,76.73,476.66,79.81,476.7Z"/>
                    <path class="cls-2" d="M104.74,857.64a5,5,0,0,0,2.72.42c.6,0,1.18-.26,1.19-.9a3.58,3.58,0,0,0-1.4-2.61,1.83,1.83,0,0,0-2.39-.27c-1.25.93-2.42.61-3.63,0a8.73,8.73,0,0,0-3.63-1c-3,0-5.1,1.49-5.29,3.61,0,.48-.17,1.13.5,1.14,2.27,0,4.64.64,6.79-.31A5.74,5.74,0,0,1,104.74,857.64Z"/>
                    <path class="cls-2" d="M92.18,634c1.18.24,1.44,1.19,1.7,2.12a9.68,9.68,0,0,0,1.48,3.63,2,2,0,0,0,3,.2c2.6-2.73,1.82-6.27-1.7-7.7a12.1,12.1,0,0,0-5.51-.88c-.87.09-2.56.16-4.2.43-2.65.44-3.9,2.34-3.24,4.82.29,1.09.76,2.13,1.11,3.21.54,1.64,1.17,3.12,3.44,3,.67,0,1.23.52,1.76.94a3,3,0,0,0,3.76.31c1-.89-.13-2.08-.78-3-.87-1.16-2-2.16-2.79-3.33a2.53,2.53,0,0,1,0-3A1.84,1.84,0,0,1,92.18,634Z"/>
                    <path class="cls-2" d="M94.83,863.29a1.77,1.77,0,0,1,1.9.32,2.69,2.69,0,0,1,.92,1.69c.17.68.53,1.29,1.39,1.1a2.59,2.59,0,0,0,2.13-1.53,2.11,2.11,0,0,0-.81-2.39c-1.51-1.24-5.58-1.54-7.3-.58a2.37,2.37,0,0,0-1,3.48,1.56,1.56,0,0,0,1.72.76c.81-.23.71-.86.6-1.46S94.18,863.57,94.83,863.29Z"/>
                    <path class="cls-2" d="M101.2,691a4.65,4.65,0,0,0,3.7-3.42c.26-1,.09-1.56-1-1.92-2.17-.71-2.64-1.84-1.58-3.84a1.3,1.3,0,0,0-.18-1.75c-1.72-1.84-3-2.19-4,.26-.55,1.35-1.51,1.68-2.73.53s-2.56-.89-3.7.29a5.62,5.62,0,0,0-.38,6.71,12.57,12.57,0,0,1,1.88,5.37c1.25,7.5.51,15.19,2.85,22.62,1.52,4.85,1.15,10.09,1.51,15.15.59,8.06.81,16.13,1.18,24.2s.49,15.91.67,23.87c.24,10.41.81,20.83.44,31.25-.17,4.78.51,9.54-1.26,14.36a79.78,79.78,0,0,0-3,11.39c-.54,2.65-.67,5.24.64,7.71.57,1.08,1.05,2.62,2.63,2.41s1.35-1.65,1.44-2.78c0-.43.11-.9.62-1a.91.91,0,0,1,1.08.77,9.84,9.84,0,0,1,.82,3.49c-.06.82.35,1.34,1.15,1.31s.79-.83.62-1.37a2.79,2.79,0,0,1,1-3.05,4.1,4.1,0,0,0,1.46-3.23,16.22,16.22,0,0,1-.33-1.93c-.18-4.43-2.51-8.36-2.95-12.8-.85-8.39-1.33-16.79-1.64-25.21-.17-4.6-.1-9.22-.46-13.81q-1.16-14.59-1.43-29.22-.09-4.12-.42-8.24c-.59-7.52-.26-15.05-.63-22.58a6.58,6.58,0,0,1,.72-4,4.36,4.36,0,0,0,.8-3.82,21.56,21.56,0,0,1-.42-3.92c0-6.57-.18-13.1-2.11-19.5C97.41,692.7,98.33,691.71,101.2,691Z"/>
                    <path class="cls-2" d="M14.93,442c-1.57-.67-3.29-.46-4.93-.46-.78,0-1.43.94-1.46,1.83A1.67,1.67,0,0,0,10,445.06a6.54,6.54,0,0,0,1.47.16c1.61,0,2.68.07,3.59-.57.54-.37,1.25-.72,1.2-1.46S15.47,442.27,14.93,442Z"/>
                    <path class="cls-2" d="M3.19,473.86a.78.78,0,0,0-1,.75c0,2.79-1.15,5.28-2,7.86-.6,1.77,1.25.17,1.67.94.32.58.89.14.93-.44.21-2.75-.3-5.58,1.13-7.88C3.86,474.34,3.71,474,3.19,473.86Z"/>
                    <path class="cls-2" d="M6.23,468.6c.52-1.67.3-3.41.46-5.11a52,52,0,0,1,1.82-9.41c.18-.64.33-1.37-.61-1.57s-1.21.42-1.31,1.13a24.47,24.47,0,0,0-.38,3.17,20.47,20.47,0,0,1-1.84,7.91c-.46,1.09-.83,2.22-1.08,2.87-.21,1.94,1.14,2.14,2,2.38S6.06,469.16,6.23,468.6Z"/>
                    <path class="cls-2" d="M7.89,495.4c-.73.07-.89.61-.82,1.17a23,23,0,0,1-.85,8.25c-.13.54-.29,1.39.59,1.39S8,507,8.73,507.27c.2-2-.39-3.74-.32-5.54a27.05,27.05,0,0,1,.36-5.46C8.9,495.77,8.52,495.34,7.89,495.4Z"/>
                    <path class="cls-2" d="M1.16,488.82c-.83.14-1.24.81-.88,1.47,1.31,2.38,1.27,5,1.47,7.61.05.66,1.89,1.43,2.47,1.05.4-.38.17-.78,0-1.13a17.65,17.65,0,0,1-2.11-8C2.11,489.26,1.9,488.69,1.16,488.82Z"/>
                    <path class="cls-2" d="M11.36,432.6c-.73-1.65-1.63-3.43-.85-5.14a13.25,13.25,0,0,0,.75-7.69,51.66,51.66,0,0,1,0-9.95c.34-6.34,1.42-12.61,2.36-18.87.66-4.44,1.59-8.87,2.2-13.31.87-6.29,2-12.53,2.93-18.8,1.21-8,2.38-16,4.29-23.82.88-3.59,1.08-7.25,1.77-10.85.19-1,.53-1.94.69-2.93.08-.44.07-1.12-.51-1.19-.73-.09-.58.64-.66,1.05-1.09,5.91-3,11.63-4.41,17.47a141.51,141.51,0,0,0-3.4,16.34c-.9,7.35-1.56,14.73-2.62,22.07-.83,5.75-1.88,11.47-2.47,17.26-.2,2-.59,4-.81,6-.35,3.17-1.44,6.27-1.18,9.5A57.83,57.83,0,0,1,9.72,420c-.41,4.29-.08,8.66-1.47,12.86-.4,1.22-.32,2.17,1.42,2,1-.1,1.55.66,2.63,1A6.53,6.53,0,0,0,11.36,432.6Z"/>
                    <path class="cls-2" d="M20.1,455.24c-1.05-.21-.82.69-.8,1.2.05,1.47.19,2.95.34,4.42.33,3.39-.86,6.57-1.44,9.83-.33,1.9.11,2.31,2.34,2.34,1.6,0,.74-1.29.95-2a4.35,4.35,0,0,0,0-1.25q-.18-3.54-.38-7.1a25.36,25.36,0,0,1,.46-6C21.8,455.5,20.82,455.38,20.1,455.24Z"/>
                    <path class="cls-2" d="M10.12,472.27c.36,1,1.49.23,2.13.72,1.07.82,1.32.24,1.42-.76.53-5.53-.17-11.14,1.26-16.79a1.22,1.22,0,0,0-1.31-1.18c-1,0-.73.68-.7,1.12a37,37,0,0,1-2.38,14.3A3.93,3.93,0,0,0,10.12,472.27Z"/>
                    <path class="cls-2" d="M10.91,486.94a13.33,13.33,0,0,1,.38-6.84c.53-1.52.45-2.47-1.75-2.74a24.68,24.68,0,0,1-1.16,9.41c-.17.51-.62,1.34.16,1.55s1.43.82,2,.56C11.34,488.54,11,487.61,10.91,486.94Z"/>
                    <path class="cls-2" d="M103.16,894.15c.18-1.16-.32-1.59-1.32-1.78-1.22-.23-1.06.78-1.11,1.32a24.81,24.81,0,0,1-3,9.49c-.68,1.28-1.23,2.62.95,3.08.29.06.48.54.72.82s.32.38.65.27a1.82,1.82,0,0,0,.53-1.36c.11-2.56.65-5.08.94-7.62C101.73,896.78,102.92,895.67,103.16,894.15Z"/>
                    <path class="cls-2" d="M112.55,891.66c.19-1.26-.34-1.72-1.43-1.93-1.31-.25-1.14.85-1.19,1.43a26.91,26.91,0,0,1-3.21,10.25c-.73,1.38-1.32,2.83,1,3.32.32.07.52.58.78.88s.35.42.71.3a2,2,0,0,0,.57-1.47c.12-2.77.7-5.49,1-8.23C111,894.5,112.3,893.3,112.55,891.66Z"/>
                    <path class="cls-2" d="M175.22,904c-1.71-3.25-3.11-6.56-3.19-10.24,0-.56.11-1.41-.7-1.45A2.89,2.89,0,0,0,169,893c-.44.49,0,1.16.41,1.62a6.51,6.51,0,0,1,1.6,4.45c.08,2.13.83,4.22.62,6.38a5.4,5.4,0,0,0,.4,1.75c.08.29.23.58.6.6s.53-.26.59-.56c.16-1,.81-1.24,1.72-1.2a.74.74,0,0,0,.78-.43A2.39,2.39,0,0,0,175.22,904Z"/>
                    <path class="cls-2" d="M167.56,903.15c-1.54-3.32-2.77-6.7-2.66-10.38,0-.56.18-1.4-.63-1.49a3,3,0,0,0-2.38.61c-.46.47-.06,1.16.33,1.63a6.54,6.54,0,0,1,1.37,4.54c0,2.12.62,4.25.31,6.4a5.11,5.11,0,0,0,.31,1.76c.06.29.2.6.57.63s.54-.23.61-.53c.21-.94.87-1.19,1.78-1.11a.74.74,0,0,0,.8-.39A2.44,2.44,0,0,0,167.56,903.15Z"/>
                    <path class="cls-2" d="M147.82,377.59c2.07-.38,3.94-1.22,5.93-1.72a.32.32,0,0,0,.25-.33c0-.79-1.77-2.06-2.59-1.83a18.07,18.07,0,0,1-2.75.66c-1,.13-2.3,0-1.68,1.67,0,.08,0,.21-.09.32C146.48,377.3,147.15,377.44,147.82,377.59Z"/>
                    <path class="cls-2" d="M127.1,374.47a21.11,21.11,0,0,1-3.59-.71,2.66,2.66,0,0,0-2.61,1.76.43.43,0,0,0,.39.48c1.93.43,3.72,1.32,5.83,1.55.78,0,1.22-.52.84-1.26a1.1,1.1,0,0,1-.17-1C128.05,374.67,127.65,374.56,127.1,374.47Z"/>
                    <path class="cls-2" d="M147.82,390.32c2.07-.38,3.94-1.22,5.93-1.71a.33.33,0,0,0,.25-.33c0-.8-1.77-2.07-2.59-1.84a18.09,18.09,0,0,1-2.75.67c-1,.13-2.3,0-1.68,1.66,0,.09,0,.22-.09.32C146.48,390,147.15,390.18,147.82,390.32Z"/>
                    <path class="cls-2" d="M127.1,387.21a22.13,22.13,0,0,1-3.59-.71,2.65,2.65,0,0,0-2.61,1.75.44.44,0,0,0,.39.49c1.93.43,3.72,1.31,5.83,1.54.78,0,1.22-.52.84-1.26a1.08,1.08,0,0,1-.17-1C128.05,387.41,127.65,387.29,127.1,387.21Z"/>
                    <path class="cls-2" d="M147.82,364.85c2.07-.38,3.94-1.22,5.93-1.71a.33.33,0,0,0,.25-.33c0-.8-1.77-2.07-2.59-1.84a18.09,18.09,0,0,1-2.75.67c-1,.13-2.3,0-1.68,1.66,0,.09,0,.22-.09.32C146.48,364.56,147.15,364.71,147.82,364.85Z"/>
                    <path class="cls-2" d="M127.1,361.74a22.13,22.13,0,0,1-3.59-.71,2.65,2.65,0,0,0-2.61,1.75.42.42,0,0,0,.39.48c1.93.44,3.72,1.32,5.83,1.55.78,0,1.22-.52.84-1.26a1.08,1.08,0,0,1-.17-1C128.05,361.94,127.65,361.82,127.1,361.74Z"/>
                    <path class="cls-2" d="M147.82,352.12c2.07-.38,3.94-1.22,5.93-1.72a.33.33,0,0,0,.25-.33c0-.79-1.77-2.06-2.59-1.83a18.07,18.07,0,0,1-2.75.66c-1,.13-2.3,0-1.68,1.67,0,.08,0,.21-.09.32C146.48,351.83,147.15,352,147.82,352.12Z"/>
                    <path class="cls-2" d="M127.1,349a21.11,21.11,0,0,1-3.59-.71,2.66,2.66,0,0,0-2.61,1.76c0,.28.15.42.39.48,1.93.43,3.72,1.32,5.83,1.55.78,0,1.22-.52.84-1.27a1.08,1.08,0,0,1-.17-1C128.05,349.2,127.65,349.09,127.1,349Z"/>
                    <path class="cls-2" d="M147.82,339.38c2.07-.38,3.94-1.22,5.93-1.71a.33.33,0,0,0,.25-.33c0-.8-1.77-2.07-2.59-1.84a18.09,18.09,0,0,1-2.75.67c-1,.13-2.3,0-1.68,1.66,0,.09,0,.22-.09.32C146.48,339.09,147.15,339.23,147.82,339.38Z"/>
                    <path class="cls-2" d="M127.1,336.27a22.13,22.13,0,0,1-3.59-.71,2.65,2.65,0,0,0-2.61,1.75.43.43,0,0,0,.39.48c1.93.44,3.72,1.32,5.83,1.55.78,0,1.22-.52.84-1.26a1.08,1.08,0,0,1-.17-1C128.05,336.47,127.65,336.35,127.1,336.27Z"/>
                    <path class="cls-2" d="M147.82,326.65c2.07-.38,3.94-1.22,5.93-1.72a.33.33,0,0,0,.25-.33c0-.79-1.77-2.06-2.59-1.83a18.07,18.07,0,0,1-2.75.66c-1,.13-2.3,0-1.68,1.67,0,.08,0,.21-.09.32C146.48,326.36,147.15,326.5,147.82,326.65Z"/>
                    <path class="cls-2" d="M127.1,323.53a21.11,21.11,0,0,1-3.59-.71,2.66,2.66,0,0,0-2.61,1.76c0,.28.15.42.39.48,1.93.43,3.72,1.32,5.83,1.55.78,0,1.22-.52.84-1.27a1.08,1.08,0,0,1-.17-1C128.05,323.73,127.65,323.62,127.1,323.53Z"/>
                    <path class="cls-2" d="M148,313.91c2.06-.38,3.94-1.22,5.92-1.71a.31.31,0,0,0,.25-.33c0-.8-1.77-2.07-2.58-1.84a19.69,19.69,0,0,1-2.75.67c-1,.13-2.31,0-1.68,1.66,0,.09-.05.22-.1.32C146.6,313.62,147.28,313.76,148,313.91Z"/>
                    <path class="cls-2" d="M127.23,310.79a21,21,0,0,1-3.6-.7,2.65,2.65,0,0,0-2.61,1.75.44.44,0,0,0,.4.48c1.92.44,3.71,1.32,5.82,1.55.78,0,1.22-.52.84-1.26a1.11,1.11,0,0,1-.16-1C128.18,311,127.78,310.88,127.23,310.79Z"/>
                    <path class="cls-2" d="M147.82,300.9c2.07-.37,3.94-1.21,5.93-1.71a.33.33,0,0,0,.25-.33c0-.79-1.77-2.06-2.59-1.83a18.07,18.07,0,0,1-2.75.66c-1,.13-2.3,0-1.68,1.66,0,.09,0,.22-.09.33C146.48,300.62,147.15,300.76,147.82,300.9Z"/>
                    <path class="cls-2" d="M127.1,297.79a21.11,21.11,0,0,1-3.59-.71,2.66,2.66,0,0,0-2.61,1.76c0,.28.15.42.39.48,1.93.43,3.72,1.32,5.83,1.55.78,0,1.22-.52.84-1.27a1.08,1.08,0,0,1-.17-1C128.05,298,127.65,297.88,127.1,297.79Z"/>
                    <path class="cls-2" d="M147.82,287.9c2.07-.38,3.94-1.22,5.93-1.71a.33.33,0,0,0,.25-.33c0-.8-1.77-2.07-2.59-1.84a18.09,18.09,0,0,1-2.75.67c-1,.13-2.3,0-1.68,1.66,0,.09,0,.22-.09.32C146.48,287.61,147.15,287.75,147.82,287.9Z"/>
                    <path class="cls-2" d="M127.1,284.78a21.09,21.09,0,0,1-3.59-.7,2.65,2.65,0,0,0-2.61,1.75.43.43,0,0,0,.39.48c1.93.44,3.72,1.32,5.83,1.55.78,0,1.22-.52.84-1.26a1.08,1.08,0,0,1-.17-1C128.05,285,127.65,284.87,127.1,284.78Z"/>
                    <path class="cls-2" d="M147.82,275.82c2.07-.38,3.94-1.22,5.93-1.71a.33.33,0,0,0,.25-.34c0-.79-1.77-2.06-2.59-1.83a19.36,19.36,0,0,1-2.75.67c-1,.12-2.3,0-1.68,1.66,0,.08,0,.22-.09.32C146.48,275.53,147.15,275.67,147.82,275.82Z"/>
                    <path class="cls-2" d="M127.1,272.7a20.18,20.18,0,0,1-3.59-.71,2.66,2.66,0,0,0-2.61,1.76.43.43,0,0,0,.39.48c1.93.44,3.72,1.32,5.83,1.55.78,0,1.22-.52.84-1.26a1.08,1.08,0,0,1-.17-1C128.05,272.91,127.65,272.79,127.1,272.7Z"/>
                    <path class="cls-2" d="M147.82,153.92c2.07-.37,3.94-1.21,5.93-1.71a.33.33,0,0,0,.25-.33c0-.79-1.77-2.07-2.59-1.83a19.33,19.33,0,0,1-2.75.66c-1,.13-2.3,0-1.68,1.66,0,.09,0,.22-.09.32C146.48,153.64,147.15,153.78,147.82,153.92Z"/>
                    <path class="cls-2" d="M127.1,150.81a21.11,21.11,0,0,1-3.59-.71,2.65,2.65,0,0,0-2.61,1.76c0,.28.15.42.39.48,1.93.43,3.72,1.32,5.83,1.54.78,0,1.22-.52.84-1.26a1.08,1.08,0,0,1-.17-1C128.05,151,127.65,150.89,127.1,150.81Z"/>
                    <path class="cls-2" d="M147.82,144.69c2.07-.38,3.94-1.22,5.93-1.71a.33.33,0,0,0,.25-.33c0-.8-1.77-2.07-2.59-1.84a19.36,19.36,0,0,1-2.75.67c-1,.12-2.3,0-1.68,1.66,0,.08,0,.22-.09.32C146.48,144.4,147.15,144.54,147.82,144.69Z"/>
                    <path class="cls-2" d="M127.1,141.57a21.09,21.09,0,0,1-3.59-.7,2.64,2.64,0,0,0-2.61,1.75.43.43,0,0,0,.39.48c1.93.44,3.72,1.32,5.83,1.55.78,0,1.22-.52.84-1.26a1.08,1.08,0,0,1-.17-1C128.05,141.78,127.65,141.66,127.1,141.57Z"/>
                    <path class="cls-2" d="M147.82,135.45c2.07-.37,3.94-1.21,5.93-1.71a.33.33,0,0,0,.25-.33c0-.79-1.77-2.07-2.59-1.83a18.07,18.07,0,0,1-2.75.66c-1,.13-2.3,0-1.68,1.66,0,.09,0,.22-.09.33C146.48,135.17,147.15,135.31,147.82,135.45Z"/>
                    <path class="cls-2" d="M127.1,132.34a21.11,21.11,0,0,1-3.59-.71,2.66,2.66,0,0,0-2.61,1.76c0,.28.15.42.39.48,1.93.43,3.72,1.32,5.83,1.55.78,0,1.22-.52.84-1.27a1.08,1.08,0,0,1-.17-1C128.05,132.54,127.65,132.42,127.1,132.34Z"/>
                    <path class="cls-2" d="M147.82,126.22c2.07-.38,3.94-1.22,5.93-1.71a.33.33,0,0,0,.25-.33c0-.8-1.77-2.07-2.59-1.84a18.09,18.09,0,0,1-2.75.67c-1,.13-2.3,0-1.68,1.66,0,.09,0,.22-.09.32C146.48,125.93,147.15,126.07,147.82,126.22Z"/>
                    <path class="cls-2" d="M127.1,123.1a21.09,21.09,0,0,1-3.59-.7,2.65,2.65,0,0,0-2.61,1.75.43.43,0,0,0,.39.48c1.93.44,3.72,1.32,5.83,1.55.78,0,1.22-.52.84-1.26a1.08,1.08,0,0,1-.17-1C128.05,123.31,127.65,123.19,127.1,123.1Z"/>
                    <path class="cls-2" d="M147.82,117c2.07-.38,3.94-1.22,5.93-1.72a.33.33,0,0,0,.25-.33c0-.79-1.77-2.06-2.59-1.83a18.07,18.07,0,0,1-2.75.66c-1,.13-2.3,0-1.68,1.67,0,.08,0,.21-.09.32C146.48,116.7,147.15,116.84,147.82,117Z"/>
                    <path class="cls-2" d="M127.1,113.87a21.11,21.11,0,0,1-3.59-.71,2.66,2.66,0,0,0-2.61,1.76c0,.28.15.42.39.48,1.93.43,3.72,1.32,5.83,1.55.78,0,1.22-.52.84-1.27a1.08,1.08,0,0,1-.17-1C128.05,114.07,127.65,114,127.1,113.87Z"/>
                    <path class="cls-2" d="M132,271.25c-.23.64.34,1.1.85,1.44a6.65,6.65,0,0,0,1.2.47c.5.18,1.24.13,1.26.84s-.69.9-1.26,1.12l-.88.31c-.74.31-1.31.79-1.12,1.63a1.46,1.46,0,0,0,1.85,1.09,34,34,0,0,1,9.56.13c.58-.08,1.2.35,1.49-.13s-.28-1-.6-1.38a3.8,3.8,0,0,0-1.53-1.26c-2.07-.85-2.08-1-.37-2.32.51-.39,1.33-.73,1-1.5s-1.16-.54-1.82-.57c-2.73-.11-5.47.22-8.19-.27C133,270.75,132.24,270.63,132,271.25Z"/>
                    <path class="cls-2" d="M31,482.83a13.32,13.32,0,0,1-2.66-6.31c-.19-1.6-.68-2.42-2.78-1.69a24.49,24.49,0,0,1,3.1,9c.07.53,0,1.47.82,1.32s1.65.1,2.06-.39C32.05,484.08,31.36,483.38,31,482.83Z"/>
                    <path class="cls-2" d="M268.35,473.58a22.11,22.11,0,0,1,.11-9.34,14.77,14.77,0,0,0,.22-2.82c0-.67.25-1.63-.84-1.66s-.9.91-.9,1.59a62.64,62.64,0,0,1-.89,10.59c-.25,1.45-.54,2.91-.74,4.37-.09.68,0,.93,1,.75C268.7,476.64,268.7,475.22,268.35,473.58Z"/>
                    <path class="cls-2" d="M81.5,155.32c8.8-3.21,24.13-9.58,30.48-17a2,2,0,0,1,3.47.92,34.78,34.78,0,0,1-.1,12.24,2.09,2.09,0,0,1-.44.94c-1.71,2-9.31,10.83-12.41,10.83-2.29,0-13.38-2.46-20.76-4.17A2,2,0,0,1,81.5,155.32Z"/>
                    <path class="cls-2" d="M35.25,198.78s1,13-.5,16.5-8.5,38.5-9,59.5a88.77,88.77,0,0,1,2,10.09l2.38-.67s10.62-41,9.5-65.92C39.63,218.28,39.75,212.28,35.25,198.78Z"/>
                    <path class="cls-2" d="M55.25,204.28s-12,23.84-8.5,81.17l1.17,5.17S62.25,252,58.42,217.78c0,0-.67-7.5-.17-11.33Z"/>
                    <path class="cls-2" d="M19.92,320l-4-.33s-1.67,9.33-2.67,12-9.33,33.66-8,74.66l1,4S17.92,333.28,19.92,320Z"/>
                    <path class="cls-2" d="M39.59,330.28s3,1.67,2.33,8.67-14.33,61-14.33,61S32.25,346,39.59,330.28Z"/>
                    <path class="cls-2" d="M51.59,503l5.33-.67s26,96,24.67,124.67c0,0,0,16,1.33,19.33s-6,3.34-6,3.34l-2-12S51.59,542.28,52.25,517A45,45,0,0,0,51.59,503Z"/>
                    <path class="cls-2" d="M105.75,637.38s-.21-22.94,2.76-34.78,15.29-52.41-10.72-93.86c0,0-8-1.23-10.4-6.19l-5.74-1s-4.26,29.46,16.2,118Z"/>
                    <path class="cls-2" d="M102.25,698.28l7.34-2s16.66,35.34,2,89.34c0,0-5.17,22.33-5.34,27.33l-2.33-2.33s-4.17-76.5-1.33-83.84C102.59,726.78,106.25,711,102.25,698.28Z"/>
                    <path class="cls-2" d="M74.59,684.12l6-.17s-4.5,60-3.67,81l-2.83-4.67S60.42,706.12,74.59,684.12Z"/>
                    <path class="cls-2" d="M196.23,155.32c-8.8-3.21-24.13-9.58-30.48-17a2,2,0,0,0-3.47.92,35.27,35.27,0,0,0,.1,12.24,2.09,2.09,0,0,0,.44.94c1.71,2,9.31,10.83,12.41,10.83,2.29,0,13.39-2.46,20.76-4.17A2,2,0,0,0,196.23,155.32Z"/>
                    <path class="cls-2" d="M240.48,198.78s-1,13,.5,16.5,8.5,38.5,9,59.5a91.37,91.37,0,0,0-2,10.09l-2.38-.67s-10.62-41-9.5-65.92C236.1,218.28,236,212.28,240.48,198.78Z"/>
                    <path class="cls-2" d="M220.48,204.28s12,23.84,8.5,81.17l-1.17,5.17s-14.33-38.67-10.5-72.84c0,0,.67-7.5.17-11.33Z"/>
                    <path class="cls-2" d="M254.81,320l4-.33s1.67,9.33,2.67,12,9.33,33.66,8,74.66l-1,4S256.81,333.28,254.81,320Z"/>
                    <path class="cls-2" d="M235.15,330.28s-3,1.67-2.34,8.67,14.34,61,14.34,61S242.48,346,235.15,330.28Z"/>
                    <path class="cls-2" d="M218.15,503l-5.34-.67s-26,96-24.66,124.67c0,0,0,16-1.34,19.33s6,3.34,6,3.34l2-12S218.15,542.28,217.48,517A44.8,44.8,0,0,1,218.15,503Z"/>
                    <path class="cls-2" d="M164,637.38s.21-22.94-2.76-34.78-15.29-52.41,10.72-93.86c0,0,8-1.23,10.4-6.19l5.74-1s4.26,29.46-16.2,118Z"/>
                    <path class="cls-2" d="M167.55,698.28l-6.58-2s-15,35.34-1.8,89.34c0,0,4.64,22.33,4.79,27.33l2.09-2.33s3.74-76.5,1.2-83.84C167.25,726.78,164,711,167.55,698.28Z"/>
                    <path class="cls-2" d="M196.15,684.12l-6-.17s4.5,60,3.66,81l2.84-4.67S210.31,706.12,196.15,684.12Z"/>
                </g>
            </g>
        </g>
    </g>
</svg>