<svg xmlns="http://www.w3.org/2000/svg" viewBox="0 0 75.57 56.42">
    <defs>
        <style>.cls-1{fill:#c1c1c1;}</style>
    </defs>
    <title>Gehirn (2)</title>
    <g id="Ebene_2" data-name="Ebene 2">
        <g id="Frau">
            <g id="Endokrin">
                <path id="Gehirn" class="cls-1" d="M74.33,25.57C67.79,1,46.37-.2,39.83,0a2.05,2.05,0,0,0-2,2c-.06,1.89-.16,5.11-.27,9.09C37.43,7,37.29,3.78,37.2,2A1.87,1.87,0,0,0,35.41.17C29.2-.1,7.84.8,1.24,25.57-6.5,54.66,24.48,45.25,24.48,45.25,21.63,55.83,37.76,56.42,37.76,56.42l0-.34c0,.11,0,.23,0,.34s13.37-.49,13.61-8.57a2,2,0,0,1,2.46-1.92C61.33,47.43,80.62,49.21,74.33,25.57Z"/>
            </g>
        </g>
    </g>
</svg>