<svg xmlns="http://www.w3.org/2000/svg" viewBox="0 0 74.13 82.77">
    <defs>
        <style>.cls-1{fill:#c2c1c1;}</style>
    </defs>
    <title>psychosozial (2)</title>
    <g id="Ebene_2" data-name="Ebene 2">
        <g id="Frau">
            <g id="psychosozial">
                <path class="cls-1" d="M74.13,30.34a6.5,6.5,0,0,0-6.5-6.5,6,6,0,0,0-.73,0c0-.07,0-.13,0-.2A13.13,13.13,0,0,0,50.85,10.85,18.42,18.42,0,0,0,17,11.51,12.9,12.9,0,0,0,7.56,23.93h0a6.15,6.15,0,0,0-1.06-.09,6.5,6.5,0,1,0,0,13H67.76A6.5,6.5,0,0,0,74.13,30.34Z"/>
                <polygon class="cls-1" points="39.41 41.31 28.64 65.2 35.35 65.13 29.57 82.77 45.5 59.35 37.3 59.35 39.41 41.31"/>
            </g>
        </g>
    </g>
</svg>