<svg xmlns="http://www.w3.org/2000/svg" viewBox="0 0 285.05 932.74">
    <defs>
        <style>.cls-1{opacity:0.5;}.cls-2{fill:#ededed;}</style>
    </defs>
    <title>Körper</title>
    <g id="Ebene_2" data-name="Ebene 2">
        <g id="Frau">
            <g id="Körper" class="cls-1">
                <path class="cls-2" d="M284.26,494.86c-.28-1-1.64-8.79-3.12-17.83,0-.35-3.7-35.33-2.24-64.31,1.46-28.73-4-71.13-9.29-83-4.71-10.59-4.71-18.7-4.71-18.75.55-18.44-2.84-37.58-4.91-47.35-2.94-13.83-4.19-22.24-4.08-27.29.1-4.83.22-21.54-2.55-34.1s-7.27-18.7-14.4-27.57c-7.38-9.2-19.36-10.83-20.58-11s-17.67-3.89-24.9-7.79c-7.72-4.17-10.87-7.39-18.85-16.09-6.51-7.11-5.42-18.71-4.83-24.94.11-1.08.19-2,.23-2.74a48.09,48.09,0,0,1,.85-7.33c3.25-4.18,5.51-11.49,6.76-16.43a2.78,2.78,0,0,0,1.77.66,4,4,0,0,0,3.51-2.22,17.73,17.73,0,0,0,2-4.13c.45-1.31,4-9.16,4.74-10.44,1-1.89,2.12-9,2-11.08s-1.46-7.83-5.8-8.24a4.55,4.55,0,0,0-1.1,0c.7-7.15.88-20.18-4.79-32C171.38,2.93,144.64.12,143.57,0a1.74,1.74,0,0,0-.45,0l-1,.1L141,.27l-1.67.26-2.07.38q-1.2.24-2.4.51c-.89.21-1.78.43-2.67.67s-1.92.54-2.86.84-2,.66-3,1-2.1.81-3.09,1.23-2.12,1-3.1,1.47S118,7.77,117,8.36s-2,1.3-3,2-1.9,1.5-2.77,2.29a30.54,30.54,0,0,0-2.51,2.6,26.79,26.79,0,0,0-2.19,2.95,23.92,23.92,0,0,0-1.5,2.7c-5.67,11.84-5.49,24.87-4.79,32a4.1,4.1,0,0,0-1.1,0c-4.35.41-5.68,6.23-5.81,8.24s1,9.19,2,11.08c.65,1.18,4.14,8.93,4.78,10.53A21.22,21.22,0,0,0,102.48,87a4.2,4.2,0,0,0,3.2,1.85,2.81,2.81,0,0,0,1.71-.6c1.24,5,3.51,12.31,6.77,16.51a49,49,0,0,1,.86,7.33c0,.73.12,1.66.22,2.74.59,6.23,1.68,17.83-4.82,24.94-8,8.7-11.13,11.92-18.86,16.09-7,3.79-22.63,7.29-24.85,7.78-1.21.15-13.3,1.85-20.63,11-7.12,8.87-11.65,15.15-14.39,27.57s-2.65,29.27-2.55,34.1c.11,5.05-1.15,13.46-4.08,27.29-2.07,9.77-5.47,28.91-4.92,47.31,0,.08,0,8.19-4.7,18.79-5.29,11.91-10.75,54.31-9.3,83,1.45,28.5-2.08,62.82-2.22,64.2C2.41,486.14,1,494,.8,494.82a13.81,13.81,0,0,0-.46,7.58c.42,1.5,1.61,12.88,2.31,20.16a2,2,0,0,0,.26.8c1.94,3.39,6.36,11.43,6.78,13.22.65,2.72,6.86,10.8,9.51,14.16a2,2,0,0,0,2.22.64c.81-.28,4.9-1.85,5.09-5.15A12.74,12.74,0,0,0,26,542.1c.6-.88,1.06-2.37.52-4.79a18.56,18.56,0,0,1-.41-3.23,8.17,8.17,0,0,0-.93-4c-.35-.59-.78-1.48-1.22-2.36a31,31,0,0,0-1.84-3.42,20.28,20.28,0,0,0-2.17-6.78c.34-1.71.84-5.83-.3-12.51,1.53-3.07,4.53-9.53,4.28-12.59,0-.43,1-1.07,2.66-1.44,2,2.26,4.37,5.36,4.91,7.47,1.15,4.46,6.73,10.24,6.79,10.3l.1.1a5.47,5.47,0,0,0,6.34.31,6.08,6.08,0,0,0,2.66-6.28c-.08-.33-1.88-8.08-5.34-12.75-2.75-3.69-3.55-9.66-3.63-10.36l0-.12c-.13-.64-3.4-15.54-8-23.86.67-5.28,4.53-34.87,8.37-49.2.69-2.6,1.51-5.64,2.4-8.93C47,375.7,52,357.25,52.26,354.19c.08-.83.25-1.82.46-3a39.7,39.7,0,0,0,.47-14.63c1.6-5.77,11.13-40.47,14.92-61.07,5.54,29.25,10.9,59.2,10.9,63.73,0,2.11.15,4,.29,5.81a39.94,39.94,0,0,1-1.82,17.59C73.94,373.87,66.11,393,62.62,399.56c-3.59,6.79-14.85,42.09-15.11,59.65,0,2.8-.17,5.8-.3,8.7-.73,16.7-1.73,39.57,8.09,93.07C66.68,623,73,679.57,73.23,681.91a51.68,51.68,0,0,1-.81,12.3c-1.29,7-4.66,40.81-1.82,50.47.54,2.93,4.74,26,5.47,29.14.11.48.4,1.5.88,3.2l0,.11c3,10.46,12,42.29,11.91,62.73,0,6.09,0,11.41.11,16.12.18,13.71.31,22.77-2.44,33.61l0,.27a15.31,15.31,0,0,0,1.44,7.5c.2,2.09-4.3,12.95-5.79,16.54-1.69,4.08-2.28,5.53-2.39,6.32,0,.22-.07.46-.12.74-.37,2.08-1.15,6.43,3.07,9,2.68,1.63,5.16,2,7.36,1A6.23,6.23,0,0,0,93.51,932a7.46,7.46,0,0,0,3.85-.92,4.32,4.32,0,0,0,2.9,1.3,9.63,9.63,0,0,0,4.93-1.32,6.24,6.24,0,0,0,3.32.94,9,9,0,0,0,4.29-1.17,8.85,8.85,0,0,0,6,1.92,14,14,0,0,0,8.07-2.21c1.79-.72,5-3.63,2.9-15.4-2-10.76-3.55-18-3.93-19.68A95.08,95.08,0,0,1,128.11,885c.91-2.2-1.79-20.14-4.23-34.83-.11-2-2.23-39.4.66-48.18,3.36-10.21,6.91-76.26,5.83-84.14-1.05-7.69-1.44-26.37-1.48-28.47.27-14.82,1-43.86,1.94-47.66,1.26-5.15,8.18-101.81,8.31-107.43a39.52,39.52,0,0,1,.44-4.09c.68-4.89,1.7-12.14-.1-25a14.07,14.07,0,0,0,2.27.25h.76a16.71,16.71,0,0,0,3.06-.26c-1.8,12.83-.79,20.08-.1,25a39.52,39.52,0,0,1,.44,4.09c.13,5.62,7.05,102.28,8.3,107.43.92,3.76,1.66,31.7,1.95,47.61,0,.84-.41,20.6-1.49,28.52s2.48,73.93,5.84,84.14c2.28,7,1.49,33.42.66,48.13-3.54,21.39-5,33.13-4.24,34.88a90.48,90.48,0,0,1,2.31,10.45c-.38,1.68-2,8.92-3.93,19.68-2.14,11.77,1.12,14.68,2.9,15.4a14,14,0,0,0,8.07,2.21,8.86,8.86,0,0,0,6-1.92,9,9,0,0,0,4.28,1.17,6.3,6.3,0,0,0,3.33-.94,9.59,9.59,0,0,0,4.92,1.32,4.32,4.32,0,0,0,2.91-1.3,7.42,7.42,0,0,0,3.84.92,6.23,6.23,0,0,0,3.43-1.08c2.2,1,4.67.67,7.36-1,4.22-2.56,3.44-6.91,3.06-9,0-.27-.09-.51-.12-.72-.1-.8-.69-2.25-2.38-6.33-1.49-3.59-6-14.45-5.79-16.54a15.52,15.52,0,0,0,1.42-7.64l0-.22c-2.73-10.75-2.61-19.81-2.42-33.55.06-4.68.14-10,.11-16.09-.11-20.44,8.93-52.27,11.91-62.73l0-.11c.48-1.7.77-2.72.88-3.2.74-3.21,5.09-27.09,5.45-29.09,2.85-9.7-.51-43.54-1.81-50.52a52,52,0,0,1-.81-12.25c.06-.58,6.5-58.65,17.94-121,9.81-53.5,8.81-76.37,8.08-93.08-.13-2.89-.26-5.89-.3-8.69-.25-17.56-11.52-52.86-15.11-59.65-3.49-6.61-11.32-25.69-14.86-36.92a40.09,40.09,0,0,1-1.82-17.59c.14-1.82.29-3.7.29-5.81,0-4.53,5.37-34.48,10.91-63.73,3.78,20.6,13.31,55.3,14.91,61.07a39.59,39.59,0,0,0,.48,14.65c.2,1.14.38,2.13.46,3,.31,3.06,5.23,21.51,11.16,43.51.88,3.29,1.7,6.33,2.4,8.93,3.83,14.33,7.69,43.92,8.36,49.2-4.72,8.54-8,23.79-8,23.94l0,.12c0,.26-.78,6.46-3.62,10.28-3.47,4.68-5.27,12.45-5.36,12.85a6.08,6.08,0,0,0,2.67,6.18,5.43,5.43,0,0,0,6.39-.35l.1-.1c.57-.6,5.64-6,6.74-10.26.54-2.1,2.87-5.2,4.91-7.46,1.6.38,2.7,1,2.66,1.43-.24,3.06,2.75,9.52,4.28,12.59-1.14,6.68-.64,10.8-.29,12.51a20,20,0,0,0-2.17,6.78,32,32,0,0,0-1.86,3.44c-.42.86-.86,1.75-1.2,2.34a8.18,8.18,0,0,0-.94,4,18.43,18.43,0,0,1-.4,3.23c-.54,2.42-.09,3.91.52,4.79a13,13,0,0,0-.57,4.13c.2,3.3,4.28,4.87,5.1,5.15a2,2,0,0,0,2.22-.65c2.64-3.35,8.85-11.43,9.5-14.15.43-1.79,4.84-9.83,6.8-13.23a2,2,0,0,0,.25-.79c.7-7.28,1.89-18.66,2.31-20.16A13.81,13.81,0,0,0,284.26,494.86ZM262.53,546a10.84,10.84,0,0,1,.73-3.77,2,2,0,0,0-.06-1.61,2.07,2.07,0,0,0-.83-.88,3.83,3.83,0,0,1,.11-1.56,21.9,21.9,0,0,0,.49-3.88,4.75,4.75,0,0,1,.42-2.19c.41-.71.88-1.66,1.33-2.59a30.67,30.67,0,0,1,1.6-3,2,2,0,0,0,.58-1.28,16,16,0,0,1,2.1-6.35,2,2,0,0,0,.19-1.62s-1.17-4.09.31-12.18a2,2,0,0,0-.19-1.27c-2.1-4.09-4.29-9.48-4.16-11.05.3-3.72-3.66-5.5-7.16-5.9a2,2,0,0,0-1.64.59c-.56.57-5.53,5.74-6.63,10-.64,2.49-3.82,6.4-5.64,8.38a1.48,1.48,0,0,1-1.63-.09,2.14,2.14,0,0,1-.85-2h0c0-.07,1.74-7.33,4.66-11.26,3.39-4.56,4.26-11.21,4.37-12.09.24-1.12,3.55-15.82,7.88-23.22a2,2,0,0,0,.25-1.26c-.17-1.42-4.38-34.83-8.55-50.39l-1.92-7.14-.5-1.89c-4.27-15.85-10.72-39.81-11-42.78-.1-1-.29-2.05-.51-3.28-.61-3.47-1.46-8.22-.39-13.62a2,2,0,0,0,0-.94c-5.71-20.59-16.18-61.1-16.45-72.29h.16l-.13-1.35v-.12c-.59-6.13-1.05-11.55-1.4-16.56-.21-3.07-.37-5.64-.44-8.23v-.45a22.61,22.61,0,0,1,.08-3.34,8.53,8.53,0,0,0,.13-2.72,3.59,3.59,0,0,0-.95-1.94,3,3,0,0,0-2.67-.78,1.78,1.78,0,0,0-.6.25l-.34-.1,0,.33a1.86,1.86,0,0,0-.56,1.59,70.85,70.85,0,0,1,.33,12.48A63,63,0,0,1,211.12,255a44.22,44.22,0,0,1-4.66,11.41,32.2,32.2,0,0,1-8,9.11,28.85,28.85,0,0,1-5.14,3.21,38.23,38.23,0,0,1-5.76,2.13,35,35,0,0,1-12.16,1.28,28.93,28.93,0,0,1-11.63-3.39,34.23,34.23,0,0,1-9.51-7.71l-2.24,2h0a37.34,37.34,0,0,0,10.28,8.41,32.07,32.07,0,0,0,12.84,3.83A38.39,38.39,0,0,0,188.43,284a41.55,41.55,0,0,0,6.29-2.28,33.09,33.09,0,0,0,5.77-3.53,35.69,35.69,0,0,0,8.91-10,47.41,47.41,0,0,0,5.13-12.26c.09-.32.17-.64.26-1,.18,2.32.38,4.74.6,7.28-1.55,8-13.36,69.52-13.36,77,0,1.94-.14,3.75-.27,5.51a43.32,43.32,0,0,0,2,19.09c3.59,11.4,11.57,30.84,15.14,37.59,3.48,6.58,14.4,40.81,14.64,57.84,0,2.83.17,5.73.3,8.81.73,16.51,1.72,39.12-8,92.18C214.3,623,207.9,681,207.83,681.57a55.23,55.23,0,0,0,.86,13.37c1.28,6.88,4.38,40.47,1.87,48.78l0,.16c-.05.26-4.71,25.86-5.44,29-.09.41-.47,1.72-.86,3.11-3,10.6-12.17,42.84-12.06,63.85,0,6,0,11.35-.11,16-.19,14-.32,23.21,2.49,34.32a11.25,11.25,0,0,1-1,5.25c-1.3,2.29.59,7.75,5.64,19.93.85,2.05,2,4.84,2.12,5.33,0,.27.09.57.15.9.4,2.26.54,3.81-1.21,4.87-2.62,1.59-3.73.76-4.27.36a2,2,0,0,0-2.65.24,3,3,0,0,1-3.69.41,2,2,0,0,0-3.72-.64,4.91,4.91,0,0,1-1.23,1.47,6.14,6.14,0,0,1-2.56-.62,2,2,0,0,0-3.62-.76,2.54,2.54,0,0,1-2,1,4.86,4.86,0,0,1-2.64-.86,2,2,0,0,0-3.73,0c0,.06-.72,1.58-3.88,1.58a10,10,0,0,1-5.86-1.55,2.27,2.27,0,0,0-.61-.34c-.22-.17-2.19-2.06-.56-11,2.2-12.08,4-19.83,4-19.92a1.91,1.91,0,0,0,0-.79c-.07-.37-1.62-9.09-2.57-11.55-.23-1.92,1.75-16.6,4.45-33l0-.15c.1-1.63,2.37-40-.85-49.75-3.13-9.53-6.68-74.92-5.66-82.35,1.13-8.28,1.51-28.8,1.52-29.06,0-1.76-.76-43.24-2.06-48.56-1.24-5.08-8.06-101-8.19-106.58a42.39,42.39,0,0,0-.48-4.54c-.72-5.17-1.82-13,.7-27.7a2,2,0,0,0-1.42-2.25,2,2,0,0,0-2.33,1c-.16.14-1,.79-3.87.79h-.61c-2.3-.09-3.07-.64-3.23-.78a2,2,0,0,0-3.75,1.25c2.51,14.71,1.42,22.53.7,27.7a39.89,39.89,0,0,0-.48,4.55c-.13,5.58-6.95,101.49-8.19,106.57-1.31,5.35-2,46.82-2.06,48.64,0,.84.41,20.82,1.52,29,1,7.43-2.53,72.82-5.67,82.35-3.27,9.94-.86,49.4-.84,49.8l0,.15c2.7,16.32,4.68,31,4.45,32.91-1,2.5-2.51,11.17-2.57,11.54a2,2,0,0,0,0,.8c0,.08,1.78,7.83,4,19.91,1.61,8.86-.31,10.8-.56,11a2,2,0,0,0-.61.34,10,10,0,0,1-5.87,1.55c-3.16,0-3.85-1.51-3.86-1.53a2,2,0,0,0-2.22-1.34,2,2,0,0,0-1.53,1.25,4.81,4.81,0,0,1-2.64.87,2.55,2.55,0,0,1-2-1,2,2,0,0,0-3.63.75,6.13,6.13,0,0,1-2.55.62,4.91,4.91,0,0,1-1.23-1.47,2,2,0,0,0-3.72.63,2.93,2.93,0,0,1-3.69-.4,2,2,0,0,0-2.66-.24c-.54.4-1.65,1.23-4.27-.36-1.74-1.06-1.61-2.61-1.2-4.87.06-.33.11-.63.14-.86.12-.53,1.28-3.32,2.12-5.37,5-12.18,7-17.64,5.64-19.93a11.21,11.21,0,0,1-1-5.18c2.82-11.19,2.69-20.44,2.5-34.42-.07-4.67-.14-10-.11-16,.11-21-9-53.25-12.06-63.85-.4-1.39-.77-2.7-.87-3.11-.29-1.26-1.43-7.12-5.22-27.86-.14-.76-.22-1.21-.23-1.25l0-.15c-2.5-8.27.61-41.83,1.89-48.72a54.7,54.7,0,0,0,.85-13.42c-.06-.58-6.52-58.8-18-121.26-9.73-53.06-8.74-75.67-8-92.18.14-3.08.26-6,.3-8.81.25-17,11.17-51.26,14.65-57.84,3.56-6.75,11.54-26.19,15.14-37.59a43.51,43.51,0,0,0,2-19.1c-.14-1.75-.28-3.56-.28-5.5,0-7.46-11.81-68.95-13.35-77,.22-2.54.42-5,.6-7.28.08.32.16.64.25,1a47.76,47.76,0,0,0,5.13,12.26,35.63,35.63,0,0,0,8.93,10,32.45,32.45,0,0,0,5.76,3.52A41.16,41.16,0,0,0,96.62,284a38.34,38.34,0,0,0,13.27,1.31,32,32,0,0,0,12.82-3.82A37.31,37.31,0,0,0,133,273.08h0l-2.24-2a34.24,34.24,0,0,1-9.53,7.72,28.85,28.85,0,0,1-11.61,3.38,34.87,34.87,0,0,1-12.14-1.28,38,38,0,0,1-5.77-2.13,29,29,0,0,1-5.14-3.2,32.31,32.31,0,0,1-8-9.13A44,44,0,0,1,73.93,255,63.77,63.77,0,0,1,72,242.71a70.29,70.29,0,0,1,.34-12.51,1.85,1.85,0,0,0-.56-1.56l0-.33-.33.1a1.83,1.83,0,0,0-.61-.25,3,3,0,0,0-2.67.78,3.55,3.55,0,0,0-1,2,8.14,8.14,0,0,0,.13,2.61,23.43,23.43,0,0,1,.09,3.39v.44c-.08,2.6-.23,5.17-.44,8.24-.36,5-.82,10.43-1.4,16.56l0,.11v0l-.11,1.31h.14c-.27,11.22-10.74,51.71-16.44,72.28a2,2,0,0,0,0,.94,35.65,35.65,0,0,1-.4,13.63c-.22,1.23-.41,2.3-.5,3.28-.3,3-6.75,26.93-11,42.87l-.49,1.8-1.92,7.14c-4.16,15.56-8.37,49-8.55,50.39a2,2,0,0,0,.26,1.26c4.21,7.21,7.41,21.09,7.87,23.17.11.87,1,7.6,4.37,12.14,2.79,3.75,4.45,10.38,4.64,11.18a2.14,2.14,0,0,1-.82,2.05,1.49,1.49,0,0,1-1.62.08c-1.73-1.85-5-5.81-5.65-8.38-1.11-4.28-6.07-9.45-6.64-10a2,2,0,0,0-1.65-.59c-3.48.4-7.44,2.18-7.14,5.9.13,1.61-2,6.89-4.16,11a2,2,0,0,0-.19,1.28c1.48,8.09.32,12.14.31,12.16a2.08,2.08,0,0,0,.19,1.65,15.84,15.84,0,0,1,2.09,6.35,2,2,0,0,0,.57,1.25,27.6,27.6,0,0,1,1.62,3c.45.91.92,1.86,1.32,2.57a4.63,4.63,0,0,1,.42,2.19,22.89,22.89,0,0,0,.49,3.88,3.91,3.91,0,0,1,.12,1.56,2,2,0,0,0-.81.83,2,2,0,0,0-.09,1.66,10.8,10.8,0,0,1,.74,3.76,2.71,2.71,0,0,1-1.16,1c-4.1-5.28-7.51-10.26-7.77-11.36-.61-2.55-5.32-10.95-7-13.9-.45-4.66-1.8-18.28-2.4-20.42a10.28,10.28,0,0,1,.24-4.82c.15-.31.51-1,3.45-19.05,0-.35,3.74-35.65,2.26-64.94-1.54-30.26,4.32-70.79,9-81.22,5.11-11.49,5.05-20.11,5.05-20.49-.54-18,2.8-36.81,4.83-46.4,3-14.14,4.29-22.84,4.17-28.21-.1-4.71-.23-21,2.45-33.15,2.56-11.56,6.85-17.51,13.61-25.93,6.39-8,17.62-9.46,18.11-9.53l.12,0c.73-.15,18-3.85,26-8.19,8.29-4.47,11.59-7.84,19.9-16.91,7.72-8.41,6.51-21.17,5.86-28-.09-1-.17-1.87-.21-2.55a46.71,46.71,0,0,0-1.06-8.51,1.85,1.85,0,0,0-.4-.79c-4.59-5.51-7.29-19.82-7.32-20a2,2,0,0,0-1.37-1.55l-.23-1-.44,1a2,2,0,0,0-1.82,1.35,12.17,12.17,0,0,1-.88,2,19.21,19.21,0,0,1-1.62-3.08c-.56-1.41-4.16-9.46-5-11a36,36,0,0,1-1.51-8.92c.11-1.85,1.22-4.42,2.18-4.51.59,0,1.36,1.27,1.65,2.2a2,2,0,0,0,2.42,1.37,2.36,2.36,0,0,0,.56-.24l.12.14,0-.2a2,2,0,0,0,.8-2.09c0-.19-4.22-19.08,3.6-35.44A22,22,0,0,1,110,20.34a22.29,22.29,0,0,1,1.86-2.51A25.69,25.69,0,0,1,114,15.57a28.84,28.84,0,0,1,2.45-2c.83-.62,1.72-1.22,2.65-1.79s1.82-1.06,2.79-1.56,1.88-.92,2.87-1.35,1.89-.79,2.88-1.15,1.88-.67,2.83-1,1.81-.54,2.72-.79,1.67-.43,2.52-.63S137.23,5,138,4.84s1.3-.25,2-.36l1.57-.25,1.13-.15.63-.07c1.55.17,25.64,3.06,33.07,18.59C184.17,39,180,57.85,180,58a2,2,0,0,0,.79,2.09l0,.19.12-.13a2.56,2.56,0,0,0,.56.24,2,2,0,0,0,2.42-1.35c.29-.92,1.06-2.22,1.61-2.22h0c1,.09,2.08,2.66,2.2,4.51a36.79,36.79,0,0,1-1.51,8.91c-.84,1.54-4.48,9.52-5,11.06a14.48,14.48,0,0,1-1.51,3.16,13.14,13.14,0,0,1-1-2.16,2,2,0,0,0-1.8-1.35l-.45-1-.23,1.08a2,2,0,0,0-1.38,1.55c0,.14-2.72,14.45-7.31,20a2.1,2.1,0,0,0-.41.8,47.83,47.83,0,0,0-1.06,8.51c0,.68-.11,1.55-.21,2.56-.65,6.85-1.85,19.61,5.86,28,8.32,9.07,11.62,12.44,19.9,16.91s25.91,8.16,26.09,8.2l.13,0c.12,0,11.56,1.44,18,9.52,6.76,8.42,11.05,14.37,13.6,25.93,2.68,12.13,2.56,28.44,2.46,33.15-.12,5.37,1.16,14.07,4.16,28.21,2,9.59,5.37,28.38,4.84,46.43,0,.36-.07,9,5,20.46,4.64,10.43,10.49,51,9,81.22-1.49,29.37,2.22,64.63,2.27,65,2.92,17.93,3.28,18.64,3.43,18.93a10.26,10.26,0,0,1,.24,4.84c-.59,2.14-1.94,15.76-2.39,20.42-1.69,3-6.39,11.35-7,13.9-.26,1.1-3.68,6.08-7.78,11.36A2.73,2.73,0,0,1,262.53,546Z"/>
                <path class="cls-2" d="M154.82,117a37,37,0,0,1-5.84,3.23l-1.56.56c-.53.16-1.07.25-1.6.39a27.24,27.24,0,0,1-6.59,0c-.53-.14-1.08-.23-1.6-.39l-1.56-.56a37.54,37.54,0,0,1-5.85-3.23,58.47,58.47,0,0,1-5.36-4.06q-2.6-2.15-5-4.52a61.7,61.7,0,0,0,10,9,32.57,32.57,0,0,0,5.91,3.39l1.61.59c.54.18,1.12.29,1.67.43a23.65,23.65,0,0,0,6.86,0c.56-.14,1.13-.25,1.68-.43l1.61-.59a33.53,33.53,0,0,0,5.91-3.39,61.7,61.7,0,0,0,10-9q-2.41,2.37-5,4.52A58.47,58.47,0,0,1,154.82,117Z"/>
                <path class="cls-2" d="M125.77,62.72a20.91,20.91,0,0,0,4.59-.79,27.15,27.15,0,0,0,4.36-1.61h0a.12.12,0,0,0,.06-.06.14.14,0,0,0-.06-.18,29.67,29.67,0,0,0-4.29-1.7,31.13,31.13,0,0,0-4.48-1.2,11.32,11.32,0,0,0-2.33-.14,10.63,10.63,0,0,0-2.31.46,14,14,0,0,0-4.12,2.13,10,10,0,0,0,3.94,2.47A11.91,11.91,0,0,0,125.77,62.72Zm-4.34-4.86a10.54,10.54,0,0,1,4.47-.27,27.47,27.47,0,0,1,4.48.95,19.58,19.58,0,0,1,4,1.64,32.4,32.4,0,0,1-4.09,1.3,27.58,27.58,0,0,1-4.5.73,12.79,12.79,0,0,1-4.48-.49,11.4,11.4,0,0,1-4-2.09A19.73,19.73,0,0,1,121.43,57.86Z"/>
                <path class="cls-2" d="M151.48,60.32a27.4,27.4,0,0,0,4.35,1.61,21.1,21.1,0,0,0,4.6.79,11.91,11.91,0,0,0,4.63-.62A10,10,0,0,0,169,59.63a14,14,0,0,0-4.13-2.13,10.42,10.42,0,0,0-2.3-.46,11.41,11.41,0,0,0-2.34.14,31,31,0,0,0-4.47,1.2,30.25,30.25,0,0,0-4.3,1.7l-.06.07a.13.13,0,0,0,.07.17Zm4.33-1.78a27.92,27.92,0,0,1,4.48-.95,10.53,10.53,0,0,1,4.47.27A19.81,19.81,0,0,1,169,59.63a11.48,11.48,0,0,1-4,2.09,12.79,12.79,0,0,1-4.48.49,27.53,27.53,0,0,1-4.51-.73,32.92,32.92,0,0,1-4.09-1.3A19.83,19.83,0,0,1,155.81,58.54Z"/>
                <path class="cls-2" d="M137.09,81.07l0,0a8.86,8.86,0,0,1-.66-.93,1.8,1.8,0,0,1-.34-1,3.29,3.29,0,0,1,.24-1.09,7.08,7.08,0,0,1,.48-1l0,0a4.77,4.77,0,0,0-1,2.14,1.64,1.64,0,0,0,.34,1.23A2.32,2.32,0,0,0,137.09,81.07Z"/>
                <path class="cls-2" d="M149.46,79.41a3.1,3.1,0,0,1-.08.42,7.3,7.3,0,0,1-.3.9l0,0a1.67,1.67,0,0,0,.67-.79,1.36,1.36,0,0,0,.11-.53,1.26,1.26,0,0,0-.15-.56,5.46,5.46,0,0,0-1.32-1.5l0,0a6.36,6.36,0,0,1,1,1.61A.77.77,0,0,1,149.46,79.41Z"/>
                <path class="cls-2" d="M141.12,82.06a3.46,3.46,0,0,0,2.66.8,4.4,4.4,0,0,0,1.69-.58,11.68,11.68,0,0,1,1.92-.86c.34,0,.89-.8.32-.89a2.41,2.41,0,0,0-1.16.17,4.62,4.62,0,0,1-1.21,1.21,3.31,3.31,0,0,1-1.84.5,6.18,6.18,0,0,1-2.05-.67s-1.69-1.47-2.62-1.49-.92.41-.92.41a2.94,2.94,0,0,0,1.77.84A8.68,8.68,0,0,1,141.12,82.06Z"/>
                <path class="cls-2" d="M133.23,95.7a.15.15,0,0,0,.09.18c.26.09,6.48,2.32,9.48,2.32s9.47-2.23,9.75-2.32a.14.14,0,0,0,.08-.18.12.12,0,0,0-.16-.08,21.57,21.57,0,0,0-3-2.44,14.15,14.15,0,0,0-1.79-1,7.12,7.12,0,0,0-2.08-.65s0,0,0,0a11.84,11.84,0,0,0-1.44.29,5,5,0,0,0-1.22.49,4.8,4.8,0,0,0-1.22-.49,11.47,11.47,0,0,0-1.44-.29,0,0,0,0,0,0,0,7.12,7.12,0,0,0-2.08.65,14.15,14.15,0,0,0-1.79,1,21.57,21.57,0,0,0-3,2.44A.13.13,0,0,0,133.23,95.7Zm9.57,2.22c-2.55,0-7.63-1.69-9-2.18,1.45-.28,2.91-.54,4.38-.77a44.65,44.65,0,0,1,4.77-.56,44.65,44.65,0,0,1,4.77.56c1.47.23,2.92.49,4.38.77C150.63,96.22,145.34,97.92,142.8,97.92Zm-6.3-4.61a12.23,12.23,0,0,1,1.77-1,7,7,0,0,1,2-.61,10.41,10.41,0,0,1,1.37.29,4,4,0,0,1,1.17.48.14.14,0,0,0,.11.06H143a.17.17,0,0,0,.1,0l0,0a3.78,3.78,0,0,1,1.16-.48,10.77,10.77,0,0,1,1.37-.29,7,7,0,0,1,2,.61,12.23,12.23,0,0,1,1.77,1,22.07,22.07,0,0,1,2.89,2.32c-1.5-.28-3-.54-4.53-.76a47.44,47.44,0,0,0-4.78-.46h0a47.72,47.72,0,0,0-4.78.46c-1.52.22-3,.48-4.53.76A22.07,22.07,0,0,1,136.5,93.31Z"/>
            </g>
        </g>
    </g>
</svg>