<svg xmlns="http://www.w3.org/2000/svg" viewBox="0 0 30.03 22.67">
    <defs>
        <style>.cls-1{fill:#c2c1c1;}.cls-2{fill:#cdcccc;}</style>
    </defs>
    <title>Gebiss (2)</title>
    <g id="Ebene_2" data-name="Ebene 2">
        <g id="Frau">
            <g id="Gebiss">
                <path class="cls-1" d="M2.22,11.23A7,7,0,0,0,.1,17.51a6.16,6.16,0,0,0,3.51,5s9.16.15,11.43.15,11.46.11,12.44-.46,4.65-6.43.87-11.16c0,0-8.28,3.33-13.12,3.33S4.07,13.16,2.22,11.23Z"/>
                <path class="cls-1" d="M1.23,2.62A1.36,1.36,0,0,0,.32,4.5c.8,1.77,2,4.57,2,5.18-.07.91,8.47,1.86,8.47,1.86L15,9.68h.68l4.05,1.71,8.36-.87s-.27-5.91.72-6.81S19.43,0,15.23,0C12,0,4.51,1.79,1.23,2.62Z"/>
                <path class="cls-2" d="M4.77,12.69a.43.43,0,0,0-.56,0C4.07,12.85,4,13,4,13s-.07.27-.2.6a2.42,2.42,0,0,0,.07-.6c-.06-.17-.28-.49-.4-.51a4.18,4.18,0,0,0-1,.08,9,9,0,0,0-.24,1,.4.4,0,0,0,0,.24,8.11,8.11,0,0,0,.54,1.3.38.38,0,0,0,.57.06l.13-.28a1.35,1.35,0,0,0,0,.35,2,2,0,0,1,0,.25.45.45,0,0,0,.83.13l0-.06a21,21,0,0,0,.93-2.36A2.16,2.16,0,0,0,4.77,12.69Z"/>
                <path class="cls-2" d="M15.11,12.26l-2.7.18a.27.27,0,0,0-.12,0l-.32.11a1.55,1.55,0,0,1,0-.21.45.45,0,0,0-.45-.44H10.24a.45.45,0,0,0-.33.14l-.46.49a14.27,14.27,0,0,0-1.69-.47A4.34,4.34,0,0,0,7,13.26H7a.45.45,0,0,0-.35-.56,4.77,4.77,0,0,0-.73-.09c-.27,0-.94,1.74-1.12,2.23a.43.43,0,0,0,0,.25,2.18,2.18,0,0,1-.16,1.35s-.14.29.24.12a6.33,6.33,0,0,0,1.59-1.28,9.6,9.6,0,0,1-.06,2c-.1.45.25.47.48.45a.57.57,0,0,0,.27-.13A22.62,22.62,0,0,0,9.44,15a2,2,0,0,0,.1-.36,10.81,10.81,0,0,0,.85,3.42c.6.93,1.19-.21,1.19-.21a3.48,3.48,0,0,0,.7-1.82c.18.7.53,1.79,1,2a.88.88,0,0,0,1.13-.26.46.46,0,0,0,.09-.17,20.56,20.56,0,0,0,.77-4.17C15.21,12.14,15.11,12.26,15.11,12.26Z"/>
                <path class="cls-2" d="M25.73,12.73a.44.44,0,0,1,.57,0c.13.12.25.26.2.31s.06.27.2.6a2,2,0,0,1-.07-.6c.06-.17.28-.49.4-.51a4.76,4.76,0,0,1,1,.07,10,10,0,0,1,.24,1,.49.49,0,0,1,0,.24,8.11,8.11,0,0,1-.54,1.3.38.38,0,0,1-.57.06L27,14.93a2,2,0,0,1,0,.35s0,.12-.06.24a.44.44,0,0,1-.82.13l0-.05a17.72,17.72,0,0,1-.93-2.36C25.18,13.15,25.49,12.9,25.73,12.73Z"/>
                <path class="cls-2" d="M15.39,12.29l2.7.19.12,0,.33.12c0-.08,0-.15,0-.22A.44.44,0,0,1,19,12h1.28a.47.47,0,0,1,.33.14l.46.49a14.76,14.76,0,0,1,1.69-.48,4.49,4.49,0,0,1,.76,1.18h0a.44.44,0,0,1,.35-.56,4.81,4.81,0,0,1,.73-.1c.27,0,.94,1.75,1.12,2.24a.43.43,0,0,1,0,.25,2.18,2.18,0,0,0,.16,1.35s.13.29-.24.12a6.33,6.33,0,0,1-1.59-1.28,10.21,10.21,0,0,0,.05,2c.11.45-.25.48-.47.45a.43.43,0,0,1-.27-.13A21.74,21.74,0,0,1,21.07,15a1.39,1.39,0,0,1-.1-.37,10.87,10.87,0,0,1-.85,3.43c-.6.93-1.19-.21-1.19-.21a3.48,3.48,0,0,1-.7-1.82c-.18.7-.53,1.78-1,2.05a.88.88,0,0,1-1.13-.26.56.56,0,0,1-.09-.17,20,20,0,0,1-.77-4.17C15.3,12.18,15.39,12.29,15.39,12.29Z"/>
                <path class="cls-2" d="M15,8.55c-.38-.53-1.13-1.44-1.51-1.48s-1.14-.22-1.59.19a5.09,5.09,0,0,0-1,2.27c0,.22,0,.77,0,1.33A14,14,0,0,0,9.72,7.6a.47.47,0,0,0-.42-.26c-.85,0-1.07.25-1.41,1.21a7.87,7.87,0,0,0-.28,2.5c-.12-.59-.28-1.4-.36-1.93a6.87,6.87,0,0,0-1.14-2.5,2.9,2.9,0,0,0-.61.27.43.43,0,0,0-.25.36,20,20,0,0,0,0,2.8L4.91,8.66a.53.53,0,0,0-.11-.21c-.15-.14-.42-.41-.54-.33a.77.77,0,0,0-.2.44s0,.35,0,.79a3.68,3.68,0,0,0-.53-1.07c-.28-.27-.43.41-.43.41s-.08.39-.13.75L2.8,9.29a.45.45,0,0,0-.7,0A1.13,1.13,0,0,0,2,9.48a7.54,7.54,0,0,0-.11,1.74.47.47,0,0,0,0,.17c.11.26.46,1,.64,1.09a2.12,2.12,0,0,0,1-.06.54.54,0,0,0,0,.11.46.46,0,0,0,.66.16,1.45,1.45,0,0,0,.36-.33A1.53,1.53,0,0,0,5,12.8a.45.45,0,0,0,.61,0l0,0,0-.07a1.08,1.08,0,0,0,1,.22A2.22,2.22,0,0,0,7.68,12a.05.05,0,0,1,0,0v0a.9.9,0,0,0,.38.52.35.35,0,0,0,.14.06,4.61,4.61,0,0,0,1.71.06,1.07,1.07,0,0,0,.94-.74,2.1,2.1,0,0,0,0,.28.42.42,0,0,0,.08.26.79.79,0,0,0,.64.32c.53,0,2.57-.15,2.91-.12a.5.5,0,0,0,.41-.15.46.46,0,0,0,.13-.28C15.11,11.59,15.33,9,15,8.55Z"/>
                <path class="cls-2" d="M15.36,8.62c.38-.53,1.14-1.43,1.51-1.47s1.14-.23,1.59.19a4.93,4.93,0,0,1,1,2.27c0,.21,0,.77,0,1.33a13.87,13.87,0,0,1,1.14-3.26.43.43,0,0,1,.42-.26c.85,0,1.07.25,1.41,1.2a7.94,7.94,0,0,1,.28,2.51c.12-.6.28-1.4.36-1.94A6.89,6.89,0,0,1,24.25,6.7a3.32,3.32,0,0,1,.61.26.45.45,0,0,1,.25.36,20.09,20.09,0,0,1,0,2.81l.33-1.39a.45.45,0,0,1,.12-.21c.14-.15.42-.41.53-.33s.2.43.2.43,0,.36.05.79a3.62,3.62,0,0,1,.53-1.06c.28-.27.43.41.43.41s.08.39.13.75l.12-.16a.46.46,0,0,1,.7,0,1.22,1.22,0,0,1,.12.19,7,7,0,0,1,.11,1.74.53.53,0,0,1,0,.17c-.11.25-.46,1-.64,1.09a2.38,2.38,0,0,1-.94-.06l-.06.1a.45.45,0,0,1-.66.16,1.42,1.42,0,0,1-.36-.32,1.76,1.76,0,0,1-.43.44.46.46,0,0,1-.61-.05l-.05,0-.05-.07a1.07,1.07,0,0,1-1,.22,2.09,2.09,0,0,1-.92-.86.05.05,0,0,1,0,0v0a.94.94,0,0,1-.37.52.47.47,0,0,1-.15.06,4.61,4.61,0,0,1-1.71.06,1.07,1.07,0,0,1-.94-.74v.28a.45.45,0,0,1-.09.25.76.76,0,0,1-.64.32c-.52,0-2.57-.15-2.91-.11a.53.53,0,0,1-.41-.15.52.52,0,0,1-.13-.28C15.25,11.67,15,9.09,15.36,8.62Z"/>
            </g>
        </g>
    </g>
</svg>