<svg xmlns="http://www.w3.org/2000/svg" viewBox="0 0 88.65 145.65">
    <defs>
        <style>.cls-1{fill:#c1c1c1;}</style>
    </defs>
    <title>Harnorgane (2)</title>
    <g id="Ebene_2" data-name="Ebene 2">
        <g id="Frau">
            <g id="Harnorgane">
                <g id="Nieren">
                    <path class="cls-1" d="M21.18,15.28a.77.77,0,0,1-.91-.47,2.79,2.79,0,0,0-2.64-1.49,3.27,3.27,0,0,0-1.06.16l-1.11-1.1c1.24-1.51,2.62-3.27,2.61-5.18C18,1.11,14,0,9.79,0,4.39,0,0,6.94,0,15.49S4.39,31,9.79,31c3.82,0,6.68-1.37,7.71-6v5a.89.89,0,0,0,.14.46.88.88,0,0,0,.71.39A.86.86,0,0,0,19.2,30V17.29a2.63,2.63,0,0,0,.62-.46,1.4,1.4,0,0,1,.75-.41c1.77-.31,15.28-3.86,16-3.85V11.34Z"/>
                    <path class="cls-1" d="M78.86,0c-4.23,0-8.24,1.11-8.27,7.2,0,1.91,1.36,3.67,2.6,5.18l-1.1,1.1A3.36,3.36,0,0,0,71,13.32a2.8,2.8,0,0,0-2.67,1.54.72.72,0,0,1-.85.45L49.65,10.75V12c.65,0,15.7,3.93,18.08,4.38A2.86,2.86,0,0,1,69,17a2.49,2.49,0,0,0,.43.29V30a.88.88,0,0,0,.15.48.87.87,0,0,0,.7.37.84.84,0,0,0,.7-.38.82.82,0,0,0,.15-.47V25c1,4.61,3.89,6,7.71,6,5.41,0,9.79-6.94,9.79-15.5S84.27,0,78.86,0Z"/>
                </g>
                <g id="Harnleiter">
                    <path class="cls-1" d="M18.35,30.86a1.19,1.19,0,0,1-1-.55c.26,6.4,1.13,30.27.09,39.06s11.66,43.29,13.14,49a3.62,3.62,0,0,1,1.65-2.12c-1.74-6.93-13.77-38.89-12.85-46.66,1.06-9,.2-32.6-.07-39.24A1.16,1.16,0,0,1,18.35,30.86Z"/>
                    <path class="cls-1" d="M70.31,31.05a1.18,1.18,0,0,1-1-.53c-.27,6.63-1.13,30.25-.07,39.25.91,7.69-12.28,38.39-14,45.42a6.86,6.86,0,0,1,1.92,1.58C58.8,110.28,72.2,78.05,71.2,69.55c-1-8.78-.17-32.62.09-39A1.15,1.15,0,0,1,70.31,31.05Z"/>
                </g>
                <path id="Blase" class="cls-1" d="M58.83,121.37c0-6-6.28-8.41-14.28-8.41s-14.72,2.37-14.72,8.41c0,5.52,5.07,10.25,12.06,11l0,.06.25,11.2a2,2,0,0,0,4,0l.25-11.29,0,0C53.32,131.37,58.83,126.74,58.83,121.37Z"/>
            </g>
        </g>
    </g>
</svg>